%TF.GenerationSoftware,KiCad,Pcbnew,9.0.0*%
%TF.CreationDate,2025-08-19T21:32:59+09:00*%
%TF.ProjectId,xlyo3.0,786c796f-332e-4302-9e6b-696361645f70,rev?*%
%TF.SameCoordinates,Original*%
%TF.FileFunction,Soldermask,Bot*%
%TF.FilePolarity,Negative*%
%FSLAX46Y46*%
G04 Gerber Fmt 4.6, Leading zero omitted, Abs format (unit mm)*
G04 Created by KiCad (PCBNEW 9.0.0) date 2025-08-19 21:32:59*
%MOMM*%
%LPD*%
G01*
G04 APERTURE LIST*
G04 Aperture macros list*
%AMRoundRect*
0 Rectangle with rounded corners*
0 $1 Rounding radius*
0 $2 $3 $4 $5 $6 $7 $8 $9 X,Y pos of 4 corners*
0 Add a 4 corners polygon primitive as box body*
4,1,4,$2,$3,$4,$5,$6,$7,$8,$9,$2,$3,0*
0 Add four circle primitives for the rounded corners*
1,1,$1+$1,$2,$3*
1,1,$1+$1,$4,$5*
1,1,$1+$1,$6,$7*
1,1,$1+$1,$8,$9*
0 Add four rect primitives between the rounded corners*
20,1,$1+$1,$2,$3,$4,$5,0*
20,1,$1+$1,$4,$5,$6,$7,0*
20,1,$1+$1,$6,$7,$8,$9,0*
20,1,$1+$1,$8,$9,$2,$3,0*%
%AMFreePoly0*
4,1,6,0.600000,0.200000,0.000000,-0.400000,-0.600000,0.200000,-0.600000,0.400000,0.600000,0.400000,0.600000,0.200000,0.600000,0.200000,$1*%
%AMFreePoly1*
4,1,6,0.600000,-0.250000,-0.600000,-0.250000,-0.600000,1.000000,0.000000,0.400000,0.600000,1.000000,0.600000,-0.250000,0.600000,-0.250000,$1*%
G04 Aperture macros list end*
%ADD10C,0.100000*%
%ADD11C,0.000000*%
%ADD12C,1.900000*%
%ADD13C,3.050000*%
%ADD14C,1.600000*%
%ADD15C,5.050000*%
%ADD16RoundRect,0.250000X1.025000X1.000000X-1.025000X1.000000X-1.025000X-1.000000X1.025000X-1.000000X0*%
%ADD17R,1.300000X1.778000*%
%ADD18R,1.300000X1.400000*%
%ADD19O,1.300000X1.778000*%
%ADD20RoundRect,0.250000X0.835780X1.162797X-1.183076X0.806818X-0.835780X-1.162797X1.183076X-0.806818X0*%
%ADD21RoundRect,0.250000X0.847616X-1.154198X1.132920X0.875852X-0.847616X1.154198X-1.132920X-0.875852X0*%
%ADD22O,1.700000X1.700000*%
%ADD23R,1.700000X1.700000*%
%ADD24R,2.000000X2.000000*%
%ADD25C,2.000000*%
%ADD26R,3.000000X2.500000*%
%ADD27RoundRect,0.250000X0.952747X1.069064X-1.092260X0.926064X-0.952747X-1.069064X1.092260X-0.926064X0*%
%ADD28O,1.905000X2.159000*%
%ADD29R,1.905000X2.159000*%
%ADD30RoundRect,0.250000X1.075931X0.944985X-0.971259X1.052274X-1.075931X-0.944985X0.971259X-1.052274X0*%
%ADD31RoundRect,0.250000X-0.625000X0.375000X-0.625000X-0.375000X0.625000X-0.375000X0.625000X0.375000X0*%
%ADD32R,1.778000X1.300000*%
%ADD33R,1.400000X1.300000*%
%ADD34O,1.778000X1.300000*%
%ADD35C,1.397000*%
%ADD36RoundRect,0.250000X-1.162797X0.835780X-0.806818X-1.183076X1.162797X-0.835780X0.806818X1.183076X0*%
%ADD37C,0.900000*%
%ADD38R,1.000000X0.700000*%
%ADD39R,2.800000X1.000000*%
%ADD40FreePoly0,214.000000*%
%ADD41FreePoly0,34.000000*%
%ADD42FreePoly1,214.000000*%
%ADD43FreePoly1,34.000000*%
G04 APERTURE END LIST*
D10*
%TO.C,U1*%
X184454867Y-128859253D02*
X183612564Y-129427393D01*
X183044425Y-128585090D01*
X183886729Y-128016951D01*
X184454867Y-128859253D01*
G36*
X184454867Y-128859253D02*
G01*
X183612564Y-129427393D01*
X183044425Y-128585090D01*
X183886729Y-128016951D01*
X184454867Y-128859253D01*
G37*
X186560623Y-127438903D02*
X185718321Y-128007043D01*
X185150181Y-127164742D01*
X185992483Y-126596601D01*
X186560623Y-127438903D01*
G36*
X186560623Y-127438903D02*
G01*
X185718321Y-128007043D01*
X185150181Y-127164742D01*
X185992483Y-126596601D01*
X186560623Y-127438903D01*
G37*
X188666378Y-126018553D02*
X187824076Y-126586693D01*
X187255935Y-125744391D01*
X188098238Y-125176251D01*
X188666378Y-126018553D01*
G36*
X188666378Y-126018553D02*
G01*
X187824076Y-126586693D01*
X187255935Y-125744391D01*
X188098238Y-125176251D01*
X188666378Y-126018553D01*
G37*
X190704407Y-138124577D02*
X189862104Y-138692716D01*
X189293964Y-137850414D01*
X190136267Y-137282274D01*
X190704407Y-138124577D01*
G36*
X190704407Y-138124577D02*
G01*
X189862104Y-138692716D01*
X189293964Y-137850414D01*
X190136267Y-137282274D01*
X190704407Y-138124577D01*
G37*
X190772134Y-124598204D02*
X189929833Y-125166343D01*
X189361692Y-124324042D01*
X190203996Y-123755902D01*
X190772134Y-124598204D01*
G36*
X190772134Y-124598204D02*
G01*
X189929833Y-125166343D01*
X189361692Y-124324042D01*
X190203996Y-123755902D01*
X190772134Y-124598204D01*
G37*
X192810163Y-136704228D02*
X191967860Y-137272368D01*
X191399721Y-136430064D01*
X192242023Y-135861925D01*
X192810163Y-136704228D01*
G36*
X192810163Y-136704228D02*
G01*
X191967860Y-137272368D01*
X191399721Y-136430064D01*
X192242023Y-135861925D01*
X192810163Y-136704228D01*
G37*
X192877890Y-123177853D02*
X192035585Y-123745993D01*
X191467446Y-122903691D01*
X192309749Y-122335551D01*
X192877890Y-123177853D01*
G36*
X192877890Y-123177853D02*
G01*
X192035585Y-123745993D01*
X191467446Y-122903691D01*
X192309749Y-122335551D01*
X192877890Y-123177853D01*
G37*
X194915918Y-135283877D02*
X194073616Y-135852019D01*
X193505476Y-135009716D01*
X194347778Y-134441576D01*
X194915918Y-135283877D01*
G36*
X194915918Y-135283877D02*
G01*
X194073616Y-135852019D01*
X193505476Y-135009716D01*
X194347778Y-134441576D01*
X194915918Y-135283877D01*
G37*
X194983644Y-121757503D02*
X194141342Y-122325642D01*
X193573203Y-121483340D01*
X194415505Y-120915202D01*
X194983644Y-121757503D01*
G36*
X194983644Y-121757503D02*
G01*
X194141342Y-122325642D01*
X193573203Y-121483340D01*
X194415505Y-120915202D01*
X194983644Y-121757503D01*
G37*
X197021673Y-133863527D02*
X196179371Y-134431665D01*
X195611232Y-133589366D01*
X196453535Y-133021224D01*
X197021673Y-133863527D01*
G36*
X197021673Y-133863527D02*
G01*
X196179371Y-134431665D01*
X195611232Y-133589366D01*
X196453535Y-133021224D01*
X197021673Y-133863527D01*
G37*
X197089399Y-120337152D02*
X196247098Y-120905292D01*
X195678956Y-120062991D01*
X196521259Y-119494852D01*
X197089399Y-120337152D01*
G36*
X197089399Y-120337152D02*
G01*
X196247098Y-120905292D01*
X195678956Y-120062991D01*
X196521259Y-119494852D01*
X197089399Y-120337152D01*
G37*
X199127429Y-132443176D02*
X198285127Y-133011317D01*
X197716984Y-132169015D01*
X198559290Y-131600875D01*
X199127429Y-132443176D01*
G36*
X199127429Y-132443176D02*
G01*
X198285127Y-133011317D01*
X197716984Y-132169015D01*
X198559290Y-131600875D01*
X199127429Y-132443176D01*
G37*
X199195158Y-118916803D02*
X198352852Y-119484943D01*
X197784713Y-118642642D01*
X198627015Y-118074501D01*
X199195158Y-118916803D01*
G36*
X199195158Y-118916803D02*
G01*
X198352852Y-119484943D01*
X197784713Y-118642642D01*
X198627015Y-118074501D01*
X199195158Y-118916803D01*
G37*
X201233186Y-131022827D02*
X200390883Y-131590966D01*
X199822743Y-130748666D01*
X200665044Y-130180526D01*
X201233186Y-131022827D01*
G36*
X201233186Y-131022827D02*
G01*
X200390883Y-131590966D01*
X199822743Y-130748666D01*
X200665044Y-130180526D01*
X201233186Y-131022827D01*
G37*
X201300910Y-117496452D02*
X200458607Y-118064594D01*
X199890469Y-117222291D01*
X200732771Y-116654153D01*
X201300910Y-117496452D01*
G36*
X201300910Y-117496452D02*
G01*
X200458607Y-118064594D01*
X199890469Y-117222291D01*
X200732771Y-116654153D01*
X201300910Y-117496452D01*
G37*
X203338939Y-129602478D02*
X202496637Y-130170616D01*
X201928498Y-129328315D01*
X202770800Y-128760176D01*
X203338939Y-129602478D01*
G36*
X203338939Y-129602478D02*
G01*
X202496637Y-130170616D01*
X201928498Y-129328315D01*
X202770800Y-128760176D01*
X203338939Y-129602478D01*
G37*
X203406666Y-116076102D02*
X202564364Y-116644242D01*
X201996224Y-115801941D01*
X202838526Y-115233799D01*
X203406666Y-116076102D01*
G36*
X203406666Y-116076102D02*
G01*
X202564364Y-116644242D01*
X201996224Y-115801941D01*
X202838526Y-115233799D01*
X203406666Y-116076102D01*
G37*
X205444696Y-128182127D02*
X204602393Y-128750267D01*
X204034252Y-127907965D01*
X204876557Y-127339825D01*
X205444696Y-128182127D01*
G36*
X205444696Y-128182127D02*
G01*
X204602393Y-128750267D01*
X204034252Y-127907965D01*
X204876557Y-127339825D01*
X205444696Y-128182127D01*
G37*
X205512421Y-114655754D02*
X204670119Y-115223893D01*
X204101979Y-114381590D01*
X204944282Y-113813450D01*
X205512421Y-114655754D01*
G36*
X205512421Y-114655754D02*
G01*
X204670119Y-115223893D01*
X204101979Y-114381590D01*
X204944282Y-113813450D01*
X205512421Y-114655754D01*
G37*
X207550450Y-126761776D02*
X206708146Y-127329916D01*
X206140008Y-126487614D01*
X206982309Y-125919475D01*
X207550450Y-126761776D01*
G36*
X207550450Y-126761776D02*
G01*
X206708146Y-127329916D01*
X206140008Y-126487614D01*
X206982309Y-125919475D01*
X207550450Y-126761776D01*
G37*
X207618178Y-113235404D02*
X206775875Y-113803544D01*
X206207735Y-112961241D01*
X207050038Y-112393102D01*
X207618178Y-113235404D01*
G36*
X207618178Y-113235404D02*
G01*
X206775875Y-113803544D01*
X206207735Y-112961241D01*
X207050038Y-112393102D01*
X207618178Y-113235404D01*
G37*
X209656207Y-125341427D02*
X208813904Y-125909567D01*
X208245764Y-125067265D01*
X209088066Y-124499125D01*
X209656207Y-125341427D01*
G36*
X209656207Y-125341427D02*
G01*
X208813904Y-125909567D01*
X208245764Y-125067265D01*
X209088066Y-124499125D01*
X209656207Y-125341427D01*
G37*
X211761961Y-123921076D02*
X210919659Y-124489217D01*
X210351519Y-123646915D01*
X211193821Y-123078775D01*
X211761961Y-123921076D01*
G36*
X211761961Y-123921076D02*
G01*
X210919659Y-124489217D01*
X210351519Y-123646915D01*
X211193821Y-123078775D01*
X211761961Y-123921076D01*
G37*
X213867717Y-122500728D02*
X213025413Y-123068867D01*
X212457275Y-122226565D01*
X213299578Y-121658425D01*
X213867717Y-122500728D01*
G36*
X213867717Y-122500728D02*
G01*
X213025413Y-123068867D01*
X212457275Y-122226565D01*
X213299578Y-121658425D01*
X213867717Y-122500728D01*
G37*
D11*
%TO.C,G\u002A\u002A\u002A*%
G36*
X216866989Y-130159345D02*
G01*
X217013487Y-130188094D01*
X217154064Y-130236858D01*
X217283353Y-130304565D01*
X217340936Y-130344646D01*
X217444979Y-130437516D01*
X217537996Y-130547460D01*
X217616611Y-130669593D01*
X217677440Y-130799034D01*
X217717103Y-130930902D01*
X217726098Y-130979322D01*
X217738157Y-131131677D01*
X217726711Y-131283545D01*
X217692674Y-131431696D01*
X217636963Y-131572900D01*
X217560499Y-131703920D01*
X217464198Y-131821533D01*
X217430358Y-131854583D01*
X217325490Y-131938364D01*
X217207149Y-132010469D01*
X217082578Y-132066853D01*
X216959022Y-132103475D01*
X216956811Y-132103937D01*
X216802463Y-132123498D01*
X216648629Y-132118678D01*
X216497956Y-132090184D01*
X216353089Y-132038737D01*
X216216674Y-131965042D01*
X216091355Y-131869815D01*
X216008918Y-131784085D01*
X215930545Y-131677203D01*
X215863806Y-131559315D01*
X215812581Y-131437313D01*
X215780746Y-131318086D01*
X215766606Y-131180630D01*
X215772931Y-131032066D01*
X215800084Y-130885226D01*
X215847053Y-130745486D01*
X215912823Y-130618220D01*
X215952481Y-130560112D01*
X216052137Y-130445360D01*
X216168770Y-130346057D01*
X216298825Y-130264606D01*
X216438745Y-130203403D01*
X216584972Y-130164850D01*
X216719934Y-130151684D01*
X216866989Y-130159345D01*
G37*
G36*
X218737265Y-125670571D02*
G01*
X218888053Y-125710371D01*
X219033017Y-125773461D01*
X219169855Y-125859480D01*
X219191353Y-125875457D01*
X219222929Y-125900191D01*
X219249097Y-125923849D01*
X219273726Y-125950849D01*
X219300682Y-125985601D01*
X219333836Y-126032524D01*
X219377051Y-126096030D01*
X219412785Y-126149323D01*
X219447813Y-126203526D01*
X219473093Y-126246329D01*
X219491389Y-126282850D01*
X219505457Y-126318205D01*
X219518062Y-126357519D01*
X219533841Y-126415256D01*
X219553079Y-126514505D01*
X219561626Y-126616860D01*
X219560658Y-126732656D01*
X219560448Y-126737671D01*
X219558001Y-126829242D01*
X219559636Y-126904172D01*
X219566109Y-126970417D01*
X219578190Y-127035940D01*
X219596637Y-127108694D01*
X219609602Y-127151261D01*
X219665001Y-127283120D01*
X219739448Y-127405910D01*
X219829710Y-127514857D01*
X219932550Y-127605178D01*
X219948026Y-127616543D01*
X219989846Y-127647220D01*
X220040329Y-127684217D01*
X220091734Y-127721866D01*
X220149794Y-127765224D01*
X220223091Y-127824244D01*
X220283976Y-127880623D01*
X220338156Y-127940290D01*
X220391328Y-128009170D01*
X220449203Y-128093186D01*
X220480465Y-128141576D01*
X220544890Y-128254047D01*
X220593140Y-128361782D01*
X220628163Y-128472004D01*
X220652924Y-128591953D01*
X220660782Y-128648524D01*
X220669072Y-128820992D01*
X220654578Y-128991762D01*
X220618240Y-129158044D01*
X220560992Y-129317040D01*
X220483776Y-129465960D01*
X220387527Y-129602007D01*
X220273185Y-129722393D01*
X220260485Y-129732709D01*
X220226116Y-129758288D01*
X220174402Y-129795441D01*
X220107428Y-129842712D01*
X220027283Y-129898644D01*
X219936055Y-129961786D01*
X219835832Y-130030679D01*
X219728700Y-130103872D01*
X219616747Y-130179905D01*
X219534484Y-130235590D01*
X219409699Y-130319876D01*
X219302742Y-130391682D01*
X219211721Y-130452085D01*
X219134743Y-130502155D01*
X219069921Y-130542972D01*
X219015358Y-130575601D01*
X218969162Y-130601120D01*
X218929446Y-130620602D01*
X218894315Y-130635122D01*
X218861878Y-130645749D01*
X218830243Y-130653561D01*
X218797516Y-130659630D01*
X218761811Y-130665029D01*
X218725011Y-130668216D01*
X218645843Y-130666356D01*
X218557450Y-130655983D01*
X218468411Y-130638591D01*
X218387291Y-130615668D01*
X218322668Y-130588701D01*
X218281432Y-130564486D01*
X218186755Y-130491463D01*
X218101277Y-130401583D01*
X218030088Y-130300669D01*
X217978274Y-130194543D01*
X217967805Y-130164470D01*
X217941785Y-130046944D01*
X217935214Y-129923539D01*
X217947614Y-129800245D01*
X217978505Y-129683059D01*
X218027411Y-129577970D01*
X218045548Y-129548223D01*
X218081444Y-129495143D01*
X218119290Y-129449120D01*
X218163975Y-129405108D01*
X218220386Y-129358052D01*
X218293406Y-129302900D01*
X218359476Y-129254060D01*
X218408053Y-129216749D01*
X218441939Y-129187980D01*
X218464037Y-129164693D01*
X218477252Y-129143825D01*
X218484488Y-129122319D01*
X218488646Y-129097111D01*
X218490479Y-129074035D01*
X218481545Y-129009798D01*
X218451771Y-128958543D01*
X218402841Y-128922405D01*
X218336436Y-128903531D01*
X218278665Y-128896145D01*
X217707141Y-129281621D01*
X217135619Y-129667095D01*
X217024348Y-129648578D01*
X216870390Y-129629360D01*
X216674086Y-129624917D01*
X216484819Y-129644440D01*
X216301676Y-129688100D01*
X216123735Y-129756069D01*
X215950081Y-129848516D01*
X215898670Y-129881219D01*
X215744093Y-129998454D01*
X215608109Y-130132495D01*
X215491157Y-130282713D01*
X215393681Y-130448488D01*
X215316124Y-130629192D01*
X215258929Y-130824197D01*
X215231088Y-130944164D01*
X214167226Y-131653822D01*
X214129947Y-131678687D01*
X213961376Y-131791117D01*
X213812203Y-131890555D01*
X213681138Y-131977828D01*
X213566883Y-132053761D01*
X213468151Y-132119185D01*
X213383642Y-132174922D01*
X213312067Y-132221803D01*
X213252131Y-132260651D01*
X213202543Y-132292298D01*
X213162008Y-132317565D01*
X213129234Y-132337283D01*
X213102926Y-132352276D01*
X213081793Y-132363373D01*
X213064543Y-132371399D01*
X213049877Y-132377182D01*
X213036506Y-132381548D01*
X213023140Y-132385325D01*
X213021843Y-132385677D01*
X212985353Y-132395244D01*
X212951635Y-132402682D01*
X212918430Y-132407637D01*
X212883477Y-132409753D01*
X212844513Y-132408665D01*
X212799276Y-132404020D01*
X212745505Y-132395459D01*
X212680939Y-132382621D01*
X212603314Y-132365148D01*
X212510372Y-132342687D01*
X212399847Y-132314872D01*
X212269482Y-132281350D01*
X212117014Y-132241760D01*
X212003354Y-132212012D01*
X211883591Y-132180042D01*
X211783497Y-132152336D01*
X211700406Y-132127992D01*
X211631657Y-132106105D01*
X211574585Y-132085774D01*
X211526526Y-132066096D01*
X211484815Y-132046162D01*
X211446790Y-132025074D01*
X211409785Y-132001927D01*
X211289175Y-131909175D01*
X211183106Y-131798055D01*
X211096149Y-131673399D01*
X211029300Y-131537700D01*
X210983562Y-131393463D01*
X210959932Y-131243184D01*
X210959410Y-131089371D01*
X210982997Y-130934517D01*
X210984567Y-130927855D01*
X211030270Y-130779025D01*
X211093252Y-130647091D01*
X211175254Y-130529537D01*
X211278025Y-130423837D01*
X211403309Y-130327469D01*
X211493737Y-130271870D01*
X211621756Y-130212708D01*
X211755013Y-130174709D01*
X211899500Y-130155796D01*
X211935368Y-130153989D01*
X212050223Y-130156760D01*
X212162407Y-130173973D01*
X212276590Y-130206877D01*
X212397445Y-130256724D01*
X212529645Y-130324772D01*
X212558054Y-130340300D01*
X212685713Y-130402113D01*
X212804012Y-130444620D01*
X212917306Y-130468822D01*
X213029948Y-130475719D01*
X213146296Y-130466312D01*
X213148586Y-130465983D01*
X213171577Y-130463028D01*
X213192107Y-130460702D01*
X213211110Y-130458408D01*
X213229519Y-130455565D01*
X213248267Y-130451581D01*
X213268292Y-130445871D01*
X213290527Y-130437844D01*
X213315907Y-130426913D01*
X213345365Y-130412489D01*
X213379836Y-130393987D01*
X213420256Y-130370815D01*
X213467555Y-130342389D01*
X213522671Y-130308116D01*
X213586539Y-130267411D01*
X213660092Y-130219684D01*
X213744265Y-130164349D01*
X213839993Y-130100817D01*
X213948208Y-130028500D01*
X214069847Y-129946808D01*
X214205844Y-129855156D01*
X214357132Y-129752954D01*
X214524645Y-129639611D01*
X214709321Y-129514544D01*
X214912091Y-129377162D01*
X215133892Y-129226881D01*
X215375656Y-129063105D01*
X215526179Y-128961155D01*
X215751623Y-128808438D01*
X215957666Y-128668826D01*
X216145216Y-128541691D01*
X216315182Y-128426407D01*
X216468462Y-128322351D01*
X216605966Y-128228892D01*
X216728603Y-128145405D01*
X216837274Y-128071265D01*
X216932890Y-128005846D01*
X217016353Y-127948517D01*
X217088572Y-127898659D01*
X217150452Y-127855641D01*
X217202898Y-127818838D01*
X217246819Y-127787623D01*
X217283119Y-127761369D01*
X217312703Y-127739453D01*
X217336480Y-127721244D01*
X217355355Y-127706121D01*
X217370234Y-127693453D01*
X217382022Y-127682616D01*
X217391629Y-127672983D01*
X217399957Y-127663929D01*
X217453372Y-127597806D01*
X217513221Y-127499783D01*
X217557694Y-127390553D01*
X217589656Y-127264081D01*
X217590040Y-127262102D01*
X217603662Y-127180706D01*
X217609583Y-127110420D01*
X217607552Y-127042548D01*
X217597321Y-126968409D01*
X217578642Y-126879307D01*
X217570885Y-126842148D01*
X217555340Y-126693051D01*
X217562917Y-126541947D01*
X217592673Y-126392525D01*
X217643664Y-126248486D01*
X217714949Y-126113520D01*
X217805578Y-125991322D01*
X217854999Y-125940693D01*
X217938441Y-125870948D01*
X218032641Y-125805799D01*
X218129531Y-125750703D01*
X218221024Y-125711101D01*
X218272968Y-125694500D01*
X218427420Y-125662274D01*
X218582952Y-125654418D01*
X218737265Y-125670571D01*
G37*
%TD*%
D12*
%TO.C,SW9*%
X223500000Y-90000000D03*
D13*
X223000000Y-93800000D03*
D14*
X223000000Y-84850000D03*
D13*
X218000000Y-95900000D03*
D15*
X218000000Y-90000000D03*
D13*
X213000000Y-93800000D03*
D14*
X213000000Y-84850000D03*
D12*
X212500000Y-90000000D03*
D16*
X209500000Y-93800000D03*
X221500000Y-96000000D03*
%TD*%
D17*
%TO.C,D6*%
X173000000Y-139000000D03*
D18*
X173000000Y-137780000D03*
X173000000Y-134230000D03*
D19*
X173000000Y-133000000D03*
%TD*%
D17*
%TO.C,D7*%
X175000000Y-139000000D03*
D18*
X175000000Y-137780000D03*
X175000000Y-134230000D03*
D19*
X175000000Y-133000000D03*
%TD*%
D12*
%TO.C,SW11*%
X170776443Y-123184935D03*
D13*
X170943902Y-127014029D03*
D14*
X169389751Y-118199999D03*
D13*
X166384524Y-129950366D03*
D15*
X165360000Y-124140000D03*
D13*
X161095824Y-128750510D03*
D14*
X159541673Y-119936481D03*
D12*
X159943557Y-125095065D03*
D20*
X157648997Y-129358279D03*
X169848716Y-129441078D03*
%TD*%
D12*
%TO.C,SW18*%
X250994548Y-134846474D03*
D13*
X247301116Y-133822483D03*
D14*
X256164015Y-135068082D03*
D13*
X245917418Y-128578879D03*
D15*
X251760000Y-129400000D03*
D13*
X248692847Y-123919802D03*
D14*
X257555746Y-125165401D03*
D12*
X252525452Y-123953526D03*
D21*
X249179953Y-120453864D03*
X245331286Y-132030900D03*
%TD*%
D22*
%TO.C,BT2*%
X194775000Y-111085000D03*
D23*
X194775000Y-113625000D03*
%TD*%
D24*
%TO.C,SW19*%
X245000000Y-85900000D03*
D25*
X245000000Y-90900000D03*
X245000000Y-88400000D03*
D26*
X252500000Y-82800000D03*
X252500000Y-94000000D03*
%TD*%
D12*
%TO.C,SW1*%
X164876443Y-89694935D03*
D13*
X165043902Y-93524029D03*
D14*
X163489751Y-84709999D03*
D13*
X160484524Y-96460366D03*
D15*
X159460000Y-90650000D03*
D13*
X155195824Y-95260510D03*
D14*
X153641673Y-86446481D03*
D12*
X154043557Y-91605065D03*
D20*
X151748997Y-95868279D03*
X163948716Y-95951078D03*
%TD*%
D12*
%TO.C,SW2*%
X185246602Y-75796339D03*
D13*
X185012895Y-79621961D03*
D14*
X184388574Y-70693763D03*
D13*
X180171563Y-82065628D03*
D15*
X179760000Y-76180000D03*
D13*
X175037254Y-80319526D03*
D14*
X174412934Y-71391328D03*
D12*
X174273398Y-76563661D03*
D27*
X171545780Y-80563673D03*
X183670013Y-81921237D03*
%TD*%
D12*
%TO.C,SW4*%
X223500000Y-73000000D03*
D13*
X223000000Y-76800000D03*
D14*
X223000000Y-67850000D03*
D13*
X218000000Y-78900000D03*
D15*
X218000000Y-73000000D03*
D13*
X213000000Y-76800000D03*
D14*
X213000000Y-67850000D03*
D12*
X212500000Y-73000000D03*
D16*
X209500000Y-76800000D03*
X221500000Y-79000000D03*
%TD*%
D28*
%TO.C,D20*%
X158976000Y-69000000D03*
D29*
X161500000Y-69000000D03*
%TD*%
D17*
%TO.C,D13*%
X220600000Y-121750000D03*
D18*
X220600000Y-120530000D03*
X220600000Y-116980000D03*
D19*
X220600000Y-115750000D03*
%TD*%
D12*
%TO.C,SW17*%
X239032462Y-127847848D03*
D13*
X238334271Y-131616472D03*
D14*
X238802678Y-122678738D03*
D13*
X233231218Y-133451914D03*
D15*
X233540000Y-127560000D03*
D13*
X228347976Y-131093112D03*
D14*
X228816383Y-122155378D03*
D12*
X228047538Y-127272152D03*
D30*
X224852772Y-130909937D03*
X236721188Y-133734953D03*
%TD*%
D17*
%TO.C,D10*%
X181000000Y-139000000D03*
D18*
X181000000Y-137780000D03*
X181000000Y-134230000D03*
D19*
X181000000Y-133000000D03*
%TD*%
D31*
%TO.C,R3*%
X151500000Y-109100000D03*
X151500000Y-111900000D03*
%TD*%
D12*
%TO.C,SW3*%
X205500000Y-66000000D03*
D13*
X205000000Y-69800000D03*
D14*
X205000000Y-60850000D03*
D13*
X200000000Y-71900000D03*
D15*
X200000000Y-66000000D03*
D13*
X195000000Y-69800000D03*
D14*
X195000000Y-60850000D03*
D12*
X194500000Y-66000000D03*
D16*
X191500000Y-69800000D03*
X203500000Y-72000000D03*
%TD*%
D32*
%TO.C,D17*%
X236000000Y-137000000D03*
D33*
X237220000Y-137000000D03*
X240770000Y-137000000D03*
D34*
X242000000Y-137000000D03*
%TD*%
D12*
%TO.C,SW15*%
X241500000Y-110000000D03*
D13*
X241000000Y-113800000D03*
D14*
X241000000Y-104850000D03*
D13*
X236000000Y-115900000D03*
D15*
X236000000Y-110000000D03*
D13*
X231000000Y-113800000D03*
D14*
X231000000Y-104850000D03*
D12*
X230500000Y-110000000D03*
D16*
X227500000Y-113800000D03*
X239500000Y-116000000D03*
%TD*%
D17*
%TO.C,D4*%
X162500000Y-80000000D03*
D18*
X162500000Y-78780000D03*
X162500000Y-75230000D03*
D19*
X162500000Y-74000000D03*
%TD*%
D17*
%TO.C,D15*%
X225200000Y-121750000D03*
D18*
X225200000Y-120530000D03*
X225200000Y-116980000D03*
D19*
X225200000Y-115750000D03*
%TD*%
D17*
%TO.C,D3*%
X160500000Y-80000000D03*
D18*
X160500000Y-78780000D03*
X160500000Y-75230000D03*
D19*
X160500000Y-74000000D03*
%TD*%
D12*
%TO.C,SW10*%
X241500000Y-93000000D03*
D13*
X241000000Y-96800000D03*
D14*
X241000000Y-87850000D03*
D13*
X236000000Y-98900000D03*
D15*
X236000000Y-93000000D03*
D13*
X231000000Y-96800000D03*
D14*
X231000000Y-87850000D03*
D12*
X230500000Y-93000000D03*
D16*
X227500000Y-96800000D03*
X239500000Y-99000000D03*
%TD*%
D35*
%TO.C,J2*%
X247400000Y-85400000D03*
X247400000Y-87400000D03*
X247400000Y-89400000D03*
X247400000Y-91400000D03*
%TD*%
D12*
%TO.C,SW13*%
X205500000Y-100000000D03*
D13*
X205000000Y-103800000D03*
D14*
X205000000Y-94850000D03*
D13*
X200000000Y-105900000D03*
D15*
X200000000Y-100000000D03*
D13*
X195000000Y-103800000D03*
D14*
X195000000Y-94850000D03*
D12*
X194500000Y-100000000D03*
D16*
X191500000Y-103800000D03*
X203500000Y-106000000D03*
%TD*%
D31*
%TO.C,R2*%
X151500000Y-104100000D03*
X151500000Y-106900000D03*
%TD*%
D12*
%TO.C,SW14*%
X223500000Y-107000000D03*
D13*
X223000000Y-110800000D03*
D14*
X223000000Y-101850000D03*
D13*
X218000000Y-112900000D03*
D15*
X218000000Y-107000000D03*
D13*
X213000000Y-110800000D03*
D14*
X213000000Y-101850000D03*
D12*
X212500000Y-107000000D03*
D16*
X209500000Y-110800000D03*
X221500000Y-113000000D03*
%TD*%
D12*
%TO.C,SW16*%
X146564935Y-118313557D03*
D13*
X150394029Y-118146098D03*
D14*
X141579999Y-119700249D03*
D13*
X153330366Y-122705476D03*
D15*
X147520000Y-123730000D03*
D13*
X152130510Y-127994176D03*
D14*
X143316481Y-129548327D03*
D12*
X148475065Y-129146443D03*
D36*
X152738279Y-131441003D03*
X152821078Y-119241284D03*
%TD*%
D32*
%TO.C,D16*%
X227000000Y-139000000D03*
D33*
X228220000Y-139000000D03*
X231770000Y-139000000D03*
D34*
X233000000Y-139000000D03*
%TD*%
D32*
%TO.C,D18*%
X236000000Y-139000000D03*
D33*
X237220000Y-139000000D03*
X240770000Y-139000000D03*
D34*
X242000000Y-139000000D03*
%TD*%
D17*
%TO.C,D5*%
X164500000Y-80000000D03*
D18*
X164500000Y-78780000D03*
X164500000Y-75230000D03*
D19*
X164500000Y-74000000D03*
%TD*%
D28*
%TO.C,D21*%
X164976000Y-69000000D03*
D29*
X167500000Y-69000000D03*
%TD*%
D31*
%TO.C,R1*%
X151500000Y-99100000D03*
X151500000Y-101900000D03*
%TD*%
D17*
%TO.C,D14*%
X222900000Y-121750000D03*
D18*
X222900000Y-120530000D03*
X222900000Y-116980000D03*
D19*
X222900000Y-115750000D03*
%TD*%
D17*
%TO.C,D9*%
X179000000Y-139000000D03*
D18*
X179000000Y-137780000D03*
X179000000Y-134230000D03*
D19*
X179000000Y-133000000D03*
%TD*%
D12*
%TO.C,SW5*%
X241500000Y-76000000D03*
D13*
X241000000Y-79800000D03*
D14*
X241000000Y-70850000D03*
D13*
X236000000Y-81900000D03*
D15*
X236000000Y-76000000D03*
D13*
X231000000Y-79800000D03*
D14*
X231000000Y-70850000D03*
D12*
X230500000Y-76000000D03*
D16*
X227500000Y-79800000D03*
X239500000Y-82000000D03*
%TD*%
D17*
%TO.C,D12*%
X218300000Y-121750000D03*
D18*
X218300000Y-120530000D03*
X218300000Y-116980000D03*
D19*
X218300000Y-115750000D03*
%TD*%
D17*
%TO.C,D1*%
X156500000Y-80000000D03*
D18*
X156500000Y-78780000D03*
X156500000Y-75230000D03*
D19*
X156500000Y-74000000D03*
%TD*%
D17*
%TO.C,D2*%
X158500000Y-80000000D03*
D18*
X158500000Y-78780000D03*
X158500000Y-75230000D03*
D19*
X158500000Y-74000000D03*
%TD*%
D37*
%TO.C,PSW1*%
X247960000Y-103350000D03*
X247910000Y-106350000D03*
D38*
X246110000Y-102600000D03*
X246110000Y-105600000D03*
X246110000Y-107100000D03*
D39*
X248010000Y-108700000D03*
X248010000Y-100750000D03*
%TD*%
D12*
%TO.C,SW6*%
X167826443Y-106444935D03*
D13*
X167993902Y-110274029D03*
D14*
X166439751Y-101459999D03*
D13*
X163434524Y-113210366D03*
D15*
X162410000Y-107400000D03*
D13*
X158145824Y-112010510D03*
D14*
X156591673Y-103196481D03*
D12*
X156993557Y-108355065D03*
D20*
X154698997Y-112618279D03*
X166898716Y-112701078D03*
%TD*%
D12*
%TO.C,SW12*%
X187616602Y-109706339D03*
D13*
X187382895Y-113531961D03*
D14*
X186758574Y-104603763D03*
D13*
X182541563Y-115975628D03*
D15*
X182130000Y-110090000D03*
D13*
X177407254Y-114229526D03*
D14*
X176782934Y-105301328D03*
D12*
X176643398Y-110473661D03*
D27*
X173915780Y-114473673D03*
X186040013Y-115831237D03*
%TD*%
D12*
%TO.C,SW7*%
X186426602Y-92746339D03*
D13*
X186192895Y-96571961D03*
D14*
X185568574Y-87643763D03*
D13*
X181351563Y-99015628D03*
D15*
X180940000Y-93130000D03*
D13*
X176217254Y-97269526D03*
D14*
X175592934Y-88341328D03*
D12*
X175453398Y-93513661D03*
D27*
X172725780Y-97513673D03*
X184850013Y-98871237D03*
%TD*%
D17*
%TO.C,D11*%
X216000000Y-121750000D03*
D18*
X216000000Y-120530000D03*
X216000000Y-116980000D03*
D19*
X216000000Y-115750000D03*
%TD*%
D17*
%TO.C,D8*%
X177000000Y-139000000D03*
D18*
X177000000Y-137780000D03*
X177000000Y-134230000D03*
D19*
X177000000Y-133000000D03*
%TD*%
D14*
%TO.C,U1*%
X205875755Y-129729651D03*
X210087266Y-126888951D03*
X212193022Y-125468601D03*
X214298776Y-124048251D03*
X191135467Y-139672100D03*
X195346977Y-136831400D03*
X197452734Y-135411049D03*
X201664243Y-132570350D03*
X203769999Y-131150000D03*
X207981510Y-128309300D03*
X193241220Y-138251750D03*
X199558486Y-133990700D03*
D40*
X192246978Y-136777722D03*
X200669999Y-131096322D03*
X204881510Y-128255622D03*
X211198776Y-123994572D03*
X190141220Y-138198071D03*
X194352731Y-135357371D03*
X198564244Y-132516670D03*
X202775753Y-129675971D03*
X206987264Y-126835271D03*
X209093020Y-125414920D03*
X213304531Y-122574220D03*
X196458486Y-133937020D03*
D41*
X200453656Y-117148798D03*
X183607611Y-128511598D03*
X187819122Y-125670898D03*
X189924878Y-124250547D03*
X194136389Y-121409847D03*
X198347898Y-118569148D03*
X202559411Y-115728447D03*
X206770922Y-112887747D03*
X185713366Y-127091246D03*
X192030632Y-122830196D03*
X196242143Y-119989496D03*
X204665164Y-114308096D03*
D14*
X197353656Y-117095118D03*
X203670922Y-112834068D03*
X188930632Y-122776518D03*
X193142143Y-119935818D03*
X195247899Y-118515468D03*
X199459408Y-115674769D03*
X201565165Y-114254418D03*
X205776675Y-111413718D03*
X182613366Y-127037567D03*
X184719120Y-125617217D03*
X186824876Y-124196867D03*
X191036387Y-121356167D03*
D42*
X189573082Y-137355771D03*
X191678838Y-135935419D03*
X193784592Y-134515070D03*
X195890347Y-133094720D03*
X197996103Y-131674370D03*
X200101859Y-130254020D03*
X202207612Y-128833669D03*
X204313369Y-127413321D03*
X206419124Y-125992970D03*
X208524879Y-124572620D03*
X210630638Y-123152269D03*
X212736392Y-121731919D03*
D43*
X207339060Y-113730047D03*
X205233304Y-115150399D03*
X203127550Y-116570748D03*
X201021795Y-117991098D03*
X198916039Y-119411448D03*
X196810283Y-120831798D03*
X194704530Y-122252149D03*
X192598773Y-123672497D03*
X190493018Y-125092848D03*
X188387263Y-126513198D03*
X186281504Y-127933549D03*
X184175750Y-129353899D03*
%TD*%
D12*
%TO.C,SW8*%
X205500000Y-83000000D03*
D13*
X205000000Y-86800000D03*
D14*
X205000000Y-77850000D03*
D13*
X200000000Y-88900000D03*
D15*
X200000000Y-83000000D03*
D13*
X195000000Y-86800000D03*
D14*
X195000000Y-77850000D03*
D12*
X194500000Y-83000000D03*
D16*
X191500000Y-86800000D03*
X203500000Y-89000000D03*
%TD*%
D28*
%TO.C,D19*%
X152976000Y-69000000D03*
D29*
X155500000Y-69000000D03*
%TD*%
D25*
%TO.C,RSW1*%
X247000000Y-74000000D03*
X247000000Y-69000000D03*
%TD*%
M02*
