M48
; DRILL file {KiCad 9.0.0} date 2025-08-19T21:32:56+0900
; FORMAT={-:-/ absolute / inch / decimal}
; #@! TF.CreationDate,2025-08-19T21:32:56+09:00
; #@! TF.GenerationSoftware,Kicad,Pcbnew,9.0.0
; #@! TF.FileFunction,Plated,1,2,PTH
FMAT,2
INCH
; #@! TA.AperFunction,Plated,PTH,ViaDrill
T1C0.0118
; #@! TA.AperFunction,Plated,PTH,ComponentDrill
T2C0.0157
; #@! TA.AperFunction,Plated,PTH,ComponentDrill
T3C0.0320
; #@! TA.AperFunction,Plated,PTH,ComponentDrill
T4C0.0390
; #@! TA.AperFunction,Plated,PTH,ComponentDrill
T5C0.0394
; #@! TA.AperFunction,Plated,PTH,ComponentDrill
T6C0.0433
; #@! TA.AperFunction,Plated,PTH,ComponentDrill
T7C0.0512
; #@! TA.AperFunction,Plated,PTH,ComponentDrill
T8C0.0787
%
G90
G05
T1
X5.9744Y-4.5157
X6.0905Y-3.8937
X6.0953Y-5.0928
X6.2067Y-4.5512
X6.2874Y-4.0443
X6.2874Y-4.0758
X6.2874Y-4.1073
X6.2953Y-5.1811
X6.4621Y-5.2239
X6.5059Y-5.3307
X6.5984Y-3.2008
X6.6303Y-4.5508
X6.6309Y-3.7776
X6.6801Y-4.5502
X6.7538Y-3.2441
X6.7766Y-3.9469
X6.7766Y-3.9862
X6.7766Y-4.0256
X6.7766Y-4.065
X6.7854Y-5.1004
X6.8002Y-3.9124
X6.89Y-4.5797
X6.9951Y-5.0591
X7.1457Y-3.1299
X7.2657Y-5.3307
X7.2827Y-3.9776
X7.2835Y-5.2283
X7.3159Y-5.1122
X7.3159Y-5.2274
X7.4286Y-5.3735
X7.4567Y-4.5603
X7.4578Y-4.5918
X7.4803Y-5.1969
X7.5197Y-4.3484
X7.5197Y-5.1969
X7.5394Y-2.8346
X7.5394Y-3.5039
X7.5709Y-4.1732
X7.7136Y-5.4429
X7.7165Y-5.0722
X7.7165Y-5.1181
X7.7264Y-5.1732
X7.7952Y-5.0128
X7.7963Y-5.0443
X7.8415Y-4.7776
X7.8455Y-4.7431
X7.8839Y-5.0443
X7.8868Y-4.7431
X7.9146Y-2.935
X7.9341Y-4.6959
X7.9409Y-4.2293
X7.9543Y-2.9106
X7.9715Y-4.6959
X8.0118Y-4.313
X8.0246Y-4.6339
X8.0423Y-3.8504
X8.061Y-4.6348
X8.0778Y-3.8524
X8.0837Y-5.1909
X8.0974Y-4.6348
X8.1102Y-2.8346
X8.1348Y-4.6348
X8.2087Y-3.502
X8.2087Y-4.1732
X8.248Y-3.1102
X8.248Y-3.7795
X8.248Y-4.2726
X8.3179Y-4.7446
X8.3681Y-4.4823
X8.3681Y-4.6516
X8.7766Y-2.8091
X8.8209Y-5.0709
X8.8287Y-4.4508
X8.8455Y-3.7825
X8.9567Y-3.2283
X8.9567Y-3.8976
X9.0433Y-4.5669
X9.19Y-4.7136
X9.3911Y-5.3057
X9.4143Y-2.9045
X9.4173Y-4.0591
X9.4232Y-4.6594
X9.4291Y-3.9626
X9.4567Y-4.059
X9.4961Y-4.059
X9.6181Y-4.1516
X9.6496Y-4.1516
X9.6575Y-5.3425
X9.7362Y-4.7543
T2
X5.9646Y-3.9016
X5.9646Y-4.0118
X5.9646Y-4.0984
X5.9646Y-4.2087
X5.9646Y-4.2953
X5.9646Y-4.4055
T3
X6.1614Y-2.9134
X6.1614Y-3.1496
X6.2402Y-2.9134
X6.2402Y-3.1496
X6.3189Y-2.9134
X6.3189Y-3.1496
X6.3976Y-2.9134
X6.3976Y-3.1496
X6.4764Y-2.9134
X6.4764Y-3.1496
X6.811Y-5.2362
X6.811Y-5.4724
X6.8898Y-5.2362
X6.8898Y-5.4724
X6.9685Y-5.2362
X6.9685Y-5.4724
X7.0472Y-5.2362
X7.0472Y-5.4724
X7.126Y-5.2362
X7.126Y-5.4724
X8.5039Y-4.5571
X8.5039Y-4.7933
X8.5945Y-4.5571
X8.5945Y-4.7933
X8.685Y-4.5571
X8.685Y-4.7933
X8.7756Y-4.5571
X8.7756Y-4.7933
X8.8661Y-4.5571
X8.8661Y-4.7933
X8.937Y-5.4724
X9.1732Y-5.4724
X9.2913Y-5.3937
X9.2913Y-5.4724
X9.5276Y-5.3937
X9.5276Y-5.4724
X9.7402Y-3.3622
X9.7402Y-3.4409
X9.7402Y-3.5197
X9.7402Y-3.5984
T4
X6.0227Y-2.7165
X6.122Y-2.7165
X6.2589Y-2.7165
X6.3583Y-2.7165
X6.4951Y-2.7165
X6.5945Y-2.7165
T5
X7.6683Y-4.3734
X7.6683Y-4.4734
X9.6457Y-3.3819
X9.6457Y-3.4803
X9.6457Y-3.5787
T6
X7.1895Y-5.0015
X7.2724Y-4.9456
X7.3553Y-4.8896
X7.4382Y-4.8337
X7.5211Y-4.7778
X7.525Y-5.4989
X7.604Y-4.7219
X7.6079Y-5.443
X7.6869Y-4.666
X7.6908Y-5.3871
X7.7698Y-4.61
X7.7737Y-5.3311
X7.8527Y-4.5541
X7.8566Y-5.2752
X7.9356Y-4.4982
X7.9395Y-5.2193
X8.0185Y-4.4423
X8.0224Y-5.1634
X8.1014Y-4.3864
X8.1053Y-5.1075
X8.1882Y-5.0515
X8.2712Y-4.9956
X8.3541Y-4.9397
X8.437Y-4.8838
T7
X9.7244Y-2.7165
X9.7244Y-2.9134
T8
G00X9.9311Y-3.2598
M15
G01X9.9508Y-3.2598
M16
G05
G00X9.9311Y-3.7008
M15
G01X9.9508Y-3.7008
M16
G05
M30
