M48
; DRILL file {KiCad 9.0.0} date 2025-08-19T21:32:56+0900
; FORMAT={-:-/ absolute / inch / decimal}
; #@! TF.CreationDate,2025-08-19T21:32:56+09:00
; #@! TF.GenerationSoftware,Kicad,Pcbnew,9.0.0
; #@! TF.FileFunction,NonPlated,1,2,NPTH
FMAT,2
INCH
; #@! TA.AperFunction,NonPlated,NPTH,ComponentDrill
T1C0.0276
; #@! TA.AperFunction,NonPlated,NPTH,ComponentDrill
T2C0.0630
; #@! TA.AperFunction,NonPlated,NPTH,ComponentDrill
T3C0.0748
; #@! TA.AperFunction,NonPlated,NPTH,ComponentDrill
T4C0.1201
; #@! TA.AperFunction,NonPlated,NPTH,ComponentDrill
T5C0.1988
%
G90
G05
T1
X9.7602Y-4.187
X9.7622Y-4.0689
T2
X5.574Y-4.7126
X5.6424Y-5.1003
X6.0489Y-3.4034
X6.165Y-4.0629
X6.2812Y-4.7219
X6.4366Y-3.335
X6.5527Y-3.9945
X6.6689Y-4.6535
X6.8667Y-2.8107
X6.9131Y-3.478
X6.96Y-4.1457
X7.2594Y-2.7832
X7.3058Y-3.4505
X7.3527Y-4.1183
X7.6772Y-2.3957
X7.6772Y-3.065
X7.6772Y-3.7343
X8.0709Y-2.3957
X8.0709Y-3.065
X8.0709Y-3.7343
X8.3858Y-2.6713
X8.3858Y-3.3406
X8.3858Y-4.0098
X8.7795Y-2.6713
X8.7795Y-3.3406
X8.7795Y-4.0098
X9.0085Y-4.8093
X9.0945Y-2.7894
X9.0945Y-3.4587
X9.0945Y-4.128
X9.4017Y-4.8299
X9.4882Y-2.7894
X9.4882Y-3.4587
X9.4882Y-4.128
X10.0852Y-5.3176
X10.14Y-4.9278
T3
X5.7703Y-4.658
X5.8455Y-5.0845
X6.0647Y-3.6065
X6.1808Y-4.2659
X6.297Y-4.925
X6.4912Y-3.5313
X6.6073Y-4.1907
X6.7235Y-4.8498
X6.8612Y-3.0143
X6.9076Y-3.6816
X6.9545Y-4.3494
X7.2932Y-2.9841
X7.3396Y-3.6514
X7.3865Y-4.3191
X7.6575Y-2.5984
X7.6575Y-3.2677
X7.6575Y-3.937
X8.0906Y-2.5984
X8.0906Y-3.2677
X8.0906Y-3.937
X8.3661Y-2.874
X8.3661Y-3.5433
X8.3661Y-4.2126
X8.7992Y-2.874
X8.7992Y-3.5433
X8.7992Y-4.2126
X8.9782Y-5.0107
X9.0748Y-2.9921
X9.0748Y-3.6614
X9.0748Y-4.3307
X9.4107Y-5.0334
X9.5079Y-2.9921
X9.5079Y-3.6614
X9.5079Y-4.3307
X9.8817Y-5.3089
X9.9419Y-4.8801
T4
X5.921Y-4.6514
X5.9894Y-5.0391
X6.0366Y-4.8309
X6.1101Y-3.7504
X6.2262Y-4.4099
X6.3183Y-3.7977
X6.3424Y-5.0689
X6.4344Y-4.4571
X6.4978Y-3.682
X6.5506Y-5.1162
X6.6139Y-4.3415
X6.7301Y-5.0006
X6.8912Y-3.1622
X6.9377Y-3.8295
X6.9845Y-4.4972
X7.0934Y-3.2309
X7.1398Y-3.8983
X7.1867Y-4.566
X7.284Y-3.1347
X7.3304Y-3.802
X7.3773Y-4.4698
X7.6772Y-2.748
X7.6772Y-3.4173
X7.6772Y-4.0866
X7.874Y-2.8307
X7.874Y-3.5
X7.874Y-4.1693
X8.0709Y-2.748
X8.0709Y-3.4173
X8.0709Y-4.0866
X8.3858Y-3.0236
X8.3858Y-3.6929
X8.3858Y-4.3622
X8.5827Y-3.1063
X8.5827Y-3.7756
X8.5827Y-4.4449
X8.7795Y-3.0236
X8.7795Y-3.6929
X8.7795Y-4.3622
X8.9901Y-5.1611
X9.0945Y-3.1417
X9.0945Y-3.811
X9.0945Y-4.4803
X9.1823Y-5.254
X9.2913Y-3.2244
X9.2913Y-3.8937
X9.2913Y-4.563
X9.3832Y-5.1818
X9.4882Y-3.1417
X9.4882Y-3.811
X9.4882Y-4.4803
X9.6818Y-5.0622
X9.7363Y-5.2686
X9.7911Y-4.8787
T5
X5.8079Y-4.8713
X6.278Y-3.5689
X6.3941Y-4.2283
X6.5102Y-4.8874
X7.0772Y-2.9992
X7.1236Y-3.6665
X7.1705Y-4.3343
X7.874Y-2.5984
X7.874Y-3.2677
X7.874Y-3.937
X8.5827Y-2.874
X8.5827Y-3.5433
X8.5827Y-4.2126
X9.1945Y-5.022
X9.2913Y-2.9921
X9.2913Y-3.6614
X9.2913Y-4.3307
X9.9118Y-5.0945
M30
