%TF.GenerationSoftware,KiCad,Pcbnew,9.0.0*%
%TF.CreationDate,2025-08-19T21:32:56+09:00*%
%TF.ProjectId,xlyo3.0,786c796f-332e-4302-9e6b-696361645f70,rev?*%
%TF.SameCoordinates,Original*%
%TF.FileFunction,Drillmap*%
%TF.FilePolarity,Positive*%
%FSLAX45Y45*%
G04 Gerber Fmt 4.5, Leading zero omitted, Abs format (unit mm)*
G04 Created by KiCad (PCBNEW 9.0.0) date 2025-08-19 21:32:56*
%MOMM*%
%LPD*%
G01*
G04 APERTURE LIST*
%ADD10C,0.200000*%
%ADD11C,0.100000*%
%ADD12C,0.110000*%
%ADD13C,0.130000*%
G04 APERTURE END LIST*
D10*
X20743549Y-6599579D02*
X24778003Y-6599579D01*
X14978000Y-11524417D02*
X14978000Y-6799575D01*
X24978000Y-13183504D02*
X24978000Y-13899565D01*
X24978000Y-12695585D02*
X24978000Y-12689859D01*
X20257138Y-6696638D02*
G75*
G02*
X19742533Y-6696638I-257303J97059D01*
G01*
X20624949Y-6657743D02*
G75*
G02*
X20474722Y-6657743I-75114J58163D01*
G01*
X15083927Y-11668257D02*
G75*
G02*
X15083929Y-11959802I-44807J-145773D01*
G01*
X24950932Y-13096696D02*
G75*
G02*
X24950934Y-12781541I225358J157577D01*
G01*
X15178003Y-14099579D02*
G75*
G02*
X14978002Y-13900296I-3J199999D01*
G01*
X19524949Y-6657743D02*
G75*
G02*
X19374722Y-6657743I-75114J58163D01*
G01*
X14978000Y-12103175D02*
X14978000Y-12174835D01*
X20624949Y-6657743D02*
G75*
G02*
X20743549Y-6599579I118592J-91817D01*
G01*
X14995194Y-12244574D02*
G75*
G02*
X14995197Y-12500260I-243484J-127846D01*
G01*
X20257138Y-6696638D02*
G75*
G02*
X20376803Y-6601009I140343J-52932D01*
G01*
X24950932Y-13096696D02*
G75*
G02*
X24977999Y-13183504I-122962J-85964D01*
G01*
X24848624Y-12542150D02*
G75*
G02*
X24848624Y-12240050I20966J151050D01*
G01*
X19256123Y-6599579D02*
X15176296Y-6599579D01*
X14978000Y-12569995D02*
G75*
G02*
X14995195Y-12500259I150030J-5D01*
G01*
X24978000Y-12695585D02*
G75*
G02*
X24950931Y-12781539I-150020J5D01*
G01*
X20376803Y-6601012D02*
G75*
G02*
X20474721Y-6657743I-20683J-148568D01*
G01*
X24776954Y-14099579D02*
X15178003Y-14099579D01*
X14978000Y-6799575D02*
G75*
G02*
X15176296Y-6599587I200000J-5D01*
G01*
X14978000Y-12103175D02*
G75*
G02*
X15083926Y-11959791I150000J5D01*
G01*
X19524949Y-6657743D02*
G75*
G02*
X19622867Y-6601013I118582J-91807D01*
G01*
X24978000Y-13899565D02*
G75*
G02*
X24776954Y-14099577I-200010J-5D01*
G01*
X14978001Y-12174835D02*
X14978000Y-12174835D01*
X24978000Y-12091475D02*
G75*
G02*
X24848624Y-12240047I-149990J-5D01*
G01*
X24848624Y-12542150D02*
G75*
G02*
X24978002Y-12689859I-20624J-148580D01*
G01*
X19256123Y-6599579D02*
G75*
G02*
X19374721Y-6657743I-3J-150001D01*
G01*
X15083927Y-11668257D02*
G75*
G02*
X14978002Y-11524417I44073J143377D01*
G01*
X24978000Y-12091475D02*
X24978000Y-6799579D01*
X14978000Y-12569995D02*
X14978000Y-13900296D01*
X19622867Y-6601012D02*
G75*
G02*
X19742535Y-6696637I-20687J-148578D01*
G01*
X24778003Y-6599579D02*
G75*
G02*
X24978001Y-6799579I-3J-200001D01*
G01*
X14995194Y-12244574D02*
G75*
G02*
X14978002Y-12174835I132826J69734D01*
G01*
D11*
X15160000Y-11455000D02*
X15190000Y-11485000D01*
X15190000Y-11455000D02*
X15160000Y-11485000D01*
X15454900Y-9875000D02*
X15484900Y-9905000D01*
X15484900Y-9875000D02*
X15454900Y-9905000D01*
X15467100Y-12920828D02*
X15497100Y-12950828D01*
X15497100Y-12920828D02*
X15467100Y-12950828D01*
X15749900Y-11545000D02*
X15779900Y-11575000D01*
X15779900Y-11545000D02*
X15749900Y-11575000D01*
X15955000Y-10257500D02*
X15985000Y-10287500D01*
X15985000Y-10257500D02*
X15955000Y-10287500D01*
X15955000Y-10337500D02*
X15985000Y-10367500D01*
X15985000Y-10337500D02*
X15955000Y-10367500D01*
X15955000Y-10417501D02*
X15985000Y-10447501D01*
X15985000Y-10417501D02*
X15955000Y-10447501D01*
X15975000Y-13145000D02*
X16005000Y-13175000D01*
X16005000Y-13145000D02*
X15975000Y-13175000D01*
X16398746Y-13253754D02*
X16428746Y-13283754D01*
X16428746Y-13253754D02*
X16398746Y-13283754D01*
X16510000Y-13525000D02*
X16540000Y-13555000D01*
X16540000Y-13525000D02*
X16510000Y-13555000D01*
X16745000Y-8115000D02*
X16775000Y-8145000D01*
X16775000Y-8115000D02*
X16745000Y-8145000D01*
X16825876Y-11544124D02*
X16855876Y-11574124D01*
X16855876Y-11544124D02*
X16825876Y-11574124D01*
X16827392Y-9580108D02*
X16857392Y-9610108D01*
X16857392Y-9580108D02*
X16827392Y-9610108D01*
X16952500Y-11542500D02*
X16982500Y-11572500D01*
X16982500Y-11542500D02*
X16952500Y-11572500D01*
X17139578Y-8225000D02*
X17169578Y-8255000D01*
X17169578Y-8225000D02*
X17139578Y-8255000D01*
X17197578Y-10010000D02*
X17227578Y-10040000D01*
X17227578Y-10010000D02*
X17197578Y-10040000D01*
X17197578Y-10110000D02*
X17227578Y-10140000D01*
X17227578Y-10110000D02*
X17197578Y-10140000D01*
X17197578Y-10210000D02*
X17227578Y-10240000D01*
X17227578Y-10210000D02*
X17197578Y-10240000D01*
X17197578Y-10310000D02*
X17227578Y-10340000D01*
X17227578Y-10310000D02*
X17197578Y-10340000D01*
X17220000Y-12940000D02*
X17250000Y-12970000D01*
X17250000Y-12940000D02*
X17220000Y-12970000D01*
X17257578Y-9922500D02*
X17287578Y-9952500D01*
X17287578Y-9922500D02*
X17257578Y-9952500D01*
X17485500Y-11617500D02*
X17515500Y-11647500D01*
X17515500Y-11617500D02*
X17485500Y-11647500D01*
X17752500Y-12835000D02*
X17782500Y-12865000D01*
X17782500Y-12835000D02*
X17752500Y-12865000D01*
X18135000Y-7935000D02*
X18165000Y-7965000D01*
X18165000Y-7935000D02*
X18135000Y-7965000D01*
X18440000Y-13525000D02*
X18470000Y-13555000D01*
X18470000Y-13525000D02*
X18440000Y-13555000D01*
X18483109Y-10088109D02*
X18513109Y-10118109D01*
X18513109Y-10088109D02*
X18483109Y-10118109D01*
X18485000Y-13265000D02*
X18515000Y-13295000D01*
X18515000Y-13265000D02*
X18485000Y-13295000D01*
X18567427Y-12970000D02*
X18597427Y-13000000D01*
X18597427Y-12970000D02*
X18567427Y-13000000D01*
X18567427Y-13262574D02*
X18597427Y-13292574D01*
X18597427Y-13262574D02*
X18567427Y-13292574D01*
X18853750Y-13633750D02*
X18883750Y-13663750D01*
X18883750Y-13633750D02*
X18853750Y-13663750D01*
X18925000Y-11568124D02*
X18955000Y-11598124D01*
X18955000Y-11568124D02*
X18925000Y-11598124D01*
X18927781Y-11648076D02*
X18957781Y-11678076D01*
X18957781Y-11648076D02*
X18927781Y-11678076D01*
X18985000Y-13185000D02*
X19015000Y-13215000D01*
X19015000Y-13185000D02*
X18985000Y-13215000D01*
X19085000Y-11030000D02*
X19115000Y-11060000D01*
X19115000Y-11030000D02*
X19085000Y-11060000D01*
X19085000Y-13185000D02*
X19115000Y-13215000D01*
X19115000Y-13185000D02*
X19085000Y-13215000D01*
X19135000Y-7185000D02*
X19165000Y-7215000D01*
X19165000Y-7185000D02*
X19135000Y-7215000D01*
X19135000Y-8885000D02*
X19165000Y-8915000D01*
X19165000Y-8885000D02*
X19135000Y-8915000D01*
X19215000Y-10585000D02*
X19245000Y-10615000D01*
X19245000Y-10585000D02*
X19215000Y-10615000D01*
X19577500Y-13810000D02*
X19607500Y-13840000D01*
X19607500Y-13810000D02*
X19577500Y-13840000D01*
X19585000Y-12868367D02*
X19615000Y-12898367D01*
X19615000Y-12868367D02*
X19585000Y-12898367D01*
X19585000Y-12985000D02*
X19615000Y-13015000D01*
X19615000Y-12985000D02*
X19585000Y-13015000D01*
X19610000Y-13124900D02*
X19640000Y-13154900D01*
X19640000Y-13124900D02*
X19610000Y-13154900D01*
X19784743Y-12717547D02*
X19814743Y-12747547D01*
X19814743Y-12717547D02*
X19784743Y-12747547D01*
X19787500Y-12797500D02*
X19817500Y-12827500D01*
X19817500Y-12797500D02*
X19787500Y-12827500D01*
X19902500Y-12120000D02*
X19932500Y-12150000D01*
X19932500Y-12120000D02*
X19902500Y-12150000D01*
X19912500Y-12032500D02*
X19942500Y-12062500D01*
X19942500Y-12032500D02*
X19912500Y-12062500D01*
X20010000Y-12797500D02*
X20040000Y-12827500D01*
X20040000Y-12797500D02*
X20010000Y-12827500D01*
X20017500Y-12032500D02*
X20047500Y-12062500D01*
X20047500Y-12032500D02*
X20017500Y-12062500D01*
X20088000Y-7440000D02*
X20118000Y-7470000D01*
X20118000Y-7440000D02*
X20088000Y-7470000D01*
X20137500Y-11912500D02*
X20167500Y-11942500D01*
X20167500Y-11912500D02*
X20137500Y-11942500D01*
X20155000Y-10727500D02*
X20185000Y-10757500D01*
X20185000Y-10727500D02*
X20155000Y-10757500D01*
X20188929Y-7377928D02*
X20218929Y-7407928D01*
X20218929Y-7377928D02*
X20188929Y-7407928D01*
X20232500Y-11912500D02*
X20262500Y-11942500D01*
X20262500Y-11912500D02*
X20232500Y-11942500D01*
X20335000Y-10940000D02*
X20365000Y-10970000D01*
X20365000Y-10940000D02*
X20335000Y-10970000D01*
X20367500Y-11755000D02*
X20397500Y-11785000D01*
X20397500Y-11755000D02*
X20367500Y-11785000D01*
X20412500Y-9765000D02*
X20442500Y-9795000D01*
X20442500Y-9765000D02*
X20412500Y-9795000D01*
X20460000Y-11757500D02*
X20490000Y-11787500D01*
X20490000Y-11757500D02*
X20460000Y-11787500D01*
X20502500Y-9770100D02*
X20532500Y-9800100D01*
X20532500Y-9770100D02*
X20502500Y-9800100D01*
X20517500Y-13170000D02*
X20547500Y-13200000D01*
X20547500Y-13170000D02*
X20517500Y-13200000D01*
X20552500Y-11757500D02*
X20582500Y-11787500D01*
X20582500Y-11757500D02*
X20552500Y-11787500D01*
X20585000Y-7185000D02*
X20615000Y-7215000D01*
X20615000Y-7185000D02*
X20585000Y-7215000D01*
X20647500Y-11757500D02*
X20677500Y-11787500D01*
X20677500Y-11757500D02*
X20647500Y-11787500D01*
X20835000Y-8880000D02*
X20865000Y-8910000D01*
X20865000Y-8880000D02*
X20835000Y-8910000D01*
X20835000Y-10585000D02*
X20865000Y-10615000D01*
X20865000Y-10585000D02*
X20835000Y-10615000D01*
X20935000Y-7885000D02*
X20965000Y-7915000D01*
X20965000Y-7885000D02*
X20935000Y-7915000D01*
X20935000Y-9585000D02*
X20965000Y-9615000D01*
X20965000Y-9585000D02*
X20935000Y-9615000D01*
X20935000Y-10837500D02*
X20965000Y-10867500D01*
X20965000Y-10837500D02*
X20935000Y-10867500D01*
X21112500Y-12036250D02*
X21142500Y-12066250D01*
X21142500Y-12036250D02*
X21112500Y-12066250D01*
X21240000Y-11370000D02*
X21270000Y-11400000D01*
X21270000Y-11370000D02*
X21240000Y-11400000D01*
X21240000Y-11800000D02*
X21270000Y-11830000D01*
X21270000Y-11800000D02*
X21240000Y-11830000D01*
X22277500Y-7120000D02*
X22307500Y-7150000D01*
X22307500Y-7120000D02*
X22277500Y-7150000D01*
X22390000Y-12865000D02*
X22420000Y-12895000D01*
X22420000Y-12865000D02*
X22390000Y-12895000D01*
X22410000Y-11290000D02*
X22440000Y-11320000D01*
X22440000Y-11290000D02*
X22410000Y-11320000D01*
X22452500Y-9592500D02*
X22482500Y-9622500D01*
X22482500Y-9592500D02*
X22452500Y-9622500D01*
X22735000Y-8185000D02*
X22765000Y-8215000D01*
X22765000Y-8185000D02*
X22735000Y-8215000D01*
X22735000Y-9885000D02*
X22765000Y-9915000D01*
X22765000Y-9885000D02*
X22735000Y-9915000D01*
X22955000Y-11585000D02*
X22985000Y-11615000D01*
X22985000Y-11585000D02*
X22955000Y-11615000D01*
X23327500Y-11957500D02*
X23357500Y-11987500D01*
X23357500Y-11957500D02*
X23327500Y-11987500D01*
X23838500Y-13461500D02*
X23868500Y-13491500D01*
X23868500Y-13461500D02*
X23838500Y-13491500D01*
X23897400Y-7362400D02*
X23927400Y-7392400D01*
X23927400Y-7362400D02*
X23897400Y-7392400D01*
X23905000Y-10295000D02*
X23935000Y-10325000D01*
X23935000Y-10295000D02*
X23905000Y-10325000D01*
X23920000Y-11820000D02*
X23950000Y-11850000D01*
X23950000Y-11820000D02*
X23920000Y-11850000D01*
X23935000Y-10050000D02*
X23965000Y-10080000D01*
X23965000Y-10050000D02*
X23935000Y-10080000D01*
X24005000Y-10294900D02*
X24035000Y-10324900D01*
X24035000Y-10294900D02*
X24005000Y-10324900D01*
X24105000Y-10294900D02*
X24135000Y-10324900D01*
X24135000Y-10294900D02*
X24105000Y-10324900D01*
X24415000Y-10530000D02*
X24445000Y-10560000D01*
X24445000Y-10530000D02*
X24415000Y-10560000D01*
X24495000Y-10530000D02*
X24525000Y-10560000D01*
X24525000Y-10530000D02*
X24495000Y-10560000D01*
X24515000Y-13555000D02*
X24545000Y-13585000D01*
X24545000Y-13555000D02*
X24515000Y-13585000D01*
X24715000Y-12060897D02*
X24745000Y-12090897D01*
X24745000Y-12060897D02*
X24715000Y-12090897D01*
X15170000Y-9910000D02*
G75*
G02*
X15130000Y-9910000I-20000J0D01*
G01*
X15130000Y-9910000D02*
G75*
G02*
X15170000Y-9910000I20000J0D01*
G01*
X15170000Y-10190000D02*
G75*
G02*
X15130000Y-10190000I-20000J0D01*
G01*
X15130000Y-10190000D02*
G75*
G02*
X15170000Y-10190000I20000J0D01*
G01*
X15170000Y-10410000D02*
G75*
G02*
X15130000Y-10410000I-20000J0D01*
G01*
X15130000Y-10410000D02*
G75*
G02*
X15170000Y-10410000I20000J0D01*
G01*
X15170000Y-10690000D02*
G75*
G02*
X15130000Y-10690000I-20000J0D01*
G01*
X15130000Y-10690000D02*
G75*
G02*
X15170000Y-10690000I20000J0D01*
G01*
X15170000Y-10910000D02*
G75*
G02*
X15130000Y-10910000I-20000J0D01*
G01*
X15130000Y-10910000D02*
G75*
G02*
X15170000Y-10910000I20000J0D01*
G01*
X15170000Y-11190000D02*
G75*
G02*
X15130000Y-11190000I-20000J0D01*
G01*
X15130000Y-11190000D02*
G75*
G02*
X15170000Y-11190000I20000J0D01*
G01*
X15650000Y-7359360D02*
X15650000Y-7440640D01*
X15609360Y-7400000D02*
X15690640Y-7400000D01*
X15650000Y-7959360D02*
X15650000Y-8040640D01*
X15609360Y-8000000D02*
X15690640Y-8000000D01*
X15850000Y-7359360D02*
X15850000Y-7440640D01*
X15809360Y-7400000D02*
X15890640Y-7400000D01*
X15850000Y-7959360D02*
X15850000Y-8040640D01*
X15809360Y-8000000D02*
X15890640Y-8000000D01*
X16050000Y-7359360D02*
X16050000Y-7440640D01*
X16009360Y-7400000D02*
X16090640Y-7400000D01*
X16050000Y-7959360D02*
X16050000Y-8040640D01*
X16009360Y-8000000D02*
X16090640Y-8000000D01*
X16250000Y-7359360D02*
X16250000Y-7440640D01*
X16209360Y-7400000D02*
X16290640Y-7400000D01*
X16250000Y-7959360D02*
X16250000Y-8040640D01*
X16209360Y-8000000D02*
X16290640Y-8000000D01*
X16450000Y-7359360D02*
X16450000Y-7440640D01*
X16409360Y-7400000D02*
X16490640Y-7400000D01*
X16450000Y-7959360D02*
X16450000Y-8040640D01*
X16409360Y-8000000D02*
X16490640Y-8000000D01*
X17300000Y-13259360D02*
X17300000Y-13340640D01*
X17259360Y-13300000D02*
X17340640Y-13300000D01*
X17300000Y-13859360D02*
X17300000Y-13940640D01*
X17259360Y-13900000D02*
X17340640Y-13900000D01*
X17500000Y-13259360D02*
X17500000Y-13340640D01*
X17459360Y-13300000D02*
X17540640Y-13300000D01*
X17500000Y-13859360D02*
X17500000Y-13940640D01*
X17459360Y-13900000D02*
X17540640Y-13900000D01*
X17700000Y-13259360D02*
X17700000Y-13340640D01*
X17659360Y-13300000D02*
X17740640Y-13300000D01*
X17700000Y-13859360D02*
X17700000Y-13940640D01*
X17659360Y-13900000D02*
X17740640Y-13900000D01*
X17900000Y-13259360D02*
X17900000Y-13340640D01*
X17859360Y-13300000D02*
X17940640Y-13300000D01*
X17900000Y-13859360D02*
X17900000Y-13940640D01*
X17859360Y-13900000D02*
X17940640Y-13900000D01*
X18100000Y-13259360D02*
X18100000Y-13340640D01*
X18059360Y-13300000D02*
X18140640Y-13300000D01*
X18100000Y-13859360D02*
X18100000Y-13940640D01*
X18059360Y-13900000D02*
X18140640Y-13900000D01*
X21600000Y-11534360D02*
X21600000Y-11615640D01*
X21559360Y-11575000D02*
X21640640Y-11575000D01*
X21600000Y-12134360D02*
X21600000Y-12215640D01*
X21559360Y-12175000D02*
X21640640Y-12175000D01*
X21830000Y-11534360D02*
X21830000Y-11615640D01*
X21789360Y-11575000D02*
X21870640Y-11575000D01*
X21830000Y-12134360D02*
X21830000Y-12215640D01*
X21789360Y-12175000D02*
X21870640Y-12175000D01*
X22060000Y-11534360D02*
X22060000Y-11615640D01*
X22019360Y-11575000D02*
X22100640Y-11575000D01*
X22060000Y-12134360D02*
X22060000Y-12215640D01*
X22019360Y-12175000D02*
X22100640Y-12175000D01*
X22290000Y-11534360D02*
X22290000Y-11615640D01*
X22249360Y-11575000D02*
X22330640Y-11575000D01*
X22290000Y-12134360D02*
X22290000Y-12215640D01*
X22249360Y-12175000D02*
X22330640Y-12175000D01*
X22520000Y-11534360D02*
X22520000Y-11615640D01*
X22479360Y-11575000D02*
X22560640Y-11575000D01*
X22520000Y-12134360D02*
X22520000Y-12215640D01*
X22479360Y-12175000D02*
X22560640Y-12175000D01*
X22700000Y-13859360D02*
X22700000Y-13940640D01*
X22659360Y-13900000D02*
X22740640Y-13900000D01*
X23300000Y-13859360D02*
X23300000Y-13940640D01*
X23259360Y-13900000D02*
X23340640Y-13900000D01*
X23600000Y-13659360D02*
X23600000Y-13740640D01*
X23559360Y-13700000D02*
X23640640Y-13700000D01*
X23600000Y-13859360D02*
X23600000Y-13940640D01*
X23559360Y-13900000D02*
X23640640Y-13900000D01*
X24200000Y-13659360D02*
X24200000Y-13740640D01*
X24159360Y-13700000D02*
X24240640Y-13700000D01*
X24200000Y-13859360D02*
X24200000Y-13940640D01*
X24159360Y-13900000D02*
X24240640Y-13900000D01*
X24740000Y-8499360D02*
X24740000Y-8580640D01*
X24699360Y-8540000D02*
X24780640Y-8540000D01*
X24740000Y-8699360D02*
X24740000Y-8780640D01*
X24699360Y-8740000D02*
X24780640Y-8740000D01*
X24740000Y-8899360D02*
X24740000Y-8980640D01*
X24699360Y-8940000D02*
X24780640Y-8940000D01*
X24740000Y-9099360D02*
X24740000Y-9180640D01*
X24699360Y-9140000D02*
X24780640Y-9140000D01*
X15332623Y-6935023D02*
X15332623Y-6864977D01*
X15262577Y-6864977D01*
X15262577Y-6935023D01*
X15332623Y-6935023D01*
X15585023Y-6935023D02*
X15585023Y-6864977D01*
X15514977Y-6864977D01*
X15514977Y-6935023D01*
X15585023Y-6935023D01*
X15932623Y-6935023D02*
X15932623Y-6864977D01*
X15862577Y-6864977D01*
X15862577Y-6935023D01*
X15932623Y-6935023D01*
X16185023Y-6935023D02*
X16185023Y-6864977D01*
X16114977Y-6864977D01*
X16114977Y-6935023D01*
X16185023Y-6935023D01*
X16532623Y-6935023D02*
X16532623Y-6864977D01*
X16462577Y-6864977D01*
X16462577Y-6935023D01*
X16532623Y-6935023D01*
X16785023Y-6935023D02*
X16785023Y-6864977D01*
X16714977Y-6864977D01*
X16714977Y-6935023D01*
X16785023Y-6935023D01*
X19477500Y-11158500D02*
X19527500Y-11108500D01*
X19477500Y-11058500D01*
X19427500Y-11108500D01*
X19477500Y-11158500D01*
X19477500Y-11412500D02*
X19527500Y-11362500D01*
X19477500Y-11312500D01*
X19427500Y-11362500D01*
X19477500Y-11412500D01*
X24500000Y-8640000D02*
X24550000Y-8590000D01*
X24500000Y-8540000D01*
X24450000Y-8590000D01*
X24500000Y-8640000D01*
X24500000Y-8890000D02*
X24550000Y-8840000D01*
X24500000Y-8790000D01*
X24450000Y-8840000D01*
X24500000Y-8890000D01*
X24500000Y-9140000D02*
X24550000Y-9090000D01*
X24500000Y-9040000D01*
X24450000Y-9090000D01*
X24500000Y-9140000D01*
D12*
X18206337Y-12648757D02*
X18316337Y-12758757D01*
X18316337Y-12648757D02*
X18206337Y-12758757D01*
X18316337Y-12703757D02*
G75*
G02*
X18206337Y-12703757I-55000J0D01*
G01*
X18206337Y-12703757D02*
G75*
G02*
X18316337Y-12703757I55000J0D01*
G01*
X18416912Y-12506722D02*
X18526912Y-12616722D01*
X18526912Y-12506722D02*
X18416912Y-12616722D01*
X18526912Y-12561722D02*
G75*
G02*
X18416912Y-12561722I-55000J0D01*
G01*
X18416912Y-12561722D02*
G75*
G02*
X18526912Y-12561722I55000J0D01*
G01*
X18627488Y-12364687D02*
X18737488Y-12474687D01*
X18737488Y-12364687D02*
X18627488Y-12474687D01*
X18737488Y-12419687D02*
G75*
G02*
X18627488Y-12419687I-55000J0D01*
G01*
X18627488Y-12419687D02*
G75*
G02*
X18737488Y-12419687I55000J0D01*
G01*
X18838063Y-12222652D02*
X18948063Y-12332652D01*
X18948063Y-12222652D02*
X18838063Y-12332652D01*
X18948063Y-12277652D02*
G75*
G02*
X18838063Y-12277652I-55000J0D01*
G01*
X18838063Y-12277652D02*
G75*
G02*
X18948063Y-12277652I55000J0D01*
G01*
X19048639Y-12080617D02*
X19158639Y-12190617D01*
X19158639Y-12080617D02*
X19048639Y-12190617D01*
X19158639Y-12135617D02*
G75*
G02*
X19048639Y-12135617I-55000J0D01*
G01*
X19048639Y-12135617D02*
G75*
G02*
X19158639Y-12135617I55000J0D01*
G01*
X19058547Y-13912210D02*
X19168547Y-14022210D01*
X19168547Y-13912210D02*
X19058547Y-14022210D01*
X19168547Y-13967210D02*
G75*
G02*
X19058547Y-13967210I-55000J0D01*
G01*
X19058547Y-13967210D02*
G75*
G02*
X19168547Y-13967210I55000J0D01*
G01*
X19259214Y-11938582D02*
X19369214Y-12048582D01*
X19369214Y-11938582D02*
X19259214Y-12048582D01*
X19369214Y-11993582D02*
G75*
G02*
X19259214Y-11993582I-55000J0D01*
G01*
X19259214Y-11993582D02*
G75*
G02*
X19369214Y-11993582I55000J0D01*
G01*
X19269122Y-13770175D02*
X19379122Y-13880175D01*
X19379122Y-13770175D02*
X19269122Y-13880175D01*
X19379122Y-13825175D02*
G75*
G02*
X19269122Y-13825175I-55000J0D01*
G01*
X19269122Y-13825175D02*
G75*
G02*
X19379122Y-13825175I55000J0D01*
G01*
X19469790Y-11796547D02*
X19579790Y-11906547D01*
X19579790Y-11796547D02*
X19469790Y-11906547D01*
X19579790Y-11851547D02*
G75*
G02*
X19469790Y-11851547I-55000J0D01*
G01*
X19469790Y-11851547D02*
G75*
G02*
X19579790Y-11851547I55000J0D01*
G01*
X19479698Y-13628140D02*
X19589698Y-13738140D01*
X19589698Y-13628140D02*
X19479698Y-13738140D01*
X19589698Y-13683140D02*
G75*
G02*
X19479698Y-13683140I-55000J0D01*
G01*
X19479698Y-13683140D02*
G75*
G02*
X19589698Y-13683140I55000J0D01*
G01*
X19680366Y-11654512D02*
X19790366Y-11764512D01*
X19790366Y-11654512D02*
X19680366Y-11764512D01*
X19790366Y-11709512D02*
G75*
G02*
X19680366Y-11709512I-55000J0D01*
G01*
X19680366Y-11709512D02*
G75*
G02*
X19790366Y-11709512I55000J0D01*
G01*
X19690273Y-13486105D02*
X19800273Y-13596105D01*
X19800273Y-13486105D02*
X19690273Y-13596105D01*
X19800273Y-13541105D02*
G75*
G02*
X19690273Y-13541105I-55000J0D01*
G01*
X19690273Y-13541105D02*
G75*
G02*
X19800273Y-13541105I55000J0D01*
G01*
X19890941Y-11512477D02*
X20000941Y-11622477D01*
X20000941Y-11512477D02*
X19890941Y-11622477D01*
X20000941Y-11567477D02*
G75*
G02*
X19890941Y-11567477I-55000J0D01*
G01*
X19890941Y-11567477D02*
G75*
G02*
X20000941Y-11567477I55000J0D01*
G01*
X19900849Y-13344070D02*
X20010849Y-13454070D01*
X20010849Y-13344070D02*
X19900849Y-13454070D01*
X20010849Y-13399070D02*
G75*
G02*
X19900849Y-13399070I-55000J0D01*
G01*
X19900849Y-13399070D02*
G75*
G02*
X20010849Y-13399070I55000J0D01*
G01*
X20101517Y-11370442D02*
X20211517Y-11480442D01*
X20211517Y-11370442D02*
X20101517Y-11480442D01*
X20211517Y-11425442D02*
G75*
G02*
X20101517Y-11425442I-55000J0D01*
G01*
X20101517Y-11425442D02*
G75*
G02*
X20211517Y-11425442I55000J0D01*
G01*
X20111424Y-13202035D02*
X20221424Y-13312035D01*
X20221424Y-13202035D02*
X20111424Y-13312035D01*
X20221424Y-13257035D02*
G75*
G02*
X20111424Y-13257035I-55000J0D01*
G01*
X20111424Y-13257035D02*
G75*
G02*
X20221424Y-13257035I55000J0D01*
G01*
X20312092Y-11228407D02*
X20422092Y-11338407D01*
X20422092Y-11228407D02*
X20312092Y-11338407D01*
X20422092Y-11283407D02*
G75*
G02*
X20312092Y-11283407I-55000J0D01*
G01*
X20312092Y-11283407D02*
G75*
G02*
X20422092Y-11283407I55000J0D01*
G01*
X20322000Y-13060000D02*
X20432000Y-13170000D01*
X20432000Y-13060000D02*
X20322000Y-13170000D01*
X20432000Y-13115000D02*
G75*
G02*
X20322000Y-13115000I-55000J0D01*
G01*
X20322000Y-13115000D02*
G75*
G02*
X20432000Y-13115000I55000J0D01*
G01*
X20522668Y-11086372D02*
X20632668Y-11196372D01*
X20632668Y-11086372D02*
X20522668Y-11196372D01*
X20632668Y-11141372D02*
G75*
G02*
X20522668Y-11141372I-55000J0D01*
G01*
X20522668Y-11141372D02*
G75*
G02*
X20632668Y-11141372I55000J0D01*
G01*
X20532576Y-12917965D02*
X20642576Y-13027965D01*
X20642576Y-12917965D02*
X20532576Y-13027965D01*
X20642576Y-12972965D02*
G75*
G02*
X20532576Y-12972965I-55000J0D01*
G01*
X20532576Y-12972965D02*
G75*
G02*
X20642576Y-12972965I55000J0D01*
G01*
X20743151Y-12775930D02*
X20853151Y-12885930D01*
X20853151Y-12775930D02*
X20743151Y-12885930D01*
X20853151Y-12830930D02*
G75*
G02*
X20743151Y-12830930I-55000J0D01*
G01*
X20743151Y-12830930D02*
G75*
G02*
X20853151Y-12830930I55000J0D01*
G01*
X20953727Y-12633895D02*
X21063727Y-12743895D01*
X21063727Y-12633895D02*
X20953727Y-12743895D01*
X21063727Y-12688895D02*
G75*
G02*
X20953727Y-12688895I-55000J0D01*
G01*
X20953727Y-12688895D02*
G75*
G02*
X21063727Y-12688895I55000J0D01*
G01*
X21164302Y-12491860D02*
X21274302Y-12601860D01*
X21274302Y-12491860D02*
X21164302Y-12601860D01*
X21274302Y-12546860D02*
G75*
G02*
X21164302Y-12546860I-55000J0D01*
G01*
X21164302Y-12546860D02*
G75*
G02*
X21274302Y-12546860I55000J0D01*
G01*
X21374878Y-12349825D02*
X21484878Y-12459825D01*
X21484878Y-12349825D02*
X21374878Y-12459825D01*
X21484878Y-12404825D02*
G75*
G02*
X21374878Y-12404825I-55000J0D01*
G01*
X21374878Y-12404825D02*
G75*
G02*
X21484878Y-12404825I55000J0D01*
G01*
D13*
X24635000Y-6835000D02*
X24765000Y-6965000D01*
X24765000Y-6835000D02*
X24635000Y-6965000D01*
X24700000Y-6835000D02*
X24700000Y-6965000D01*
X24635000Y-6900000D02*
X24765000Y-6900000D01*
X24635000Y-7335000D02*
X24765000Y-7465000D01*
X24765000Y-7335000D02*
X24635000Y-7465000D01*
X24700000Y-7335000D02*
X24700000Y-7465000D01*
X24635000Y-7400000D02*
X24765000Y-7400000D01*
D10*
X25150000Y-8180000D02*
X25350000Y-8380000D01*
X25350000Y-8180000D02*
X25150000Y-8380000D01*
X25320711Y-8350711D02*
X25320711Y-8209289D01*
X25179289Y-8209289D01*
X25179289Y-8350711D01*
X25320711Y-8350711D01*
D11*
X25225000Y-8380000D02*
X25275000Y-8380000D01*
X25275000Y-8180000D02*
G75*
G02*
X25275000Y-8380000I0J-100000D01*
G01*
X25275000Y-8180000D02*
X25225000Y-8180000D01*
X25225000Y-8180000D02*
G75*
G03*
X25225000Y-8380000I0J-100000D01*
G01*
D10*
X25150000Y-9300000D02*
X25350000Y-9500000D01*
X25350000Y-9300000D02*
X25150000Y-9500000D01*
X25320711Y-9470711D02*
X25320711Y-9329289D01*
X25179289Y-9329289D01*
X25179289Y-9470711D01*
X25320711Y-9470711D01*
D11*
X25225000Y-9500000D02*
X25275000Y-9500000D01*
X25275000Y-9300000D02*
G75*
G02*
X25275000Y-9500000I0J-100000D01*
G01*
X25275000Y-9300000D02*
X25225000Y-9300000D01*
X25225000Y-9300000D02*
G75*
G03*
X25225000Y-9500000I0J-100000D01*
G01*
D10*
X15228777Y-14421064D02*
X15228777Y-14221064D01*
X15228777Y-14221064D02*
X15276396Y-14221064D01*
X15276396Y-14221064D02*
X15304967Y-14230588D01*
X15304967Y-14230588D02*
X15324015Y-14249635D01*
X15324015Y-14249635D02*
X15333539Y-14268683D01*
X15333539Y-14268683D02*
X15343062Y-14306778D01*
X15343062Y-14306778D02*
X15343062Y-14335349D01*
X15343062Y-14335349D02*
X15333539Y-14373445D01*
X15333539Y-14373445D02*
X15324015Y-14392492D01*
X15324015Y-14392492D02*
X15304967Y-14411540D01*
X15304967Y-14411540D02*
X15276396Y-14421064D01*
X15276396Y-14421064D02*
X15228777Y-14421064D01*
X15428777Y-14421064D02*
X15428777Y-14287730D01*
X15428777Y-14325826D02*
X15438301Y-14306778D01*
X15438301Y-14306778D02*
X15447824Y-14297254D01*
X15447824Y-14297254D02*
X15466872Y-14287730D01*
X15466872Y-14287730D02*
X15485920Y-14287730D01*
X15552586Y-14421064D02*
X15552586Y-14287730D01*
X15552586Y-14221064D02*
X15543062Y-14230588D01*
X15543062Y-14230588D02*
X15552586Y-14240111D01*
X15552586Y-14240111D02*
X15562110Y-14230588D01*
X15562110Y-14230588D02*
X15552586Y-14221064D01*
X15552586Y-14221064D02*
X15552586Y-14240111D01*
X15676396Y-14421064D02*
X15657348Y-14411540D01*
X15657348Y-14411540D02*
X15647824Y-14392492D01*
X15647824Y-14392492D02*
X15647824Y-14221064D01*
X15781158Y-14421064D02*
X15762110Y-14411540D01*
X15762110Y-14411540D02*
X15752586Y-14392492D01*
X15752586Y-14392492D02*
X15752586Y-14221064D01*
X16009729Y-14421064D02*
X16009729Y-14221064D01*
X16009729Y-14221064D02*
X16076396Y-14363921D01*
X16076396Y-14363921D02*
X16143062Y-14221064D01*
X16143062Y-14221064D02*
X16143062Y-14421064D01*
X16324015Y-14421064D02*
X16324015Y-14316302D01*
X16324015Y-14316302D02*
X16314491Y-14297254D01*
X16314491Y-14297254D02*
X16295443Y-14287730D01*
X16295443Y-14287730D02*
X16257348Y-14287730D01*
X16257348Y-14287730D02*
X16238301Y-14297254D01*
X16324015Y-14411540D02*
X16304967Y-14421064D01*
X16304967Y-14421064D02*
X16257348Y-14421064D01*
X16257348Y-14421064D02*
X16238301Y-14411540D01*
X16238301Y-14411540D02*
X16228777Y-14392492D01*
X16228777Y-14392492D02*
X16228777Y-14373445D01*
X16228777Y-14373445D02*
X16238301Y-14354397D01*
X16238301Y-14354397D02*
X16257348Y-14344873D01*
X16257348Y-14344873D02*
X16304967Y-14344873D01*
X16304967Y-14344873D02*
X16324015Y-14335349D01*
X16419253Y-14287730D02*
X16419253Y-14487730D01*
X16419253Y-14297254D02*
X16438301Y-14287730D01*
X16438301Y-14287730D02*
X16476396Y-14287730D01*
X16476396Y-14287730D02*
X16495443Y-14297254D01*
X16495443Y-14297254D02*
X16504967Y-14306778D01*
X16504967Y-14306778D02*
X16514491Y-14325826D01*
X16514491Y-14325826D02*
X16514491Y-14382968D01*
X16514491Y-14382968D02*
X16504967Y-14402016D01*
X16504967Y-14402016D02*
X16495443Y-14411540D01*
X16495443Y-14411540D02*
X16476396Y-14421064D01*
X16476396Y-14421064D02*
X16438301Y-14421064D01*
X16438301Y-14421064D02*
X16419253Y-14411540D01*
X16600205Y-14402016D02*
X16609729Y-14411540D01*
X16609729Y-14411540D02*
X16600205Y-14421064D01*
X16600205Y-14421064D02*
X16590682Y-14411540D01*
X16590682Y-14411540D02*
X16600205Y-14402016D01*
X16600205Y-14402016D02*
X16600205Y-14421064D01*
X16600205Y-14297254D02*
X16609729Y-14306778D01*
X16609729Y-14306778D02*
X16600205Y-14316302D01*
X16600205Y-14316302D02*
X16590682Y-14306778D01*
X16590682Y-14306778D02*
X16600205Y-14297254D01*
X16600205Y-14297254D02*
X16600205Y-14316302D01*
D11*
X14938000Y-14734580D02*
X14968000Y-14764580D01*
X14968000Y-14734580D02*
X14938000Y-14764580D01*
D10*
X15266872Y-14641064D02*
X15285920Y-14641064D01*
X15285920Y-14641064D02*
X15304967Y-14650588D01*
X15304967Y-14650588D02*
X15314491Y-14660111D01*
X15314491Y-14660111D02*
X15324015Y-14679159D01*
X15324015Y-14679159D02*
X15333539Y-14717254D01*
X15333539Y-14717254D02*
X15333539Y-14764873D01*
X15333539Y-14764873D02*
X15324015Y-14802968D01*
X15324015Y-14802968D02*
X15314491Y-14822016D01*
X15314491Y-14822016D02*
X15304967Y-14831540D01*
X15304967Y-14831540D02*
X15285920Y-14841064D01*
X15285920Y-14841064D02*
X15266872Y-14841064D01*
X15266872Y-14841064D02*
X15247824Y-14831540D01*
X15247824Y-14831540D02*
X15238301Y-14822016D01*
X15238301Y-14822016D02*
X15228777Y-14802968D01*
X15228777Y-14802968D02*
X15219253Y-14764873D01*
X15219253Y-14764873D02*
X15219253Y-14717254D01*
X15219253Y-14717254D02*
X15228777Y-14679159D01*
X15228777Y-14679159D02*
X15238301Y-14660111D01*
X15238301Y-14660111D02*
X15247824Y-14650588D01*
X15247824Y-14650588D02*
X15266872Y-14641064D01*
X15419253Y-14822016D02*
X15428777Y-14831540D01*
X15428777Y-14831540D02*
X15419253Y-14841064D01*
X15419253Y-14841064D02*
X15409729Y-14831540D01*
X15409729Y-14831540D02*
X15419253Y-14822016D01*
X15419253Y-14822016D02*
X15419253Y-14841064D01*
X15495443Y-14641064D02*
X15619253Y-14641064D01*
X15619253Y-14641064D02*
X15552586Y-14717254D01*
X15552586Y-14717254D02*
X15581158Y-14717254D01*
X15581158Y-14717254D02*
X15600205Y-14726778D01*
X15600205Y-14726778D02*
X15609729Y-14736302D01*
X15609729Y-14736302D02*
X15619253Y-14755349D01*
X15619253Y-14755349D02*
X15619253Y-14802968D01*
X15619253Y-14802968D02*
X15609729Y-14822016D01*
X15609729Y-14822016D02*
X15600205Y-14831540D01*
X15600205Y-14831540D02*
X15581158Y-14841064D01*
X15581158Y-14841064D02*
X15524015Y-14841064D01*
X15524015Y-14841064D02*
X15504967Y-14831540D01*
X15504967Y-14831540D02*
X15495443Y-14822016D01*
X15743062Y-14641064D02*
X15762110Y-14641064D01*
X15762110Y-14641064D02*
X15781158Y-14650588D01*
X15781158Y-14650588D02*
X15790682Y-14660111D01*
X15790682Y-14660111D02*
X15800205Y-14679159D01*
X15800205Y-14679159D02*
X15809729Y-14717254D01*
X15809729Y-14717254D02*
X15809729Y-14764873D01*
X15809729Y-14764873D02*
X15800205Y-14802968D01*
X15800205Y-14802968D02*
X15790682Y-14822016D01*
X15790682Y-14822016D02*
X15781158Y-14831540D01*
X15781158Y-14831540D02*
X15762110Y-14841064D01*
X15762110Y-14841064D02*
X15743062Y-14841064D01*
X15743062Y-14841064D02*
X15724015Y-14831540D01*
X15724015Y-14831540D02*
X15714491Y-14822016D01*
X15714491Y-14822016D02*
X15704967Y-14802968D01*
X15704967Y-14802968D02*
X15695443Y-14764873D01*
X15695443Y-14764873D02*
X15695443Y-14717254D01*
X15695443Y-14717254D02*
X15704967Y-14679159D01*
X15704967Y-14679159D02*
X15714491Y-14660111D01*
X15714491Y-14660111D02*
X15724015Y-14650588D01*
X15724015Y-14650588D02*
X15743062Y-14641064D01*
X15933539Y-14641064D02*
X15952586Y-14641064D01*
X15952586Y-14641064D02*
X15971634Y-14650588D01*
X15971634Y-14650588D02*
X15981158Y-14660111D01*
X15981158Y-14660111D02*
X15990682Y-14679159D01*
X15990682Y-14679159D02*
X16000205Y-14717254D01*
X16000205Y-14717254D02*
X16000205Y-14764873D01*
X16000205Y-14764873D02*
X15990682Y-14802968D01*
X15990682Y-14802968D02*
X15981158Y-14822016D01*
X15981158Y-14822016D02*
X15971634Y-14831540D01*
X15971634Y-14831540D02*
X15952586Y-14841064D01*
X15952586Y-14841064D02*
X15933539Y-14841064D01*
X15933539Y-14841064D02*
X15914491Y-14831540D01*
X15914491Y-14831540D02*
X15904967Y-14822016D01*
X15904967Y-14822016D02*
X15895443Y-14802968D01*
X15895443Y-14802968D02*
X15885920Y-14764873D01*
X15885920Y-14764873D02*
X15885920Y-14717254D01*
X15885920Y-14717254D02*
X15895443Y-14679159D01*
X15895443Y-14679159D02*
X15904967Y-14660111D01*
X15904967Y-14660111D02*
X15914491Y-14650588D01*
X15914491Y-14650588D02*
X15933539Y-14641064D01*
X16085920Y-14841064D02*
X16085920Y-14707730D01*
X16085920Y-14726778D02*
X16095443Y-14717254D01*
X16095443Y-14717254D02*
X16114491Y-14707730D01*
X16114491Y-14707730D02*
X16143063Y-14707730D01*
X16143063Y-14707730D02*
X16162110Y-14717254D01*
X16162110Y-14717254D02*
X16171634Y-14736302D01*
X16171634Y-14736302D02*
X16171634Y-14841064D01*
X16171634Y-14736302D02*
X16181158Y-14717254D01*
X16181158Y-14717254D02*
X16200205Y-14707730D01*
X16200205Y-14707730D02*
X16228777Y-14707730D01*
X16228777Y-14707730D02*
X16247824Y-14717254D01*
X16247824Y-14717254D02*
X16257348Y-14736302D01*
X16257348Y-14736302D02*
X16257348Y-14841064D01*
X16352586Y-14841064D02*
X16352586Y-14707730D01*
X16352586Y-14726778D02*
X16362110Y-14717254D01*
X16362110Y-14717254D02*
X16381158Y-14707730D01*
X16381158Y-14707730D02*
X16409729Y-14707730D01*
X16409729Y-14707730D02*
X16428777Y-14717254D01*
X16428777Y-14717254D02*
X16438301Y-14736302D01*
X16438301Y-14736302D02*
X16438301Y-14841064D01*
X16438301Y-14736302D02*
X16447824Y-14717254D01*
X16447824Y-14717254D02*
X16466872Y-14707730D01*
X16466872Y-14707730D02*
X16495443Y-14707730D01*
X16495443Y-14707730D02*
X16514491Y-14717254D01*
X16514491Y-14717254D02*
X16524015Y-14736302D01*
X16524015Y-14736302D02*
X16524015Y-14841064D01*
X16914491Y-14631540D02*
X16743063Y-14888683D01*
X17171634Y-14641064D02*
X17190682Y-14641064D01*
X17190682Y-14641064D02*
X17209729Y-14650588D01*
X17209729Y-14650588D02*
X17219253Y-14660111D01*
X17219253Y-14660111D02*
X17228777Y-14679159D01*
X17228777Y-14679159D02*
X17238301Y-14717254D01*
X17238301Y-14717254D02*
X17238301Y-14764873D01*
X17238301Y-14764873D02*
X17228777Y-14802968D01*
X17228777Y-14802968D02*
X17219253Y-14822016D01*
X17219253Y-14822016D02*
X17209729Y-14831540D01*
X17209729Y-14831540D02*
X17190682Y-14841064D01*
X17190682Y-14841064D02*
X17171634Y-14841064D01*
X17171634Y-14841064D02*
X17152587Y-14831540D01*
X17152587Y-14831540D02*
X17143063Y-14822016D01*
X17143063Y-14822016D02*
X17133539Y-14802968D01*
X17133539Y-14802968D02*
X17124015Y-14764873D01*
X17124015Y-14764873D02*
X17124015Y-14717254D01*
X17124015Y-14717254D02*
X17133539Y-14679159D01*
X17133539Y-14679159D02*
X17143063Y-14660111D01*
X17143063Y-14660111D02*
X17152587Y-14650588D01*
X17152587Y-14650588D02*
X17171634Y-14641064D01*
X17324015Y-14822016D02*
X17333539Y-14831540D01*
X17333539Y-14831540D02*
X17324015Y-14841064D01*
X17324015Y-14841064D02*
X17314491Y-14831540D01*
X17314491Y-14831540D02*
X17324015Y-14822016D01*
X17324015Y-14822016D02*
X17324015Y-14841064D01*
X17457348Y-14641064D02*
X17476396Y-14641064D01*
X17476396Y-14641064D02*
X17495444Y-14650588D01*
X17495444Y-14650588D02*
X17504968Y-14660111D01*
X17504968Y-14660111D02*
X17514491Y-14679159D01*
X17514491Y-14679159D02*
X17524015Y-14717254D01*
X17524015Y-14717254D02*
X17524015Y-14764873D01*
X17524015Y-14764873D02*
X17514491Y-14802968D01*
X17514491Y-14802968D02*
X17504968Y-14822016D01*
X17504968Y-14822016D02*
X17495444Y-14831540D01*
X17495444Y-14831540D02*
X17476396Y-14841064D01*
X17476396Y-14841064D02*
X17457348Y-14841064D01*
X17457348Y-14841064D02*
X17438301Y-14831540D01*
X17438301Y-14831540D02*
X17428777Y-14822016D01*
X17428777Y-14822016D02*
X17419253Y-14802968D01*
X17419253Y-14802968D02*
X17409729Y-14764873D01*
X17409729Y-14764873D02*
X17409729Y-14717254D01*
X17409729Y-14717254D02*
X17419253Y-14679159D01*
X17419253Y-14679159D02*
X17428777Y-14660111D01*
X17428777Y-14660111D02*
X17438301Y-14650588D01*
X17438301Y-14650588D02*
X17457348Y-14641064D01*
X17714491Y-14841064D02*
X17600206Y-14841064D01*
X17657348Y-14841064D02*
X17657348Y-14641064D01*
X17657348Y-14641064D02*
X17638301Y-14669635D01*
X17638301Y-14669635D02*
X17619253Y-14688683D01*
X17619253Y-14688683D02*
X17600206Y-14698207D01*
X17904968Y-14841064D02*
X17790682Y-14841064D01*
X17847825Y-14841064D02*
X17847825Y-14641064D01*
X17847825Y-14641064D02*
X17828777Y-14669635D01*
X17828777Y-14669635D02*
X17809729Y-14688683D01*
X17809729Y-14688683D02*
X17790682Y-14698207D01*
X18019253Y-14726778D02*
X18000206Y-14717254D01*
X18000206Y-14717254D02*
X17990682Y-14707730D01*
X17990682Y-14707730D02*
X17981158Y-14688683D01*
X17981158Y-14688683D02*
X17981158Y-14679159D01*
X17981158Y-14679159D02*
X17990682Y-14660111D01*
X17990682Y-14660111D02*
X18000206Y-14650588D01*
X18000206Y-14650588D02*
X18019253Y-14641064D01*
X18019253Y-14641064D02*
X18057349Y-14641064D01*
X18057349Y-14641064D02*
X18076396Y-14650588D01*
X18076396Y-14650588D02*
X18085920Y-14660111D01*
X18085920Y-14660111D02*
X18095444Y-14679159D01*
X18095444Y-14679159D02*
X18095444Y-14688683D01*
X18095444Y-14688683D02*
X18085920Y-14707730D01*
X18085920Y-14707730D02*
X18076396Y-14717254D01*
X18076396Y-14717254D02*
X18057349Y-14726778D01*
X18057349Y-14726778D02*
X18019253Y-14726778D01*
X18019253Y-14726778D02*
X18000206Y-14736302D01*
X18000206Y-14736302D02*
X17990682Y-14745826D01*
X17990682Y-14745826D02*
X17981158Y-14764873D01*
X17981158Y-14764873D02*
X17981158Y-14802968D01*
X17981158Y-14802968D02*
X17990682Y-14822016D01*
X17990682Y-14822016D02*
X18000206Y-14831540D01*
X18000206Y-14831540D02*
X18019253Y-14841064D01*
X18019253Y-14841064D02*
X18057349Y-14841064D01*
X18057349Y-14841064D02*
X18076396Y-14831540D01*
X18076396Y-14831540D02*
X18085920Y-14822016D01*
X18085920Y-14822016D02*
X18095444Y-14802968D01*
X18095444Y-14802968D02*
X18095444Y-14764873D01*
X18095444Y-14764873D02*
X18085920Y-14745826D01*
X18085920Y-14745826D02*
X18076396Y-14736302D01*
X18076396Y-14736302D02*
X18057349Y-14726778D01*
X18171634Y-14641064D02*
X18171634Y-14679159D01*
X18247825Y-14641064D02*
X18247825Y-14679159D01*
X18543063Y-14917254D02*
X18533539Y-14907730D01*
X18533539Y-14907730D02*
X18514491Y-14879159D01*
X18514491Y-14879159D02*
X18504968Y-14860111D01*
X18504968Y-14860111D02*
X18495444Y-14831540D01*
X18495444Y-14831540D02*
X18485920Y-14783921D01*
X18485920Y-14783921D02*
X18485920Y-14745826D01*
X18485920Y-14745826D02*
X18495444Y-14698207D01*
X18495444Y-14698207D02*
X18504968Y-14669635D01*
X18504968Y-14669635D02*
X18514491Y-14650588D01*
X18514491Y-14650588D02*
X18533539Y-14622016D01*
X18533539Y-14622016D02*
X18543063Y-14612492D01*
X18647825Y-14726778D02*
X18628777Y-14717254D01*
X18628777Y-14717254D02*
X18619253Y-14707730D01*
X18619253Y-14707730D02*
X18609730Y-14688683D01*
X18609730Y-14688683D02*
X18609730Y-14679159D01*
X18609730Y-14679159D02*
X18619253Y-14660111D01*
X18619253Y-14660111D02*
X18628777Y-14650588D01*
X18628777Y-14650588D02*
X18647825Y-14641064D01*
X18647825Y-14641064D02*
X18685920Y-14641064D01*
X18685920Y-14641064D02*
X18704968Y-14650588D01*
X18704968Y-14650588D02*
X18714491Y-14660111D01*
X18714491Y-14660111D02*
X18724015Y-14679159D01*
X18724015Y-14679159D02*
X18724015Y-14688683D01*
X18724015Y-14688683D02*
X18714491Y-14707730D01*
X18714491Y-14707730D02*
X18704968Y-14717254D01*
X18704968Y-14717254D02*
X18685920Y-14726778D01*
X18685920Y-14726778D02*
X18647825Y-14726778D01*
X18647825Y-14726778D02*
X18628777Y-14736302D01*
X18628777Y-14736302D02*
X18619253Y-14745826D01*
X18619253Y-14745826D02*
X18609730Y-14764873D01*
X18609730Y-14764873D02*
X18609730Y-14802968D01*
X18609730Y-14802968D02*
X18619253Y-14822016D01*
X18619253Y-14822016D02*
X18628777Y-14831540D01*
X18628777Y-14831540D02*
X18647825Y-14841064D01*
X18647825Y-14841064D02*
X18685920Y-14841064D01*
X18685920Y-14841064D02*
X18704968Y-14831540D01*
X18704968Y-14831540D02*
X18714491Y-14822016D01*
X18714491Y-14822016D02*
X18724015Y-14802968D01*
X18724015Y-14802968D02*
X18724015Y-14764873D01*
X18724015Y-14764873D02*
X18714491Y-14745826D01*
X18714491Y-14745826D02*
X18704968Y-14736302D01*
X18704968Y-14736302D02*
X18685920Y-14726778D01*
X18819253Y-14841064D02*
X18857349Y-14841064D01*
X18857349Y-14841064D02*
X18876396Y-14831540D01*
X18876396Y-14831540D02*
X18885920Y-14822016D01*
X18885920Y-14822016D02*
X18904968Y-14793445D01*
X18904968Y-14793445D02*
X18914491Y-14755349D01*
X18914491Y-14755349D02*
X18914491Y-14679159D01*
X18914491Y-14679159D02*
X18904968Y-14660111D01*
X18904968Y-14660111D02*
X18895444Y-14650588D01*
X18895444Y-14650588D02*
X18876396Y-14641064D01*
X18876396Y-14641064D02*
X18838301Y-14641064D01*
X18838301Y-14641064D02*
X18819253Y-14650588D01*
X18819253Y-14650588D02*
X18809730Y-14660111D01*
X18809730Y-14660111D02*
X18800206Y-14679159D01*
X18800206Y-14679159D02*
X18800206Y-14726778D01*
X18800206Y-14726778D02*
X18809730Y-14745826D01*
X18809730Y-14745826D02*
X18819253Y-14755349D01*
X18819253Y-14755349D02*
X18838301Y-14764873D01*
X18838301Y-14764873D02*
X18876396Y-14764873D01*
X18876396Y-14764873D02*
X18895444Y-14755349D01*
X18895444Y-14755349D02*
X18904968Y-14745826D01*
X18904968Y-14745826D02*
X18914491Y-14726778D01*
X19152587Y-14841064D02*
X19152587Y-14641064D01*
X19238301Y-14841064D02*
X19238301Y-14736302D01*
X19238301Y-14736302D02*
X19228777Y-14717254D01*
X19228777Y-14717254D02*
X19209730Y-14707730D01*
X19209730Y-14707730D02*
X19181158Y-14707730D01*
X19181158Y-14707730D02*
X19162111Y-14717254D01*
X19162111Y-14717254D02*
X19152587Y-14726778D01*
X19362111Y-14841064D02*
X19343063Y-14831540D01*
X19343063Y-14831540D02*
X19333539Y-14822016D01*
X19333539Y-14822016D02*
X19324015Y-14802968D01*
X19324015Y-14802968D02*
X19324015Y-14745826D01*
X19324015Y-14745826D02*
X19333539Y-14726778D01*
X19333539Y-14726778D02*
X19343063Y-14717254D01*
X19343063Y-14717254D02*
X19362111Y-14707730D01*
X19362111Y-14707730D02*
X19390682Y-14707730D01*
X19390682Y-14707730D02*
X19409730Y-14717254D01*
X19409730Y-14717254D02*
X19419253Y-14726778D01*
X19419253Y-14726778D02*
X19428777Y-14745826D01*
X19428777Y-14745826D02*
X19428777Y-14802968D01*
X19428777Y-14802968D02*
X19419253Y-14822016D01*
X19419253Y-14822016D02*
X19409730Y-14831540D01*
X19409730Y-14831540D02*
X19390682Y-14841064D01*
X19390682Y-14841064D02*
X19362111Y-14841064D01*
X19543063Y-14841064D02*
X19524015Y-14831540D01*
X19524015Y-14831540D02*
X19514492Y-14812492D01*
X19514492Y-14812492D02*
X19514492Y-14641064D01*
X19695444Y-14831540D02*
X19676396Y-14841064D01*
X19676396Y-14841064D02*
X19638301Y-14841064D01*
X19638301Y-14841064D02*
X19619253Y-14831540D01*
X19619253Y-14831540D02*
X19609730Y-14812492D01*
X19609730Y-14812492D02*
X19609730Y-14736302D01*
X19609730Y-14736302D02*
X19619253Y-14717254D01*
X19619253Y-14717254D02*
X19638301Y-14707730D01*
X19638301Y-14707730D02*
X19676396Y-14707730D01*
X19676396Y-14707730D02*
X19695444Y-14717254D01*
X19695444Y-14717254D02*
X19704968Y-14736302D01*
X19704968Y-14736302D02*
X19704968Y-14755349D01*
X19704968Y-14755349D02*
X19609730Y-14774397D01*
X19781158Y-14831540D02*
X19800206Y-14841064D01*
X19800206Y-14841064D02*
X19838301Y-14841064D01*
X19838301Y-14841064D02*
X19857349Y-14831540D01*
X19857349Y-14831540D02*
X19866873Y-14812492D01*
X19866873Y-14812492D02*
X19866873Y-14802968D01*
X19866873Y-14802968D02*
X19857349Y-14783921D01*
X19857349Y-14783921D02*
X19838301Y-14774397D01*
X19838301Y-14774397D02*
X19809730Y-14774397D01*
X19809730Y-14774397D02*
X19790682Y-14764873D01*
X19790682Y-14764873D02*
X19781158Y-14745826D01*
X19781158Y-14745826D02*
X19781158Y-14736302D01*
X19781158Y-14736302D02*
X19790682Y-14717254D01*
X19790682Y-14717254D02*
X19809730Y-14707730D01*
X19809730Y-14707730D02*
X19838301Y-14707730D01*
X19838301Y-14707730D02*
X19857349Y-14717254D01*
X19933539Y-14917254D02*
X19943063Y-14907730D01*
X19943063Y-14907730D02*
X19962111Y-14879159D01*
X19962111Y-14879159D02*
X19971634Y-14860111D01*
X19971634Y-14860111D02*
X19981158Y-14831540D01*
X19981158Y-14831540D02*
X19990682Y-14783921D01*
X19990682Y-14783921D02*
X19990682Y-14745826D01*
X19990682Y-14745826D02*
X19981158Y-14698207D01*
X19981158Y-14698207D02*
X19971634Y-14669635D01*
X19971634Y-14669635D02*
X19962111Y-14650588D01*
X19962111Y-14650588D02*
X19943063Y-14622016D01*
X19943063Y-14622016D02*
X19933539Y-14612492D01*
D11*
X14968000Y-15013580D02*
G75*
G02*
X14928000Y-15013580I-20000J0D01*
G01*
X14928000Y-15013580D02*
G75*
G02*
X14968000Y-15013580I20000J0D01*
G01*
D10*
X15266872Y-14905064D02*
X15285920Y-14905064D01*
X15285920Y-14905064D02*
X15304967Y-14914588D01*
X15304967Y-14914588D02*
X15314491Y-14924111D01*
X15314491Y-14924111D02*
X15324015Y-14943159D01*
X15324015Y-14943159D02*
X15333539Y-14981254D01*
X15333539Y-14981254D02*
X15333539Y-15028873D01*
X15333539Y-15028873D02*
X15324015Y-15066968D01*
X15324015Y-15066968D02*
X15314491Y-15086016D01*
X15314491Y-15086016D02*
X15304967Y-15095540D01*
X15304967Y-15095540D02*
X15285920Y-15105064D01*
X15285920Y-15105064D02*
X15266872Y-15105064D01*
X15266872Y-15105064D02*
X15247824Y-15095540D01*
X15247824Y-15095540D02*
X15238301Y-15086016D01*
X15238301Y-15086016D02*
X15228777Y-15066968D01*
X15228777Y-15066968D02*
X15219253Y-15028873D01*
X15219253Y-15028873D02*
X15219253Y-14981254D01*
X15219253Y-14981254D02*
X15228777Y-14943159D01*
X15228777Y-14943159D02*
X15238301Y-14924111D01*
X15238301Y-14924111D02*
X15247824Y-14914588D01*
X15247824Y-14914588D02*
X15266872Y-14905064D01*
X15419253Y-15086016D02*
X15428777Y-15095540D01*
X15428777Y-15095540D02*
X15419253Y-15105064D01*
X15419253Y-15105064D02*
X15409729Y-15095540D01*
X15409729Y-15095540D02*
X15419253Y-15086016D01*
X15419253Y-15086016D02*
X15419253Y-15105064D01*
X15600205Y-14971730D02*
X15600205Y-15105064D01*
X15552586Y-14895540D02*
X15504967Y-15038397D01*
X15504967Y-15038397D02*
X15628777Y-15038397D01*
X15743062Y-14905064D02*
X15762110Y-14905064D01*
X15762110Y-14905064D02*
X15781158Y-14914588D01*
X15781158Y-14914588D02*
X15790682Y-14924111D01*
X15790682Y-14924111D02*
X15800205Y-14943159D01*
X15800205Y-14943159D02*
X15809729Y-14981254D01*
X15809729Y-14981254D02*
X15809729Y-15028873D01*
X15809729Y-15028873D02*
X15800205Y-15066968D01*
X15800205Y-15066968D02*
X15790682Y-15086016D01*
X15790682Y-15086016D02*
X15781158Y-15095540D01*
X15781158Y-15095540D02*
X15762110Y-15105064D01*
X15762110Y-15105064D02*
X15743062Y-15105064D01*
X15743062Y-15105064D02*
X15724015Y-15095540D01*
X15724015Y-15095540D02*
X15714491Y-15086016D01*
X15714491Y-15086016D02*
X15704967Y-15066968D01*
X15704967Y-15066968D02*
X15695443Y-15028873D01*
X15695443Y-15028873D02*
X15695443Y-14981254D01*
X15695443Y-14981254D02*
X15704967Y-14943159D01*
X15704967Y-14943159D02*
X15714491Y-14924111D01*
X15714491Y-14924111D02*
X15724015Y-14914588D01*
X15724015Y-14914588D02*
X15743062Y-14905064D01*
X15933539Y-14905064D02*
X15952586Y-14905064D01*
X15952586Y-14905064D02*
X15971634Y-14914588D01*
X15971634Y-14914588D02*
X15981158Y-14924111D01*
X15981158Y-14924111D02*
X15990682Y-14943159D01*
X15990682Y-14943159D02*
X16000205Y-14981254D01*
X16000205Y-14981254D02*
X16000205Y-15028873D01*
X16000205Y-15028873D02*
X15990682Y-15066968D01*
X15990682Y-15066968D02*
X15981158Y-15086016D01*
X15981158Y-15086016D02*
X15971634Y-15095540D01*
X15971634Y-15095540D02*
X15952586Y-15105064D01*
X15952586Y-15105064D02*
X15933539Y-15105064D01*
X15933539Y-15105064D02*
X15914491Y-15095540D01*
X15914491Y-15095540D02*
X15904967Y-15086016D01*
X15904967Y-15086016D02*
X15895443Y-15066968D01*
X15895443Y-15066968D02*
X15885920Y-15028873D01*
X15885920Y-15028873D02*
X15885920Y-14981254D01*
X15885920Y-14981254D02*
X15895443Y-14943159D01*
X15895443Y-14943159D02*
X15904967Y-14924111D01*
X15904967Y-14924111D02*
X15914491Y-14914588D01*
X15914491Y-14914588D02*
X15933539Y-14905064D01*
X16085920Y-15105064D02*
X16085920Y-14971730D01*
X16085920Y-14990778D02*
X16095443Y-14981254D01*
X16095443Y-14981254D02*
X16114491Y-14971730D01*
X16114491Y-14971730D02*
X16143063Y-14971730D01*
X16143063Y-14971730D02*
X16162110Y-14981254D01*
X16162110Y-14981254D02*
X16171634Y-15000302D01*
X16171634Y-15000302D02*
X16171634Y-15105064D01*
X16171634Y-15000302D02*
X16181158Y-14981254D01*
X16181158Y-14981254D02*
X16200205Y-14971730D01*
X16200205Y-14971730D02*
X16228777Y-14971730D01*
X16228777Y-14971730D02*
X16247824Y-14981254D01*
X16247824Y-14981254D02*
X16257348Y-15000302D01*
X16257348Y-15000302D02*
X16257348Y-15105064D01*
X16352586Y-15105064D02*
X16352586Y-14971730D01*
X16352586Y-14990778D02*
X16362110Y-14981254D01*
X16362110Y-14981254D02*
X16381158Y-14971730D01*
X16381158Y-14971730D02*
X16409729Y-14971730D01*
X16409729Y-14971730D02*
X16428777Y-14981254D01*
X16428777Y-14981254D02*
X16438301Y-15000302D01*
X16438301Y-15000302D02*
X16438301Y-15105064D01*
X16438301Y-15000302D02*
X16447824Y-14981254D01*
X16447824Y-14981254D02*
X16466872Y-14971730D01*
X16466872Y-14971730D02*
X16495443Y-14971730D01*
X16495443Y-14971730D02*
X16514491Y-14981254D01*
X16514491Y-14981254D02*
X16524015Y-15000302D01*
X16524015Y-15000302D02*
X16524015Y-15105064D01*
X16914491Y-14895540D02*
X16743063Y-15152683D01*
X17171634Y-14905064D02*
X17190682Y-14905064D01*
X17190682Y-14905064D02*
X17209729Y-14914588D01*
X17209729Y-14914588D02*
X17219253Y-14924111D01*
X17219253Y-14924111D02*
X17228777Y-14943159D01*
X17228777Y-14943159D02*
X17238301Y-14981254D01*
X17238301Y-14981254D02*
X17238301Y-15028873D01*
X17238301Y-15028873D02*
X17228777Y-15066968D01*
X17228777Y-15066968D02*
X17219253Y-15086016D01*
X17219253Y-15086016D02*
X17209729Y-15095540D01*
X17209729Y-15095540D02*
X17190682Y-15105064D01*
X17190682Y-15105064D02*
X17171634Y-15105064D01*
X17171634Y-15105064D02*
X17152587Y-15095540D01*
X17152587Y-15095540D02*
X17143063Y-15086016D01*
X17143063Y-15086016D02*
X17133539Y-15066968D01*
X17133539Y-15066968D02*
X17124015Y-15028873D01*
X17124015Y-15028873D02*
X17124015Y-14981254D01*
X17124015Y-14981254D02*
X17133539Y-14943159D01*
X17133539Y-14943159D02*
X17143063Y-14924111D01*
X17143063Y-14924111D02*
X17152587Y-14914588D01*
X17152587Y-14914588D02*
X17171634Y-14905064D01*
X17324015Y-15086016D02*
X17333539Y-15095540D01*
X17333539Y-15095540D02*
X17324015Y-15105064D01*
X17324015Y-15105064D02*
X17314491Y-15095540D01*
X17314491Y-15095540D02*
X17324015Y-15086016D01*
X17324015Y-15086016D02*
X17324015Y-15105064D01*
X17457348Y-14905064D02*
X17476396Y-14905064D01*
X17476396Y-14905064D02*
X17495444Y-14914588D01*
X17495444Y-14914588D02*
X17504968Y-14924111D01*
X17504968Y-14924111D02*
X17514491Y-14943159D01*
X17514491Y-14943159D02*
X17524015Y-14981254D01*
X17524015Y-14981254D02*
X17524015Y-15028873D01*
X17524015Y-15028873D02*
X17514491Y-15066968D01*
X17514491Y-15066968D02*
X17504968Y-15086016D01*
X17504968Y-15086016D02*
X17495444Y-15095540D01*
X17495444Y-15095540D02*
X17476396Y-15105064D01*
X17476396Y-15105064D02*
X17457348Y-15105064D01*
X17457348Y-15105064D02*
X17438301Y-15095540D01*
X17438301Y-15095540D02*
X17428777Y-15086016D01*
X17428777Y-15086016D02*
X17419253Y-15066968D01*
X17419253Y-15066968D02*
X17409729Y-15028873D01*
X17409729Y-15028873D02*
X17409729Y-14981254D01*
X17409729Y-14981254D02*
X17419253Y-14943159D01*
X17419253Y-14943159D02*
X17428777Y-14924111D01*
X17428777Y-14924111D02*
X17438301Y-14914588D01*
X17438301Y-14914588D02*
X17457348Y-14905064D01*
X17714491Y-15105064D02*
X17600206Y-15105064D01*
X17657348Y-15105064D02*
X17657348Y-14905064D01*
X17657348Y-14905064D02*
X17638301Y-14933635D01*
X17638301Y-14933635D02*
X17619253Y-14952683D01*
X17619253Y-14952683D02*
X17600206Y-14962207D01*
X17895444Y-14905064D02*
X17800206Y-14905064D01*
X17800206Y-14905064D02*
X17790682Y-15000302D01*
X17790682Y-15000302D02*
X17800206Y-14990778D01*
X17800206Y-14990778D02*
X17819253Y-14981254D01*
X17819253Y-14981254D02*
X17866872Y-14981254D01*
X17866872Y-14981254D02*
X17885920Y-14990778D01*
X17885920Y-14990778D02*
X17895444Y-15000302D01*
X17895444Y-15000302D02*
X17904968Y-15019349D01*
X17904968Y-15019349D02*
X17904968Y-15066968D01*
X17904968Y-15066968D02*
X17895444Y-15086016D01*
X17895444Y-15086016D02*
X17885920Y-15095540D01*
X17885920Y-15095540D02*
X17866872Y-15105064D01*
X17866872Y-15105064D02*
X17819253Y-15105064D01*
X17819253Y-15105064D02*
X17800206Y-15095540D01*
X17800206Y-15095540D02*
X17790682Y-15086016D01*
X17971634Y-14905064D02*
X18104968Y-14905064D01*
X18104968Y-14905064D02*
X18019253Y-15105064D01*
X18171634Y-14905064D02*
X18171634Y-14943159D01*
X18247825Y-14905064D02*
X18247825Y-14943159D01*
X18543063Y-15181254D02*
X18533539Y-15171730D01*
X18533539Y-15171730D02*
X18514491Y-15143159D01*
X18514491Y-15143159D02*
X18504968Y-15124111D01*
X18504968Y-15124111D02*
X18495444Y-15095540D01*
X18495444Y-15095540D02*
X18485920Y-15047921D01*
X18485920Y-15047921D02*
X18485920Y-15009826D01*
X18485920Y-15009826D02*
X18495444Y-14962207D01*
X18495444Y-14962207D02*
X18504968Y-14933635D01*
X18504968Y-14933635D02*
X18514491Y-14914588D01*
X18514491Y-14914588D02*
X18533539Y-14886016D01*
X18533539Y-14886016D02*
X18543063Y-14876492D01*
X18704968Y-14905064D02*
X18666872Y-14905064D01*
X18666872Y-14905064D02*
X18647825Y-14914588D01*
X18647825Y-14914588D02*
X18638301Y-14924111D01*
X18638301Y-14924111D02*
X18619253Y-14952683D01*
X18619253Y-14952683D02*
X18609730Y-14990778D01*
X18609730Y-14990778D02*
X18609730Y-15066968D01*
X18609730Y-15066968D02*
X18619253Y-15086016D01*
X18619253Y-15086016D02*
X18628777Y-15095540D01*
X18628777Y-15095540D02*
X18647825Y-15105064D01*
X18647825Y-15105064D02*
X18685920Y-15105064D01*
X18685920Y-15105064D02*
X18704968Y-15095540D01*
X18704968Y-15095540D02*
X18714491Y-15086016D01*
X18714491Y-15086016D02*
X18724015Y-15066968D01*
X18724015Y-15066968D02*
X18724015Y-15019349D01*
X18724015Y-15019349D02*
X18714491Y-15000302D01*
X18714491Y-15000302D02*
X18704968Y-14990778D01*
X18704968Y-14990778D02*
X18685920Y-14981254D01*
X18685920Y-14981254D02*
X18647825Y-14981254D01*
X18647825Y-14981254D02*
X18628777Y-14990778D01*
X18628777Y-14990778D02*
X18619253Y-15000302D01*
X18619253Y-15000302D02*
X18609730Y-15019349D01*
X18962111Y-15105064D02*
X18962111Y-14905064D01*
X19047825Y-15105064D02*
X19047825Y-15000302D01*
X19047825Y-15000302D02*
X19038301Y-14981254D01*
X19038301Y-14981254D02*
X19019253Y-14971730D01*
X19019253Y-14971730D02*
X18990682Y-14971730D01*
X18990682Y-14971730D02*
X18971634Y-14981254D01*
X18971634Y-14981254D02*
X18962111Y-14990778D01*
X19171634Y-15105064D02*
X19152587Y-15095540D01*
X19152587Y-15095540D02*
X19143063Y-15086016D01*
X19143063Y-15086016D02*
X19133539Y-15066968D01*
X19133539Y-15066968D02*
X19133539Y-15009826D01*
X19133539Y-15009826D02*
X19143063Y-14990778D01*
X19143063Y-14990778D02*
X19152587Y-14981254D01*
X19152587Y-14981254D02*
X19171634Y-14971730D01*
X19171634Y-14971730D02*
X19200206Y-14971730D01*
X19200206Y-14971730D02*
X19219253Y-14981254D01*
X19219253Y-14981254D02*
X19228777Y-14990778D01*
X19228777Y-14990778D02*
X19238301Y-15009826D01*
X19238301Y-15009826D02*
X19238301Y-15066968D01*
X19238301Y-15066968D02*
X19228777Y-15086016D01*
X19228777Y-15086016D02*
X19219253Y-15095540D01*
X19219253Y-15095540D02*
X19200206Y-15105064D01*
X19200206Y-15105064D02*
X19171634Y-15105064D01*
X19352587Y-15105064D02*
X19333539Y-15095540D01*
X19333539Y-15095540D02*
X19324015Y-15076492D01*
X19324015Y-15076492D02*
X19324015Y-14905064D01*
X19504968Y-15095540D02*
X19485920Y-15105064D01*
X19485920Y-15105064D02*
X19447825Y-15105064D01*
X19447825Y-15105064D02*
X19428777Y-15095540D01*
X19428777Y-15095540D02*
X19419253Y-15076492D01*
X19419253Y-15076492D02*
X19419253Y-15000302D01*
X19419253Y-15000302D02*
X19428777Y-14981254D01*
X19428777Y-14981254D02*
X19447825Y-14971730D01*
X19447825Y-14971730D02*
X19485920Y-14971730D01*
X19485920Y-14971730D02*
X19504968Y-14981254D01*
X19504968Y-14981254D02*
X19514492Y-15000302D01*
X19514492Y-15000302D02*
X19514492Y-15019349D01*
X19514492Y-15019349D02*
X19419253Y-15038397D01*
X19590682Y-15095540D02*
X19609730Y-15105064D01*
X19609730Y-15105064D02*
X19647825Y-15105064D01*
X19647825Y-15105064D02*
X19666873Y-15095540D01*
X19666873Y-15095540D02*
X19676396Y-15076492D01*
X19676396Y-15076492D02*
X19676396Y-15066968D01*
X19676396Y-15066968D02*
X19666873Y-15047921D01*
X19666873Y-15047921D02*
X19647825Y-15038397D01*
X19647825Y-15038397D02*
X19619253Y-15038397D01*
X19619253Y-15038397D02*
X19600206Y-15028873D01*
X19600206Y-15028873D02*
X19590682Y-15009826D01*
X19590682Y-15009826D02*
X19590682Y-15000302D01*
X19590682Y-15000302D02*
X19600206Y-14981254D01*
X19600206Y-14981254D02*
X19619253Y-14971730D01*
X19619253Y-14971730D02*
X19647825Y-14971730D01*
X19647825Y-14971730D02*
X19666873Y-14981254D01*
X19743063Y-15181254D02*
X19752587Y-15171730D01*
X19752587Y-15171730D02*
X19771634Y-15143159D01*
X19771634Y-15143159D02*
X19781158Y-15124111D01*
X19781158Y-15124111D02*
X19790682Y-15095540D01*
X19790682Y-15095540D02*
X19800206Y-15047921D01*
X19800206Y-15047921D02*
X19800206Y-15009826D01*
X19800206Y-15009826D02*
X19790682Y-14962207D01*
X19790682Y-14962207D02*
X19781158Y-14933635D01*
X19781158Y-14933635D02*
X19771634Y-14914588D01*
X19771634Y-14914588D02*
X19752587Y-14886016D01*
X19752587Y-14886016D02*
X19743063Y-14876492D01*
D11*
X14927360Y-15236940D02*
X14927360Y-15318220D01*
X14886720Y-15277580D02*
X14968000Y-15277580D01*
D10*
X15266872Y-15169064D02*
X15285920Y-15169064D01*
X15285920Y-15169064D02*
X15304967Y-15178588D01*
X15304967Y-15178588D02*
X15314491Y-15188111D01*
X15314491Y-15188111D02*
X15324015Y-15207159D01*
X15324015Y-15207159D02*
X15333539Y-15245254D01*
X15333539Y-15245254D02*
X15333539Y-15292873D01*
X15333539Y-15292873D02*
X15324015Y-15330968D01*
X15324015Y-15330968D02*
X15314491Y-15350016D01*
X15314491Y-15350016D02*
X15304967Y-15359540D01*
X15304967Y-15359540D02*
X15285920Y-15369064D01*
X15285920Y-15369064D02*
X15266872Y-15369064D01*
X15266872Y-15369064D02*
X15247824Y-15359540D01*
X15247824Y-15359540D02*
X15238301Y-15350016D01*
X15238301Y-15350016D02*
X15228777Y-15330968D01*
X15228777Y-15330968D02*
X15219253Y-15292873D01*
X15219253Y-15292873D02*
X15219253Y-15245254D01*
X15219253Y-15245254D02*
X15228777Y-15207159D01*
X15228777Y-15207159D02*
X15238301Y-15188111D01*
X15238301Y-15188111D02*
X15247824Y-15178588D01*
X15247824Y-15178588D02*
X15266872Y-15169064D01*
X15419253Y-15350016D02*
X15428777Y-15359540D01*
X15428777Y-15359540D02*
X15419253Y-15369064D01*
X15419253Y-15369064D02*
X15409729Y-15359540D01*
X15409729Y-15359540D02*
X15419253Y-15350016D01*
X15419253Y-15350016D02*
X15419253Y-15369064D01*
X15543062Y-15254778D02*
X15524015Y-15245254D01*
X15524015Y-15245254D02*
X15514491Y-15235730D01*
X15514491Y-15235730D02*
X15504967Y-15216683D01*
X15504967Y-15216683D02*
X15504967Y-15207159D01*
X15504967Y-15207159D02*
X15514491Y-15188111D01*
X15514491Y-15188111D02*
X15524015Y-15178588D01*
X15524015Y-15178588D02*
X15543062Y-15169064D01*
X15543062Y-15169064D02*
X15581158Y-15169064D01*
X15581158Y-15169064D02*
X15600205Y-15178588D01*
X15600205Y-15178588D02*
X15609729Y-15188111D01*
X15609729Y-15188111D02*
X15619253Y-15207159D01*
X15619253Y-15207159D02*
X15619253Y-15216683D01*
X15619253Y-15216683D02*
X15609729Y-15235730D01*
X15609729Y-15235730D02*
X15600205Y-15245254D01*
X15600205Y-15245254D02*
X15581158Y-15254778D01*
X15581158Y-15254778D02*
X15543062Y-15254778D01*
X15543062Y-15254778D02*
X15524015Y-15264302D01*
X15524015Y-15264302D02*
X15514491Y-15273826D01*
X15514491Y-15273826D02*
X15504967Y-15292873D01*
X15504967Y-15292873D02*
X15504967Y-15330968D01*
X15504967Y-15330968D02*
X15514491Y-15350016D01*
X15514491Y-15350016D02*
X15524015Y-15359540D01*
X15524015Y-15359540D02*
X15543062Y-15369064D01*
X15543062Y-15369064D02*
X15581158Y-15369064D01*
X15581158Y-15369064D02*
X15600205Y-15359540D01*
X15600205Y-15359540D02*
X15609729Y-15350016D01*
X15609729Y-15350016D02*
X15619253Y-15330968D01*
X15619253Y-15330968D02*
X15619253Y-15292873D01*
X15619253Y-15292873D02*
X15609729Y-15273826D01*
X15609729Y-15273826D02*
X15600205Y-15264302D01*
X15600205Y-15264302D02*
X15581158Y-15254778D01*
X15809729Y-15369064D02*
X15695443Y-15369064D01*
X15752586Y-15369064D02*
X15752586Y-15169064D01*
X15752586Y-15169064D02*
X15733539Y-15197635D01*
X15733539Y-15197635D02*
X15714491Y-15216683D01*
X15714491Y-15216683D02*
X15695443Y-15226207D01*
X15876396Y-15169064D02*
X16000205Y-15169064D01*
X16000205Y-15169064D02*
X15933539Y-15245254D01*
X15933539Y-15245254D02*
X15962110Y-15245254D01*
X15962110Y-15245254D02*
X15981158Y-15254778D01*
X15981158Y-15254778D02*
X15990682Y-15264302D01*
X15990682Y-15264302D02*
X16000205Y-15283349D01*
X16000205Y-15283349D02*
X16000205Y-15330968D01*
X16000205Y-15330968D02*
X15990682Y-15350016D01*
X15990682Y-15350016D02*
X15981158Y-15359540D01*
X15981158Y-15359540D02*
X15962110Y-15369064D01*
X15962110Y-15369064D02*
X15904967Y-15369064D01*
X15904967Y-15369064D02*
X15885920Y-15359540D01*
X15885920Y-15359540D02*
X15876396Y-15350016D01*
X16085920Y-15369064D02*
X16085920Y-15235730D01*
X16085920Y-15254778D02*
X16095443Y-15245254D01*
X16095443Y-15245254D02*
X16114491Y-15235730D01*
X16114491Y-15235730D02*
X16143063Y-15235730D01*
X16143063Y-15235730D02*
X16162110Y-15245254D01*
X16162110Y-15245254D02*
X16171634Y-15264302D01*
X16171634Y-15264302D02*
X16171634Y-15369064D01*
X16171634Y-15264302D02*
X16181158Y-15245254D01*
X16181158Y-15245254D02*
X16200205Y-15235730D01*
X16200205Y-15235730D02*
X16228777Y-15235730D01*
X16228777Y-15235730D02*
X16247824Y-15245254D01*
X16247824Y-15245254D02*
X16257348Y-15264302D01*
X16257348Y-15264302D02*
X16257348Y-15369064D01*
X16352586Y-15369064D02*
X16352586Y-15235730D01*
X16352586Y-15254778D02*
X16362110Y-15245254D01*
X16362110Y-15245254D02*
X16381158Y-15235730D01*
X16381158Y-15235730D02*
X16409729Y-15235730D01*
X16409729Y-15235730D02*
X16428777Y-15245254D01*
X16428777Y-15245254D02*
X16438301Y-15264302D01*
X16438301Y-15264302D02*
X16438301Y-15369064D01*
X16438301Y-15264302D02*
X16447824Y-15245254D01*
X16447824Y-15245254D02*
X16466872Y-15235730D01*
X16466872Y-15235730D02*
X16495443Y-15235730D01*
X16495443Y-15235730D02*
X16514491Y-15245254D01*
X16514491Y-15245254D02*
X16524015Y-15264302D01*
X16524015Y-15264302D02*
X16524015Y-15369064D01*
X16914491Y-15159540D02*
X16743063Y-15416683D01*
X17171634Y-15169064D02*
X17190682Y-15169064D01*
X17190682Y-15169064D02*
X17209729Y-15178588D01*
X17209729Y-15178588D02*
X17219253Y-15188111D01*
X17219253Y-15188111D02*
X17228777Y-15207159D01*
X17228777Y-15207159D02*
X17238301Y-15245254D01*
X17238301Y-15245254D02*
X17238301Y-15292873D01*
X17238301Y-15292873D02*
X17228777Y-15330968D01*
X17228777Y-15330968D02*
X17219253Y-15350016D01*
X17219253Y-15350016D02*
X17209729Y-15359540D01*
X17209729Y-15359540D02*
X17190682Y-15369064D01*
X17190682Y-15369064D02*
X17171634Y-15369064D01*
X17171634Y-15369064D02*
X17152587Y-15359540D01*
X17152587Y-15359540D02*
X17143063Y-15350016D01*
X17143063Y-15350016D02*
X17133539Y-15330968D01*
X17133539Y-15330968D02*
X17124015Y-15292873D01*
X17124015Y-15292873D02*
X17124015Y-15245254D01*
X17124015Y-15245254D02*
X17133539Y-15207159D01*
X17133539Y-15207159D02*
X17143063Y-15188111D01*
X17143063Y-15188111D02*
X17152587Y-15178588D01*
X17152587Y-15178588D02*
X17171634Y-15169064D01*
X17324015Y-15350016D02*
X17333539Y-15359540D01*
X17333539Y-15359540D02*
X17324015Y-15369064D01*
X17324015Y-15369064D02*
X17314491Y-15359540D01*
X17314491Y-15359540D02*
X17324015Y-15350016D01*
X17324015Y-15350016D02*
X17324015Y-15369064D01*
X17457348Y-15169064D02*
X17476396Y-15169064D01*
X17476396Y-15169064D02*
X17495444Y-15178588D01*
X17495444Y-15178588D02*
X17504968Y-15188111D01*
X17504968Y-15188111D02*
X17514491Y-15207159D01*
X17514491Y-15207159D02*
X17524015Y-15245254D01*
X17524015Y-15245254D02*
X17524015Y-15292873D01*
X17524015Y-15292873D02*
X17514491Y-15330968D01*
X17514491Y-15330968D02*
X17504968Y-15350016D01*
X17504968Y-15350016D02*
X17495444Y-15359540D01*
X17495444Y-15359540D02*
X17476396Y-15369064D01*
X17476396Y-15369064D02*
X17457348Y-15369064D01*
X17457348Y-15369064D02*
X17438301Y-15359540D01*
X17438301Y-15359540D02*
X17428777Y-15350016D01*
X17428777Y-15350016D02*
X17419253Y-15330968D01*
X17419253Y-15330968D02*
X17409729Y-15292873D01*
X17409729Y-15292873D02*
X17409729Y-15245254D01*
X17409729Y-15245254D02*
X17419253Y-15207159D01*
X17419253Y-15207159D02*
X17428777Y-15188111D01*
X17428777Y-15188111D02*
X17438301Y-15178588D01*
X17438301Y-15178588D02*
X17457348Y-15169064D01*
X17590682Y-15169064D02*
X17714491Y-15169064D01*
X17714491Y-15169064D02*
X17647825Y-15245254D01*
X17647825Y-15245254D02*
X17676396Y-15245254D01*
X17676396Y-15245254D02*
X17695444Y-15254778D01*
X17695444Y-15254778D02*
X17704968Y-15264302D01*
X17704968Y-15264302D02*
X17714491Y-15283349D01*
X17714491Y-15283349D02*
X17714491Y-15330968D01*
X17714491Y-15330968D02*
X17704968Y-15350016D01*
X17704968Y-15350016D02*
X17695444Y-15359540D01*
X17695444Y-15359540D02*
X17676396Y-15369064D01*
X17676396Y-15369064D02*
X17619253Y-15369064D01*
X17619253Y-15369064D02*
X17600206Y-15359540D01*
X17600206Y-15359540D02*
X17590682Y-15350016D01*
X17790682Y-15188111D02*
X17800206Y-15178588D01*
X17800206Y-15178588D02*
X17819253Y-15169064D01*
X17819253Y-15169064D02*
X17866872Y-15169064D01*
X17866872Y-15169064D02*
X17885920Y-15178588D01*
X17885920Y-15178588D02*
X17895444Y-15188111D01*
X17895444Y-15188111D02*
X17904968Y-15207159D01*
X17904968Y-15207159D02*
X17904968Y-15226207D01*
X17904968Y-15226207D02*
X17895444Y-15254778D01*
X17895444Y-15254778D02*
X17781158Y-15369064D01*
X17781158Y-15369064D02*
X17904968Y-15369064D01*
X18028777Y-15169064D02*
X18047825Y-15169064D01*
X18047825Y-15169064D02*
X18066872Y-15178588D01*
X18066872Y-15178588D02*
X18076396Y-15188111D01*
X18076396Y-15188111D02*
X18085920Y-15207159D01*
X18085920Y-15207159D02*
X18095444Y-15245254D01*
X18095444Y-15245254D02*
X18095444Y-15292873D01*
X18095444Y-15292873D02*
X18085920Y-15330968D01*
X18085920Y-15330968D02*
X18076396Y-15350016D01*
X18076396Y-15350016D02*
X18066872Y-15359540D01*
X18066872Y-15359540D02*
X18047825Y-15369064D01*
X18047825Y-15369064D02*
X18028777Y-15369064D01*
X18028777Y-15369064D02*
X18009729Y-15359540D01*
X18009729Y-15359540D02*
X18000206Y-15350016D01*
X18000206Y-15350016D02*
X17990682Y-15330968D01*
X17990682Y-15330968D02*
X17981158Y-15292873D01*
X17981158Y-15292873D02*
X17981158Y-15245254D01*
X17981158Y-15245254D02*
X17990682Y-15207159D01*
X17990682Y-15207159D02*
X18000206Y-15188111D01*
X18000206Y-15188111D02*
X18009729Y-15178588D01*
X18009729Y-15178588D02*
X18028777Y-15169064D01*
X18171634Y-15169064D02*
X18171634Y-15207159D01*
X18247825Y-15169064D02*
X18247825Y-15207159D01*
X18543063Y-15445254D02*
X18533539Y-15435730D01*
X18533539Y-15435730D02*
X18514491Y-15407159D01*
X18514491Y-15407159D02*
X18504968Y-15388111D01*
X18504968Y-15388111D02*
X18495444Y-15359540D01*
X18495444Y-15359540D02*
X18485920Y-15311921D01*
X18485920Y-15311921D02*
X18485920Y-15273826D01*
X18485920Y-15273826D02*
X18495444Y-15226207D01*
X18495444Y-15226207D02*
X18504968Y-15197635D01*
X18504968Y-15197635D02*
X18514491Y-15178588D01*
X18514491Y-15178588D02*
X18533539Y-15150016D01*
X18533539Y-15150016D02*
X18543063Y-15140492D01*
X18704968Y-15235730D02*
X18704968Y-15369064D01*
X18657349Y-15159540D02*
X18609730Y-15302397D01*
X18609730Y-15302397D02*
X18733539Y-15302397D01*
X18847825Y-15169064D02*
X18866872Y-15169064D01*
X18866872Y-15169064D02*
X18885920Y-15178588D01*
X18885920Y-15178588D02*
X18895444Y-15188111D01*
X18895444Y-15188111D02*
X18904968Y-15207159D01*
X18904968Y-15207159D02*
X18914491Y-15245254D01*
X18914491Y-15245254D02*
X18914491Y-15292873D01*
X18914491Y-15292873D02*
X18904968Y-15330968D01*
X18904968Y-15330968D02*
X18895444Y-15350016D01*
X18895444Y-15350016D02*
X18885920Y-15359540D01*
X18885920Y-15359540D02*
X18866872Y-15369064D01*
X18866872Y-15369064D02*
X18847825Y-15369064D01*
X18847825Y-15369064D02*
X18828777Y-15359540D01*
X18828777Y-15359540D02*
X18819253Y-15350016D01*
X18819253Y-15350016D02*
X18809730Y-15330968D01*
X18809730Y-15330968D02*
X18800206Y-15292873D01*
X18800206Y-15292873D02*
X18800206Y-15245254D01*
X18800206Y-15245254D02*
X18809730Y-15207159D01*
X18809730Y-15207159D02*
X18819253Y-15188111D01*
X18819253Y-15188111D02*
X18828777Y-15178588D01*
X18828777Y-15178588D02*
X18847825Y-15169064D01*
X19152587Y-15369064D02*
X19152587Y-15169064D01*
X19238301Y-15369064D02*
X19238301Y-15264302D01*
X19238301Y-15264302D02*
X19228777Y-15245254D01*
X19228777Y-15245254D02*
X19209730Y-15235730D01*
X19209730Y-15235730D02*
X19181158Y-15235730D01*
X19181158Y-15235730D02*
X19162111Y-15245254D01*
X19162111Y-15245254D02*
X19152587Y-15254778D01*
X19362111Y-15369064D02*
X19343063Y-15359540D01*
X19343063Y-15359540D02*
X19333539Y-15350016D01*
X19333539Y-15350016D02*
X19324015Y-15330968D01*
X19324015Y-15330968D02*
X19324015Y-15273826D01*
X19324015Y-15273826D02*
X19333539Y-15254778D01*
X19333539Y-15254778D02*
X19343063Y-15245254D01*
X19343063Y-15245254D02*
X19362111Y-15235730D01*
X19362111Y-15235730D02*
X19390682Y-15235730D01*
X19390682Y-15235730D02*
X19409730Y-15245254D01*
X19409730Y-15245254D02*
X19419253Y-15254778D01*
X19419253Y-15254778D02*
X19428777Y-15273826D01*
X19428777Y-15273826D02*
X19428777Y-15330968D01*
X19428777Y-15330968D02*
X19419253Y-15350016D01*
X19419253Y-15350016D02*
X19409730Y-15359540D01*
X19409730Y-15359540D02*
X19390682Y-15369064D01*
X19390682Y-15369064D02*
X19362111Y-15369064D01*
X19543063Y-15369064D02*
X19524015Y-15359540D01*
X19524015Y-15359540D02*
X19514492Y-15340492D01*
X19514492Y-15340492D02*
X19514492Y-15169064D01*
X19695444Y-15359540D02*
X19676396Y-15369064D01*
X19676396Y-15369064D02*
X19638301Y-15369064D01*
X19638301Y-15369064D02*
X19619253Y-15359540D01*
X19619253Y-15359540D02*
X19609730Y-15340492D01*
X19609730Y-15340492D02*
X19609730Y-15264302D01*
X19609730Y-15264302D02*
X19619253Y-15245254D01*
X19619253Y-15245254D02*
X19638301Y-15235730D01*
X19638301Y-15235730D02*
X19676396Y-15235730D01*
X19676396Y-15235730D02*
X19695444Y-15245254D01*
X19695444Y-15245254D02*
X19704968Y-15264302D01*
X19704968Y-15264302D02*
X19704968Y-15283349D01*
X19704968Y-15283349D02*
X19609730Y-15302397D01*
X19781158Y-15359540D02*
X19800206Y-15369064D01*
X19800206Y-15369064D02*
X19838301Y-15369064D01*
X19838301Y-15369064D02*
X19857349Y-15359540D01*
X19857349Y-15359540D02*
X19866873Y-15340492D01*
X19866873Y-15340492D02*
X19866873Y-15330968D01*
X19866873Y-15330968D02*
X19857349Y-15311921D01*
X19857349Y-15311921D02*
X19838301Y-15302397D01*
X19838301Y-15302397D02*
X19809730Y-15302397D01*
X19809730Y-15302397D02*
X19790682Y-15292873D01*
X19790682Y-15292873D02*
X19781158Y-15273826D01*
X19781158Y-15273826D02*
X19781158Y-15264302D01*
X19781158Y-15264302D02*
X19790682Y-15245254D01*
X19790682Y-15245254D02*
X19809730Y-15235730D01*
X19809730Y-15235730D02*
X19838301Y-15235730D01*
X19838301Y-15235730D02*
X19857349Y-15245254D01*
X19933539Y-15445254D02*
X19943063Y-15435730D01*
X19943063Y-15435730D02*
X19962111Y-15407159D01*
X19962111Y-15407159D02*
X19971634Y-15388111D01*
X19971634Y-15388111D02*
X19981158Y-15359540D01*
X19981158Y-15359540D02*
X19990682Y-15311921D01*
X19990682Y-15311921D02*
X19990682Y-15273826D01*
X19990682Y-15273826D02*
X19981158Y-15226207D01*
X19981158Y-15226207D02*
X19971634Y-15197635D01*
X19971634Y-15197635D02*
X19962111Y-15178588D01*
X19962111Y-15178588D02*
X19943063Y-15150016D01*
X19943063Y-15150016D02*
X19933539Y-15140492D01*
D11*
X14953493Y-15576603D02*
X14953493Y-15506557D01*
X14883447Y-15506557D01*
X14883447Y-15576603D01*
X14953493Y-15576603D01*
D10*
X15266872Y-15433064D02*
X15285920Y-15433064D01*
X15285920Y-15433064D02*
X15304967Y-15442588D01*
X15304967Y-15442588D02*
X15314491Y-15452111D01*
X15314491Y-15452111D02*
X15324015Y-15471159D01*
X15324015Y-15471159D02*
X15333539Y-15509254D01*
X15333539Y-15509254D02*
X15333539Y-15556873D01*
X15333539Y-15556873D02*
X15324015Y-15594968D01*
X15324015Y-15594968D02*
X15314491Y-15614016D01*
X15314491Y-15614016D02*
X15304967Y-15623540D01*
X15304967Y-15623540D02*
X15285920Y-15633064D01*
X15285920Y-15633064D02*
X15266872Y-15633064D01*
X15266872Y-15633064D02*
X15247824Y-15623540D01*
X15247824Y-15623540D02*
X15238301Y-15614016D01*
X15238301Y-15614016D02*
X15228777Y-15594968D01*
X15228777Y-15594968D02*
X15219253Y-15556873D01*
X15219253Y-15556873D02*
X15219253Y-15509254D01*
X15219253Y-15509254D02*
X15228777Y-15471159D01*
X15228777Y-15471159D02*
X15238301Y-15452111D01*
X15238301Y-15452111D02*
X15247824Y-15442588D01*
X15247824Y-15442588D02*
X15266872Y-15433064D01*
X15419253Y-15614016D02*
X15428777Y-15623540D01*
X15428777Y-15623540D02*
X15419253Y-15633064D01*
X15419253Y-15633064D02*
X15409729Y-15623540D01*
X15409729Y-15623540D02*
X15419253Y-15614016D01*
X15419253Y-15614016D02*
X15419253Y-15633064D01*
X15524015Y-15633064D02*
X15562110Y-15633064D01*
X15562110Y-15633064D02*
X15581158Y-15623540D01*
X15581158Y-15623540D02*
X15590682Y-15614016D01*
X15590682Y-15614016D02*
X15609729Y-15585445D01*
X15609729Y-15585445D02*
X15619253Y-15547349D01*
X15619253Y-15547349D02*
X15619253Y-15471159D01*
X15619253Y-15471159D02*
X15609729Y-15452111D01*
X15609729Y-15452111D02*
X15600205Y-15442588D01*
X15600205Y-15442588D02*
X15581158Y-15433064D01*
X15581158Y-15433064D02*
X15543062Y-15433064D01*
X15543062Y-15433064D02*
X15524015Y-15442588D01*
X15524015Y-15442588D02*
X15514491Y-15452111D01*
X15514491Y-15452111D02*
X15504967Y-15471159D01*
X15504967Y-15471159D02*
X15504967Y-15518778D01*
X15504967Y-15518778D02*
X15514491Y-15537826D01*
X15514491Y-15537826D02*
X15524015Y-15547349D01*
X15524015Y-15547349D02*
X15543062Y-15556873D01*
X15543062Y-15556873D02*
X15581158Y-15556873D01*
X15581158Y-15556873D02*
X15600205Y-15547349D01*
X15600205Y-15547349D02*
X15609729Y-15537826D01*
X15609729Y-15537826D02*
X15619253Y-15518778D01*
X15714491Y-15633064D02*
X15752586Y-15633064D01*
X15752586Y-15633064D02*
X15771634Y-15623540D01*
X15771634Y-15623540D02*
X15781158Y-15614016D01*
X15781158Y-15614016D02*
X15800205Y-15585445D01*
X15800205Y-15585445D02*
X15809729Y-15547349D01*
X15809729Y-15547349D02*
X15809729Y-15471159D01*
X15809729Y-15471159D02*
X15800205Y-15452111D01*
X15800205Y-15452111D02*
X15790682Y-15442588D01*
X15790682Y-15442588D02*
X15771634Y-15433064D01*
X15771634Y-15433064D02*
X15733539Y-15433064D01*
X15733539Y-15433064D02*
X15714491Y-15442588D01*
X15714491Y-15442588D02*
X15704967Y-15452111D01*
X15704967Y-15452111D02*
X15695443Y-15471159D01*
X15695443Y-15471159D02*
X15695443Y-15518778D01*
X15695443Y-15518778D02*
X15704967Y-15537826D01*
X15704967Y-15537826D02*
X15714491Y-15547349D01*
X15714491Y-15547349D02*
X15733539Y-15556873D01*
X15733539Y-15556873D02*
X15771634Y-15556873D01*
X15771634Y-15556873D02*
X15790682Y-15547349D01*
X15790682Y-15547349D02*
X15800205Y-15537826D01*
X15800205Y-15537826D02*
X15809729Y-15518778D01*
X16000205Y-15633064D02*
X15885920Y-15633064D01*
X15943062Y-15633064D02*
X15943062Y-15433064D01*
X15943062Y-15433064D02*
X15924015Y-15461635D01*
X15924015Y-15461635D02*
X15904967Y-15480683D01*
X15904967Y-15480683D02*
X15885920Y-15490207D01*
X16085920Y-15633064D02*
X16085920Y-15499730D01*
X16085920Y-15518778D02*
X16095443Y-15509254D01*
X16095443Y-15509254D02*
X16114491Y-15499730D01*
X16114491Y-15499730D02*
X16143063Y-15499730D01*
X16143063Y-15499730D02*
X16162110Y-15509254D01*
X16162110Y-15509254D02*
X16171634Y-15528302D01*
X16171634Y-15528302D02*
X16171634Y-15633064D01*
X16171634Y-15528302D02*
X16181158Y-15509254D01*
X16181158Y-15509254D02*
X16200205Y-15499730D01*
X16200205Y-15499730D02*
X16228777Y-15499730D01*
X16228777Y-15499730D02*
X16247824Y-15509254D01*
X16247824Y-15509254D02*
X16257348Y-15528302D01*
X16257348Y-15528302D02*
X16257348Y-15633064D01*
X16352586Y-15633064D02*
X16352586Y-15499730D01*
X16352586Y-15518778D02*
X16362110Y-15509254D01*
X16362110Y-15509254D02*
X16381158Y-15499730D01*
X16381158Y-15499730D02*
X16409729Y-15499730D01*
X16409729Y-15499730D02*
X16428777Y-15509254D01*
X16428777Y-15509254D02*
X16438301Y-15528302D01*
X16438301Y-15528302D02*
X16438301Y-15633064D01*
X16438301Y-15528302D02*
X16447824Y-15509254D01*
X16447824Y-15509254D02*
X16466872Y-15499730D01*
X16466872Y-15499730D02*
X16495443Y-15499730D01*
X16495443Y-15499730D02*
X16514491Y-15509254D01*
X16514491Y-15509254D02*
X16524015Y-15528302D01*
X16524015Y-15528302D02*
X16524015Y-15633064D01*
X16914491Y-15423540D02*
X16743063Y-15680683D01*
X17171634Y-15433064D02*
X17190682Y-15433064D01*
X17190682Y-15433064D02*
X17209729Y-15442588D01*
X17209729Y-15442588D02*
X17219253Y-15452111D01*
X17219253Y-15452111D02*
X17228777Y-15471159D01*
X17228777Y-15471159D02*
X17238301Y-15509254D01*
X17238301Y-15509254D02*
X17238301Y-15556873D01*
X17238301Y-15556873D02*
X17228777Y-15594968D01*
X17228777Y-15594968D02*
X17219253Y-15614016D01*
X17219253Y-15614016D02*
X17209729Y-15623540D01*
X17209729Y-15623540D02*
X17190682Y-15633064D01*
X17190682Y-15633064D02*
X17171634Y-15633064D01*
X17171634Y-15633064D02*
X17152587Y-15623540D01*
X17152587Y-15623540D02*
X17143063Y-15614016D01*
X17143063Y-15614016D02*
X17133539Y-15594968D01*
X17133539Y-15594968D02*
X17124015Y-15556873D01*
X17124015Y-15556873D02*
X17124015Y-15509254D01*
X17124015Y-15509254D02*
X17133539Y-15471159D01*
X17133539Y-15471159D02*
X17143063Y-15452111D01*
X17143063Y-15452111D02*
X17152587Y-15442588D01*
X17152587Y-15442588D02*
X17171634Y-15433064D01*
X17324015Y-15614016D02*
X17333539Y-15623540D01*
X17333539Y-15623540D02*
X17324015Y-15633064D01*
X17324015Y-15633064D02*
X17314491Y-15623540D01*
X17314491Y-15623540D02*
X17324015Y-15614016D01*
X17324015Y-15614016D02*
X17324015Y-15633064D01*
X17457348Y-15433064D02*
X17476396Y-15433064D01*
X17476396Y-15433064D02*
X17495444Y-15442588D01*
X17495444Y-15442588D02*
X17504968Y-15452111D01*
X17504968Y-15452111D02*
X17514491Y-15471159D01*
X17514491Y-15471159D02*
X17524015Y-15509254D01*
X17524015Y-15509254D02*
X17524015Y-15556873D01*
X17524015Y-15556873D02*
X17514491Y-15594968D01*
X17514491Y-15594968D02*
X17504968Y-15614016D01*
X17504968Y-15614016D02*
X17495444Y-15623540D01*
X17495444Y-15623540D02*
X17476396Y-15633064D01*
X17476396Y-15633064D02*
X17457348Y-15633064D01*
X17457348Y-15633064D02*
X17438301Y-15623540D01*
X17438301Y-15623540D02*
X17428777Y-15614016D01*
X17428777Y-15614016D02*
X17419253Y-15594968D01*
X17419253Y-15594968D02*
X17409729Y-15556873D01*
X17409729Y-15556873D02*
X17409729Y-15509254D01*
X17409729Y-15509254D02*
X17419253Y-15471159D01*
X17419253Y-15471159D02*
X17428777Y-15452111D01*
X17428777Y-15452111D02*
X17438301Y-15442588D01*
X17438301Y-15442588D02*
X17457348Y-15433064D01*
X17590682Y-15433064D02*
X17714491Y-15433064D01*
X17714491Y-15433064D02*
X17647825Y-15509254D01*
X17647825Y-15509254D02*
X17676396Y-15509254D01*
X17676396Y-15509254D02*
X17695444Y-15518778D01*
X17695444Y-15518778D02*
X17704968Y-15528302D01*
X17704968Y-15528302D02*
X17714491Y-15547349D01*
X17714491Y-15547349D02*
X17714491Y-15594968D01*
X17714491Y-15594968D02*
X17704968Y-15614016D01*
X17704968Y-15614016D02*
X17695444Y-15623540D01*
X17695444Y-15623540D02*
X17676396Y-15633064D01*
X17676396Y-15633064D02*
X17619253Y-15633064D01*
X17619253Y-15633064D02*
X17600206Y-15623540D01*
X17600206Y-15623540D02*
X17590682Y-15614016D01*
X17809729Y-15633064D02*
X17847825Y-15633064D01*
X17847825Y-15633064D02*
X17866872Y-15623540D01*
X17866872Y-15623540D02*
X17876396Y-15614016D01*
X17876396Y-15614016D02*
X17895444Y-15585445D01*
X17895444Y-15585445D02*
X17904968Y-15547349D01*
X17904968Y-15547349D02*
X17904968Y-15471159D01*
X17904968Y-15471159D02*
X17895444Y-15452111D01*
X17895444Y-15452111D02*
X17885920Y-15442588D01*
X17885920Y-15442588D02*
X17866872Y-15433064D01*
X17866872Y-15433064D02*
X17828777Y-15433064D01*
X17828777Y-15433064D02*
X17809729Y-15442588D01*
X17809729Y-15442588D02*
X17800206Y-15452111D01*
X17800206Y-15452111D02*
X17790682Y-15471159D01*
X17790682Y-15471159D02*
X17790682Y-15518778D01*
X17790682Y-15518778D02*
X17800206Y-15537826D01*
X17800206Y-15537826D02*
X17809729Y-15547349D01*
X17809729Y-15547349D02*
X17828777Y-15556873D01*
X17828777Y-15556873D02*
X17866872Y-15556873D01*
X17866872Y-15556873D02*
X17885920Y-15547349D01*
X17885920Y-15547349D02*
X17895444Y-15537826D01*
X17895444Y-15537826D02*
X17904968Y-15518778D01*
X18028777Y-15433064D02*
X18047825Y-15433064D01*
X18047825Y-15433064D02*
X18066872Y-15442588D01*
X18066872Y-15442588D02*
X18076396Y-15452111D01*
X18076396Y-15452111D02*
X18085920Y-15471159D01*
X18085920Y-15471159D02*
X18095444Y-15509254D01*
X18095444Y-15509254D02*
X18095444Y-15556873D01*
X18095444Y-15556873D02*
X18085920Y-15594968D01*
X18085920Y-15594968D02*
X18076396Y-15614016D01*
X18076396Y-15614016D02*
X18066872Y-15623540D01*
X18066872Y-15623540D02*
X18047825Y-15633064D01*
X18047825Y-15633064D02*
X18028777Y-15633064D01*
X18028777Y-15633064D02*
X18009729Y-15623540D01*
X18009729Y-15623540D02*
X18000206Y-15614016D01*
X18000206Y-15614016D02*
X17990682Y-15594968D01*
X17990682Y-15594968D02*
X17981158Y-15556873D01*
X17981158Y-15556873D02*
X17981158Y-15509254D01*
X17981158Y-15509254D02*
X17990682Y-15471159D01*
X17990682Y-15471159D02*
X18000206Y-15452111D01*
X18000206Y-15452111D02*
X18009729Y-15442588D01*
X18009729Y-15442588D02*
X18028777Y-15433064D01*
X18171634Y-15433064D02*
X18171634Y-15471159D01*
X18247825Y-15433064D02*
X18247825Y-15471159D01*
X18543063Y-15709254D02*
X18533539Y-15699730D01*
X18533539Y-15699730D02*
X18514491Y-15671159D01*
X18514491Y-15671159D02*
X18504968Y-15652111D01*
X18504968Y-15652111D02*
X18495444Y-15623540D01*
X18495444Y-15623540D02*
X18485920Y-15575921D01*
X18485920Y-15575921D02*
X18485920Y-15537826D01*
X18485920Y-15537826D02*
X18495444Y-15490207D01*
X18495444Y-15490207D02*
X18504968Y-15461635D01*
X18504968Y-15461635D02*
X18514491Y-15442588D01*
X18514491Y-15442588D02*
X18533539Y-15414016D01*
X18533539Y-15414016D02*
X18543063Y-15404492D01*
X18704968Y-15433064D02*
X18666872Y-15433064D01*
X18666872Y-15433064D02*
X18647825Y-15442588D01*
X18647825Y-15442588D02*
X18638301Y-15452111D01*
X18638301Y-15452111D02*
X18619253Y-15480683D01*
X18619253Y-15480683D02*
X18609730Y-15518778D01*
X18609730Y-15518778D02*
X18609730Y-15594968D01*
X18609730Y-15594968D02*
X18619253Y-15614016D01*
X18619253Y-15614016D02*
X18628777Y-15623540D01*
X18628777Y-15623540D02*
X18647825Y-15633064D01*
X18647825Y-15633064D02*
X18685920Y-15633064D01*
X18685920Y-15633064D02*
X18704968Y-15623540D01*
X18704968Y-15623540D02*
X18714491Y-15614016D01*
X18714491Y-15614016D02*
X18724015Y-15594968D01*
X18724015Y-15594968D02*
X18724015Y-15547349D01*
X18724015Y-15547349D02*
X18714491Y-15528302D01*
X18714491Y-15528302D02*
X18704968Y-15518778D01*
X18704968Y-15518778D02*
X18685920Y-15509254D01*
X18685920Y-15509254D02*
X18647825Y-15509254D01*
X18647825Y-15509254D02*
X18628777Y-15518778D01*
X18628777Y-15518778D02*
X18619253Y-15528302D01*
X18619253Y-15528302D02*
X18609730Y-15547349D01*
X18962111Y-15633064D02*
X18962111Y-15433064D01*
X19047825Y-15633064D02*
X19047825Y-15528302D01*
X19047825Y-15528302D02*
X19038301Y-15509254D01*
X19038301Y-15509254D02*
X19019253Y-15499730D01*
X19019253Y-15499730D02*
X18990682Y-15499730D01*
X18990682Y-15499730D02*
X18971634Y-15509254D01*
X18971634Y-15509254D02*
X18962111Y-15518778D01*
X19171634Y-15633064D02*
X19152587Y-15623540D01*
X19152587Y-15623540D02*
X19143063Y-15614016D01*
X19143063Y-15614016D02*
X19133539Y-15594968D01*
X19133539Y-15594968D02*
X19133539Y-15537826D01*
X19133539Y-15537826D02*
X19143063Y-15518778D01*
X19143063Y-15518778D02*
X19152587Y-15509254D01*
X19152587Y-15509254D02*
X19171634Y-15499730D01*
X19171634Y-15499730D02*
X19200206Y-15499730D01*
X19200206Y-15499730D02*
X19219253Y-15509254D01*
X19219253Y-15509254D02*
X19228777Y-15518778D01*
X19228777Y-15518778D02*
X19238301Y-15537826D01*
X19238301Y-15537826D02*
X19238301Y-15594968D01*
X19238301Y-15594968D02*
X19228777Y-15614016D01*
X19228777Y-15614016D02*
X19219253Y-15623540D01*
X19219253Y-15623540D02*
X19200206Y-15633064D01*
X19200206Y-15633064D02*
X19171634Y-15633064D01*
X19352587Y-15633064D02*
X19333539Y-15623540D01*
X19333539Y-15623540D02*
X19324015Y-15604492D01*
X19324015Y-15604492D02*
X19324015Y-15433064D01*
X19504968Y-15623540D02*
X19485920Y-15633064D01*
X19485920Y-15633064D02*
X19447825Y-15633064D01*
X19447825Y-15633064D02*
X19428777Y-15623540D01*
X19428777Y-15623540D02*
X19419253Y-15604492D01*
X19419253Y-15604492D02*
X19419253Y-15528302D01*
X19419253Y-15528302D02*
X19428777Y-15509254D01*
X19428777Y-15509254D02*
X19447825Y-15499730D01*
X19447825Y-15499730D02*
X19485920Y-15499730D01*
X19485920Y-15499730D02*
X19504968Y-15509254D01*
X19504968Y-15509254D02*
X19514492Y-15528302D01*
X19514492Y-15528302D02*
X19514492Y-15547349D01*
X19514492Y-15547349D02*
X19419253Y-15566397D01*
X19590682Y-15623540D02*
X19609730Y-15633064D01*
X19609730Y-15633064D02*
X19647825Y-15633064D01*
X19647825Y-15633064D02*
X19666873Y-15623540D01*
X19666873Y-15623540D02*
X19676396Y-15604492D01*
X19676396Y-15604492D02*
X19676396Y-15594968D01*
X19676396Y-15594968D02*
X19666873Y-15575921D01*
X19666873Y-15575921D02*
X19647825Y-15566397D01*
X19647825Y-15566397D02*
X19619253Y-15566397D01*
X19619253Y-15566397D02*
X19600206Y-15556873D01*
X19600206Y-15556873D02*
X19590682Y-15537826D01*
X19590682Y-15537826D02*
X19590682Y-15528302D01*
X19590682Y-15528302D02*
X19600206Y-15509254D01*
X19600206Y-15509254D02*
X19619253Y-15499730D01*
X19619253Y-15499730D02*
X19647825Y-15499730D01*
X19647825Y-15499730D02*
X19666873Y-15509254D01*
X19743063Y-15709254D02*
X19752587Y-15699730D01*
X19752587Y-15699730D02*
X19771634Y-15671159D01*
X19771634Y-15671159D02*
X19781158Y-15652111D01*
X19781158Y-15652111D02*
X19790682Y-15623540D01*
X19790682Y-15623540D02*
X19800206Y-15575921D01*
X19800206Y-15575921D02*
X19800206Y-15537826D01*
X19800206Y-15537826D02*
X19790682Y-15490207D01*
X19790682Y-15490207D02*
X19781158Y-15461635D01*
X19781158Y-15461635D02*
X19771634Y-15442588D01*
X19771634Y-15442588D02*
X19752587Y-15414016D01*
X19752587Y-15414016D02*
X19743063Y-15404492D01*
D11*
X14918000Y-15855580D02*
X14968000Y-15805580D01*
X14918000Y-15755580D01*
X14868000Y-15805580D01*
X14918000Y-15855580D01*
D10*
X15333539Y-15897064D02*
X15219253Y-15897064D01*
X15276396Y-15897064D02*
X15276396Y-15697064D01*
X15276396Y-15697064D02*
X15257348Y-15725635D01*
X15257348Y-15725635D02*
X15238301Y-15744683D01*
X15238301Y-15744683D02*
X15219253Y-15754207D01*
X15419253Y-15878016D02*
X15428777Y-15887540D01*
X15428777Y-15887540D02*
X15419253Y-15897064D01*
X15419253Y-15897064D02*
X15409729Y-15887540D01*
X15409729Y-15887540D02*
X15419253Y-15878016D01*
X15419253Y-15878016D02*
X15419253Y-15897064D01*
X15552586Y-15697064D02*
X15571634Y-15697064D01*
X15571634Y-15697064D02*
X15590682Y-15706588D01*
X15590682Y-15706588D02*
X15600205Y-15716111D01*
X15600205Y-15716111D02*
X15609729Y-15735159D01*
X15609729Y-15735159D02*
X15619253Y-15773254D01*
X15619253Y-15773254D02*
X15619253Y-15820873D01*
X15619253Y-15820873D02*
X15609729Y-15858968D01*
X15609729Y-15858968D02*
X15600205Y-15878016D01*
X15600205Y-15878016D02*
X15590682Y-15887540D01*
X15590682Y-15887540D02*
X15571634Y-15897064D01*
X15571634Y-15897064D02*
X15552586Y-15897064D01*
X15552586Y-15897064D02*
X15533539Y-15887540D01*
X15533539Y-15887540D02*
X15524015Y-15878016D01*
X15524015Y-15878016D02*
X15514491Y-15858968D01*
X15514491Y-15858968D02*
X15504967Y-15820873D01*
X15504967Y-15820873D02*
X15504967Y-15773254D01*
X15504967Y-15773254D02*
X15514491Y-15735159D01*
X15514491Y-15735159D02*
X15524015Y-15716111D01*
X15524015Y-15716111D02*
X15533539Y-15706588D01*
X15533539Y-15706588D02*
X15552586Y-15697064D01*
X15743062Y-15697064D02*
X15762110Y-15697064D01*
X15762110Y-15697064D02*
X15781158Y-15706588D01*
X15781158Y-15706588D02*
X15790682Y-15716111D01*
X15790682Y-15716111D02*
X15800205Y-15735159D01*
X15800205Y-15735159D02*
X15809729Y-15773254D01*
X15809729Y-15773254D02*
X15809729Y-15820873D01*
X15809729Y-15820873D02*
X15800205Y-15858968D01*
X15800205Y-15858968D02*
X15790682Y-15878016D01*
X15790682Y-15878016D02*
X15781158Y-15887540D01*
X15781158Y-15887540D02*
X15762110Y-15897064D01*
X15762110Y-15897064D02*
X15743062Y-15897064D01*
X15743062Y-15897064D02*
X15724015Y-15887540D01*
X15724015Y-15887540D02*
X15714491Y-15878016D01*
X15714491Y-15878016D02*
X15704967Y-15858968D01*
X15704967Y-15858968D02*
X15695443Y-15820873D01*
X15695443Y-15820873D02*
X15695443Y-15773254D01*
X15695443Y-15773254D02*
X15704967Y-15735159D01*
X15704967Y-15735159D02*
X15714491Y-15716111D01*
X15714491Y-15716111D02*
X15724015Y-15706588D01*
X15724015Y-15706588D02*
X15743062Y-15697064D01*
X15933539Y-15697064D02*
X15952586Y-15697064D01*
X15952586Y-15697064D02*
X15971634Y-15706588D01*
X15971634Y-15706588D02*
X15981158Y-15716111D01*
X15981158Y-15716111D02*
X15990682Y-15735159D01*
X15990682Y-15735159D02*
X16000205Y-15773254D01*
X16000205Y-15773254D02*
X16000205Y-15820873D01*
X16000205Y-15820873D02*
X15990682Y-15858968D01*
X15990682Y-15858968D02*
X15981158Y-15878016D01*
X15981158Y-15878016D02*
X15971634Y-15887540D01*
X15971634Y-15887540D02*
X15952586Y-15897064D01*
X15952586Y-15897064D02*
X15933539Y-15897064D01*
X15933539Y-15897064D02*
X15914491Y-15887540D01*
X15914491Y-15887540D02*
X15904967Y-15878016D01*
X15904967Y-15878016D02*
X15895443Y-15858968D01*
X15895443Y-15858968D02*
X15885920Y-15820873D01*
X15885920Y-15820873D02*
X15885920Y-15773254D01*
X15885920Y-15773254D02*
X15895443Y-15735159D01*
X15895443Y-15735159D02*
X15904967Y-15716111D01*
X15904967Y-15716111D02*
X15914491Y-15706588D01*
X15914491Y-15706588D02*
X15933539Y-15697064D01*
X16085920Y-15897064D02*
X16085920Y-15763730D01*
X16085920Y-15782778D02*
X16095443Y-15773254D01*
X16095443Y-15773254D02*
X16114491Y-15763730D01*
X16114491Y-15763730D02*
X16143063Y-15763730D01*
X16143063Y-15763730D02*
X16162110Y-15773254D01*
X16162110Y-15773254D02*
X16171634Y-15792302D01*
X16171634Y-15792302D02*
X16171634Y-15897064D01*
X16171634Y-15792302D02*
X16181158Y-15773254D01*
X16181158Y-15773254D02*
X16200205Y-15763730D01*
X16200205Y-15763730D02*
X16228777Y-15763730D01*
X16228777Y-15763730D02*
X16247824Y-15773254D01*
X16247824Y-15773254D02*
X16257348Y-15792302D01*
X16257348Y-15792302D02*
X16257348Y-15897064D01*
X16352586Y-15897064D02*
X16352586Y-15763730D01*
X16352586Y-15782778D02*
X16362110Y-15773254D01*
X16362110Y-15773254D02*
X16381158Y-15763730D01*
X16381158Y-15763730D02*
X16409729Y-15763730D01*
X16409729Y-15763730D02*
X16428777Y-15773254D01*
X16428777Y-15773254D02*
X16438301Y-15792302D01*
X16438301Y-15792302D02*
X16438301Y-15897064D01*
X16438301Y-15792302D02*
X16447824Y-15773254D01*
X16447824Y-15773254D02*
X16466872Y-15763730D01*
X16466872Y-15763730D02*
X16495443Y-15763730D01*
X16495443Y-15763730D02*
X16514491Y-15773254D01*
X16514491Y-15773254D02*
X16524015Y-15792302D01*
X16524015Y-15792302D02*
X16524015Y-15897064D01*
X16914491Y-15687540D02*
X16743063Y-15944683D01*
X17171634Y-15697064D02*
X17190682Y-15697064D01*
X17190682Y-15697064D02*
X17209729Y-15706588D01*
X17209729Y-15706588D02*
X17219253Y-15716111D01*
X17219253Y-15716111D02*
X17228777Y-15735159D01*
X17228777Y-15735159D02*
X17238301Y-15773254D01*
X17238301Y-15773254D02*
X17238301Y-15820873D01*
X17238301Y-15820873D02*
X17228777Y-15858968D01*
X17228777Y-15858968D02*
X17219253Y-15878016D01*
X17219253Y-15878016D02*
X17209729Y-15887540D01*
X17209729Y-15887540D02*
X17190682Y-15897064D01*
X17190682Y-15897064D02*
X17171634Y-15897064D01*
X17171634Y-15897064D02*
X17152587Y-15887540D01*
X17152587Y-15887540D02*
X17143063Y-15878016D01*
X17143063Y-15878016D02*
X17133539Y-15858968D01*
X17133539Y-15858968D02*
X17124015Y-15820873D01*
X17124015Y-15820873D02*
X17124015Y-15773254D01*
X17124015Y-15773254D02*
X17133539Y-15735159D01*
X17133539Y-15735159D02*
X17143063Y-15716111D01*
X17143063Y-15716111D02*
X17152587Y-15706588D01*
X17152587Y-15706588D02*
X17171634Y-15697064D01*
X17324015Y-15878016D02*
X17333539Y-15887540D01*
X17333539Y-15887540D02*
X17324015Y-15897064D01*
X17324015Y-15897064D02*
X17314491Y-15887540D01*
X17314491Y-15887540D02*
X17324015Y-15878016D01*
X17324015Y-15878016D02*
X17324015Y-15897064D01*
X17457348Y-15697064D02*
X17476396Y-15697064D01*
X17476396Y-15697064D02*
X17495444Y-15706588D01*
X17495444Y-15706588D02*
X17504968Y-15716111D01*
X17504968Y-15716111D02*
X17514491Y-15735159D01*
X17514491Y-15735159D02*
X17524015Y-15773254D01*
X17524015Y-15773254D02*
X17524015Y-15820873D01*
X17524015Y-15820873D02*
X17514491Y-15858968D01*
X17514491Y-15858968D02*
X17504968Y-15878016D01*
X17504968Y-15878016D02*
X17495444Y-15887540D01*
X17495444Y-15887540D02*
X17476396Y-15897064D01*
X17476396Y-15897064D02*
X17457348Y-15897064D01*
X17457348Y-15897064D02*
X17438301Y-15887540D01*
X17438301Y-15887540D02*
X17428777Y-15878016D01*
X17428777Y-15878016D02*
X17419253Y-15858968D01*
X17419253Y-15858968D02*
X17409729Y-15820873D01*
X17409729Y-15820873D02*
X17409729Y-15773254D01*
X17409729Y-15773254D02*
X17419253Y-15735159D01*
X17419253Y-15735159D02*
X17428777Y-15716111D01*
X17428777Y-15716111D02*
X17438301Y-15706588D01*
X17438301Y-15706588D02*
X17457348Y-15697064D01*
X17590682Y-15697064D02*
X17714491Y-15697064D01*
X17714491Y-15697064D02*
X17647825Y-15773254D01*
X17647825Y-15773254D02*
X17676396Y-15773254D01*
X17676396Y-15773254D02*
X17695444Y-15782778D01*
X17695444Y-15782778D02*
X17704968Y-15792302D01*
X17704968Y-15792302D02*
X17714491Y-15811349D01*
X17714491Y-15811349D02*
X17714491Y-15858968D01*
X17714491Y-15858968D02*
X17704968Y-15878016D01*
X17704968Y-15878016D02*
X17695444Y-15887540D01*
X17695444Y-15887540D02*
X17676396Y-15897064D01*
X17676396Y-15897064D02*
X17619253Y-15897064D01*
X17619253Y-15897064D02*
X17600206Y-15887540D01*
X17600206Y-15887540D02*
X17590682Y-15878016D01*
X17809729Y-15897064D02*
X17847825Y-15897064D01*
X17847825Y-15897064D02*
X17866872Y-15887540D01*
X17866872Y-15887540D02*
X17876396Y-15878016D01*
X17876396Y-15878016D02*
X17895444Y-15849445D01*
X17895444Y-15849445D02*
X17904968Y-15811349D01*
X17904968Y-15811349D02*
X17904968Y-15735159D01*
X17904968Y-15735159D02*
X17895444Y-15716111D01*
X17895444Y-15716111D02*
X17885920Y-15706588D01*
X17885920Y-15706588D02*
X17866872Y-15697064D01*
X17866872Y-15697064D02*
X17828777Y-15697064D01*
X17828777Y-15697064D02*
X17809729Y-15706588D01*
X17809729Y-15706588D02*
X17800206Y-15716111D01*
X17800206Y-15716111D02*
X17790682Y-15735159D01*
X17790682Y-15735159D02*
X17790682Y-15782778D01*
X17790682Y-15782778D02*
X17800206Y-15801826D01*
X17800206Y-15801826D02*
X17809729Y-15811349D01*
X17809729Y-15811349D02*
X17828777Y-15820873D01*
X17828777Y-15820873D02*
X17866872Y-15820873D01*
X17866872Y-15820873D02*
X17885920Y-15811349D01*
X17885920Y-15811349D02*
X17895444Y-15801826D01*
X17895444Y-15801826D02*
X17904968Y-15782778D01*
X18076396Y-15763730D02*
X18076396Y-15897064D01*
X18028777Y-15687540D02*
X17981158Y-15830397D01*
X17981158Y-15830397D02*
X18104968Y-15830397D01*
X18171634Y-15697064D02*
X18171634Y-15735159D01*
X18247825Y-15697064D02*
X18247825Y-15735159D01*
X18543063Y-15973254D02*
X18533539Y-15963730D01*
X18533539Y-15963730D02*
X18514491Y-15935159D01*
X18514491Y-15935159D02*
X18504968Y-15916111D01*
X18504968Y-15916111D02*
X18495444Y-15887540D01*
X18495444Y-15887540D02*
X18485920Y-15839921D01*
X18485920Y-15839921D02*
X18485920Y-15801826D01*
X18485920Y-15801826D02*
X18495444Y-15754207D01*
X18495444Y-15754207D02*
X18504968Y-15725635D01*
X18504968Y-15725635D02*
X18514491Y-15706588D01*
X18514491Y-15706588D02*
X18533539Y-15678016D01*
X18533539Y-15678016D02*
X18543063Y-15668492D01*
X18714491Y-15697064D02*
X18619253Y-15697064D01*
X18619253Y-15697064D02*
X18609730Y-15792302D01*
X18609730Y-15792302D02*
X18619253Y-15782778D01*
X18619253Y-15782778D02*
X18638301Y-15773254D01*
X18638301Y-15773254D02*
X18685920Y-15773254D01*
X18685920Y-15773254D02*
X18704968Y-15782778D01*
X18704968Y-15782778D02*
X18714491Y-15792302D01*
X18714491Y-15792302D02*
X18724015Y-15811349D01*
X18724015Y-15811349D02*
X18724015Y-15858968D01*
X18724015Y-15858968D02*
X18714491Y-15878016D01*
X18714491Y-15878016D02*
X18704968Y-15887540D01*
X18704968Y-15887540D02*
X18685920Y-15897064D01*
X18685920Y-15897064D02*
X18638301Y-15897064D01*
X18638301Y-15897064D02*
X18619253Y-15887540D01*
X18619253Y-15887540D02*
X18609730Y-15878016D01*
X18962111Y-15897064D02*
X18962111Y-15697064D01*
X19047825Y-15897064D02*
X19047825Y-15792302D01*
X19047825Y-15792302D02*
X19038301Y-15773254D01*
X19038301Y-15773254D02*
X19019253Y-15763730D01*
X19019253Y-15763730D02*
X18990682Y-15763730D01*
X18990682Y-15763730D02*
X18971634Y-15773254D01*
X18971634Y-15773254D02*
X18962111Y-15782778D01*
X19171634Y-15897064D02*
X19152587Y-15887540D01*
X19152587Y-15887540D02*
X19143063Y-15878016D01*
X19143063Y-15878016D02*
X19133539Y-15858968D01*
X19133539Y-15858968D02*
X19133539Y-15801826D01*
X19133539Y-15801826D02*
X19143063Y-15782778D01*
X19143063Y-15782778D02*
X19152587Y-15773254D01*
X19152587Y-15773254D02*
X19171634Y-15763730D01*
X19171634Y-15763730D02*
X19200206Y-15763730D01*
X19200206Y-15763730D02*
X19219253Y-15773254D01*
X19219253Y-15773254D02*
X19228777Y-15782778D01*
X19228777Y-15782778D02*
X19238301Y-15801826D01*
X19238301Y-15801826D02*
X19238301Y-15858968D01*
X19238301Y-15858968D02*
X19228777Y-15878016D01*
X19228777Y-15878016D02*
X19219253Y-15887540D01*
X19219253Y-15887540D02*
X19200206Y-15897064D01*
X19200206Y-15897064D02*
X19171634Y-15897064D01*
X19352587Y-15897064D02*
X19333539Y-15887540D01*
X19333539Y-15887540D02*
X19324015Y-15868492D01*
X19324015Y-15868492D02*
X19324015Y-15697064D01*
X19504968Y-15887540D02*
X19485920Y-15897064D01*
X19485920Y-15897064D02*
X19447825Y-15897064D01*
X19447825Y-15897064D02*
X19428777Y-15887540D01*
X19428777Y-15887540D02*
X19419253Y-15868492D01*
X19419253Y-15868492D02*
X19419253Y-15792302D01*
X19419253Y-15792302D02*
X19428777Y-15773254D01*
X19428777Y-15773254D02*
X19447825Y-15763730D01*
X19447825Y-15763730D02*
X19485920Y-15763730D01*
X19485920Y-15763730D02*
X19504968Y-15773254D01*
X19504968Y-15773254D02*
X19514492Y-15792302D01*
X19514492Y-15792302D02*
X19514492Y-15811349D01*
X19514492Y-15811349D02*
X19419253Y-15830397D01*
X19590682Y-15887540D02*
X19609730Y-15897064D01*
X19609730Y-15897064D02*
X19647825Y-15897064D01*
X19647825Y-15897064D02*
X19666873Y-15887540D01*
X19666873Y-15887540D02*
X19676396Y-15868492D01*
X19676396Y-15868492D02*
X19676396Y-15858968D01*
X19676396Y-15858968D02*
X19666873Y-15839921D01*
X19666873Y-15839921D02*
X19647825Y-15830397D01*
X19647825Y-15830397D02*
X19619253Y-15830397D01*
X19619253Y-15830397D02*
X19600206Y-15820873D01*
X19600206Y-15820873D02*
X19590682Y-15801826D01*
X19590682Y-15801826D02*
X19590682Y-15792302D01*
X19590682Y-15792302D02*
X19600206Y-15773254D01*
X19600206Y-15773254D02*
X19619253Y-15763730D01*
X19619253Y-15763730D02*
X19647825Y-15763730D01*
X19647825Y-15763730D02*
X19666873Y-15773254D01*
X19743063Y-15973254D02*
X19752587Y-15963730D01*
X19752587Y-15963730D02*
X19771634Y-15935159D01*
X19771634Y-15935159D02*
X19781158Y-15916111D01*
X19781158Y-15916111D02*
X19790682Y-15887540D01*
X19790682Y-15887540D02*
X19800206Y-15839921D01*
X19800206Y-15839921D02*
X19800206Y-15801826D01*
X19800206Y-15801826D02*
X19790682Y-15754207D01*
X19790682Y-15754207D02*
X19781158Y-15725635D01*
X19781158Y-15725635D02*
X19771634Y-15706588D01*
X19771634Y-15706588D02*
X19752587Y-15678016D01*
X19752587Y-15678016D02*
X19743063Y-15668492D01*
D12*
X14858000Y-16014580D02*
X14968000Y-16124580D01*
X14968000Y-16014580D02*
X14858000Y-16124580D01*
X14968000Y-16069580D02*
G75*
G02*
X14858000Y-16069580I-55000J0D01*
G01*
X14858000Y-16069580D02*
G75*
G02*
X14968000Y-16069580I55000J0D01*
G01*
D10*
X15333539Y-16161064D02*
X15219253Y-16161064D01*
X15276396Y-16161064D02*
X15276396Y-15961064D01*
X15276396Y-15961064D02*
X15257348Y-15989635D01*
X15257348Y-15989635D02*
X15238301Y-16008683D01*
X15238301Y-16008683D02*
X15219253Y-16018207D01*
X15419253Y-16142016D02*
X15428777Y-16151540D01*
X15428777Y-16151540D02*
X15419253Y-16161064D01*
X15419253Y-16161064D02*
X15409729Y-16151540D01*
X15409729Y-16151540D02*
X15419253Y-16142016D01*
X15419253Y-16142016D02*
X15419253Y-16161064D01*
X15619253Y-16161064D02*
X15504967Y-16161064D01*
X15562110Y-16161064D02*
X15562110Y-15961064D01*
X15562110Y-15961064D02*
X15543062Y-15989635D01*
X15543062Y-15989635D02*
X15524015Y-16008683D01*
X15524015Y-16008683D02*
X15504967Y-16018207D01*
X15743062Y-15961064D02*
X15762110Y-15961064D01*
X15762110Y-15961064D02*
X15781158Y-15970588D01*
X15781158Y-15970588D02*
X15790682Y-15980111D01*
X15790682Y-15980111D02*
X15800205Y-15999159D01*
X15800205Y-15999159D02*
X15809729Y-16037254D01*
X15809729Y-16037254D02*
X15809729Y-16084873D01*
X15809729Y-16084873D02*
X15800205Y-16122968D01*
X15800205Y-16122968D02*
X15790682Y-16142016D01*
X15790682Y-16142016D02*
X15781158Y-16151540D01*
X15781158Y-16151540D02*
X15762110Y-16161064D01*
X15762110Y-16161064D02*
X15743062Y-16161064D01*
X15743062Y-16161064D02*
X15724015Y-16151540D01*
X15724015Y-16151540D02*
X15714491Y-16142016D01*
X15714491Y-16142016D02*
X15704967Y-16122968D01*
X15704967Y-16122968D02*
X15695443Y-16084873D01*
X15695443Y-16084873D02*
X15695443Y-16037254D01*
X15695443Y-16037254D02*
X15704967Y-15999159D01*
X15704967Y-15999159D02*
X15714491Y-15980111D01*
X15714491Y-15980111D02*
X15724015Y-15970588D01*
X15724015Y-15970588D02*
X15743062Y-15961064D01*
X15933539Y-15961064D02*
X15952586Y-15961064D01*
X15952586Y-15961064D02*
X15971634Y-15970588D01*
X15971634Y-15970588D02*
X15981158Y-15980111D01*
X15981158Y-15980111D02*
X15990682Y-15999159D01*
X15990682Y-15999159D02*
X16000205Y-16037254D01*
X16000205Y-16037254D02*
X16000205Y-16084873D01*
X16000205Y-16084873D02*
X15990682Y-16122968D01*
X15990682Y-16122968D02*
X15981158Y-16142016D01*
X15981158Y-16142016D02*
X15971634Y-16151540D01*
X15971634Y-16151540D02*
X15952586Y-16161064D01*
X15952586Y-16161064D02*
X15933539Y-16161064D01*
X15933539Y-16161064D02*
X15914491Y-16151540D01*
X15914491Y-16151540D02*
X15904967Y-16142016D01*
X15904967Y-16142016D02*
X15895443Y-16122968D01*
X15895443Y-16122968D02*
X15885920Y-16084873D01*
X15885920Y-16084873D02*
X15885920Y-16037254D01*
X15885920Y-16037254D02*
X15895443Y-15999159D01*
X15895443Y-15999159D02*
X15904967Y-15980111D01*
X15904967Y-15980111D02*
X15914491Y-15970588D01*
X15914491Y-15970588D02*
X15933539Y-15961064D01*
X16085920Y-16161064D02*
X16085920Y-16027730D01*
X16085920Y-16046778D02*
X16095443Y-16037254D01*
X16095443Y-16037254D02*
X16114491Y-16027730D01*
X16114491Y-16027730D02*
X16143063Y-16027730D01*
X16143063Y-16027730D02*
X16162110Y-16037254D01*
X16162110Y-16037254D02*
X16171634Y-16056302D01*
X16171634Y-16056302D02*
X16171634Y-16161064D01*
X16171634Y-16056302D02*
X16181158Y-16037254D01*
X16181158Y-16037254D02*
X16200205Y-16027730D01*
X16200205Y-16027730D02*
X16228777Y-16027730D01*
X16228777Y-16027730D02*
X16247824Y-16037254D01*
X16247824Y-16037254D02*
X16257348Y-16056302D01*
X16257348Y-16056302D02*
X16257348Y-16161064D01*
X16352586Y-16161064D02*
X16352586Y-16027730D01*
X16352586Y-16046778D02*
X16362110Y-16037254D01*
X16362110Y-16037254D02*
X16381158Y-16027730D01*
X16381158Y-16027730D02*
X16409729Y-16027730D01*
X16409729Y-16027730D02*
X16428777Y-16037254D01*
X16428777Y-16037254D02*
X16438301Y-16056302D01*
X16438301Y-16056302D02*
X16438301Y-16161064D01*
X16438301Y-16056302D02*
X16447824Y-16037254D01*
X16447824Y-16037254D02*
X16466872Y-16027730D01*
X16466872Y-16027730D02*
X16495443Y-16027730D01*
X16495443Y-16027730D02*
X16514491Y-16037254D01*
X16514491Y-16037254D02*
X16524015Y-16056302D01*
X16524015Y-16056302D02*
X16524015Y-16161064D01*
X16914491Y-15951540D02*
X16743063Y-16208683D01*
X17171634Y-15961064D02*
X17190682Y-15961064D01*
X17190682Y-15961064D02*
X17209729Y-15970588D01*
X17209729Y-15970588D02*
X17219253Y-15980111D01*
X17219253Y-15980111D02*
X17228777Y-15999159D01*
X17228777Y-15999159D02*
X17238301Y-16037254D01*
X17238301Y-16037254D02*
X17238301Y-16084873D01*
X17238301Y-16084873D02*
X17228777Y-16122968D01*
X17228777Y-16122968D02*
X17219253Y-16142016D01*
X17219253Y-16142016D02*
X17209729Y-16151540D01*
X17209729Y-16151540D02*
X17190682Y-16161064D01*
X17190682Y-16161064D02*
X17171634Y-16161064D01*
X17171634Y-16161064D02*
X17152587Y-16151540D01*
X17152587Y-16151540D02*
X17143063Y-16142016D01*
X17143063Y-16142016D02*
X17133539Y-16122968D01*
X17133539Y-16122968D02*
X17124015Y-16084873D01*
X17124015Y-16084873D02*
X17124015Y-16037254D01*
X17124015Y-16037254D02*
X17133539Y-15999159D01*
X17133539Y-15999159D02*
X17143063Y-15980111D01*
X17143063Y-15980111D02*
X17152587Y-15970588D01*
X17152587Y-15970588D02*
X17171634Y-15961064D01*
X17324015Y-16142016D02*
X17333539Y-16151540D01*
X17333539Y-16151540D02*
X17324015Y-16161064D01*
X17324015Y-16161064D02*
X17314491Y-16151540D01*
X17314491Y-16151540D02*
X17324015Y-16142016D01*
X17324015Y-16142016D02*
X17324015Y-16161064D01*
X17457348Y-15961064D02*
X17476396Y-15961064D01*
X17476396Y-15961064D02*
X17495444Y-15970588D01*
X17495444Y-15970588D02*
X17504968Y-15980111D01*
X17504968Y-15980111D02*
X17514491Y-15999159D01*
X17514491Y-15999159D02*
X17524015Y-16037254D01*
X17524015Y-16037254D02*
X17524015Y-16084873D01*
X17524015Y-16084873D02*
X17514491Y-16122968D01*
X17514491Y-16122968D02*
X17504968Y-16142016D01*
X17504968Y-16142016D02*
X17495444Y-16151540D01*
X17495444Y-16151540D02*
X17476396Y-16161064D01*
X17476396Y-16161064D02*
X17457348Y-16161064D01*
X17457348Y-16161064D02*
X17438301Y-16151540D01*
X17438301Y-16151540D02*
X17428777Y-16142016D01*
X17428777Y-16142016D02*
X17419253Y-16122968D01*
X17419253Y-16122968D02*
X17409729Y-16084873D01*
X17409729Y-16084873D02*
X17409729Y-16037254D01*
X17409729Y-16037254D02*
X17419253Y-15999159D01*
X17419253Y-15999159D02*
X17428777Y-15980111D01*
X17428777Y-15980111D02*
X17438301Y-15970588D01*
X17438301Y-15970588D02*
X17457348Y-15961064D01*
X17695444Y-16027730D02*
X17695444Y-16161064D01*
X17647825Y-15951540D02*
X17600206Y-16094397D01*
X17600206Y-16094397D02*
X17724015Y-16094397D01*
X17781158Y-15961064D02*
X17904968Y-15961064D01*
X17904968Y-15961064D02*
X17838301Y-16037254D01*
X17838301Y-16037254D02*
X17866872Y-16037254D01*
X17866872Y-16037254D02*
X17885920Y-16046778D01*
X17885920Y-16046778D02*
X17895444Y-16056302D01*
X17895444Y-16056302D02*
X17904968Y-16075349D01*
X17904968Y-16075349D02*
X17904968Y-16122968D01*
X17904968Y-16122968D02*
X17895444Y-16142016D01*
X17895444Y-16142016D02*
X17885920Y-16151540D01*
X17885920Y-16151540D02*
X17866872Y-16161064D01*
X17866872Y-16161064D02*
X17809729Y-16161064D01*
X17809729Y-16161064D02*
X17790682Y-16151540D01*
X17790682Y-16151540D02*
X17781158Y-16142016D01*
X17971634Y-15961064D02*
X18095444Y-15961064D01*
X18095444Y-15961064D02*
X18028777Y-16037254D01*
X18028777Y-16037254D02*
X18057349Y-16037254D01*
X18057349Y-16037254D02*
X18076396Y-16046778D01*
X18076396Y-16046778D02*
X18085920Y-16056302D01*
X18085920Y-16056302D02*
X18095444Y-16075349D01*
X18095444Y-16075349D02*
X18095444Y-16122968D01*
X18095444Y-16122968D02*
X18085920Y-16142016D01*
X18085920Y-16142016D02*
X18076396Y-16151540D01*
X18076396Y-16151540D02*
X18057349Y-16161064D01*
X18057349Y-16161064D02*
X18000206Y-16161064D01*
X18000206Y-16161064D02*
X17981158Y-16151540D01*
X17981158Y-16151540D02*
X17971634Y-16142016D01*
X18171634Y-15961064D02*
X18171634Y-15999159D01*
X18247825Y-15961064D02*
X18247825Y-15999159D01*
X18543063Y-16237254D02*
X18533539Y-16227730D01*
X18533539Y-16227730D02*
X18514491Y-16199159D01*
X18514491Y-16199159D02*
X18504968Y-16180111D01*
X18504968Y-16180111D02*
X18495444Y-16151540D01*
X18495444Y-16151540D02*
X18485920Y-16103921D01*
X18485920Y-16103921D02*
X18485920Y-16065826D01*
X18485920Y-16065826D02*
X18495444Y-16018207D01*
X18495444Y-16018207D02*
X18504968Y-15989635D01*
X18504968Y-15989635D02*
X18514491Y-15970588D01*
X18514491Y-15970588D02*
X18533539Y-15942016D01*
X18533539Y-15942016D02*
X18543063Y-15932492D01*
X18609730Y-15980111D02*
X18619253Y-15970588D01*
X18619253Y-15970588D02*
X18638301Y-15961064D01*
X18638301Y-15961064D02*
X18685920Y-15961064D01*
X18685920Y-15961064D02*
X18704968Y-15970588D01*
X18704968Y-15970588D02*
X18714491Y-15980111D01*
X18714491Y-15980111D02*
X18724015Y-15999159D01*
X18724015Y-15999159D02*
X18724015Y-16018207D01*
X18724015Y-16018207D02*
X18714491Y-16046778D01*
X18714491Y-16046778D02*
X18600206Y-16161064D01*
X18600206Y-16161064D02*
X18724015Y-16161064D01*
X18895444Y-16027730D02*
X18895444Y-16161064D01*
X18847825Y-15951540D02*
X18800206Y-16094397D01*
X18800206Y-16094397D02*
X18924015Y-16094397D01*
X19152587Y-16161064D02*
X19152587Y-15961064D01*
X19238301Y-16161064D02*
X19238301Y-16056302D01*
X19238301Y-16056302D02*
X19228777Y-16037254D01*
X19228777Y-16037254D02*
X19209730Y-16027730D01*
X19209730Y-16027730D02*
X19181158Y-16027730D01*
X19181158Y-16027730D02*
X19162111Y-16037254D01*
X19162111Y-16037254D02*
X19152587Y-16046778D01*
X19362111Y-16161064D02*
X19343063Y-16151540D01*
X19343063Y-16151540D02*
X19333539Y-16142016D01*
X19333539Y-16142016D02*
X19324015Y-16122968D01*
X19324015Y-16122968D02*
X19324015Y-16065826D01*
X19324015Y-16065826D02*
X19333539Y-16046778D01*
X19333539Y-16046778D02*
X19343063Y-16037254D01*
X19343063Y-16037254D02*
X19362111Y-16027730D01*
X19362111Y-16027730D02*
X19390682Y-16027730D01*
X19390682Y-16027730D02*
X19409730Y-16037254D01*
X19409730Y-16037254D02*
X19419253Y-16046778D01*
X19419253Y-16046778D02*
X19428777Y-16065826D01*
X19428777Y-16065826D02*
X19428777Y-16122968D01*
X19428777Y-16122968D02*
X19419253Y-16142016D01*
X19419253Y-16142016D02*
X19409730Y-16151540D01*
X19409730Y-16151540D02*
X19390682Y-16161064D01*
X19390682Y-16161064D02*
X19362111Y-16161064D01*
X19543063Y-16161064D02*
X19524015Y-16151540D01*
X19524015Y-16151540D02*
X19514492Y-16132492D01*
X19514492Y-16132492D02*
X19514492Y-15961064D01*
X19695444Y-16151540D02*
X19676396Y-16161064D01*
X19676396Y-16161064D02*
X19638301Y-16161064D01*
X19638301Y-16161064D02*
X19619253Y-16151540D01*
X19619253Y-16151540D02*
X19609730Y-16132492D01*
X19609730Y-16132492D02*
X19609730Y-16056302D01*
X19609730Y-16056302D02*
X19619253Y-16037254D01*
X19619253Y-16037254D02*
X19638301Y-16027730D01*
X19638301Y-16027730D02*
X19676396Y-16027730D01*
X19676396Y-16027730D02*
X19695444Y-16037254D01*
X19695444Y-16037254D02*
X19704968Y-16056302D01*
X19704968Y-16056302D02*
X19704968Y-16075349D01*
X19704968Y-16075349D02*
X19609730Y-16094397D01*
X19781158Y-16151540D02*
X19800206Y-16161064D01*
X19800206Y-16161064D02*
X19838301Y-16161064D01*
X19838301Y-16161064D02*
X19857349Y-16151540D01*
X19857349Y-16151540D02*
X19866873Y-16132492D01*
X19866873Y-16132492D02*
X19866873Y-16122968D01*
X19866873Y-16122968D02*
X19857349Y-16103921D01*
X19857349Y-16103921D02*
X19838301Y-16094397D01*
X19838301Y-16094397D02*
X19809730Y-16094397D01*
X19809730Y-16094397D02*
X19790682Y-16084873D01*
X19790682Y-16084873D02*
X19781158Y-16065826D01*
X19781158Y-16065826D02*
X19781158Y-16056302D01*
X19781158Y-16056302D02*
X19790682Y-16037254D01*
X19790682Y-16037254D02*
X19809730Y-16027730D01*
X19809730Y-16027730D02*
X19838301Y-16027730D01*
X19838301Y-16027730D02*
X19857349Y-16037254D01*
X19933539Y-16237254D02*
X19943063Y-16227730D01*
X19943063Y-16227730D02*
X19962111Y-16199159D01*
X19962111Y-16199159D02*
X19971634Y-16180111D01*
X19971634Y-16180111D02*
X19981158Y-16151540D01*
X19981158Y-16151540D02*
X19990682Y-16103921D01*
X19990682Y-16103921D02*
X19990682Y-16065826D01*
X19990682Y-16065826D02*
X19981158Y-16018207D01*
X19981158Y-16018207D02*
X19971634Y-15989635D01*
X19971634Y-15989635D02*
X19962111Y-15970588D01*
X19962111Y-15970588D02*
X19943063Y-15942016D01*
X19943063Y-15942016D02*
X19933539Y-15932492D01*
D13*
X14838000Y-16268580D02*
X14968000Y-16398580D01*
X14968000Y-16268580D02*
X14838000Y-16398580D01*
X14903000Y-16268580D02*
X14903000Y-16398580D01*
X14838000Y-16333580D02*
X14968000Y-16333580D01*
D10*
X15333539Y-16425064D02*
X15219253Y-16425064D01*
X15276396Y-16425064D02*
X15276396Y-16225064D01*
X15276396Y-16225064D02*
X15257348Y-16253635D01*
X15257348Y-16253635D02*
X15238301Y-16272683D01*
X15238301Y-16272683D02*
X15219253Y-16282207D01*
X15419253Y-16406016D02*
X15428777Y-16415540D01*
X15428777Y-16415540D02*
X15419253Y-16425064D01*
X15419253Y-16425064D02*
X15409729Y-16415540D01*
X15409729Y-16415540D02*
X15419253Y-16406016D01*
X15419253Y-16406016D02*
X15419253Y-16425064D01*
X15495443Y-16225064D02*
X15619253Y-16225064D01*
X15619253Y-16225064D02*
X15552586Y-16301254D01*
X15552586Y-16301254D02*
X15581158Y-16301254D01*
X15581158Y-16301254D02*
X15600205Y-16310778D01*
X15600205Y-16310778D02*
X15609729Y-16320302D01*
X15609729Y-16320302D02*
X15619253Y-16339349D01*
X15619253Y-16339349D02*
X15619253Y-16386968D01*
X15619253Y-16386968D02*
X15609729Y-16406016D01*
X15609729Y-16406016D02*
X15600205Y-16415540D01*
X15600205Y-16415540D02*
X15581158Y-16425064D01*
X15581158Y-16425064D02*
X15524015Y-16425064D01*
X15524015Y-16425064D02*
X15504967Y-16415540D01*
X15504967Y-16415540D02*
X15495443Y-16406016D01*
X15743062Y-16225064D02*
X15762110Y-16225064D01*
X15762110Y-16225064D02*
X15781158Y-16234588D01*
X15781158Y-16234588D02*
X15790682Y-16244111D01*
X15790682Y-16244111D02*
X15800205Y-16263159D01*
X15800205Y-16263159D02*
X15809729Y-16301254D01*
X15809729Y-16301254D02*
X15809729Y-16348873D01*
X15809729Y-16348873D02*
X15800205Y-16386968D01*
X15800205Y-16386968D02*
X15790682Y-16406016D01*
X15790682Y-16406016D02*
X15781158Y-16415540D01*
X15781158Y-16415540D02*
X15762110Y-16425064D01*
X15762110Y-16425064D02*
X15743062Y-16425064D01*
X15743062Y-16425064D02*
X15724015Y-16415540D01*
X15724015Y-16415540D02*
X15714491Y-16406016D01*
X15714491Y-16406016D02*
X15704967Y-16386968D01*
X15704967Y-16386968D02*
X15695443Y-16348873D01*
X15695443Y-16348873D02*
X15695443Y-16301254D01*
X15695443Y-16301254D02*
X15704967Y-16263159D01*
X15704967Y-16263159D02*
X15714491Y-16244111D01*
X15714491Y-16244111D02*
X15724015Y-16234588D01*
X15724015Y-16234588D02*
X15743062Y-16225064D01*
X15933539Y-16225064D02*
X15952586Y-16225064D01*
X15952586Y-16225064D02*
X15971634Y-16234588D01*
X15971634Y-16234588D02*
X15981158Y-16244111D01*
X15981158Y-16244111D02*
X15990682Y-16263159D01*
X15990682Y-16263159D02*
X16000205Y-16301254D01*
X16000205Y-16301254D02*
X16000205Y-16348873D01*
X16000205Y-16348873D02*
X15990682Y-16386968D01*
X15990682Y-16386968D02*
X15981158Y-16406016D01*
X15981158Y-16406016D02*
X15971634Y-16415540D01*
X15971634Y-16415540D02*
X15952586Y-16425064D01*
X15952586Y-16425064D02*
X15933539Y-16425064D01*
X15933539Y-16425064D02*
X15914491Y-16415540D01*
X15914491Y-16415540D02*
X15904967Y-16406016D01*
X15904967Y-16406016D02*
X15895443Y-16386968D01*
X15895443Y-16386968D02*
X15885920Y-16348873D01*
X15885920Y-16348873D02*
X15885920Y-16301254D01*
X15885920Y-16301254D02*
X15895443Y-16263159D01*
X15895443Y-16263159D02*
X15904967Y-16244111D01*
X15904967Y-16244111D02*
X15914491Y-16234588D01*
X15914491Y-16234588D02*
X15933539Y-16225064D01*
X16085920Y-16425064D02*
X16085920Y-16291730D01*
X16085920Y-16310778D02*
X16095443Y-16301254D01*
X16095443Y-16301254D02*
X16114491Y-16291730D01*
X16114491Y-16291730D02*
X16143063Y-16291730D01*
X16143063Y-16291730D02*
X16162110Y-16301254D01*
X16162110Y-16301254D02*
X16171634Y-16320302D01*
X16171634Y-16320302D02*
X16171634Y-16425064D01*
X16171634Y-16320302D02*
X16181158Y-16301254D01*
X16181158Y-16301254D02*
X16200205Y-16291730D01*
X16200205Y-16291730D02*
X16228777Y-16291730D01*
X16228777Y-16291730D02*
X16247824Y-16301254D01*
X16247824Y-16301254D02*
X16257348Y-16320302D01*
X16257348Y-16320302D02*
X16257348Y-16425064D01*
X16352586Y-16425064D02*
X16352586Y-16291730D01*
X16352586Y-16310778D02*
X16362110Y-16301254D01*
X16362110Y-16301254D02*
X16381158Y-16291730D01*
X16381158Y-16291730D02*
X16409729Y-16291730D01*
X16409729Y-16291730D02*
X16428777Y-16301254D01*
X16428777Y-16301254D02*
X16438301Y-16320302D01*
X16438301Y-16320302D02*
X16438301Y-16425064D01*
X16438301Y-16320302D02*
X16447824Y-16301254D01*
X16447824Y-16301254D02*
X16466872Y-16291730D01*
X16466872Y-16291730D02*
X16495443Y-16291730D01*
X16495443Y-16291730D02*
X16514491Y-16301254D01*
X16514491Y-16301254D02*
X16524015Y-16320302D01*
X16524015Y-16320302D02*
X16524015Y-16425064D01*
X16914491Y-16215540D02*
X16743063Y-16472683D01*
X17171634Y-16225064D02*
X17190682Y-16225064D01*
X17190682Y-16225064D02*
X17209729Y-16234588D01*
X17209729Y-16234588D02*
X17219253Y-16244111D01*
X17219253Y-16244111D02*
X17228777Y-16263159D01*
X17228777Y-16263159D02*
X17238301Y-16301254D01*
X17238301Y-16301254D02*
X17238301Y-16348873D01*
X17238301Y-16348873D02*
X17228777Y-16386968D01*
X17228777Y-16386968D02*
X17219253Y-16406016D01*
X17219253Y-16406016D02*
X17209729Y-16415540D01*
X17209729Y-16415540D02*
X17190682Y-16425064D01*
X17190682Y-16425064D02*
X17171634Y-16425064D01*
X17171634Y-16425064D02*
X17152587Y-16415540D01*
X17152587Y-16415540D02*
X17143063Y-16406016D01*
X17143063Y-16406016D02*
X17133539Y-16386968D01*
X17133539Y-16386968D02*
X17124015Y-16348873D01*
X17124015Y-16348873D02*
X17124015Y-16301254D01*
X17124015Y-16301254D02*
X17133539Y-16263159D01*
X17133539Y-16263159D02*
X17143063Y-16244111D01*
X17143063Y-16244111D02*
X17152587Y-16234588D01*
X17152587Y-16234588D02*
X17171634Y-16225064D01*
X17324015Y-16406016D02*
X17333539Y-16415540D01*
X17333539Y-16415540D02*
X17324015Y-16425064D01*
X17324015Y-16425064D02*
X17314491Y-16415540D01*
X17314491Y-16415540D02*
X17324015Y-16406016D01*
X17324015Y-16406016D02*
X17324015Y-16425064D01*
X17457348Y-16225064D02*
X17476396Y-16225064D01*
X17476396Y-16225064D02*
X17495444Y-16234588D01*
X17495444Y-16234588D02*
X17504968Y-16244111D01*
X17504968Y-16244111D02*
X17514491Y-16263159D01*
X17514491Y-16263159D02*
X17524015Y-16301254D01*
X17524015Y-16301254D02*
X17524015Y-16348873D01*
X17524015Y-16348873D02*
X17514491Y-16386968D01*
X17514491Y-16386968D02*
X17504968Y-16406016D01*
X17504968Y-16406016D02*
X17495444Y-16415540D01*
X17495444Y-16415540D02*
X17476396Y-16425064D01*
X17476396Y-16425064D02*
X17457348Y-16425064D01*
X17457348Y-16425064D02*
X17438301Y-16415540D01*
X17438301Y-16415540D02*
X17428777Y-16406016D01*
X17428777Y-16406016D02*
X17419253Y-16386968D01*
X17419253Y-16386968D02*
X17409729Y-16348873D01*
X17409729Y-16348873D02*
X17409729Y-16301254D01*
X17409729Y-16301254D02*
X17419253Y-16263159D01*
X17419253Y-16263159D02*
X17428777Y-16244111D01*
X17428777Y-16244111D02*
X17438301Y-16234588D01*
X17438301Y-16234588D02*
X17457348Y-16225064D01*
X17704968Y-16225064D02*
X17609729Y-16225064D01*
X17609729Y-16225064D02*
X17600206Y-16320302D01*
X17600206Y-16320302D02*
X17609729Y-16310778D01*
X17609729Y-16310778D02*
X17628777Y-16301254D01*
X17628777Y-16301254D02*
X17676396Y-16301254D01*
X17676396Y-16301254D02*
X17695444Y-16310778D01*
X17695444Y-16310778D02*
X17704968Y-16320302D01*
X17704968Y-16320302D02*
X17714491Y-16339349D01*
X17714491Y-16339349D02*
X17714491Y-16386968D01*
X17714491Y-16386968D02*
X17704968Y-16406016D01*
X17704968Y-16406016D02*
X17695444Y-16415540D01*
X17695444Y-16415540D02*
X17676396Y-16425064D01*
X17676396Y-16425064D02*
X17628777Y-16425064D01*
X17628777Y-16425064D02*
X17609729Y-16415540D01*
X17609729Y-16415540D02*
X17600206Y-16406016D01*
X17904968Y-16425064D02*
X17790682Y-16425064D01*
X17847825Y-16425064D02*
X17847825Y-16225064D01*
X17847825Y-16225064D02*
X17828777Y-16253635D01*
X17828777Y-16253635D02*
X17809729Y-16272683D01*
X17809729Y-16272683D02*
X17790682Y-16282207D01*
X17981158Y-16244111D02*
X17990682Y-16234588D01*
X17990682Y-16234588D02*
X18009729Y-16225064D01*
X18009729Y-16225064D02*
X18057349Y-16225064D01*
X18057349Y-16225064D02*
X18076396Y-16234588D01*
X18076396Y-16234588D02*
X18085920Y-16244111D01*
X18085920Y-16244111D02*
X18095444Y-16263159D01*
X18095444Y-16263159D02*
X18095444Y-16282207D01*
X18095444Y-16282207D02*
X18085920Y-16310778D01*
X18085920Y-16310778D02*
X17971634Y-16425064D01*
X17971634Y-16425064D02*
X18095444Y-16425064D01*
X18171634Y-16225064D02*
X18171634Y-16263159D01*
X18247825Y-16225064D02*
X18247825Y-16263159D01*
X18543063Y-16501254D02*
X18533539Y-16491730D01*
X18533539Y-16491730D02*
X18514491Y-16463159D01*
X18514491Y-16463159D02*
X18504968Y-16444111D01*
X18504968Y-16444111D02*
X18495444Y-16415540D01*
X18495444Y-16415540D02*
X18485920Y-16367921D01*
X18485920Y-16367921D02*
X18485920Y-16329826D01*
X18485920Y-16329826D02*
X18495444Y-16282207D01*
X18495444Y-16282207D02*
X18504968Y-16253635D01*
X18504968Y-16253635D02*
X18514491Y-16234588D01*
X18514491Y-16234588D02*
X18533539Y-16206016D01*
X18533539Y-16206016D02*
X18543063Y-16196492D01*
X18609730Y-16244111D02*
X18619253Y-16234588D01*
X18619253Y-16234588D02*
X18638301Y-16225064D01*
X18638301Y-16225064D02*
X18685920Y-16225064D01*
X18685920Y-16225064D02*
X18704968Y-16234588D01*
X18704968Y-16234588D02*
X18714491Y-16244111D01*
X18714491Y-16244111D02*
X18724015Y-16263159D01*
X18724015Y-16263159D02*
X18724015Y-16282207D01*
X18724015Y-16282207D02*
X18714491Y-16310778D01*
X18714491Y-16310778D02*
X18600206Y-16425064D01*
X18600206Y-16425064D02*
X18724015Y-16425064D01*
X18962111Y-16425064D02*
X18962111Y-16225064D01*
X19047825Y-16425064D02*
X19047825Y-16320302D01*
X19047825Y-16320302D02*
X19038301Y-16301254D01*
X19038301Y-16301254D02*
X19019253Y-16291730D01*
X19019253Y-16291730D02*
X18990682Y-16291730D01*
X18990682Y-16291730D02*
X18971634Y-16301254D01*
X18971634Y-16301254D02*
X18962111Y-16310778D01*
X19171634Y-16425064D02*
X19152587Y-16415540D01*
X19152587Y-16415540D02*
X19143063Y-16406016D01*
X19143063Y-16406016D02*
X19133539Y-16386968D01*
X19133539Y-16386968D02*
X19133539Y-16329826D01*
X19133539Y-16329826D02*
X19143063Y-16310778D01*
X19143063Y-16310778D02*
X19152587Y-16301254D01*
X19152587Y-16301254D02*
X19171634Y-16291730D01*
X19171634Y-16291730D02*
X19200206Y-16291730D01*
X19200206Y-16291730D02*
X19219253Y-16301254D01*
X19219253Y-16301254D02*
X19228777Y-16310778D01*
X19228777Y-16310778D02*
X19238301Y-16329826D01*
X19238301Y-16329826D02*
X19238301Y-16386968D01*
X19238301Y-16386968D02*
X19228777Y-16406016D01*
X19228777Y-16406016D02*
X19219253Y-16415540D01*
X19219253Y-16415540D02*
X19200206Y-16425064D01*
X19200206Y-16425064D02*
X19171634Y-16425064D01*
X19352587Y-16425064D02*
X19333539Y-16415540D01*
X19333539Y-16415540D02*
X19324015Y-16396492D01*
X19324015Y-16396492D02*
X19324015Y-16225064D01*
X19504968Y-16415540D02*
X19485920Y-16425064D01*
X19485920Y-16425064D02*
X19447825Y-16425064D01*
X19447825Y-16425064D02*
X19428777Y-16415540D01*
X19428777Y-16415540D02*
X19419253Y-16396492D01*
X19419253Y-16396492D02*
X19419253Y-16320302D01*
X19419253Y-16320302D02*
X19428777Y-16301254D01*
X19428777Y-16301254D02*
X19447825Y-16291730D01*
X19447825Y-16291730D02*
X19485920Y-16291730D01*
X19485920Y-16291730D02*
X19504968Y-16301254D01*
X19504968Y-16301254D02*
X19514492Y-16320302D01*
X19514492Y-16320302D02*
X19514492Y-16339349D01*
X19514492Y-16339349D02*
X19419253Y-16358397D01*
X19590682Y-16415540D02*
X19609730Y-16425064D01*
X19609730Y-16425064D02*
X19647825Y-16425064D01*
X19647825Y-16425064D02*
X19666873Y-16415540D01*
X19666873Y-16415540D02*
X19676396Y-16396492D01*
X19676396Y-16396492D02*
X19676396Y-16386968D01*
X19676396Y-16386968D02*
X19666873Y-16367921D01*
X19666873Y-16367921D02*
X19647825Y-16358397D01*
X19647825Y-16358397D02*
X19619253Y-16358397D01*
X19619253Y-16358397D02*
X19600206Y-16348873D01*
X19600206Y-16348873D02*
X19590682Y-16329826D01*
X19590682Y-16329826D02*
X19590682Y-16320302D01*
X19590682Y-16320302D02*
X19600206Y-16301254D01*
X19600206Y-16301254D02*
X19619253Y-16291730D01*
X19619253Y-16291730D02*
X19647825Y-16291730D01*
X19647825Y-16291730D02*
X19666873Y-16301254D01*
X19743063Y-16501254D02*
X19752587Y-16491730D01*
X19752587Y-16491730D02*
X19771634Y-16463159D01*
X19771634Y-16463159D02*
X19781158Y-16444111D01*
X19781158Y-16444111D02*
X19790682Y-16415540D01*
X19790682Y-16415540D02*
X19800206Y-16367921D01*
X19800206Y-16367921D02*
X19800206Y-16329826D01*
X19800206Y-16329826D02*
X19790682Y-16282207D01*
X19790682Y-16282207D02*
X19781158Y-16253635D01*
X19781158Y-16253635D02*
X19771634Y-16234588D01*
X19771634Y-16234588D02*
X19752587Y-16206016D01*
X19752587Y-16206016D02*
X19743063Y-16196492D01*
X14768000Y-16497580D02*
X14968000Y-16697580D01*
X14968000Y-16497580D02*
X14768000Y-16697580D01*
X14938711Y-16668291D02*
X14938711Y-16526869D01*
X14797289Y-16526869D01*
X14797289Y-16668291D01*
X14938711Y-16668291D01*
X15219253Y-16508111D02*
X15228777Y-16498588D01*
X15228777Y-16498588D02*
X15247824Y-16489064D01*
X15247824Y-16489064D02*
X15295443Y-16489064D01*
X15295443Y-16489064D02*
X15314491Y-16498588D01*
X15314491Y-16498588D02*
X15324015Y-16508111D01*
X15324015Y-16508111D02*
X15333539Y-16527159D01*
X15333539Y-16527159D02*
X15333539Y-16546207D01*
X15333539Y-16546207D02*
X15324015Y-16574778D01*
X15324015Y-16574778D02*
X15209729Y-16689064D01*
X15209729Y-16689064D02*
X15333539Y-16689064D01*
X15419253Y-16670016D02*
X15428777Y-16679540D01*
X15428777Y-16679540D02*
X15419253Y-16689064D01*
X15419253Y-16689064D02*
X15409729Y-16679540D01*
X15409729Y-16679540D02*
X15419253Y-16670016D01*
X15419253Y-16670016D02*
X15419253Y-16689064D01*
X15552586Y-16489064D02*
X15571634Y-16489064D01*
X15571634Y-16489064D02*
X15590682Y-16498588D01*
X15590682Y-16498588D02*
X15600205Y-16508111D01*
X15600205Y-16508111D02*
X15609729Y-16527159D01*
X15609729Y-16527159D02*
X15619253Y-16565254D01*
X15619253Y-16565254D02*
X15619253Y-16612873D01*
X15619253Y-16612873D02*
X15609729Y-16650968D01*
X15609729Y-16650968D02*
X15600205Y-16670016D01*
X15600205Y-16670016D02*
X15590682Y-16679540D01*
X15590682Y-16679540D02*
X15571634Y-16689064D01*
X15571634Y-16689064D02*
X15552586Y-16689064D01*
X15552586Y-16689064D02*
X15533539Y-16679540D01*
X15533539Y-16679540D02*
X15524015Y-16670016D01*
X15524015Y-16670016D02*
X15514491Y-16650968D01*
X15514491Y-16650968D02*
X15504967Y-16612873D01*
X15504967Y-16612873D02*
X15504967Y-16565254D01*
X15504967Y-16565254D02*
X15514491Y-16527159D01*
X15514491Y-16527159D02*
X15524015Y-16508111D01*
X15524015Y-16508111D02*
X15533539Y-16498588D01*
X15533539Y-16498588D02*
X15552586Y-16489064D01*
X15743062Y-16489064D02*
X15762110Y-16489064D01*
X15762110Y-16489064D02*
X15781158Y-16498588D01*
X15781158Y-16498588D02*
X15790682Y-16508111D01*
X15790682Y-16508111D02*
X15800205Y-16527159D01*
X15800205Y-16527159D02*
X15809729Y-16565254D01*
X15809729Y-16565254D02*
X15809729Y-16612873D01*
X15809729Y-16612873D02*
X15800205Y-16650968D01*
X15800205Y-16650968D02*
X15790682Y-16670016D01*
X15790682Y-16670016D02*
X15781158Y-16679540D01*
X15781158Y-16679540D02*
X15762110Y-16689064D01*
X15762110Y-16689064D02*
X15743062Y-16689064D01*
X15743062Y-16689064D02*
X15724015Y-16679540D01*
X15724015Y-16679540D02*
X15714491Y-16670016D01*
X15714491Y-16670016D02*
X15704967Y-16650968D01*
X15704967Y-16650968D02*
X15695443Y-16612873D01*
X15695443Y-16612873D02*
X15695443Y-16565254D01*
X15695443Y-16565254D02*
X15704967Y-16527159D01*
X15704967Y-16527159D02*
X15714491Y-16508111D01*
X15714491Y-16508111D02*
X15724015Y-16498588D01*
X15724015Y-16498588D02*
X15743062Y-16489064D01*
X15933539Y-16489064D02*
X15952586Y-16489064D01*
X15952586Y-16489064D02*
X15971634Y-16498588D01*
X15971634Y-16498588D02*
X15981158Y-16508111D01*
X15981158Y-16508111D02*
X15990682Y-16527159D01*
X15990682Y-16527159D02*
X16000205Y-16565254D01*
X16000205Y-16565254D02*
X16000205Y-16612873D01*
X16000205Y-16612873D02*
X15990682Y-16650968D01*
X15990682Y-16650968D02*
X15981158Y-16670016D01*
X15981158Y-16670016D02*
X15971634Y-16679540D01*
X15971634Y-16679540D02*
X15952586Y-16689064D01*
X15952586Y-16689064D02*
X15933539Y-16689064D01*
X15933539Y-16689064D02*
X15914491Y-16679540D01*
X15914491Y-16679540D02*
X15904967Y-16670016D01*
X15904967Y-16670016D02*
X15895443Y-16650968D01*
X15895443Y-16650968D02*
X15885920Y-16612873D01*
X15885920Y-16612873D02*
X15885920Y-16565254D01*
X15885920Y-16565254D02*
X15895443Y-16527159D01*
X15895443Y-16527159D02*
X15904967Y-16508111D01*
X15904967Y-16508111D02*
X15914491Y-16498588D01*
X15914491Y-16498588D02*
X15933539Y-16489064D01*
X16085920Y-16689064D02*
X16085920Y-16555730D01*
X16085920Y-16574778D02*
X16095443Y-16565254D01*
X16095443Y-16565254D02*
X16114491Y-16555730D01*
X16114491Y-16555730D02*
X16143063Y-16555730D01*
X16143063Y-16555730D02*
X16162110Y-16565254D01*
X16162110Y-16565254D02*
X16171634Y-16584302D01*
X16171634Y-16584302D02*
X16171634Y-16689064D01*
X16171634Y-16584302D02*
X16181158Y-16565254D01*
X16181158Y-16565254D02*
X16200205Y-16555730D01*
X16200205Y-16555730D02*
X16228777Y-16555730D01*
X16228777Y-16555730D02*
X16247824Y-16565254D01*
X16247824Y-16565254D02*
X16257348Y-16584302D01*
X16257348Y-16584302D02*
X16257348Y-16689064D01*
X16352586Y-16689064D02*
X16352586Y-16555730D01*
X16352586Y-16574778D02*
X16362110Y-16565254D01*
X16362110Y-16565254D02*
X16381158Y-16555730D01*
X16381158Y-16555730D02*
X16409729Y-16555730D01*
X16409729Y-16555730D02*
X16428777Y-16565254D01*
X16428777Y-16565254D02*
X16438301Y-16584302D01*
X16438301Y-16584302D02*
X16438301Y-16689064D01*
X16438301Y-16584302D02*
X16447824Y-16565254D01*
X16447824Y-16565254D02*
X16466872Y-16555730D01*
X16466872Y-16555730D02*
X16495443Y-16555730D01*
X16495443Y-16555730D02*
X16514491Y-16565254D01*
X16514491Y-16565254D02*
X16524015Y-16584302D01*
X16524015Y-16584302D02*
X16524015Y-16689064D01*
X16914491Y-16479540D02*
X16743063Y-16736683D01*
X17171634Y-16489064D02*
X17190682Y-16489064D01*
X17190682Y-16489064D02*
X17209729Y-16498588D01*
X17209729Y-16498588D02*
X17219253Y-16508111D01*
X17219253Y-16508111D02*
X17228777Y-16527159D01*
X17228777Y-16527159D02*
X17238301Y-16565254D01*
X17238301Y-16565254D02*
X17238301Y-16612873D01*
X17238301Y-16612873D02*
X17228777Y-16650968D01*
X17228777Y-16650968D02*
X17219253Y-16670016D01*
X17219253Y-16670016D02*
X17209729Y-16679540D01*
X17209729Y-16679540D02*
X17190682Y-16689064D01*
X17190682Y-16689064D02*
X17171634Y-16689064D01*
X17171634Y-16689064D02*
X17152587Y-16679540D01*
X17152587Y-16679540D02*
X17143063Y-16670016D01*
X17143063Y-16670016D02*
X17133539Y-16650968D01*
X17133539Y-16650968D02*
X17124015Y-16612873D01*
X17124015Y-16612873D02*
X17124015Y-16565254D01*
X17124015Y-16565254D02*
X17133539Y-16527159D01*
X17133539Y-16527159D02*
X17143063Y-16508111D01*
X17143063Y-16508111D02*
X17152587Y-16498588D01*
X17152587Y-16498588D02*
X17171634Y-16489064D01*
X17324015Y-16670016D02*
X17333539Y-16679540D01*
X17333539Y-16679540D02*
X17324015Y-16689064D01*
X17324015Y-16689064D02*
X17314491Y-16679540D01*
X17314491Y-16679540D02*
X17324015Y-16670016D01*
X17324015Y-16670016D02*
X17324015Y-16689064D01*
X17457348Y-16489064D02*
X17476396Y-16489064D01*
X17476396Y-16489064D02*
X17495444Y-16498588D01*
X17495444Y-16498588D02*
X17504968Y-16508111D01*
X17504968Y-16508111D02*
X17514491Y-16527159D01*
X17514491Y-16527159D02*
X17524015Y-16565254D01*
X17524015Y-16565254D02*
X17524015Y-16612873D01*
X17524015Y-16612873D02*
X17514491Y-16650968D01*
X17514491Y-16650968D02*
X17504968Y-16670016D01*
X17504968Y-16670016D02*
X17495444Y-16679540D01*
X17495444Y-16679540D02*
X17476396Y-16689064D01*
X17476396Y-16689064D02*
X17457348Y-16689064D01*
X17457348Y-16689064D02*
X17438301Y-16679540D01*
X17438301Y-16679540D02*
X17428777Y-16670016D01*
X17428777Y-16670016D02*
X17419253Y-16650968D01*
X17419253Y-16650968D02*
X17409729Y-16612873D01*
X17409729Y-16612873D02*
X17409729Y-16565254D01*
X17409729Y-16565254D02*
X17419253Y-16527159D01*
X17419253Y-16527159D02*
X17428777Y-16508111D01*
X17428777Y-16508111D02*
X17438301Y-16498588D01*
X17438301Y-16498588D02*
X17457348Y-16489064D01*
X17590682Y-16489064D02*
X17724015Y-16489064D01*
X17724015Y-16489064D02*
X17638301Y-16689064D01*
X17828777Y-16574778D02*
X17809729Y-16565254D01*
X17809729Y-16565254D02*
X17800206Y-16555730D01*
X17800206Y-16555730D02*
X17790682Y-16536683D01*
X17790682Y-16536683D02*
X17790682Y-16527159D01*
X17790682Y-16527159D02*
X17800206Y-16508111D01*
X17800206Y-16508111D02*
X17809729Y-16498588D01*
X17809729Y-16498588D02*
X17828777Y-16489064D01*
X17828777Y-16489064D02*
X17866872Y-16489064D01*
X17866872Y-16489064D02*
X17885920Y-16498588D01*
X17885920Y-16498588D02*
X17895444Y-16508111D01*
X17895444Y-16508111D02*
X17904968Y-16527159D01*
X17904968Y-16527159D02*
X17904968Y-16536683D01*
X17904968Y-16536683D02*
X17895444Y-16555730D01*
X17895444Y-16555730D02*
X17885920Y-16565254D01*
X17885920Y-16565254D02*
X17866872Y-16574778D01*
X17866872Y-16574778D02*
X17828777Y-16574778D01*
X17828777Y-16574778D02*
X17809729Y-16584302D01*
X17809729Y-16584302D02*
X17800206Y-16593826D01*
X17800206Y-16593826D02*
X17790682Y-16612873D01*
X17790682Y-16612873D02*
X17790682Y-16650968D01*
X17790682Y-16650968D02*
X17800206Y-16670016D01*
X17800206Y-16670016D02*
X17809729Y-16679540D01*
X17809729Y-16679540D02*
X17828777Y-16689064D01*
X17828777Y-16689064D02*
X17866872Y-16689064D01*
X17866872Y-16689064D02*
X17885920Y-16679540D01*
X17885920Y-16679540D02*
X17895444Y-16670016D01*
X17895444Y-16670016D02*
X17904968Y-16650968D01*
X17904968Y-16650968D02*
X17904968Y-16612873D01*
X17904968Y-16612873D02*
X17895444Y-16593826D01*
X17895444Y-16593826D02*
X17885920Y-16584302D01*
X17885920Y-16584302D02*
X17866872Y-16574778D01*
X17971634Y-16489064D02*
X18104968Y-16489064D01*
X18104968Y-16489064D02*
X18019253Y-16689064D01*
X18171634Y-16489064D02*
X18171634Y-16527159D01*
X18247825Y-16489064D02*
X18247825Y-16527159D01*
X18543063Y-16765254D02*
X18533539Y-16755730D01*
X18533539Y-16755730D02*
X18514491Y-16727159D01*
X18514491Y-16727159D02*
X18504968Y-16708111D01*
X18504968Y-16708111D02*
X18495444Y-16679540D01*
X18495444Y-16679540D02*
X18485920Y-16631921D01*
X18485920Y-16631921D02*
X18485920Y-16593826D01*
X18485920Y-16593826D02*
X18495444Y-16546207D01*
X18495444Y-16546207D02*
X18504968Y-16517635D01*
X18504968Y-16517635D02*
X18514491Y-16498588D01*
X18514491Y-16498588D02*
X18533539Y-16470016D01*
X18533539Y-16470016D02*
X18543063Y-16460492D01*
X18657349Y-16489064D02*
X18676396Y-16489064D01*
X18676396Y-16489064D02*
X18695444Y-16498588D01*
X18695444Y-16498588D02*
X18704968Y-16508111D01*
X18704968Y-16508111D02*
X18714491Y-16527159D01*
X18714491Y-16527159D02*
X18724015Y-16565254D01*
X18724015Y-16565254D02*
X18724015Y-16612873D01*
X18724015Y-16612873D02*
X18714491Y-16650968D01*
X18714491Y-16650968D02*
X18704968Y-16670016D01*
X18704968Y-16670016D02*
X18695444Y-16679540D01*
X18695444Y-16679540D02*
X18676396Y-16689064D01*
X18676396Y-16689064D02*
X18657349Y-16689064D01*
X18657349Y-16689064D02*
X18638301Y-16679540D01*
X18638301Y-16679540D02*
X18628777Y-16670016D01*
X18628777Y-16670016D02*
X18619253Y-16650968D01*
X18619253Y-16650968D02*
X18609730Y-16612873D01*
X18609730Y-16612873D02*
X18609730Y-16565254D01*
X18609730Y-16565254D02*
X18619253Y-16527159D01*
X18619253Y-16527159D02*
X18628777Y-16508111D01*
X18628777Y-16508111D02*
X18638301Y-16498588D01*
X18638301Y-16498588D02*
X18657349Y-16489064D01*
X18962111Y-16689064D02*
X18962111Y-16489064D01*
X19047825Y-16689064D02*
X19047825Y-16584302D01*
X19047825Y-16584302D02*
X19038301Y-16565254D01*
X19038301Y-16565254D02*
X19019253Y-16555730D01*
X19019253Y-16555730D02*
X18990682Y-16555730D01*
X18990682Y-16555730D02*
X18971634Y-16565254D01*
X18971634Y-16565254D02*
X18962111Y-16574778D01*
X19171634Y-16689064D02*
X19152587Y-16679540D01*
X19152587Y-16679540D02*
X19143063Y-16670016D01*
X19143063Y-16670016D02*
X19133539Y-16650968D01*
X19133539Y-16650968D02*
X19133539Y-16593826D01*
X19133539Y-16593826D02*
X19143063Y-16574778D01*
X19143063Y-16574778D02*
X19152587Y-16565254D01*
X19152587Y-16565254D02*
X19171634Y-16555730D01*
X19171634Y-16555730D02*
X19200206Y-16555730D01*
X19200206Y-16555730D02*
X19219253Y-16565254D01*
X19219253Y-16565254D02*
X19228777Y-16574778D01*
X19228777Y-16574778D02*
X19238301Y-16593826D01*
X19238301Y-16593826D02*
X19238301Y-16650968D01*
X19238301Y-16650968D02*
X19228777Y-16670016D01*
X19228777Y-16670016D02*
X19219253Y-16679540D01*
X19219253Y-16679540D02*
X19200206Y-16689064D01*
X19200206Y-16689064D02*
X19171634Y-16689064D01*
X19352587Y-16689064D02*
X19333539Y-16679540D01*
X19333539Y-16679540D02*
X19324015Y-16660492D01*
X19324015Y-16660492D02*
X19324015Y-16489064D01*
X19504968Y-16679540D02*
X19485920Y-16689064D01*
X19485920Y-16689064D02*
X19447825Y-16689064D01*
X19447825Y-16689064D02*
X19428777Y-16679540D01*
X19428777Y-16679540D02*
X19419253Y-16660492D01*
X19419253Y-16660492D02*
X19419253Y-16584302D01*
X19419253Y-16584302D02*
X19428777Y-16565254D01*
X19428777Y-16565254D02*
X19447825Y-16555730D01*
X19447825Y-16555730D02*
X19485920Y-16555730D01*
X19485920Y-16555730D02*
X19504968Y-16565254D01*
X19504968Y-16565254D02*
X19514492Y-16584302D01*
X19514492Y-16584302D02*
X19514492Y-16603349D01*
X19514492Y-16603349D02*
X19419253Y-16622397D01*
X19590682Y-16679540D02*
X19609730Y-16689064D01*
X19609730Y-16689064D02*
X19647825Y-16689064D01*
X19647825Y-16689064D02*
X19666873Y-16679540D01*
X19666873Y-16679540D02*
X19676396Y-16660492D01*
X19676396Y-16660492D02*
X19676396Y-16650968D01*
X19676396Y-16650968D02*
X19666873Y-16631921D01*
X19666873Y-16631921D02*
X19647825Y-16622397D01*
X19647825Y-16622397D02*
X19619253Y-16622397D01*
X19619253Y-16622397D02*
X19600206Y-16612873D01*
X19600206Y-16612873D02*
X19590682Y-16593826D01*
X19590682Y-16593826D02*
X19590682Y-16584302D01*
X19590682Y-16584302D02*
X19600206Y-16565254D01*
X19600206Y-16565254D02*
X19619253Y-16555730D01*
X19619253Y-16555730D02*
X19647825Y-16555730D01*
X19647825Y-16555730D02*
X19666873Y-16565254D01*
X19914492Y-16612873D02*
X20066873Y-16612873D01*
X19990682Y-16689064D02*
X19990682Y-16536683D01*
X20304968Y-16508111D02*
X20314492Y-16498588D01*
X20314492Y-16498588D02*
X20333539Y-16489064D01*
X20333539Y-16489064D02*
X20381158Y-16489064D01*
X20381158Y-16489064D02*
X20400206Y-16498588D01*
X20400206Y-16498588D02*
X20409730Y-16508111D01*
X20409730Y-16508111D02*
X20419254Y-16527159D01*
X20419254Y-16527159D02*
X20419254Y-16546207D01*
X20419254Y-16546207D02*
X20409730Y-16574778D01*
X20409730Y-16574778D02*
X20295444Y-16689064D01*
X20295444Y-16689064D02*
X20419254Y-16689064D01*
X20647825Y-16679540D02*
X20666873Y-16689064D01*
X20666873Y-16689064D02*
X20704968Y-16689064D01*
X20704968Y-16689064D02*
X20724016Y-16679540D01*
X20724016Y-16679540D02*
X20733539Y-16660492D01*
X20733539Y-16660492D02*
X20733539Y-16650968D01*
X20733539Y-16650968D02*
X20724016Y-16631921D01*
X20724016Y-16631921D02*
X20704968Y-16622397D01*
X20704968Y-16622397D02*
X20676396Y-16622397D01*
X20676396Y-16622397D02*
X20657349Y-16612873D01*
X20657349Y-16612873D02*
X20647825Y-16593826D01*
X20647825Y-16593826D02*
X20647825Y-16584302D01*
X20647825Y-16584302D02*
X20657349Y-16565254D01*
X20657349Y-16565254D02*
X20676396Y-16555730D01*
X20676396Y-16555730D02*
X20704968Y-16555730D01*
X20704968Y-16555730D02*
X20724016Y-16565254D01*
X20847825Y-16689064D02*
X20828777Y-16679540D01*
X20828777Y-16679540D02*
X20819254Y-16660492D01*
X20819254Y-16660492D02*
X20819254Y-16489064D01*
X20952587Y-16689064D02*
X20933539Y-16679540D01*
X20933539Y-16679540D02*
X20924016Y-16670016D01*
X20924016Y-16670016D02*
X20914492Y-16650968D01*
X20914492Y-16650968D02*
X20914492Y-16593826D01*
X20914492Y-16593826D02*
X20924016Y-16574778D01*
X20924016Y-16574778D02*
X20933539Y-16565254D01*
X20933539Y-16565254D02*
X20952587Y-16555730D01*
X20952587Y-16555730D02*
X20981158Y-16555730D01*
X20981158Y-16555730D02*
X21000206Y-16565254D01*
X21000206Y-16565254D02*
X21009730Y-16574778D01*
X21009730Y-16574778D02*
X21019254Y-16593826D01*
X21019254Y-16593826D02*
X21019254Y-16650968D01*
X21019254Y-16650968D02*
X21009730Y-16670016D01*
X21009730Y-16670016D02*
X21000206Y-16679540D01*
X21000206Y-16679540D02*
X20981158Y-16689064D01*
X20981158Y-16689064D02*
X20952587Y-16689064D01*
X21076397Y-16555730D02*
X21152587Y-16555730D01*
X21104968Y-16489064D02*
X21104968Y-16660492D01*
X21104968Y-16660492D02*
X21114492Y-16679540D01*
X21114492Y-16679540D02*
X21133539Y-16689064D01*
X21133539Y-16689064D02*
X21152587Y-16689064D01*
X21209730Y-16679540D02*
X21228777Y-16689064D01*
X21228777Y-16689064D02*
X21266873Y-16689064D01*
X21266873Y-16689064D02*
X21285920Y-16679540D01*
X21285920Y-16679540D02*
X21295444Y-16660492D01*
X21295444Y-16660492D02*
X21295444Y-16650968D01*
X21295444Y-16650968D02*
X21285920Y-16631921D01*
X21285920Y-16631921D02*
X21266873Y-16622397D01*
X21266873Y-16622397D02*
X21238301Y-16622397D01*
X21238301Y-16622397D02*
X21219254Y-16612873D01*
X21219254Y-16612873D02*
X21209730Y-16593826D01*
X21209730Y-16593826D02*
X21209730Y-16584302D01*
X21209730Y-16584302D02*
X21219254Y-16565254D01*
X21219254Y-16565254D02*
X21238301Y-16555730D01*
X21238301Y-16555730D02*
X21266873Y-16555730D01*
X21266873Y-16555730D02*
X21285920Y-16565254D01*
X21362111Y-16765254D02*
X21371635Y-16755730D01*
X21371635Y-16755730D02*
X21390682Y-16727159D01*
X21390682Y-16727159D02*
X21400206Y-16708111D01*
X21400206Y-16708111D02*
X21409730Y-16679540D01*
X21409730Y-16679540D02*
X21419254Y-16631921D01*
X21419254Y-16631921D02*
X21419254Y-16593826D01*
X21419254Y-16593826D02*
X21409730Y-16546207D01*
X21409730Y-16546207D02*
X21400206Y-16517635D01*
X21400206Y-16517635D02*
X21390682Y-16498588D01*
X21390682Y-16498588D02*
X21371635Y-16470016D01*
X21371635Y-16470016D02*
X21362111Y-16460492D01*
M02*
