M48
; DRILL file {KiCad 9.0.0} date 2025-05-15T16:18:30+0900
; FORMAT={-:-/ absolute / inch / decimal}
; #@! TF.CreationDate,2025-05-15T16:18:30+09:00
; #@! TF.GenerationSoftware,Kicad,Pcbnew,9.0.0
; #@! TF.FileFunction,NonPlated,1,2,NPTH
FMAT,2
INCH
; #@! TA.AperFunction,NonPlated,NPTH,ComponentDrill
T1C0.0276
; #@! TA.AperFunction,NonPlated,NPTH,ComponentDrill
T2C0.0390
; #@! TA.AperFunction,NonPlated,NPTH,ComponentDrill
T3C0.0670
; #@! TA.AperFunction,NonPlated,NPTH,ComponentDrill
T4C0.1181
; #@! TA.AperFunction,NonPlated,NPTH,ComponentDrill
T5C0.1350
%
G90
G05
T1
X9.7598Y-4.1772
X9.7618Y-4.0591
T2
X6.0467Y-3.4418
X6.1629Y-4.101
X6.2791Y-4.7601
X6.4515Y-3.3704
X6.5677Y-4.0296
X6.6839Y-4.6887
X6.8605Y-2.8484
X6.9072Y-3.5161
X6.9539Y-4.1838
X7.2705Y-2.8197
X7.3172Y-3.4874
X7.3639Y-4.1551
X7.6685Y-3.1024
X7.6685Y-3.7717
X8.0795Y-3.1024
X8.0795Y-3.7717
X8.3772Y-2.7087
X8.3772Y-3.378
X8.3772Y-4.0472
X8.7882Y-2.7087
X8.7882Y-3.378
X8.7882Y-4.0472
X8.998Y-4.8461
X9.0858Y-2.8268
X9.0858Y-3.4961
X9.0858Y-4.1654
X9.4085Y-4.8676
X9.4969Y-2.8268
X9.4969Y-3.4961
X9.4969Y-4.1654
T3
X6.0645Y-3.6066
X6.1808Y-4.2657
X6.297Y-4.9248
X6.491Y-3.5314
X6.6073Y-4.1905
X6.7235Y-4.8496
X6.861Y-3.0141
X6.9077Y-3.6818
X6.9544Y-4.3495
X7.2931Y-2.9839
X7.3397Y-3.6516
X7.3864Y-4.3193
X7.6575Y-3.2677
X7.6575Y-3.937
X8.0906Y-3.2677
X8.0906Y-3.937
X8.3661Y-2.874
X8.3661Y-3.5433
X8.3661Y-4.2126
X8.7992Y-2.874
X8.7992Y-3.5433
X8.7992Y-4.2126
X8.9784Y-5.0107
X9.0748Y-2.9921
X9.0748Y-3.6614
X9.0748Y-4.3307
X9.4108Y-5.0333
X9.5079Y-2.9921
X9.5079Y-3.6614
X9.5079Y-4.3307
T4
X5.9874Y-5.0394
X6.0385Y-4.8305
X6.1096Y-3.7486
X6.2258Y-4.4077
X6.3185Y-3.7997
X6.342Y-5.0668
X6.4347Y-4.4588
X6.4973Y-3.6802
X6.5509Y-5.1179
X6.6135Y-4.3393
X6.7297Y-4.9985
X6.891Y-3.16
X6.9377Y-3.8277
X6.9844Y-4.4954
X7.0934Y-3.2327
X7.1401Y-3.9004
X7.1868Y-4.5681
X7.2837Y-3.1326
X7.3304Y-3.8002
X7.3771Y-4.4679
X7.6772Y-2.7461
X7.6772Y-3.4154
X7.6772Y-4.0846
X7.874Y-2.8327
X7.874Y-3.502
X7.874Y-4.1713
X8.0709Y-2.7461
X8.0709Y-3.4154
X8.0709Y-4.0846
X8.3858Y-3.0217
X8.3858Y-3.6909
X8.3858Y-4.3602
X8.5827Y-3.1083
X8.5827Y-3.7776
X8.5827Y-4.4469
X8.7795Y-3.0217
X8.7795Y-3.6909
X8.7795Y-4.3602
X8.9903Y-5.1591
X9.0945Y-3.1398
X9.0945Y-3.8091
X9.0945Y-4.4783
X9.1823Y-5.2559
X9.2913Y-3.2264
X9.2913Y-3.8957
X9.2913Y-4.565
X9.3835Y-5.1797
X9.4882Y-3.1398
X9.4882Y-3.8091
X9.4882Y-4.4783
X9.68Y-5.0617
X9.7384Y-5.2687
T5
X6.2778Y-3.569
X6.394Y-4.2281
X6.5102Y-4.8872
X7.077Y-2.999
X7.1237Y-3.6667
X7.1704Y-4.3344
X7.874Y-3.2677
X7.874Y-3.937
X8.5827Y-2.874
X8.5827Y-3.5433
X8.5827Y-4.2126
X9.1946Y-5.022
X9.2913Y-2.9921
X9.2913Y-3.6614
X9.2913Y-4.3307
M30
