%TF.GenerationSoftware,KiCad,Pcbnew,9.0.0*%
%TF.CreationDate,2025-05-15T16:18:32+09:00*%
%TF.ProjectId,xylo,78796c6f-2e6b-4696-9361-645f70636258,rev?*%
%TF.SameCoordinates,Original*%
%TF.FileFunction,Paste,Bot*%
%TF.FilePolarity,Positive*%
%FSLAX46Y46*%
G04 Gerber Fmt 4.6, Leading zero omitted, Abs format (unit mm)*
G04 Created by KiCad (PCBNEW 9.0.0) date 2025-05-15 16:18:32*
%MOMM*%
%LPD*%
G01*
G04 APERTURE LIST*
G04 Aperture macros list*
%AMRotRect*
0 Rectangle, with rotation*
0 The origin of the aperture is its center*
0 $1 length*
0 $2 width*
0 $3 Rotation angle, in degrees counterclockwise*
0 Add horizontal line*
21,1,$1,$2,0,0,$3*%
%AMOutline5P*
0 Free polygon, 5 corners , with rotation*
0 The origin of the aperture is its center*
0 number of corners: always 5*
0 $1 to $10 corner X, Y*
0 $11 Rotation angle, in degrees counterclockwise*
0 create outline with 5 corners*
4,1,5,$1,$2,$3,$4,$5,$6,$7,$8,$9,$10,$1,$2,$11*%
%AMOutline6P*
0 Free polygon, 6 corners , with rotation*
0 The origin of the aperture is its center*
0 number of corners: always 6*
0 $1 to $12 corner X, Y*
0 $13 Rotation angle, in degrees counterclockwise*
0 create outline with 6 corners*
4,1,6,$1,$2,$3,$4,$5,$6,$7,$8,$9,$10,$11,$12,$1,$2,$13*%
%AMOutline7P*
0 Free polygon, 7 corners , with rotation*
0 The origin of the aperture is its center*
0 number of corners: always 7*
0 $1 to $14 corner X, Y*
0 $15 Rotation angle, in degrees counterclockwise*
0 create outline with 7 corners*
4,1,7,$1,$2,$3,$4,$5,$6,$7,$8,$9,$10,$11,$12,$13,$14,$1,$2,$15*%
%AMOutline8P*
0 Free polygon, 8 corners , with rotation*
0 The origin of the aperture is its center*
0 number of corners: always 8*
0 $1 to $16 corner X, Y*
0 $17 Rotation angle, in degrees counterclockwise*
0 create outline with 8 corners*
4,1,8,$1,$2,$3,$4,$5,$6,$7,$8,$9,$10,$11,$12,$13,$14,$15,$16,$1,$2,$17*%
G04 Aperture macros list end*
%ADD10RotRect,2.600000X2.600000X4.000000*%
%ADD11Outline5P,-1.300000X1.300000X0.130000X1.300000X1.300000X0.130000X1.300000X-1.300000X-1.300000X-1.300000X4.000000*%
%ADD12R,2.600000X2.600000*%
%ADD13Outline5P,-1.300000X1.300000X0.130000X1.300000X1.300000X0.130000X1.300000X-1.300000X-1.300000X-1.300000X0.000000*%
%ADD14RotRect,2.600000X2.600000X100.000000*%
%ADD15Outline5P,-1.300000X1.300000X0.130000X1.300000X1.300000X0.130000X1.300000X-1.300000X-1.300000X-1.300000X100.000000*%
%ADD16RotRect,2.600000X2.600000X10.000000*%
%ADD17Outline5P,-1.300000X1.300000X0.130000X1.300000X1.300000X0.130000X1.300000X-1.300000X-1.300000X-1.300000X10.000000*%
%ADD18R,1.000000X0.700000*%
%ADD19R,2.800000X1.000000*%
%ADD20RotRect,2.600000X2.600000X262.000000*%
%ADD21Outline5P,-1.300000X1.300000X0.130000X1.300000X1.300000X0.130000X1.300000X-1.300000X-1.300000X-1.300000X262.000000*%
%ADD22RotRect,2.600000X2.600000X357.000000*%
%ADD23Outline5P,-1.300000X1.300000X0.130000X1.300000X1.300000X0.130000X1.300000X-1.300000X-1.300000X-1.300000X357.000000*%
G04 APERTURE END LIST*
D10*
%TO.C,SW2*%
X171763744Y-80493100D03*
D11*
X183439073Y-81882054D03*
%TD*%
D12*
%TO.C,SW9*%
X209725000Y-93750000D03*
D13*
X221275000Y-95950000D03*
%TD*%
D14*
%TO.C,SW16*%
X152647968Y-131226103D03*
D15*
X152808908Y-119469548D03*
%TD*%
D12*
%TO.C,SW5*%
X227725000Y-79750000D03*
D13*
X239275000Y-81950000D03*
%TD*%
D10*
%TO.C,SW12*%
X174135744Y-114411100D03*
D11*
X185811073Y-115800054D03*
%TD*%
D10*
%TO.C,SW7*%
X172949744Y-97452100D03*
D11*
X184625073Y-98841054D03*
%TD*%
D16*
%TO.C,SW11*%
X157861897Y-129265968D03*
D17*
X169618452Y-129426908D03*
%TD*%
D18*
%TO.C,PSW1*%
X246100000Y-102350000D03*
X246100000Y-105350000D03*
X246100000Y-106850000D03*
D19*
X248000000Y-108450000D03*
X248000000Y-100500000D03*
%TD*%
D20*
%TO.C,SW18*%
X249203152Y-120678633D03*
D21*
X245417113Y-131810048D03*
%TD*%
D16*
%TO.C,SW6*%
X154909897Y-112523968D03*
D17*
X166666452Y-112684908D03*
%TD*%
D12*
%TO.C,SW15*%
X227725000Y-113750000D03*
D13*
X239275000Y-115950000D03*
%TD*%
D12*
%TO.C,SW8*%
X191725000Y-86750000D03*
D13*
X203275000Y-88950000D03*
%TD*%
D12*
%TO.C,SW4*%
X209725000Y-76750000D03*
D13*
X221275000Y-78950000D03*
%TD*%
D12*
%TO.C,SW10*%
X227725000Y-96750000D03*
D13*
X239275000Y-98950000D03*
%TD*%
D12*
%TO.C,SW3*%
X191725000Y-69750000D03*
D13*
X203275000Y-71950000D03*
%TD*%
D22*
%TO.C,SW17*%
X225083081Y-130870781D03*
D23*
X236502113Y-133672246D03*
%TD*%
D12*
%TO.C,SW14*%
X209725000Y-110750000D03*
D13*
X221275000Y-112950000D03*
%TD*%
D16*
%TO.C,SW1*%
X151957897Y-95781968D03*
D17*
X163714452Y-95942908D03*
%TD*%
D12*
%TO.C,SW13*%
X191725000Y-103750000D03*
D13*
X203275000Y-105950000D03*
%TD*%
M02*
