%TF.GenerationSoftware,KiCad,Pcbnew,9.0.0*%
%TF.CreationDate,2025-05-15T16:18:32+09:00*%
%TF.ProjectId,xylo,78796c6f-2e6b-4696-9361-645f70636258,rev?*%
%TF.SameCoordinates,Original*%
%TF.FileFunction,Legend,Top*%
%TF.FilePolarity,Positive*%
%FSLAX46Y46*%
G04 Gerber Fmt 4.6, Leading zero omitted, Abs format (unit mm)*
G04 Created by KiCad (PCBNEW 9.0.0) date 2025-05-15 16:18:32*
%MOMM*%
%LPD*%
G01*
G04 APERTURE LIST*
%ADD10C,0.150000*%
%ADD11C,0.200000*%
%ADD12C,0.100000*%
%ADD13C,1.397000*%
%ADD14C,1.524000*%
%ADD15C,2.000000*%
G04 APERTURE END LIST*
D10*
X197705826Y-134369819D02*
X198170112Y-134369819D01*
X198170112Y-134369819D02*
X197920112Y-134750771D01*
X197920112Y-134750771D02*
X198027255Y-134750771D01*
X198027255Y-134750771D02*
X198098684Y-134798390D01*
X198098684Y-134798390D02*
X198134398Y-134846009D01*
X198134398Y-134846009D02*
X198170112Y-134941247D01*
X198170112Y-134941247D02*
X198170112Y-135179342D01*
X198170112Y-135179342D02*
X198134398Y-135274580D01*
X198134398Y-135274580D02*
X198098684Y-135322200D01*
X198098684Y-135322200D02*
X198027255Y-135369819D01*
X198027255Y-135369819D02*
X197812969Y-135369819D01*
X197812969Y-135369819D02*
X197741541Y-135322200D01*
X197741541Y-135322200D02*
X197705826Y-135274580D01*
X198491541Y-135274580D02*
X198527255Y-135322200D01*
X198527255Y-135322200D02*
X198491541Y-135369819D01*
X198491541Y-135369819D02*
X198455827Y-135322200D01*
X198455827Y-135322200D02*
X198491541Y-135274580D01*
X198491541Y-135274580D02*
X198491541Y-135369819D01*
X198777255Y-134369819D02*
X199241541Y-134369819D01*
X199241541Y-134369819D02*
X198991541Y-134750771D01*
X198991541Y-134750771D02*
X199098684Y-134750771D01*
X199098684Y-134750771D02*
X199170113Y-134798390D01*
X199170113Y-134798390D02*
X199205827Y-134846009D01*
X199205827Y-134846009D02*
X199241541Y-134941247D01*
X199241541Y-134941247D02*
X199241541Y-135179342D01*
X199241541Y-135179342D02*
X199205827Y-135274580D01*
X199205827Y-135274580D02*
X199170113Y-135322200D01*
X199170113Y-135322200D02*
X199098684Y-135369819D01*
X199098684Y-135369819D02*
X198884398Y-135369819D01*
X198884398Y-135369819D02*
X198812970Y-135322200D01*
X198812970Y-135322200D02*
X198777255Y-135274580D01*
D11*
X167274435Y-137867219D02*
X167941101Y-138867219D01*
X167941101Y-137867219D02*
X167274435Y-138867219D01*
X168226816Y-138200552D02*
X168464911Y-138867219D01*
X168703006Y-138200552D02*
X168464911Y-138867219D01*
X168464911Y-138867219D02*
X168369673Y-139105314D01*
X168369673Y-139105314D02*
X168322054Y-139152933D01*
X168322054Y-139152933D02*
X168226816Y-139200552D01*
X169226816Y-138867219D02*
X169131578Y-138819600D01*
X169131578Y-138819600D02*
X169083959Y-138724361D01*
X169083959Y-138724361D02*
X169083959Y-137867219D01*
X169750626Y-138867219D02*
X169655388Y-138819600D01*
X169655388Y-138819600D02*
X169607769Y-138771980D01*
X169607769Y-138771980D02*
X169560150Y-138676742D01*
X169560150Y-138676742D02*
X169560150Y-138391028D01*
X169560150Y-138391028D02*
X169607769Y-138295790D01*
X169607769Y-138295790D02*
X169655388Y-138248171D01*
X169655388Y-138248171D02*
X169750626Y-138200552D01*
X169750626Y-138200552D02*
X169893483Y-138200552D01*
X169893483Y-138200552D02*
X169988721Y-138248171D01*
X169988721Y-138248171D02*
X170036340Y-138295790D01*
X170036340Y-138295790D02*
X170083959Y-138391028D01*
X170083959Y-138391028D02*
X170083959Y-138676742D01*
X170083959Y-138676742D02*
X170036340Y-138771980D01*
X170036340Y-138771980D02*
X169988721Y-138819600D01*
X169988721Y-138819600D02*
X169893483Y-138867219D01*
X169893483Y-138867219D02*
X169750626Y-138867219D01*
X170274436Y-138962457D02*
X171036340Y-138962457D01*
X171607769Y-138343409D02*
X171750626Y-138391028D01*
X171750626Y-138391028D02*
X171798245Y-138438647D01*
X171798245Y-138438647D02*
X171845864Y-138533885D01*
X171845864Y-138533885D02*
X171845864Y-138676742D01*
X171845864Y-138676742D02*
X171798245Y-138771980D01*
X171798245Y-138771980D02*
X171750626Y-138819600D01*
X171750626Y-138819600D02*
X171655388Y-138867219D01*
X171655388Y-138867219D02*
X171274436Y-138867219D01*
X171274436Y-138867219D02*
X171274436Y-137867219D01*
X171274436Y-137867219D02*
X171607769Y-137867219D01*
X171607769Y-137867219D02*
X171703007Y-137914838D01*
X171703007Y-137914838D02*
X171750626Y-137962457D01*
X171750626Y-137962457D02*
X171798245Y-138057695D01*
X171798245Y-138057695D02*
X171798245Y-138152933D01*
X171798245Y-138152933D02*
X171750626Y-138248171D01*
X171750626Y-138248171D02*
X171703007Y-138295790D01*
X171703007Y-138295790D02*
X171607769Y-138343409D01*
X171607769Y-138343409D02*
X171274436Y-138343409D01*
X172417293Y-138867219D02*
X172322055Y-138819600D01*
X172322055Y-138819600D02*
X172274436Y-138771980D01*
X172274436Y-138771980D02*
X172226817Y-138676742D01*
X172226817Y-138676742D02*
X172226817Y-138391028D01*
X172226817Y-138391028D02*
X172274436Y-138295790D01*
X172274436Y-138295790D02*
X172322055Y-138248171D01*
X172322055Y-138248171D02*
X172417293Y-138200552D01*
X172417293Y-138200552D02*
X172560150Y-138200552D01*
X172560150Y-138200552D02*
X172655388Y-138248171D01*
X172655388Y-138248171D02*
X172703007Y-138295790D01*
X172703007Y-138295790D02*
X172750626Y-138391028D01*
X172750626Y-138391028D02*
X172750626Y-138676742D01*
X172750626Y-138676742D02*
X172703007Y-138771980D01*
X172703007Y-138771980D02*
X172655388Y-138819600D01*
X172655388Y-138819600D02*
X172560150Y-138867219D01*
X172560150Y-138867219D02*
X172417293Y-138867219D01*
X173179198Y-138200552D02*
X173179198Y-138867219D01*
X173179198Y-138295790D02*
X173226817Y-138248171D01*
X173226817Y-138248171D02*
X173322055Y-138200552D01*
X173322055Y-138200552D02*
X173464912Y-138200552D01*
X173464912Y-138200552D02*
X173560150Y-138248171D01*
X173560150Y-138248171D02*
X173607769Y-138343409D01*
X173607769Y-138343409D02*
X173607769Y-138867219D01*
X174036341Y-138819600D02*
X174131579Y-138867219D01*
X174131579Y-138867219D02*
X174322055Y-138867219D01*
X174322055Y-138867219D02*
X174417293Y-138819600D01*
X174417293Y-138819600D02*
X174464912Y-138724361D01*
X174464912Y-138724361D02*
X174464912Y-138676742D01*
X174464912Y-138676742D02*
X174417293Y-138581504D01*
X174417293Y-138581504D02*
X174322055Y-138533885D01*
X174322055Y-138533885D02*
X174179198Y-138533885D01*
X174179198Y-138533885D02*
X174083960Y-138486266D01*
X174083960Y-138486266D02*
X174036341Y-138391028D01*
X174036341Y-138391028D02*
X174036341Y-138343409D01*
X174036341Y-138343409D02*
X174083960Y-138248171D01*
X174083960Y-138248171D02*
X174179198Y-138200552D01*
X174179198Y-138200552D02*
X174322055Y-138200552D01*
X174322055Y-138200552D02*
X174417293Y-138248171D01*
X175322055Y-138867219D02*
X175322055Y-138343409D01*
X175322055Y-138343409D02*
X175274436Y-138248171D01*
X175274436Y-138248171D02*
X175179198Y-138200552D01*
X175179198Y-138200552D02*
X174988722Y-138200552D01*
X174988722Y-138200552D02*
X174893484Y-138248171D01*
X175322055Y-138819600D02*
X175226817Y-138867219D01*
X175226817Y-138867219D02*
X174988722Y-138867219D01*
X174988722Y-138867219D02*
X174893484Y-138819600D01*
X174893484Y-138819600D02*
X174845865Y-138724361D01*
X174845865Y-138724361D02*
X174845865Y-138629123D01*
X174845865Y-138629123D02*
X174893484Y-138533885D01*
X174893484Y-138533885D02*
X174988722Y-138486266D01*
X174988722Y-138486266D02*
X175226817Y-138486266D01*
X175226817Y-138486266D02*
X175322055Y-138438647D01*
X175798246Y-138867219D02*
X175798246Y-138200552D01*
X175798246Y-137867219D02*
X175750627Y-137914838D01*
X175750627Y-137914838D02*
X175798246Y-137962457D01*
X175798246Y-137962457D02*
X175845865Y-137914838D01*
X175845865Y-137914838D02*
X175798246Y-137867219D01*
X175798246Y-137867219D02*
X175798246Y-137962457D01*
X176941103Y-138200552D02*
X177179198Y-138867219D01*
X177179198Y-138867219D02*
X177417293Y-138200552D01*
X177750627Y-137962457D02*
X177798246Y-137914838D01*
X177798246Y-137914838D02*
X177893484Y-137867219D01*
X177893484Y-137867219D02*
X178131579Y-137867219D01*
X178131579Y-137867219D02*
X178226817Y-137914838D01*
X178226817Y-137914838D02*
X178274436Y-137962457D01*
X178274436Y-137962457D02*
X178322055Y-138057695D01*
X178322055Y-138057695D02*
X178322055Y-138152933D01*
X178322055Y-138152933D02*
X178274436Y-138295790D01*
X178274436Y-138295790D02*
X177703008Y-138867219D01*
X177703008Y-138867219D02*
X178322055Y-138867219D01*
X178750627Y-138771980D02*
X178798246Y-138819600D01*
X178798246Y-138819600D02*
X178750627Y-138867219D01*
X178750627Y-138867219D02*
X178703008Y-138819600D01*
X178703008Y-138819600D02*
X178750627Y-138771980D01*
X178750627Y-138771980D02*
X178750627Y-138867219D01*
X179417293Y-137867219D02*
X179512531Y-137867219D01*
X179512531Y-137867219D02*
X179607769Y-137914838D01*
X179607769Y-137914838D02*
X179655388Y-137962457D01*
X179655388Y-137962457D02*
X179703007Y-138057695D01*
X179703007Y-138057695D02*
X179750626Y-138248171D01*
X179750626Y-138248171D02*
X179750626Y-138486266D01*
X179750626Y-138486266D02*
X179703007Y-138676742D01*
X179703007Y-138676742D02*
X179655388Y-138771980D01*
X179655388Y-138771980D02*
X179607769Y-138819600D01*
X179607769Y-138819600D02*
X179512531Y-138867219D01*
X179512531Y-138867219D02*
X179417293Y-138867219D01*
X179417293Y-138867219D02*
X179322055Y-138819600D01*
X179322055Y-138819600D02*
X179274436Y-138771980D01*
X179274436Y-138771980D02*
X179226817Y-138676742D01*
X179226817Y-138676742D02*
X179179198Y-138486266D01*
X179179198Y-138486266D02*
X179179198Y-138248171D01*
X179179198Y-138248171D02*
X179226817Y-138057695D01*
X179226817Y-138057695D02*
X179274436Y-137962457D01*
X179274436Y-137962457D02*
X179322055Y-137914838D01*
X179322055Y-137914838D02*
X179417293Y-137867219D01*
X181369674Y-138819600D02*
X181274436Y-138867219D01*
X181274436Y-138867219D02*
X181083960Y-138867219D01*
X181083960Y-138867219D02*
X180988722Y-138819600D01*
X180988722Y-138819600D02*
X180941103Y-138771980D01*
X180941103Y-138771980D02*
X180893484Y-138676742D01*
X180893484Y-138676742D02*
X180893484Y-138391028D01*
X180893484Y-138391028D02*
X180941103Y-138295790D01*
X180941103Y-138295790D02*
X180988722Y-138248171D01*
X180988722Y-138248171D02*
X181083960Y-138200552D01*
X181083960Y-138200552D02*
X181274436Y-138200552D01*
X181274436Y-138200552D02*
X181369674Y-138248171D01*
X181798246Y-138867219D02*
X181798246Y-137867219D01*
X182226817Y-138867219D02*
X182226817Y-138343409D01*
X182226817Y-138343409D02*
X182179198Y-138248171D01*
X182179198Y-138248171D02*
X182083960Y-138200552D01*
X182083960Y-138200552D02*
X181941103Y-138200552D01*
X181941103Y-138200552D02*
X181845865Y-138248171D01*
X181845865Y-138248171D02*
X181798246Y-138295790D01*
X182845865Y-138867219D02*
X182750627Y-138819600D01*
X182750627Y-138819600D02*
X182703008Y-138771980D01*
X182703008Y-138771980D02*
X182655389Y-138676742D01*
X182655389Y-138676742D02*
X182655389Y-138391028D01*
X182655389Y-138391028D02*
X182703008Y-138295790D01*
X182703008Y-138295790D02*
X182750627Y-138248171D01*
X182750627Y-138248171D02*
X182845865Y-138200552D01*
X182845865Y-138200552D02*
X182988722Y-138200552D01*
X182988722Y-138200552D02*
X183083960Y-138248171D01*
X183083960Y-138248171D02*
X183131579Y-138295790D01*
X183131579Y-138295790D02*
X183179198Y-138391028D01*
X183179198Y-138391028D02*
X183179198Y-138676742D01*
X183179198Y-138676742D02*
X183131579Y-138771980D01*
X183131579Y-138771980D02*
X183083960Y-138819600D01*
X183083960Y-138819600D02*
X182988722Y-138867219D01*
X182988722Y-138867219D02*
X182845865Y-138867219D01*
X184036341Y-138819600D02*
X183941103Y-138867219D01*
X183941103Y-138867219D02*
X183750627Y-138867219D01*
X183750627Y-138867219D02*
X183655389Y-138819600D01*
X183655389Y-138819600D02*
X183607770Y-138771980D01*
X183607770Y-138771980D02*
X183560151Y-138676742D01*
X183560151Y-138676742D02*
X183560151Y-138391028D01*
X183560151Y-138391028D02*
X183607770Y-138295790D01*
X183607770Y-138295790D02*
X183655389Y-138248171D01*
X183655389Y-138248171D02*
X183750627Y-138200552D01*
X183750627Y-138200552D02*
X183941103Y-138200552D01*
X183941103Y-138200552D02*
X184036341Y-138248171D01*
X185131580Y-138200552D02*
X185369675Y-138867219D01*
X185369675Y-138867219D02*
X185607770Y-138200552D01*
X186512532Y-138867219D02*
X185941104Y-138867219D01*
X186226818Y-138867219D02*
X186226818Y-137867219D01*
X186226818Y-137867219D02*
X186131580Y-138010076D01*
X186131580Y-138010076D02*
X186036342Y-138105314D01*
X186036342Y-138105314D02*
X185941104Y-138152933D01*
D10*
X195705826Y-135369819D02*
X195455826Y-134893628D01*
X195277255Y-135369819D02*
X195277255Y-134369819D01*
X195277255Y-134369819D02*
X195562969Y-134369819D01*
X195562969Y-134369819D02*
X195634398Y-134417438D01*
X195634398Y-134417438D02*
X195670112Y-134465057D01*
X195670112Y-134465057D02*
X195705826Y-134560295D01*
X195705826Y-134560295D02*
X195705826Y-134703152D01*
X195705826Y-134703152D02*
X195670112Y-134798390D01*
X195670112Y-134798390D02*
X195634398Y-134846009D01*
X195634398Y-134846009D02*
X195562969Y-134893628D01*
X195562969Y-134893628D02*
X195277255Y-134893628D01*
X195991541Y-135322200D02*
X196098684Y-135369819D01*
X196098684Y-135369819D02*
X196277255Y-135369819D01*
X196277255Y-135369819D02*
X196348684Y-135322200D01*
X196348684Y-135322200D02*
X196384398Y-135274580D01*
X196384398Y-135274580D02*
X196420112Y-135179342D01*
X196420112Y-135179342D02*
X196420112Y-135084104D01*
X196420112Y-135084104D02*
X196384398Y-134988866D01*
X196384398Y-134988866D02*
X196348684Y-134941247D01*
X196348684Y-134941247D02*
X196277255Y-134893628D01*
X196277255Y-134893628D02*
X196134398Y-134846009D01*
X196134398Y-134846009D02*
X196062969Y-134798390D01*
X196062969Y-134798390D02*
X196027255Y-134750771D01*
X196027255Y-134750771D02*
X195991541Y-134655533D01*
X195991541Y-134655533D02*
X195991541Y-134560295D01*
X195991541Y-134560295D02*
X196027255Y-134465057D01*
X196027255Y-134465057D02*
X196062969Y-134417438D01*
X196062969Y-134417438D02*
X196134398Y-134369819D01*
X196134398Y-134369819D02*
X196312969Y-134369819D01*
X196312969Y-134369819D02*
X196420112Y-134417438D01*
X196634398Y-134369819D02*
X197062970Y-134369819D01*
X196848684Y-135369819D02*
X196848684Y-134369819D01*
X247954819Y-72452381D02*
X247478628Y-72785714D01*
X247954819Y-73023809D02*
X246954819Y-73023809D01*
X246954819Y-73023809D02*
X246954819Y-72642857D01*
X246954819Y-72642857D02*
X247002438Y-72547619D01*
X247002438Y-72547619D02*
X247050057Y-72500000D01*
X247050057Y-72500000D02*
X247145295Y-72452381D01*
X247145295Y-72452381D02*
X247288152Y-72452381D01*
X247288152Y-72452381D02*
X247383390Y-72500000D01*
X247383390Y-72500000D02*
X247431009Y-72547619D01*
X247431009Y-72547619D02*
X247478628Y-72642857D01*
X247478628Y-72642857D02*
X247478628Y-73023809D01*
X247431009Y-72023809D02*
X247431009Y-71690476D01*
X247954819Y-71547619D02*
X247954819Y-72023809D01*
X247954819Y-72023809D02*
X246954819Y-72023809D01*
X246954819Y-72023809D02*
X246954819Y-71547619D01*
X247907200Y-71166666D02*
X247954819Y-71023809D01*
X247954819Y-71023809D02*
X247954819Y-70785714D01*
X247954819Y-70785714D02*
X247907200Y-70690476D01*
X247907200Y-70690476D02*
X247859580Y-70642857D01*
X247859580Y-70642857D02*
X247764342Y-70595238D01*
X247764342Y-70595238D02*
X247669104Y-70595238D01*
X247669104Y-70595238D02*
X247573866Y-70642857D01*
X247573866Y-70642857D02*
X247526247Y-70690476D01*
X247526247Y-70690476D02*
X247478628Y-70785714D01*
X247478628Y-70785714D02*
X247431009Y-70976190D01*
X247431009Y-70976190D02*
X247383390Y-71071428D01*
X247383390Y-71071428D02*
X247335771Y-71119047D01*
X247335771Y-71119047D02*
X247240533Y-71166666D01*
X247240533Y-71166666D02*
X247145295Y-71166666D01*
X247145295Y-71166666D02*
X247050057Y-71119047D01*
X247050057Y-71119047D02*
X247002438Y-71071428D01*
X247002438Y-71071428D02*
X246954819Y-70976190D01*
X246954819Y-70976190D02*
X246954819Y-70738095D01*
X246954819Y-70738095D02*
X247002438Y-70595238D01*
X247431009Y-70166666D02*
X247431009Y-69833333D01*
X247954819Y-69690476D02*
X247954819Y-70166666D01*
X247954819Y-70166666D02*
X246954819Y-70166666D01*
X246954819Y-70166666D02*
X246954819Y-69690476D01*
X246954819Y-69404761D02*
X246954819Y-68833333D01*
X247954819Y-69119047D02*
X246954819Y-69119047D01*
%TO.C,D1*%
X155000000Y-68000000D02*
X155000000Y-69000000D01*
X155100000Y-68500000D02*
X156000000Y-68000000D01*
X156000000Y-68000000D02*
X156000000Y-69000000D01*
X156000000Y-69000000D02*
X155100000Y-68500000D01*
%TO.C,SW2*%
X172285756Y-69680347D02*
X173283320Y-69610587D01*
X172355513Y-70677911D02*
X172285756Y-69680347D01*
X173262347Y-83646244D02*
X173192587Y-82648680D01*
X174259911Y-83576487D02*
X173262347Y-83646244D01*
X178054849Y-80504282D02*
X178518753Y-79970622D01*
X178298997Y-83995756D02*
X178832657Y-84459660D01*
X178518753Y-79970622D02*
X181012663Y-79796231D01*
X178832657Y-84459660D02*
X181825349Y-84250391D01*
X181825349Y-84250391D02*
X182289253Y-83716730D01*
X182219496Y-82719166D02*
X182289253Y-83716730D01*
X182355545Y-77496955D02*
X186844583Y-77183051D01*
X182404374Y-78195250D02*
X182355545Y-77496955D01*
X185254089Y-68773513D02*
X186251653Y-68703756D01*
X186251653Y-68703756D02*
X186321413Y-69701320D01*
X186844583Y-77183051D02*
X186879461Y-77681833D01*
X187130585Y-81273063D02*
X187172437Y-81871602D01*
X187158487Y-81672089D02*
X187228244Y-82669653D01*
X187172437Y-81871602D02*
X182683400Y-82185506D01*
X187228244Y-82669653D02*
X186230680Y-82739413D01*
X182219496Y-82719166D02*
G75*
G02*
X182683400Y-82185506I498782J34878D01*
G01*
X182404374Y-78195250D02*
G75*
G02*
X181012663Y-79796230I-1496346J-104634D01*
G01*
%TO.C,D17*%
X226250000Y-138900000D02*
X226250000Y-139900000D01*
X226350000Y-139400000D02*
X227250000Y-138900000D01*
X227250000Y-138900000D02*
X227250000Y-139900000D01*
X227250000Y-139900000D02*
X226350000Y-139400000D01*
%TO.C,SW9*%
X211000000Y-83000000D02*
X212000000Y-83000000D01*
X211000000Y-84000000D02*
X211000000Y-83000000D01*
X211000000Y-97000000D02*
X211000000Y-96000000D01*
X212000000Y-97000000D02*
X211000000Y-97000000D01*
X216000000Y-94200000D02*
X216500000Y-93700000D01*
X216000000Y-97700000D02*
X216500000Y-98200000D01*
X216500000Y-93700000D02*
X219000000Y-93700000D01*
X216500000Y-98200000D02*
X219500000Y-98200000D01*
X219500000Y-98200000D02*
X220000000Y-97700000D01*
X220000000Y-96700000D02*
X220000000Y-97700000D01*
X220500000Y-91500000D02*
X225000000Y-91500000D01*
X220500000Y-92200000D02*
X220500000Y-91500000D01*
X224000000Y-83000000D02*
X225000000Y-83000000D01*
X225000000Y-83000000D02*
X225000000Y-84000000D01*
X225000000Y-91500000D02*
X225000000Y-92000000D01*
X225000000Y-95600000D02*
X225000000Y-96200000D01*
X225000000Y-96000000D02*
X225000000Y-97000000D01*
X225000000Y-96200000D02*
X220500000Y-96200000D01*
X225000000Y-97000000D02*
X224000000Y-97000000D01*
X220000000Y-96700000D02*
G75*
G02*
X220500000Y-96200000I500000J0D01*
G01*
X220500000Y-92200000D02*
G75*
G02*
X219000000Y-93700000I-1500000J0D01*
G01*
%TO.C,SW16*%
X139408808Y-118049883D02*
X140393616Y-117876235D01*
X139582457Y-119034691D02*
X139408808Y-118049883D01*
X141839883Y-131837192D02*
X141666235Y-130852384D01*
X142824691Y-131663543D02*
X141839883Y-131837192D01*
X147779674Y-116573871D02*
X148272078Y-116487049D01*
X148561091Y-121005508D02*
X147779674Y-116573871D01*
X149250457Y-120883955D02*
X148561091Y-121005508D01*
X151422261Y-124562713D02*
X150988141Y-122100694D01*
X151817386Y-115861916D02*
X152408271Y-115757727D01*
X152001489Y-124968293D02*
X151422261Y-124562713D01*
X152211309Y-115792457D02*
X153196117Y-115618808D01*
X152408271Y-115757727D02*
X153189688Y-120189362D01*
X153196117Y-115618808D02*
X153369765Y-116603616D01*
X153768916Y-120594942D02*
X154753723Y-120421294D01*
X155332951Y-120826873D02*
X154753723Y-120421294D01*
X155448316Y-124360525D02*
X155853896Y-123781297D01*
X155453543Y-128421309D02*
X155627192Y-129406117D01*
X155627192Y-129406117D02*
X154642384Y-129579765D01*
X155853896Y-123781297D02*
X155332951Y-120826873D01*
X149250457Y-120883955D02*
G75*
G02*
X150988140Y-122100694I260472J-1477211D01*
G01*
X153768916Y-120594942D02*
G75*
G02*
X153189688Y-120189362I-86824J492404D01*
G01*
%TO.C,D4*%
X155000000Y-75500000D02*
X155000000Y-76500000D01*
X155100000Y-76000000D02*
X156000000Y-75500000D01*
X156000000Y-75500000D02*
X156000000Y-76500000D01*
X156000000Y-76500000D02*
X155100000Y-76000000D01*
%TO.C,SW5*%
X229000000Y-69000000D02*
X230000000Y-69000000D01*
X229000000Y-70000000D02*
X229000000Y-69000000D01*
X229000000Y-83000000D02*
X229000000Y-82000000D01*
X230000000Y-83000000D02*
X229000000Y-83000000D01*
X234000000Y-80200000D02*
X234500000Y-79700000D01*
X234000000Y-83700000D02*
X234500000Y-84200000D01*
X234500000Y-79700000D02*
X237000000Y-79700000D01*
X234500000Y-84200000D02*
X237500000Y-84200000D01*
X237500000Y-84200000D02*
X238000000Y-83700000D01*
X238000000Y-82700000D02*
X238000000Y-83700000D01*
X238500000Y-77500000D02*
X243000000Y-77500000D01*
X238500000Y-78200000D02*
X238500000Y-77500000D01*
X242000000Y-69000000D02*
X243000000Y-69000000D01*
X243000000Y-69000000D02*
X243000000Y-70000000D01*
X243000000Y-77500000D02*
X243000000Y-78000000D01*
X243000000Y-81600000D02*
X243000000Y-82200000D01*
X243000000Y-82000000D02*
X243000000Y-83000000D01*
X243000000Y-82200000D02*
X238500000Y-82200000D01*
X243000000Y-83000000D02*
X242000000Y-83000000D01*
X238000000Y-82700000D02*
G75*
G02*
X238500000Y-82200000I500000J0D01*
G01*
X238500000Y-78200000D02*
G75*
G02*
X237000000Y-79700000I-1500000J0D01*
G01*
%TO.C,SW12*%
X174657756Y-103598347D02*
X175655320Y-103528587D01*
X174727513Y-104595911D02*
X174657756Y-103598347D01*
X175634347Y-117564244D02*
X175564587Y-116566680D01*
X176631911Y-117494487D02*
X175634347Y-117564244D01*
X180426849Y-114422282D02*
X180890753Y-113888622D01*
X180670997Y-117913756D02*
X181204657Y-118377660D01*
X180890753Y-113888622D02*
X183384663Y-113714231D01*
X181204657Y-118377660D02*
X184197349Y-118168391D01*
X184197349Y-118168391D02*
X184661253Y-117634730D01*
X184591496Y-116637166D02*
X184661253Y-117634730D01*
X184727545Y-111414955D02*
X189216583Y-111101051D01*
X184776374Y-112113250D02*
X184727545Y-111414955D01*
X187626089Y-102691513D02*
X188623653Y-102621756D01*
X188623653Y-102621756D02*
X188693413Y-103619320D01*
X189216583Y-111101051D02*
X189251461Y-111599833D01*
X189502585Y-115191063D02*
X189544437Y-115789602D01*
X189530487Y-115590089D02*
X189600244Y-116587653D01*
X189544437Y-115789602D02*
X185055400Y-116103506D01*
X189600244Y-116587653D02*
X188602680Y-116657413D01*
X184591496Y-116637166D02*
G75*
G02*
X185055400Y-116103506I498782J34878D01*
G01*
X184776374Y-112113250D02*
G75*
G02*
X183384663Y-113714230I-1496346J-104634D01*
G01*
%TO.C,SW7*%
X173471756Y-86639347D02*
X174469320Y-86569587D01*
X173541513Y-87636911D02*
X173471756Y-86639347D01*
X174448347Y-100605244D02*
X174378587Y-99607680D01*
X175445911Y-100535487D02*
X174448347Y-100605244D01*
X179240849Y-97463282D02*
X179704753Y-96929622D01*
X179484997Y-100954756D02*
X180018657Y-101418660D01*
X179704753Y-96929622D02*
X182198663Y-96755231D01*
X180018657Y-101418660D02*
X183011349Y-101209391D01*
X183011349Y-101209391D02*
X183475253Y-100675730D01*
X183405496Y-99678166D02*
X183475253Y-100675730D01*
X183541545Y-94455955D02*
X188030583Y-94142051D01*
X183590374Y-95154250D02*
X183541545Y-94455955D01*
X186440089Y-85732513D02*
X187437653Y-85662756D01*
X187437653Y-85662756D02*
X187507413Y-86660320D01*
X188030583Y-94142051D02*
X188065461Y-94640833D01*
X188316585Y-98232063D02*
X188358437Y-98830602D01*
X188344487Y-98631089D02*
X188414244Y-99628653D01*
X188358437Y-98830602D02*
X183869400Y-99144506D01*
X188414244Y-99628653D02*
X187416680Y-99698413D01*
X183405496Y-99678166D02*
G75*
G02*
X183869400Y-99144506I498782J34878D01*
G01*
X183590374Y-95154250D02*
G75*
G02*
X182198663Y-96755230I-1496346J-104634D01*
G01*
%TO.C,SW11*%
X157250808Y-118457883D02*
X158235616Y-118284235D01*
X157424457Y-119442691D02*
X157250808Y-118457883D01*
X159681883Y-132245192D02*
X159508235Y-131260384D01*
X160666691Y-132071543D02*
X159681883Y-132245192D01*
X164119707Y-128619489D02*
X164525287Y-128040261D01*
X164525287Y-128040261D02*
X166987306Y-127606141D01*
X164727475Y-132066316D02*
X165306703Y-132471896D01*
X165306703Y-132471896D02*
X168261127Y-131950951D01*
X168082492Y-125179091D02*
X172514129Y-124397674D01*
X168204045Y-125868457D02*
X168082492Y-125179091D01*
X168261127Y-131950951D02*
X168666706Y-131371723D01*
X168493058Y-130386916D02*
X168666706Y-131371723D01*
X170053309Y-116200457D02*
X171038117Y-116026808D01*
X171038117Y-116026808D02*
X171211765Y-117011616D01*
X172514129Y-124397674D02*
X172600951Y-124890078D01*
X173226084Y-128435386D02*
X173330273Y-129026271D01*
X173295543Y-128829309D02*
X173469192Y-129814117D01*
X173330273Y-129026271D02*
X168898638Y-129807688D01*
X173469192Y-129814117D02*
X172484384Y-129987765D01*
X168204045Y-125868457D02*
G75*
G02*
X166987306Y-127606140I-1477211J-260472D01*
G01*
X168493058Y-130386916D02*
G75*
G02*
X168898638Y-129807688I492404J86824D01*
G01*
%TO.C,D9*%
X165475000Y-75500000D02*
X165475000Y-76500000D01*
X165575000Y-76000000D02*
X166475000Y-75500000D01*
X166475000Y-75500000D02*
X166475000Y-76500000D01*
X166475000Y-76500000D02*
X165575000Y-76000000D01*
%TO.C,PSW1*%
X246600000Y-101100000D02*
X249450000Y-101100000D01*
X246600000Y-107850000D02*
X246600000Y-101100000D01*
X249450000Y-101100000D02*
X249500000Y-107850000D01*
X249500000Y-107850000D02*
X246600000Y-107850000D01*
%TO.C,SW18*%
X243436042Y-129739183D02*
X243861590Y-130303903D01*
X243853560Y-126768378D02*
X243436042Y-129739183D01*
X243858912Y-135352665D02*
X243998085Y-134362397D01*
X244418282Y-126342831D02*
X243853560Y-126768378D01*
X244651126Y-135464003D02*
X245277405Y-131007797D01*
X244849180Y-135491838D02*
X243858912Y-135352665D01*
X244851858Y-130443076D02*
X243861590Y-130303903D01*
X245245287Y-135547507D02*
X244651126Y-135464003D01*
X245668162Y-122479180D02*
X245807335Y-121488912D01*
X245807335Y-121488912D02*
X246797603Y-121628085D01*
X247884220Y-126829937D02*
X248309768Y-127394657D01*
X248309768Y-127394657D02*
X247961835Y-129870328D01*
X249238477Y-131564489D02*
X249931665Y-131661911D01*
X249305386Y-136118117D02*
X248810252Y-136048530D01*
X249931665Y-131661911D02*
X249305386Y-136118117D01*
X257722665Y-137301088D02*
X256732397Y-137161915D01*
X257861838Y-136310820D02*
X257722665Y-137301088D01*
X258680820Y-123298162D02*
X259671088Y-123437335D01*
X259671088Y-123437335D02*
X259531915Y-124427603D01*
X244851858Y-130443076D02*
G75*
G02*
X245277405Y-131007797I-69587J-495134D01*
G01*
X249238477Y-131564489D02*
G75*
G02*
X247961835Y-129870328I208760J1485402D01*
G01*
%TO.C,D16*%
X226250000Y-136200000D02*
X226250000Y-137200000D01*
X226350000Y-136700000D02*
X227250000Y-136200000D01*
X227250000Y-136200000D02*
X227250000Y-137200000D01*
X227250000Y-137200000D02*
X226350000Y-136700000D01*
%TO.C,SW6*%
X154298808Y-101715883D02*
X155283616Y-101542235D01*
X154472457Y-102700691D02*
X154298808Y-101715883D01*
X156729883Y-115503192D02*
X156556235Y-114518384D01*
X157714691Y-115329543D02*
X156729883Y-115503192D01*
X161167707Y-111877489D02*
X161573287Y-111298261D01*
X161573287Y-111298261D02*
X164035306Y-110864141D01*
X161775475Y-115324316D02*
X162354703Y-115729896D01*
X162354703Y-115729896D02*
X165309127Y-115208951D01*
X165130492Y-108437091D02*
X169562129Y-107655674D01*
X165252045Y-109126457D02*
X165130492Y-108437091D01*
X165309127Y-115208951D02*
X165714706Y-114629723D01*
X165541058Y-113644916D02*
X165714706Y-114629723D01*
X167101309Y-99458457D02*
X168086117Y-99284808D01*
X168086117Y-99284808D02*
X168259765Y-100269616D01*
X169562129Y-107655674D02*
X169648951Y-108148078D01*
X170274084Y-111693386D02*
X170378273Y-112284271D01*
X170343543Y-112087309D02*
X170517192Y-113072117D01*
X170378273Y-112284271D02*
X165946638Y-113065688D01*
X170517192Y-113072117D02*
X169532384Y-113245765D01*
X165252045Y-109126457D02*
G75*
G02*
X164035306Y-110864140I-1477211J-260472D01*
G01*
X165541058Y-113644916D02*
G75*
G02*
X165946638Y-113065688I492404J86824D01*
G01*
%TO.C,SW15*%
X229000000Y-103000000D02*
X230000000Y-103000000D01*
X229000000Y-104000000D02*
X229000000Y-103000000D01*
X229000000Y-117000000D02*
X229000000Y-116000000D01*
X230000000Y-117000000D02*
X229000000Y-117000000D01*
X234000000Y-114200000D02*
X234500000Y-113700000D01*
X234000000Y-117700000D02*
X234500000Y-118200000D01*
X234500000Y-113700000D02*
X237000000Y-113700000D01*
X234500000Y-118200000D02*
X237500000Y-118200000D01*
X237500000Y-118200000D02*
X238000000Y-117700000D01*
X238000000Y-116700000D02*
X238000000Y-117700000D01*
X238500000Y-111500000D02*
X243000000Y-111500000D01*
X238500000Y-112200000D02*
X238500000Y-111500000D01*
X242000000Y-103000000D02*
X243000000Y-103000000D01*
X243000000Y-103000000D02*
X243000000Y-104000000D01*
X243000000Y-111500000D02*
X243000000Y-112000000D01*
X243000000Y-115600000D02*
X243000000Y-116200000D01*
X243000000Y-116000000D02*
X243000000Y-117000000D01*
X243000000Y-116200000D02*
X238500000Y-116200000D01*
X243000000Y-117000000D02*
X242000000Y-117000000D01*
X238000000Y-116700000D02*
G75*
G02*
X238500000Y-116200000I500000J0D01*
G01*
X238500000Y-112200000D02*
G75*
G02*
X237000000Y-113700000I-1500000J0D01*
G01*
%TO.C,D3*%
X155000000Y-73000000D02*
X155000000Y-74000000D01*
X155100000Y-73500000D02*
X156000000Y-73000000D01*
X156000000Y-73000000D02*
X156000000Y-74000000D01*
X156000000Y-74000000D02*
X155100000Y-73500000D01*
%TO.C,SW8*%
X193000000Y-76000000D02*
X194000000Y-76000000D01*
X193000000Y-77000000D02*
X193000000Y-76000000D01*
X193000000Y-90000000D02*
X193000000Y-89000000D01*
X194000000Y-90000000D02*
X193000000Y-90000000D01*
X198000000Y-87200000D02*
X198500000Y-86700000D01*
X198000000Y-90700000D02*
X198500000Y-91200000D01*
X198500000Y-86700000D02*
X201000000Y-86700000D01*
X198500000Y-91200000D02*
X201500000Y-91200000D01*
X201500000Y-91200000D02*
X202000000Y-90700000D01*
X202000000Y-89700000D02*
X202000000Y-90700000D01*
X202500000Y-84500000D02*
X207000000Y-84500000D01*
X202500000Y-85200000D02*
X202500000Y-84500000D01*
X206000000Y-76000000D02*
X207000000Y-76000000D01*
X207000000Y-76000000D02*
X207000000Y-77000000D01*
X207000000Y-84500000D02*
X207000000Y-85000000D01*
X207000000Y-88600000D02*
X207000000Y-89200000D01*
X207000000Y-89000000D02*
X207000000Y-90000000D01*
X207000000Y-89200000D02*
X202500000Y-89200000D01*
X207000000Y-90000000D02*
X206000000Y-90000000D01*
X202000000Y-89700000D02*
G75*
G02*
X202500000Y-89200000I500000J0D01*
G01*
X202500000Y-85200000D02*
G75*
G02*
X201000000Y-86700000I-1500000J0D01*
G01*
%TO.C,D5*%
X155000000Y-78000000D02*
X155000000Y-79000000D01*
X155100000Y-78500000D02*
X156000000Y-78000000D01*
X156000000Y-78000000D02*
X156000000Y-79000000D01*
X156000000Y-79000000D02*
X155100000Y-78500000D01*
%TO.C,D6*%
X165475000Y-68000000D02*
X165475000Y-69000000D01*
X165575000Y-68500000D02*
X166475000Y-68000000D01*
X166475000Y-68000000D02*
X166475000Y-69000000D01*
X166475000Y-69000000D02*
X165575000Y-68500000D01*
%TO.C,D10*%
X165475000Y-78000000D02*
X165475000Y-79000000D01*
X165575000Y-78500000D02*
X166475000Y-78000000D01*
X166475000Y-78000000D02*
X166475000Y-79000000D01*
X166475000Y-79000000D02*
X165575000Y-78500000D01*
%TO.C,SW4*%
X211000000Y-66000000D02*
X212000000Y-66000000D01*
X211000000Y-67000000D02*
X211000000Y-66000000D01*
X211000000Y-80000000D02*
X211000000Y-79000000D01*
X212000000Y-80000000D02*
X211000000Y-80000000D01*
X216000000Y-77200000D02*
X216500000Y-76700000D01*
X216000000Y-80700000D02*
X216500000Y-81200000D01*
X216500000Y-76700000D02*
X219000000Y-76700000D01*
X216500000Y-81200000D02*
X219500000Y-81200000D01*
X219500000Y-81200000D02*
X220000000Y-80700000D01*
X220000000Y-79700000D02*
X220000000Y-80700000D01*
X220500000Y-74500000D02*
X225000000Y-74500000D01*
X220500000Y-75200000D02*
X220500000Y-74500000D01*
X224000000Y-66000000D02*
X225000000Y-66000000D01*
X225000000Y-66000000D02*
X225000000Y-67000000D01*
X225000000Y-74500000D02*
X225000000Y-75000000D01*
X225000000Y-78600000D02*
X225000000Y-79200000D01*
X225000000Y-79000000D02*
X225000000Y-80000000D01*
X225000000Y-79200000D02*
X220500000Y-79200000D01*
X225000000Y-80000000D02*
X224000000Y-80000000D01*
X220000000Y-79700000D02*
G75*
G02*
X220500000Y-79200000I500000J0D01*
G01*
X220500000Y-75200000D02*
G75*
G02*
X219000000Y-76700000I-1500000J0D01*
G01*
%TO.C,SW10*%
X229000000Y-86000000D02*
X230000000Y-86000000D01*
X229000000Y-87000000D02*
X229000000Y-86000000D01*
X229000000Y-100000000D02*
X229000000Y-99000000D01*
X230000000Y-100000000D02*
X229000000Y-100000000D01*
X234000000Y-97200000D02*
X234500000Y-96700000D01*
X234000000Y-100700000D02*
X234500000Y-101200000D01*
X234500000Y-96700000D02*
X237000000Y-96700000D01*
X234500000Y-101200000D02*
X237500000Y-101200000D01*
X237500000Y-101200000D02*
X238000000Y-100700000D01*
X238000000Y-99700000D02*
X238000000Y-100700000D01*
X238500000Y-94500000D02*
X243000000Y-94500000D01*
X238500000Y-95200000D02*
X238500000Y-94500000D01*
X242000000Y-86000000D02*
X243000000Y-86000000D01*
X243000000Y-86000000D02*
X243000000Y-87000000D01*
X243000000Y-94500000D02*
X243000000Y-95000000D01*
X243000000Y-98600000D02*
X243000000Y-99200000D01*
X243000000Y-99000000D02*
X243000000Y-100000000D01*
X243000000Y-99200000D02*
X238500000Y-99200000D01*
X243000000Y-100000000D02*
X242000000Y-100000000D01*
X238000000Y-99700000D02*
G75*
G02*
X238500000Y-99200000I500000J0D01*
G01*
X238500000Y-95200000D02*
G75*
G02*
X237000000Y-96700000I-1500000J0D01*
G01*
%TO.C,D15*%
X204000000Y-113500000D02*
X205000000Y-113500000D01*
X204000000Y-114500000D02*
X205000000Y-114500000D01*
X204500000Y-114400000D02*
X204000000Y-113500000D01*
X205000000Y-113500000D02*
X204500000Y-114400000D01*
%TO.C,D2*%
X155000000Y-70500000D02*
X155000000Y-71500000D01*
X155100000Y-71000000D02*
X156000000Y-70500000D01*
X156000000Y-70500000D02*
X156000000Y-71500000D01*
X156000000Y-71500000D02*
X155100000Y-71000000D01*
%TO.C,D11*%
X195000000Y-113500000D02*
X196000000Y-113500000D01*
X195000000Y-114500000D02*
X196000000Y-114500000D01*
X195500000Y-114400000D02*
X195000000Y-113500000D01*
X196000000Y-113500000D02*
X195500000Y-114400000D01*
D12*
%TO.C,J1*%
X248500000Y-86500000D02*
G75*
G02*
X246500000Y-86500000I-1000000J0D01*
G01*
X246500000Y-86500000D02*
G75*
G02*
X248500000Y-86500000I1000000J0D01*
G01*
X248500000Y-88500000D02*
G75*
G02*
X246500000Y-88500000I-1000000J0D01*
G01*
X246500000Y-88500000D02*
G75*
G02*
X248500000Y-88500000I1000000J0D01*
G01*
X248500000Y-90500000D02*
G75*
G02*
X246500000Y-90500000I-1000000J0D01*
G01*
X246500000Y-90500000D02*
G75*
G02*
X248500000Y-90500000I1000000J0D01*
G01*
X248500000Y-92500000D02*
G75*
G02*
X246500000Y-92500000I-1000000J0D01*
G01*
X246500000Y-92500000D02*
G75*
G02*
X248500000Y-92500000I1000000J0D01*
G01*
X248750000Y-86750000D02*
G75*
G02*
X246750000Y-86750000I-1000000J0D01*
G01*
X246750000Y-86750000D02*
G75*
G02*
X248750000Y-86750000I1000000J0D01*
G01*
X248750000Y-88750000D02*
G75*
G02*
X246750000Y-88750000I-1000000J0D01*
G01*
X246750000Y-88750000D02*
G75*
G02*
X248750000Y-88750000I1000000J0D01*
G01*
X248750000Y-90750000D02*
G75*
G02*
X246750000Y-90750000I-1000000J0D01*
G01*
X246750000Y-90750000D02*
G75*
G02*
X248750000Y-90750000I1000000J0D01*
G01*
X248750000Y-92750000D02*
G75*
G02*
X246750000Y-92750000I-1000000J0D01*
G01*
X246750000Y-92750000D02*
G75*
G02*
X248750000Y-92750000I1000000J0D01*
G01*
D10*
%TO.C,D18*%
X236000000Y-138800000D02*
X236000000Y-139800000D01*
X236100000Y-139300000D02*
X237000000Y-138800000D01*
X237000000Y-138800000D02*
X237000000Y-139800000D01*
X237000000Y-139800000D02*
X236100000Y-139300000D01*
%TO.C,SW3*%
X193000000Y-59000000D02*
X194000000Y-59000000D01*
X193000000Y-60000000D02*
X193000000Y-59000000D01*
X193000000Y-73000000D02*
X193000000Y-72000000D01*
X194000000Y-73000000D02*
X193000000Y-73000000D01*
X198000000Y-70200000D02*
X198500000Y-69700000D01*
X198000000Y-73700000D02*
X198500000Y-74200000D01*
X198500000Y-69700000D02*
X201000000Y-69700000D01*
X198500000Y-74200000D02*
X201500000Y-74200000D01*
X201500000Y-74200000D02*
X202000000Y-73700000D01*
X202000000Y-72700000D02*
X202000000Y-73700000D01*
X202500000Y-67500000D02*
X207000000Y-67500000D01*
X202500000Y-68200000D02*
X202500000Y-67500000D01*
X206000000Y-59000000D02*
X207000000Y-59000000D01*
X207000000Y-59000000D02*
X207000000Y-60000000D01*
X207000000Y-67500000D02*
X207000000Y-68000000D01*
X207000000Y-71600000D02*
X207000000Y-72200000D01*
X207000000Y-72000000D02*
X207000000Y-73000000D01*
X207000000Y-72200000D02*
X202500000Y-72200000D01*
X207000000Y-73000000D02*
X206000000Y-73000000D01*
X202000000Y-72700000D02*
G75*
G02*
X202500000Y-72200000I500000J0D01*
G01*
X202500000Y-68200000D02*
G75*
G02*
X201000000Y-69700000I-1500000J0D01*
G01*
%TO.C,D14*%
X201750000Y-113500000D02*
X202750000Y-113500000D01*
X201750000Y-114500000D02*
X202750000Y-114500000D01*
X202250000Y-114400000D02*
X201750000Y-113500000D01*
X202750000Y-113500000D02*
X202250000Y-114400000D01*
%TO.C,D13*%
X199500000Y-113500000D02*
X200500000Y-113500000D01*
X199500000Y-114500000D02*
X200500000Y-114500000D01*
X200000000Y-114400000D02*
X199500000Y-113500000D01*
X200500000Y-113500000D02*
X200000000Y-114400000D01*
%TO.C,SW17*%
X226186242Y-134183055D02*
X226238582Y-133184426D01*
X226866609Y-121200871D02*
X226918945Y-120202242D01*
X226918945Y-120202242D02*
X227917574Y-120254582D01*
X227184871Y-134235391D02*
X226186242Y-134183055D01*
X231142754Y-135143776D02*
X231615901Y-135669258D01*
X231325930Y-131648572D02*
X231851413Y-131175425D01*
X231615901Y-135669258D02*
X234611789Y-135826266D01*
X231851413Y-131175425D02*
X234347984Y-131306265D01*
X234611789Y-135826266D02*
X235137272Y-135353119D01*
X235189608Y-134354490D02*
X235137272Y-135353119D01*
X235924435Y-129886825D02*
X235961070Y-129187784D01*
X235961070Y-129187784D02*
X240454903Y-129423296D01*
X239901129Y-120882609D02*
X240899758Y-120934945D01*
X240167055Y-134915758D02*
X239168426Y-134863418D01*
X240208924Y-134116855D02*
X235715091Y-133881343D01*
X240219391Y-133917129D02*
X240167055Y-134915758D01*
X240240325Y-133517677D02*
X240208924Y-134116855D01*
X240454903Y-129423296D02*
X240428735Y-129922611D01*
X240899758Y-120934945D02*
X240847418Y-121933574D01*
X235189608Y-134354490D02*
G75*
G02*
X235715091Y-133881343I499315J-26168D01*
G01*
X235924435Y-129886825D02*
G75*
G02*
X234347984Y-131306266I-1497945J78504D01*
G01*
%TO.C,SW14*%
X211000000Y-100000000D02*
X212000000Y-100000000D01*
X211000000Y-101000000D02*
X211000000Y-100000000D01*
X211000000Y-114000000D02*
X211000000Y-113000000D01*
X212000000Y-114000000D02*
X211000000Y-114000000D01*
X216000000Y-111200000D02*
X216500000Y-110700000D01*
X216000000Y-114700000D02*
X216500000Y-115200000D01*
X216500000Y-110700000D02*
X219000000Y-110700000D01*
X216500000Y-115200000D02*
X219500000Y-115200000D01*
X219500000Y-115200000D02*
X220000000Y-114700000D01*
X220000000Y-113700000D02*
X220000000Y-114700000D01*
X220500000Y-108500000D02*
X225000000Y-108500000D01*
X220500000Y-109200000D02*
X220500000Y-108500000D01*
X224000000Y-100000000D02*
X225000000Y-100000000D01*
X225000000Y-100000000D02*
X225000000Y-101000000D01*
X225000000Y-108500000D02*
X225000000Y-109000000D01*
X225000000Y-112600000D02*
X225000000Y-113200000D01*
X225000000Y-113000000D02*
X225000000Y-114000000D01*
X225000000Y-113200000D02*
X220500000Y-113200000D01*
X225000000Y-114000000D02*
X224000000Y-114000000D01*
X220000000Y-113700000D02*
G75*
G02*
X220500000Y-113200000I500000J0D01*
G01*
X220500000Y-109200000D02*
G75*
G02*
X219000000Y-110700000I-1500000J0D01*
G01*
%TO.C,U1*%
X189380000Y-120423600D02*
X219860000Y-120423600D01*
X189380000Y-122963600D02*
X189380000Y-120423600D01*
X189380000Y-135643600D02*
X219860000Y-135643600D01*
X189380000Y-138183600D02*
X189380000Y-135643600D01*
X219860000Y-120423600D02*
X219860000Y-122963600D01*
X219860000Y-122963600D02*
X189380000Y-122963600D01*
X219860000Y-135643600D02*
X219860000Y-138183600D01*
X219860000Y-138183600D02*
X189380000Y-138183600D01*
D11*
%TO.C,BT2*%
X175950000Y-124450000D02*
X176950000Y-124450000D01*
X176450000Y-121350000D02*
X176450000Y-122350000D01*
X176450000Y-123950000D02*
X176450000Y-124950000D01*
D10*
%TO.C,D12*%
X197250000Y-113500000D02*
X198250000Y-113500000D01*
X197250000Y-114500000D02*
X198250000Y-114500000D01*
X197750000Y-114400000D02*
X197250000Y-113500000D01*
X198250000Y-113500000D02*
X197750000Y-114400000D01*
%TO.C,RSW1*%
X245750000Y-68000000D02*
X246000000Y-68000000D01*
X245750000Y-74000000D02*
X245750000Y-68000000D01*
X245750000Y-74000000D02*
X246000000Y-74000000D01*
X249250000Y-68000000D02*
X249000000Y-68000000D01*
X249250000Y-74000000D02*
X249000000Y-74000000D01*
X249250000Y-74000000D02*
X249250000Y-68000000D01*
%TO.C,SW1*%
X151346808Y-84973883D02*
X152331616Y-84800235D01*
X151520457Y-85958691D02*
X151346808Y-84973883D01*
X153777883Y-98761192D02*
X153604235Y-97776384D01*
X154762691Y-98587543D02*
X153777883Y-98761192D01*
X158215707Y-95135489D02*
X158621287Y-94556261D01*
X158621287Y-94556261D02*
X161083306Y-94122141D01*
X158823475Y-98582316D02*
X159402703Y-98987896D01*
X159402703Y-98987896D02*
X162357127Y-98466951D01*
X162178492Y-91695091D02*
X166610129Y-90913674D01*
X162300045Y-92384457D02*
X162178492Y-91695091D01*
X162357127Y-98466951D02*
X162762706Y-97887723D01*
X162589058Y-96902916D02*
X162762706Y-97887723D01*
X164149309Y-82716457D02*
X165134117Y-82542808D01*
X165134117Y-82542808D02*
X165307765Y-83527616D01*
X166610129Y-90913674D02*
X166696951Y-91406078D01*
X167322084Y-94951386D02*
X167426273Y-95542271D01*
X167391543Y-95345309D02*
X167565192Y-96330117D01*
X167426273Y-95542271D02*
X162994638Y-96323688D01*
X167565192Y-96330117D02*
X166580384Y-96503765D01*
X162300045Y-92384457D02*
G75*
G02*
X161083306Y-94122140I-1477211J-260472D01*
G01*
X162589058Y-96902916D02*
G75*
G02*
X162994638Y-96323688I492404J86824D01*
G01*
%TO.C,D7*%
X165475000Y-70500000D02*
X165475000Y-71500000D01*
X165575000Y-71000000D02*
X166475000Y-70500000D01*
X166475000Y-70500000D02*
X166475000Y-71500000D01*
X166475000Y-71500000D02*
X165575000Y-71000000D01*
%TO.C,D8*%
X165475000Y-73000000D02*
X165475000Y-74000000D01*
X165575000Y-73500000D02*
X166475000Y-73000000D01*
X166475000Y-73000000D02*
X166475000Y-74000000D01*
X166475000Y-74000000D02*
X165575000Y-73500000D01*
%TO.C,SW13*%
X193000000Y-93000000D02*
X194000000Y-93000000D01*
X193000000Y-94000000D02*
X193000000Y-93000000D01*
X193000000Y-107000000D02*
X193000000Y-106000000D01*
X194000000Y-107000000D02*
X193000000Y-107000000D01*
X198000000Y-104200000D02*
X198500000Y-103700000D01*
X198000000Y-107700000D02*
X198500000Y-108200000D01*
X198500000Y-103700000D02*
X201000000Y-103700000D01*
X198500000Y-108200000D02*
X201500000Y-108200000D01*
X201500000Y-108200000D02*
X202000000Y-107700000D01*
X202000000Y-106700000D02*
X202000000Y-107700000D01*
X202500000Y-101500000D02*
X207000000Y-101500000D01*
X202500000Y-102200000D02*
X202500000Y-101500000D01*
X206000000Y-93000000D02*
X207000000Y-93000000D01*
X207000000Y-93000000D02*
X207000000Y-94000000D01*
X207000000Y-101500000D02*
X207000000Y-102000000D01*
X207000000Y-105600000D02*
X207000000Y-106200000D01*
X207000000Y-106000000D02*
X207000000Y-107000000D01*
X207000000Y-106200000D02*
X202500000Y-106200000D01*
X207000000Y-107000000D02*
X206000000Y-107000000D01*
X202000000Y-106700000D02*
G75*
G02*
X202500000Y-106200000I500000J0D01*
G01*
X202500000Y-102200000D02*
G75*
G02*
X201000000Y-103700000I-1500000J0D01*
G01*
%TD*%
D13*
%TO.C,J1*%
X247500000Y-86500000D03*
X247500000Y-88500000D03*
X247500000Y-90500000D03*
X247500000Y-92500000D03*
%TD*%
D14*
%TO.C,U1*%
X191920000Y-138240000D03*
X190650000Y-121693600D03*
X194460000Y-138240000D03*
X193190000Y-121693600D03*
X197000000Y-138240000D03*
X195730000Y-121693600D03*
X199540000Y-138240000D03*
X198270000Y-121693600D03*
X202080000Y-138240000D03*
X200810000Y-121693600D03*
X204620000Y-138240000D03*
X207160000Y-138240000D03*
X205890000Y-121693600D03*
X209700000Y-138240000D03*
X208430000Y-121693600D03*
X212240000Y-138240000D03*
X210970000Y-121693600D03*
X214780000Y-138240000D03*
X213510000Y-121693600D03*
X217320000Y-138240000D03*
X216050000Y-121693600D03*
X219860000Y-138240000D03*
X218590000Y-121693600D03*
X218590000Y-136913600D03*
X219860000Y-123000000D03*
X216050000Y-136913600D03*
X217320000Y-123000000D03*
X213510000Y-136913600D03*
X214780000Y-123000000D03*
X210970000Y-136913600D03*
X212240000Y-123000000D03*
X208430000Y-136913600D03*
X209700000Y-123000000D03*
X205890000Y-136913600D03*
X207160000Y-123000000D03*
X203350000Y-136913600D03*
X204620000Y-123000000D03*
X200810000Y-136913600D03*
X202080000Y-123000000D03*
X198270000Y-136913600D03*
X199540000Y-123000000D03*
X195730000Y-136913600D03*
X197000000Y-123000000D03*
X193190000Y-136913600D03*
X194460000Y-123000000D03*
X190650000Y-136913600D03*
X191920000Y-123000000D03*
%TD*%
D15*
%TO.C,RSW1*%
X247500000Y-67750000D03*
X247500000Y-74250000D03*
%TD*%
M02*
