%TF.GenerationSoftware,KiCad,Pcbnew,9.0.0*%
%TF.CreationDate,2025-05-15T16:18:32+09:00*%
%TF.ProjectId,xylo,78796c6f-2e6b-4696-9361-645f70636258,rev?*%
%TF.SameCoordinates,Original*%
%TF.FileFunction,Paste,Top*%
%TF.FilePolarity,Positive*%
%FSLAX46Y46*%
G04 Gerber Fmt 4.6, Leading zero omitted, Abs format (unit mm)*
G04 Created by KiCad (PCBNEW 9.0.0) date 2025-05-15 16:18:32*
%MOMM*%
%LPD*%
G01*
G04 APERTURE LIST*
G04 Aperture macros list*
%AMRotRect*
0 Rectangle, with rotation*
0 The origin of the aperture is its center*
0 $1 length*
0 $2 width*
0 $3 Rotation angle, in degrees counterclockwise*
0 Add horizontal line*
21,1,$1,$2,0,0,$3*%
%AMOutline5P*
0 Free polygon, 5 corners , with rotation*
0 The origin of the aperture is its center*
0 number of corners: always 5*
0 $1 to $10 corner X, Y*
0 $11 Rotation angle, in degrees counterclockwise*
0 create outline with 5 corners*
4,1,5,$1,$2,$3,$4,$5,$6,$7,$8,$9,$10,$1,$2,$11*%
%AMOutline6P*
0 Free polygon, 6 corners , with rotation*
0 The origin of the aperture is its center*
0 number of corners: always 6*
0 $1 to $12 corner X, Y*
0 $13 Rotation angle, in degrees counterclockwise*
0 create outline with 6 corners*
4,1,6,$1,$2,$3,$4,$5,$6,$7,$8,$9,$10,$11,$12,$1,$2,$13*%
%AMOutline7P*
0 Free polygon, 7 corners , with rotation*
0 The origin of the aperture is its center*
0 number of corners: always 7*
0 $1 to $14 corner X, Y*
0 $15 Rotation angle, in degrees counterclockwise*
0 create outline with 7 corners*
4,1,7,$1,$2,$3,$4,$5,$6,$7,$8,$9,$10,$11,$12,$13,$14,$1,$2,$15*%
%AMOutline8P*
0 Free polygon, 8 corners , with rotation*
0 The origin of the aperture is its center*
0 number of corners: always 8*
0 $1 to $16 corner X, Y*
0 $17 Rotation angle, in degrees counterclockwise*
0 create outline with 8 corners*
4,1,8,$1,$2,$3,$4,$5,$6,$7,$8,$9,$10,$11,$12,$13,$14,$15,$16,$1,$2,$17*%
G04 Aperture macros list end*
%ADD10Outline5P,-1.300000X0.130000X-0.130000X1.300000X1.300000X1.300000X1.300000X-1.300000X-1.300000X-1.300000X4.000000*%
%ADD11RotRect,2.600000X2.600000X4.000000*%
%ADD12Outline5P,-1.300000X0.130000X-0.130000X1.300000X1.300000X1.300000X1.300000X-1.300000X-1.300000X-1.300000X0.000000*%
%ADD13R,2.600000X2.600000*%
%ADD14Outline5P,-1.300000X0.130000X-0.130000X1.300000X1.300000X1.300000X1.300000X-1.300000X-1.300000X-1.300000X100.000000*%
%ADD15RotRect,2.600000X2.600000X100.000000*%
%ADD16Outline5P,-1.300000X0.130000X-0.130000X1.300000X1.300000X1.300000X1.300000X-1.300000X-1.300000X-1.300000X10.000000*%
%ADD17RotRect,2.600000X2.600000X10.000000*%
%ADD18R,1.000000X0.700000*%
%ADD19R,2.800000X1.000000*%
%ADD20Outline5P,-1.300000X0.130000X-0.130000X1.300000X1.300000X1.300000X1.300000X-1.300000X-1.300000X-1.300000X262.000000*%
%ADD21RotRect,2.600000X2.600000X262.000000*%
%ADD22Outline5P,-1.300000X0.130000X-0.130000X1.300000X1.300000X1.300000X1.300000X-1.300000X-1.300000X-1.300000X357.000000*%
%ADD23RotRect,2.600000X2.600000X357.000000*%
G04 APERTURE END LIST*
D10*
%TO.C,SW2*%
X176905029Y-82338959D03*
D11*
X188273429Y-79338630D03*
%TD*%
D12*
%TO.C,SW9*%
X214725000Y-95950000D03*
D13*
X226275000Y-93750000D03*
%TD*%
D14*
%TO.C,SW16*%
X153946304Y-125920039D03*
D15*
X149774090Y-114927535D03*
%TD*%
D12*
%TO.C,SW5*%
X232725000Y-81950000D03*
D13*
X244275000Y-79750000D03*
%TD*%
D10*
%TO.C,SW12*%
X179277029Y-116256959D03*
D11*
X190645429Y-113256630D03*
%TD*%
D10*
%TO.C,SW7*%
X178091029Y-99297959D03*
D11*
X189459429Y-96297630D03*
%TD*%
D16*
%TO.C,SW11*%
X163167961Y-130564304D03*
D17*
X174160465Y-126392090D03*
%TD*%
D18*
%TO.C,PSW1*%
X246100000Y-106850000D03*
X246100000Y-103850000D03*
X246100000Y-102350000D03*
D19*
X248000000Y-108450000D03*
X248000000Y-100500000D03*
%TD*%
D20*
%TO.C,SW18*%
X246328697Y-125323792D03*
D21*
X246899837Y-137067569D03*
%TD*%
D16*
%TO.C,SW6*%
X160215961Y-113822304D03*
D17*
X171208465Y-109650090D03*
%TD*%
D12*
%TO.C,SW15*%
X232725000Y-115950000D03*
D13*
X244275000Y-113750000D03*
%TD*%
D12*
%TO.C,SW8*%
X196725000Y-88950000D03*
D13*
X208275000Y-86750000D03*
%TD*%
D12*
%TO.C,SW4*%
X214725000Y-78950000D03*
D13*
X226275000Y-76750000D03*
%TD*%
D12*
%TO.C,SW10*%
X232725000Y-98950000D03*
D13*
X244275000Y-96750000D03*
%TD*%
D12*
%TO.C,SW3*%
X196725000Y-71950000D03*
D13*
X208275000Y-69750000D03*
%TD*%
D22*
%TO.C,SW17*%
X229961089Y-133329445D03*
D23*
X241610400Y-131736941D03*
%TD*%
D12*
%TO.C,SW14*%
X214725000Y-112950000D03*
D13*
X226275000Y-110750000D03*
%TD*%
D16*
%TO.C,SW1*%
X157263961Y-97080304D03*
D17*
X168256465Y-92908090D03*
%TD*%
D12*
%TO.C,SW13*%
X196725000Y-105950000D03*
D13*
X208275000Y-103750000D03*
%TD*%
M02*
