%TF.GenerationSoftware,KiCad,Pcbnew,9.0.0*%
%TF.CreationDate,2025-05-15T16:18:30+09:00*%
%TF.ProjectId,xylo,78796c6f-2e6b-4696-9361-645f70636258,rev?*%
%TF.SameCoordinates,Original*%
%TF.FileFunction,Drillmap*%
%TF.FilePolarity,Positive*%
%FSLAX45Y45*%
G04 Gerber Fmt 4.5, Leading zero omitted, Abs format (unit mm)*
G04 Created by KiCad (PCBNEW 9.0.0) date 2025-05-15 16:18:30*
%MOMM*%
%LPD*%
G01*
G04 APERTURE LIST*
%ADD10C,0.200000*%
%ADD11C,0.100000*%
%ADD12C,0.130000*%
%ADD13C,0.220000*%
G04 APERTURE END LIST*
D10*
X14978005Y-11569177D02*
X14978000Y-11569177D01*
X14978000Y-12061447D02*
X14978000Y-13899997D01*
X24878598Y-12542908D02*
G75*
G02*
X24978004Y-12642906I-588J-99992D01*
G01*
X24978000Y-12142917D02*
G75*
G02*
X24878598Y-12242918I-100000J-3D01*
G01*
X20621437Y-6645972D02*
G75*
G02*
X20478233Y-6645972I-71602J45972D01*
G01*
X15060478Y-11667635D02*
G75*
G02*
X15060476Y-11962985I-26278J-147675D01*
G01*
X14978000Y-11569177D02*
X14978000Y-6799997D01*
X19747423Y-6600000D02*
G75*
G02*
X19840390Y-6663168I-3J-100000D01*
G01*
X20159278Y-6663168D02*
G75*
G02*
X19840392Y-6663168I-159443J63168D01*
G01*
X15178003Y-14100000D02*
X24779273Y-14100000D01*
X15178003Y-14100000D02*
G75*
G02*
X14978000Y-13899997I-3J200000D01*
G01*
X19521437Y-6645972D02*
G75*
G02*
X19378233Y-6645972I-71602J45972D01*
G01*
X14978000Y-12061447D02*
G75*
G02*
X15060479Y-11962997I100000J-3D01*
G01*
X20159278Y-6663168D02*
G75*
G02*
X20252248Y-6599995I92962J-36812D01*
G01*
X20621437Y-6645972D02*
G75*
G02*
X20705586Y-6599996I84153J-54028D01*
G01*
X24778003Y-6600000D02*
G75*
G02*
X24978000Y-6799997I-3J-200000D01*
G01*
X19521437Y-6645972D02*
G75*
G02*
X19605586Y-6599996I84153J-54028D01*
G01*
X19294083Y-6600000D02*
G75*
G02*
X19378234Y-6645972I-3J-100010D01*
G01*
X24978000Y-12642906D02*
X24978000Y-13899997D01*
X24978000Y-12142917D02*
X24978000Y-6799997D01*
X15178000Y-6600000D02*
X19294083Y-6600000D01*
X24978000Y-13899997D02*
G75*
G02*
X24779273Y-14099996I-200010J7D01*
G01*
X19605586Y-6600000D02*
X19747423Y-6600000D01*
X15060478Y-11667635D02*
G75*
G02*
X14977998Y-11569177I17522J98455D01*
G01*
X24778003Y-6600000D02*
X20705586Y-6600000D01*
X24878598Y-12542908D02*
G75*
G02*
X24878598Y-12242912I892J149998D01*
G01*
X20394083Y-6600000D02*
G75*
G02*
X20478234Y-6645972I-3J-100010D01*
G01*
X14978000Y-6799997D02*
G75*
G02*
X15178000Y-6600000I199990J7D01*
G01*
X20252248Y-6600000D02*
X20394083Y-6600000D01*
D11*
X15285000Y-9805000D02*
X15315000Y-9835000D01*
X15315000Y-9805000D02*
X15285000Y-9835000D01*
X15625000Y-13165000D02*
X15655000Y-13195000D01*
X15655000Y-13165000D02*
X15625000Y-13195000D01*
X15685000Y-11885000D02*
X15715000Y-11915000D01*
X15715000Y-11885000D02*
X15685000Y-11915000D01*
X15825000Y-11478786D02*
X15855000Y-11508786D01*
X15855000Y-11478786D02*
X15825000Y-11508786D01*
X16233398Y-13536602D02*
X16263398Y-13566602D01*
X16263398Y-13536602D02*
X16233398Y-13566602D01*
X16750000Y-9050000D02*
X16780000Y-9080000D01*
X16780000Y-9050000D02*
X16750000Y-9080000D01*
X16845000Y-8575000D02*
X16875000Y-8605000D01*
X16875000Y-8575000D02*
X16845000Y-8605000D01*
X16845000Y-8665000D02*
X16875000Y-8695000D01*
X16875000Y-8665000D02*
X16845000Y-8695000D01*
X16845000Y-8755000D02*
X16875000Y-8785000D01*
X16875000Y-8755000D02*
X16845000Y-8785000D01*
X16845000Y-8848437D02*
X16875000Y-8878437D01*
X16875000Y-8848437D02*
X16845000Y-8878437D01*
X17105000Y-10665000D02*
X17135000Y-10695000D01*
X17135000Y-10665000D02*
X17105000Y-10695000D01*
X17300074Y-10149927D02*
X17330074Y-10179927D01*
X17330074Y-10149927D02*
X17300074Y-10179927D01*
X17335000Y-8315000D02*
X17365000Y-8345000D01*
X17365000Y-8315000D02*
X17335000Y-8345000D01*
X17335000Y-12865000D02*
X17365000Y-12895000D01*
X17365000Y-12865000D02*
X17335000Y-12895000D01*
X17483282Y-10106719D02*
X17513282Y-10136719D01*
X17513282Y-10106719D02*
X17483282Y-10136719D01*
X17675000Y-11615000D02*
X17705000Y-11645000D01*
X17705000Y-11615000D02*
X17675000Y-11645000D01*
X17745000Y-10185000D02*
X17775000Y-10215000D01*
X17775000Y-10185000D02*
X17745000Y-10215000D01*
X17848666Y-10188666D02*
X17878666Y-10218666D01*
X17878666Y-10188666D02*
X17848666Y-10218666D01*
X17955000Y-10195000D02*
X17985000Y-10225000D01*
X17985000Y-10195000D02*
X17955000Y-10225000D01*
X18643205Y-8173205D02*
X18673205Y-8203205D01*
X18673205Y-8173205D02*
X18643205Y-8203205D01*
X18715000Y-8565000D02*
X18745000Y-8595000D01*
X18745000Y-8565000D02*
X18715000Y-8595000D01*
X18747574Y-9807574D02*
X18777574Y-9837574D01*
X18777574Y-9807574D02*
X18747574Y-9837574D01*
X19050000Y-12505000D02*
X19080000Y-12535000D01*
X19080000Y-12505000D02*
X19050000Y-12535000D01*
X19255000Y-9915000D02*
X19285000Y-9945000D01*
X19285000Y-9915000D02*
X19255000Y-9945000D01*
X19333750Y-8885000D02*
X19363750Y-8915000D01*
X19363750Y-8885000D02*
X19333750Y-8915000D01*
X19335000Y-7180000D02*
X19365000Y-7210000D01*
X19365000Y-7180000D02*
X19335000Y-7210000D01*
X19361000Y-10916663D02*
X19391000Y-10946663D01*
X19391000Y-10916663D02*
X19361000Y-10946663D01*
X19513850Y-10813850D02*
X19543850Y-10843850D01*
X19543850Y-10813850D02*
X19513850Y-10843850D01*
X19558000Y-12412000D02*
X19588000Y-12442000D01*
X19588000Y-12412000D02*
X19558000Y-12442000D01*
X19939000Y-12465000D02*
X19969000Y-12495000D01*
X19969000Y-12465000D02*
X19939000Y-12495000D01*
X20235000Y-9045000D02*
X20265000Y-9075000D01*
X20265000Y-9045000D02*
X20235000Y-9075000D01*
X20574000Y-12425000D02*
X20604000Y-12455000D01*
X20604000Y-12425000D02*
X20574000Y-12455000D01*
X20645000Y-7180000D02*
X20675000Y-7210000D01*
X20675000Y-7180000D02*
X20645000Y-7210000D01*
X20665000Y-11965000D02*
X20695000Y-11995000D01*
X20695000Y-11965000D02*
X20665000Y-11995000D01*
X20673000Y-10605000D02*
X20703000Y-10635000D01*
X20703000Y-10605000D02*
X20673000Y-10635000D01*
X20701000Y-13545000D02*
X20731000Y-13575000D01*
X20731000Y-13545000D02*
X20701000Y-13575000D01*
X20715000Y-7565000D02*
X20745000Y-7595000D01*
X20745000Y-7565000D02*
X20715000Y-7595000D01*
X20828000Y-12385000D02*
X20858000Y-12415000D01*
X20858000Y-12385000D02*
X20828000Y-12415000D01*
X20945000Y-7885000D02*
X20975000Y-7915000D01*
X20975000Y-7885000D02*
X20945000Y-7915000D01*
X20945000Y-9585000D02*
X20975000Y-9615000D01*
X20975000Y-9585000D02*
X20945000Y-9615000D01*
X20955000Y-13545000D02*
X20985000Y-13575000D01*
X20985000Y-13545000D02*
X20955000Y-13575000D01*
X21015000Y-11935000D02*
X21045000Y-11965000D01*
X21045000Y-11935000D02*
X21015000Y-11965000D01*
X21180000Y-11340000D02*
X21210000Y-11370000D01*
X21210000Y-11340000D02*
X21180000Y-11370000D01*
X21209000Y-13545000D02*
X21239000Y-13575000D01*
X21239000Y-13545000D02*
X21209000Y-13575000D01*
X21225986Y-11885000D02*
X21255986Y-11915000D01*
X21255986Y-11885000D02*
X21225986Y-11915000D01*
X21465000Y-13545000D02*
X21495000Y-13575000D01*
X21495000Y-13545000D02*
X21465000Y-13575000D01*
X21545000Y-11965000D02*
X21575000Y-11995000D01*
X21575000Y-11965000D02*
X21545000Y-11995000D01*
X21717000Y-13545000D02*
X21747000Y-13575000D01*
X21747000Y-13545000D02*
X21717000Y-13575000D01*
X21895000Y-13924800D02*
X21925000Y-13954800D01*
X21925000Y-13924800D02*
X21895000Y-13954800D01*
X21971000Y-13545000D02*
X22001000Y-13575000D01*
X22001000Y-13545000D02*
X21971000Y-13575000D01*
X22364000Y-11279000D02*
X22394000Y-11309000D01*
X22394000Y-11279000D02*
X22364000Y-11309000D01*
X22470000Y-7880000D02*
X22500000Y-7910000D01*
X22500000Y-7880000D02*
X22470000Y-7910000D01*
X22500000Y-9580000D02*
X22530000Y-9610000D01*
X22530000Y-9580000D02*
X22500000Y-9610000D01*
X22757500Y-13507500D02*
X22787500Y-13537500D01*
X22787500Y-13507500D02*
X22757500Y-13537500D01*
X22835000Y-8245000D02*
X22865000Y-8275000D01*
X22865000Y-8245000D02*
X22835000Y-8275000D01*
X22835000Y-9945000D02*
X22865000Y-9975000D01*
X22865000Y-9945000D02*
X22835000Y-9975000D01*
X23013500Y-11618500D02*
X23043500Y-11648500D01*
X23043500Y-11618500D02*
X23013500Y-11648500D01*
X24150000Y-11605000D02*
X24180000Y-11635000D01*
X24180000Y-11605000D02*
X24150000Y-11635000D01*
X24290000Y-9880000D02*
X24320000Y-9910000D01*
X24320000Y-9880000D02*
X24290000Y-9910000D01*
X24295000Y-8180000D02*
X24325000Y-8210000D01*
X24325000Y-8180000D02*
X24295000Y-8210000D01*
X24395000Y-10520000D02*
X24425000Y-10550000D01*
X24425000Y-10520000D02*
X24395000Y-10550000D01*
X24475000Y-10520000D02*
X24505000Y-10550000D01*
X24505000Y-10520000D02*
X24475000Y-10550000D01*
X24515000Y-13975000D02*
X24545000Y-14005000D01*
X24545000Y-13975000D02*
X24515000Y-14005000D01*
X24585000Y-12165000D02*
X24615000Y-12195000D01*
X24615000Y-12165000D02*
X24585000Y-12195000D01*
X15290640Y-6850000D02*
G75*
G02*
X15209360Y-6850000I-40640J0D01*
G01*
X15209360Y-6850000D02*
G75*
G02*
X15290640Y-6850000I40640J0D01*
G01*
X15290640Y-7100000D02*
G75*
G02*
X15209360Y-7100000I-40640J0D01*
G01*
X15209360Y-7100000D02*
G75*
G02*
X15290640Y-7100000I40640J0D01*
G01*
X15290640Y-7350000D02*
G75*
G02*
X15209360Y-7350000I-40640J0D01*
G01*
X15209360Y-7350000D02*
G75*
G02*
X15290640Y-7350000I40640J0D01*
G01*
X15290640Y-7600000D02*
G75*
G02*
X15209360Y-7600000I-40640J0D01*
G01*
X15209360Y-7600000D02*
G75*
G02*
X15290640Y-7600000I40640J0D01*
G01*
X15290640Y-7850000D02*
G75*
G02*
X15209360Y-7850000I-40640J0D01*
G01*
X15209360Y-7850000D02*
G75*
G02*
X15290640Y-7850000I40640J0D01*
G01*
X15890640Y-6850000D02*
G75*
G02*
X15809360Y-6850000I-40640J0D01*
G01*
X15809360Y-6850000D02*
G75*
G02*
X15890640Y-6850000I40640J0D01*
G01*
X15890640Y-7100000D02*
G75*
G02*
X15809360Y-7100000I-40640J0D01*
G01*
X15809360Y-7100000D02*
G75*
G02*
X15890640Y-7100000I40640J0D01*
G01*
X15890640Y-7350000D02*
G75*
G02*
X15809360Y-7350000I-40640J0D01*
G01*
X15809360Y-7350000D02*
G75*
G02*
X15890640Y-7350000I40640J0D01*
G01*
X15890640Y-7600000D02*
G75*
G02*
X15809360Y-7600000I-40640J0D01*
G01*
X15809360Y-7600000D02*
G75*
G02*
X15890640Y-7600000I40640J0D01*
G01*
X15890640Y-7850000D02*
G75*
G02*
X15809360Y-7850000I-40640J0D01*
G01*
X15809360Y-7850000D02*
G75*
G02*
X15890640Y-7850000I40640J0D01*
G01*
X16338140Y-6850000D02*
G75*
G02*
X16256860Y-6850000I-40640J0D01*
G01*
X16256860Y-6850000D02*
G75*
G02*
X16338140Y-6850000I40640J0D01*
G01*
X16338140Y-7100000D02*
G75*
G02*
X16256860Y-7100000I-40640J0D01*
G01*
X16256860Y-7100000D02*
G75*
G02*
X16338140Y-7100000I40640J0D01*
G01*
X16338140Y-7350000D02*
G75*
G02*
X16256860Y-7350000I-40640J0D01*
G01*
X16256860Y-7350000D02*
G75*
G02*
X16338140Y-7350000I40640J0D01*
G01*
X16338140Y-7600000D02*
G75*
G02*
X16256860Y-7600000I-40640J0D01*
G01*
X16256860Y-7600000D02*
G75*
G02*
X16338140Y-7600000I40640J0D01*
G01*
X16338140Y-7850000D02*
G75*
G02*
X16256860Y-7850000I-40640J0D01*
G01*
X16256860Y-7850000D02*
G75*
G02*
X16338140Y-7850000I40640J0D01*
G01*
X16938140Y-6850000D02*
G75*
G02*
X16856860Y-6850000I-40640J0D01*
G01*
X16856860Y-6850000D02*
G75*
G02*
X16938140Y-6850000I40640J0D01*
G01*
X16938140Y-7100000D02*
G75*
G02*
X16856860Y-7100000I-40640J0D01*
G01*
X16856860Y-7100000D02*
G75*
G02*
X16938140Y-7100000I40640J0D01*
G01*
X16938140Y-7350000D02*
G75*
G02*
X16856860Y-7350000I-40640J0D01*
G01*
X16856860Y-7350000D02*
G75*
G02*
X16938140Y-7350000I40640J0D01*
G01*
X16938140Y-7600000D02*
G75*
G02*
X16856860Y-7600000I-40640J0D01*
G01*
X16856860Y-7600000D02*
G75*
G02*
X16938140Y-7600000I40640J0D01*
G01*
X16938140Y-7850000D02*
G75*
G02*
X16856860Y-7850000I-40640J0D01*
G01*
X16856860Y-7850000D02*
G75*
G02*
X16938140Y-7850000I40640J0D01*
G01*
X19105640Y-12169360D02*
G75*
G02*
X19024360Y-12169360I-40640J0D01*
G01*
X19024360Y-12169360D02*
G75*
G02*
X19105640Y-12169360I40640J0D01*
G01*
X19105640Y-13691360D02*
G75*
G02*
X19024360Y-13691360I-40640J0D01*
G01*
X19024360Y-13691360D02*
G75*
G02*
X19105640Y-13691360I40640J0D01*
G01*
X19232640Y-12300000D02*
G75*
G02*
X19151360Y-12300000I-40640J0D01*
G01*
X19151360Y-12300000D02*
G75*
G02*
X19232640Y-12300000I40640J0D01*
G01*
X19232640Y-13824000D02*
G75*
G02*
X19151360Y-13824000I-40640J0D01*
G01*
X19151360Y-13824000D02*
G75*
G02*
X19232640Y-13824000I40640J0D01*
G01*
X19359640Y-12169360D02*
G75*
G02*
X19278360Y-12169360I-40640J0D01*
G01*
X19278360Y-12169360D02*
G75*
G02*
X19359640Y-12169360I40640J0D01*
G01*
X19359640Y-13691360D02*
G75*
G02*
X19278360Y-13691360I-40640J0D01*
G01*
X19278360Y-13691360D02*
G75*
G02*
X19359640Y-13691360I40640J0D01*
G01*
X19486640Y-12300000D02*
G75*
G02*
X19405360Y-12300000I-40640J0D01*
G01*
X19405360Y-12300000D02*
G75*
G02*
X19486640Y-12300000I40640J0D01*
G01*
X19486640Y-13824000D02*
G75*
G02*
X19405360Y-13824000I-40640J0D01*
G01*
X19405360Y-13824000D02*
G75*
G02*
X19486640Y-13824000I40640J0D01*
G01*
X19590640Y-11100000D02*
G75*
G02*
X19509360Y-11100000I-40640J0D01*
G01*
X19509360Y-11100000D02*
G75*
G02*
X19590640Y-11100000I40640J0D01*
G01*
X19590640Y-11700000D02*
G75*
G02*
X19509360Y-11700000I-40640J0D01*
G01*
X19509360Y-11700000D02*
G75*
G02*
X19590640Y-11700000I40640J0D01*
G01*
X19613640Y-12169360D02*
G75*
G02*
X19532360Y-12169360I-40640J0D01*
G01*
X19532360Y-12169360D02*
G75*
G02*
X19613640Y-12169360I40640J0D01*
G01*
X19613640Y-13691360D02*
G75*
G02*
X19532360Y-13691360I-40640J0D01*
G01*
X19532360Y-13691360D02*
G75*
G02*
X19613640Y-13691360I40640J0D01*
G01*
X19740640Y-12300000D02*
G75*
G02*
X19659360Y-12300000I-40640J0D01*
G01*
X19659360Y-12300000D02*
G75*
G02*
X19740640Y-12300000I40640J0D01*
G01*
X19740640Y-13824000D02*
G75*
G02*
X19659360Y-13824000I-40640J0D01*
G01*
X19659360Y-13824000D02*
G75*
G02*
X19740640Y-13824000I40640J0D01*
G01*
X19815640Y-11100000D02*
G75*
G02*
X19734360Y-11100000I-40640J0D01*
G01*
X19734360Y-11100000D02*
G75*
G02*
X19815640Y-11100000I40640J0D01*
G01*
X19815640Y-11700000D02*
G75*
G02*
X19734360Y-11700000I-40640J0D01*
G01*
X19734360Y-11700000D02*
G75*
G02*
X19815640Y-11700000I40640J0D01*
G01*
X19867640Y-12169360D02*
G75*
G02*
X19786360Y-12169360I-40640J0D01*
G01*
X19786360Y-12169360D02*
G75*
G02*
X19867640Y-12169360I40640J0D01*
G01*
X19867640Y-13691360D02*
G75*
G02*
X19786360Y-13691360I-40640J0D01*
G01*
X19786360Y-13691360D02*
G75*
G02*
X19867640Y-13691360I40640J0D01*
G01*
X19994640Y-12300000D02*
G75*
G02*
X19913360Y-12300000I-40640J0D01*
G01*
X19913360Y-12300000D02*
G75*
G02*
X19994640Y-12300000I40640J0D01*
G01*
X19994640Y-13824000D02*
G75*
G02*
X19913360Y-13824000I-40640J0D01*
G01*
X19913360Y-13824000D02*
G75*
G02*
X19994640Y-13824000I40640J0D01*
G01*
X20040640Y-11100000D02*
G75*
G02*
X19959360Y-11100000I-40640J0D01*
G01*
X19959360Y-11100000D02*
G75*
G02*
X20040640Y-11100000I40640J0D01*
G01*
X20040640Y-11700000D02*
G75*
G02*
X19959360Y-11700000I-40640J0D01*
G01*
X19959360Y-11700000D02*
G75*
G02*
X20040640Y-11700000I40640J0D01*
G01*
X20121640Y-12169360D02*
G75*
G02*
X20040360Y-12169360I-40640J0D01*
G01*
X20040360Y-12169360D02*
G75*
G02*
X20121640Y-12169360I40640J0D01*
G01*
X20121640Y-13691360D02*
G75*
G02*
X20040360Y-13691360I-40640J0D01*
G01*
X20040360Y-13691360D02*
G75*
G02*
X20121640Y-13691360I40640J0D01*
G01*
X20248640Y-12300000D02*
G75*
G02*
X20167360Y-12300000I-40640J0D01*
G01*
X20167360Y-12300000D02*
G75*
G02*
X20248640Y-12300000I40640J0D01*
G01*
X20248640Y-13824000D02*
G75*
G02*
X20167360Y-13824000I-40640J0D01*
G01*
X20167360Y-13824000D02*
G75*
G02*
X20248640Y-13824000I40640J0D01*
G01*
X20265640Y-11100000D02*
G75*
G02*
X20184360Y-11100000I-40640J0D01*
G01*
X20184360Y-11100000D02*
G75*
G02*
X20265640Y-11100000I40640J0D01*
G01*
X20265640Y-11700000D02*
G75*
G02*
X20184360Y-11700000I-40640J0D01*
G01*
X20184360Y-11700000D02*
G75*
G02*
X20265640Y-11700000I40640J0D01*
G01*
X20375640Y-12169360D02*
G75*
G02*
X20294360Y-12169360I-40640J0D01*
G01*
X20294360Y-12169360D02*
G75*
G02*
X20375640Y-12169360I40640J0D01*
G01*
X20375640Y-13691360D02*
G75*
G02*
X20294360Y-13691360I-40640J0D01*
G01*
X20294360Y-13691360D02*
G75*
G02*
X20375640Y-13691360I40640J0D01*
G01*
X20490640Y-11100000D02*
G75*
G02*
X20409360Y-11100000I-40640J0D01*
G01*
X20409360Y-11100000D02*
G75*
G02*
X20490640Y-11100000I40640J0D01*
G01*
X20490640Y-11700000D02*
G75*
G02*
X20409360Y-11700000I-40640J0D01*
G01*
X20409360Y-11700000D02*
G75*
G02*
X20490640Y-11700000I40640J0D01*
G01*
X20502640Y-12300000D02*
G75*
G02*
X20421360Y-12300000I-40640J0D01*
G01*
X20421360Y-12300000D02*
G75*
G02*
X20502640Y-12300000I40640J0D01*
G01*
X20502640Y-13824000D02*
G75*
G02*
X20421360Y-13824000I-40640J0D01*
G01*
X20421360Y-13824000D02*
G75*
G02*
X20502640Y-13824000I40640J0D01*
G01*
X20629640Y-12169360D02*
G75*
G02*
X20548360Y-12169360I-40640J0D01*
G01*
X20548360Y-12169360D02*
G75*
G02*
X20629640Y-12169360I40640J0D01*
G01*
X20629640Y-13691360D02*
G75*
G02*
X20548360Y-13691360I-40640J0D01*
G01*
X20548360Y-13691360D02*
G75*
G02*
X20629640Y-13691360I40640J0D01*
G01*
X20756640Y-12300000D02*
G75*
G02*
X20675360Y-12300000I-40640J0D01*
G01*
X20675360Y-12300000D02*
G75*
G02*
X20756640Y-12300000I40640J0D01*
G01*
X20756640Y-13824000D02*
G75*
G02*
X20675360Y-13824000I-40640J0D01*
G01*
X20675360Y-13824000D02*
G75*
G02*
X20756640Y-13824000I40640J0D01*
G01*
X20883640Y-12169360D02*
G75*
G02*
X20802360Y-12169360I-40640J0D01*
G01*
X20802360Y-12169360D02*
G75*
G02*
X20883640Y-12169360I40640J0D01*
G01*
X20883640Y-13691360D02*
G75*
G02*
X20802360Y-13691360I-40640J0D01*
G01*
X20802360Y-13691360D02*
G75*
G02*
X20883640Y-13691360I40640J0D01*
G01*
X21010640Y-12300000D02*
G75*
G02*
X20929360Y-12300000I-40640J0D01*
G01*
X20929360Y-12300000D02*
G75*
G02*
X21010640Y-12300000I40640J0D01*
G01*
X21010640Y-13824000D02*
G75*
G02*
X20929360Y-13824000I-40640J0D01*
G01*
X20929360Y-13824000D02*
G75*
G02*
X21010640Y-13824000I40640J0D01*
G01*
X21137640Y-12169360D02*
G75*
G02*
X21056360Y-12169360I-40640J0D01*
G01*
X21056360Y-12169360D02*
G75*
G02*
X21137640Y-12169360I40640J0D01*
G01*
X21137640Y-13691360D02*
G75*
G02*
X21056360Y-13691360I-40640J0D01*
G01*
X21056360Y-13691360D02*
G75*
G02*
X21137640Y-13691360I40640J0D01*
G01*
X21264640Y-12300000D02*
G75*
G02*
X21183360Y-12300000I-40640J0D01*
G01*
X21183360Y-12300000D02*
G75*
G02*
X21264640Y-12300000I40640J0D01*
G01*
X21264640Y-13824000D02*
G75*
G02*
X21183360Y-13824000I-40640J0D01*
G01*
X21183360Y-13824000D02*
G75*
G02*
X21264640Y-13824000I40640J0D01*
G01*
X21391640Y-12169360D02*
G75*
G02*
X21310360Y-12169360I-40640J0D01*
G01*
X21310360Y-12169360D02*
G75*
G02*
X21391640Y-12169360I40640J0D01*
G01*
X21391640Y-13691360D02*
G75*
G02*
X21310360Y-13691360I-40640J0D01*
G01*
X21310360Y-13691360D02*
G75*
G02*
X21391640Y-13691360I40640J0D01*
G01*
X21518640Y-12300000D02*
G75*
G02*
X21437360Y-12300000I-40640J0D01*
G01*
X21437360Y-12300000D02*
G75*
G02*
X21518640Y-12300000I40640J0D01*
G01*
X21518640Y-13824000D02*
G75*
G02*
X21437360Y-13824000I-40640J0D01*
G01*
X21437360Y-13824000D02*
G75*
G02*
X21518640Y-13824000I40640J0D01*
G01*
X21645640Y-12169360D02*
G75*
G02*
X21564360Y-12169360I-40640J0D01*
G01*
X21564360Y-12169360D02*
G75*
G02*
X21645640Y-12169360I40640J0D01*
G01*
X21645640Y-13691360D02*
G75*
G02*
X21564360Y-13691360I-40640J0D01*
G01*
X21564360Y-13691360D02*
G75*
G02*
X21645640Y-13691360I40640J0D01*
G01*
X21772640Y-12300000D02*
G75*
G02*
X21691360Y-12300000I-40640J0D01*
G01*
X21691360Y-12300000D02*
G75*
G02*
X21772640Y-12300000I40640J0D01*
G01*
X21772640Y-13824000D02*
G75*
G02*
X21691360Y-13824000I-40640J0D01*
G01*
X21691360Y-13824000D02*
G75*
G02*
X21772640Y-13824000I40640J0D01*
G01*
X21899640Y-12169360D02*
G75*
G02*
X21818360Y-12169360I-40640J0D01*
G01*
X21818360Y-12169360D02*
G75*
G02*
X21899640Y-12169360I40640J0D01*
G01*
X21899640Y-13691360D02*
G75*
G02*
X21818360Y-13691360I-40640J0D01*
G01*
X21818360Y-13691360D02*
G75*
G02*
X21899640Y-13691360I40640J0D01*
G01*
X22026640Y-12300000D02*
G75*
G02*
X21945360Y-12300000I-40640J0D01*
G01*
X21945360Y-12300000D02*
G75*
G02*
X22026640Y-12300000I40640J0D01*
G01*
X22026640Y-13824000D02*
G75*
G02*
X21945360Y-13824000I-40640J0D01*
G01*
X21945360Y-13824000D02*
G75*
G02*
X22026640Y-13824000I40640J0D01*
G01*
X22415640Y-13670000D02*
G75*
G02*
X22334360Y-13670000I-40640J0D01*
G01*
X22334360Y-13670000D02*
G75*
G02*
X22415640Y-13670000I40640J0D01*
G01*
X22415640Y-13940000D02*
G75*
G02*
X22334360Y-13940000I-40640J0D01*
G01*
X22334360Y-13940000D02*
G75*
G02*
X22415640Y-13940000I40640J0D01*
G01*
X23015640Y-13670000D02*
G75*
G02*
X22934360Y-13670000I-40640J0D01*
G01*
X22934360Y-13670000D02*
G75*
G02*
X23015640Y-13670000I40640J0D01*
G01*
X23015640Y-13940000D02*
G75*
G02*
X22934360Y-13940000I-40640J0D01*
G01*
X22934360Y-13940000D02*
G75*
G02*
X23015640Y-13940000I40640J0D01*
G01*
X23390640Y-13930000D02*
G75*
G02*
X23309360Y-13930000I-40640J0D01*
G01*
X23309360Y-13930000D02*
G75*
G02*
X23390640Y-13930000I40640J0D01*
G01*
X23990640Y-13930000D02*
G75*
G02*
X23909360Y-13930000I-40640J0D01*
G01*
X23909360Y-13930000D02*
G75*
G02*
X23990640Y-13930000I40640J0D01*
G01*
X24790640Y-8650000D02*
G75*
G02*
X24709360Y-8650000I-40640J0D01*
G01*
X24709360Y-8650000D02*
G75*
G02*
X24790640Y-8650000I40640J0D01*
G01*
X24790640Y-8850000D02*
G75*
G02*
X24709360Y-8850000I-40640J0D01*
G01*
X24709360Y-8850000D02*
G75*
G02*
X24790640Y-8850000I40640J0D01*
G01*
X24790640Y-9050000D02*
G75*
G02*
X24709360Y-9050000I-40640J0D01*
G01*
X24709360Y-9050000D02*
G75*
G02*
X24790640Y-9050000I40640J0D01*
G01*
X24790640Y-9250000D02*
G75*
G02*
X24709360Y-9250000I-40640J0D01*
G01*
X24709360Y-9250000D02*
G75*
G02*
X24790640Y-9250000I40640J0D01*
G01*
X17815000Y-12135000D02*
X17815000Y-12235000D01*
X17765000Y-12185000D02*
X17865000Y-12185000D01*
X17815000Y-12389000D02*
X17815000Y-12489000D01*
X17765000Y-12439000D02*
X17865000Y-12439000D01*
D12*
X24795962Y-6820962D02*
X24795962Y-6729038D01*
X24704038Y-6729038D01*
X24704038Y-6820962D01*
X24795962Y-6820962D01*
X24795962Y-7470962D02*
X24795962Y-7379038D01*
X24704038Y-7379038D01*
X24704038Y-7470962D01*
X24795962Y-7470962D01*
D13*
X15400000Y-13810000D02*
X15510000Y-13700000D01*
X15400000Y-13590000D01*
X15290000Y-13700000D01*
X15400000Y-13810000D01*
X16050000Y-8210000D02*
X16160000Y-8100000D01*
X16050000Y-7990000D01*
X15940000Y-8100000D01*
X16050000Y-8210000D01*
X18900000Y-7410000D02*
X19010000Y-7300000D01*
X18900000Y-7190000D01*
X18790000Y-7300000D01*
X18900000Y-7410000D01*
X20950000Y-9960000D02*
X21060000Y-9850000D01*
X20950000Y-9740000D01*
X20840000Y-9850000D01*
X20950000Y-9960000D01*
X22350000Y-12260000D02*
X22460000Y-12150000D01*
X22350000Y-12040000D01*
X22240000Y-12150000D01*
X22350000Y-12260000D01*
D10*
X15228774Y-14421484D02*
X15228774Y-14221484D01*
X15228774Y-14221484D02*
X15276393Y-14221484D01*
X15276393Y-14221484D02*
X15304965Y-14231008D01*
X15304965Y-14231008D02*
X15324013Y-14250055D01*
X15324013Y-14250055D02*
X15333536Y-14269103D01*
X15333536Y-14269103D02*
X15343060Y-14307198D01*
X15343060Y-14307198D02*
X15343060Y-14335769D01*
X15343060Y-14335769D02*
X15333536Y-14373865D01*
X15333536Y-14373865D02*
X15324013Y-14392912D01*
X15324013Y-14392912D02*
X15304965Y-14411960D01*
X15304965Y-14411960D02*
X15276393Y-14421484D01*
X15276393Y-14421484D02*
X15228774Y-14421484D01*
X15428774Y-14421484D02*
X15428774Y-14288150D01*
X15428774Y-14326246D02*
X15438298Y-14307198D01*
X15438298Y-14307198D02*
X15447822Y-14297674D01*
X15447822Y-14297674D02*
X15466870Y-14288150D01*
X15466870Y-14288150D02*
X15485917Y-14288150D01*
X15552584Y-14421484D02*
X15552584Y-14288150D01*
X15552584Y-14221484D02*
X15543060Y-14231008D01*
X15543060Y-14231008D02*
X15552584Y-14240531D01*
X15552584Y-14240531D02*
X15562108Y-14231008D01*
X15562108Y-14231008D02*
X15552584Y-14221484D01*
X15552584Y-14221484D02*
X15552584Y-14240531D01*
X15676393Y-14421484D02*
X15657346Y-14411960D01*
X15657346Y-14411960D02*
X15647822Y-14392912D01*
X15647822Y-14392912D02*
X15647822Y-14221484D01*
X15781155Y-14421484D02*
X15762108Y-14411960D01*
X15762108Y-14411960D02*
X15752584Y-14392912D01*
X15752584Y-14392912D02*
X15752584Y-14221484D01*
X16009727Y-14421484D02*
X16009727Y-14221484D01*
X16009727Y-14221484D02*
X16076394Y-14364341D01*
X16076394Y-14364341D02*
X16143060Y-14221484D01*
X16143060Y-14221484D02*
X16143060Y-14421484D01*
X16324013Y-14421484D02*
X16324013Y-14316722D01*
X16324013Y-14316722D02*
X16314489Y-14297674D01*
X16314489Y-14297674D02*
X16295441Y-14288150D01*
X16295441Y-14288150D02*
X16257346Y-14288150D01*
X16257346Y-14288150D02*
X16238298Y-14297674D01*
X16324013Y-14411960D02*
X16304965Y-14421484D01*
X16304965Y-14421484D02*
X16257346Y-14421484D01*
X16257346Y-14421484D02*
X16238298Y-14411960D01*
X16238298Y-14411960D02*
X16228774Y-14392912D01*
X16228774Y-14392912D02*
X16228774Y-14373865D01*
X16228774Y-14373865D02*
X16238298Y-14354817D01*
X16238298Y-14354817D02*
X16257346Y-14345293D01*
X16257346Y-14345293D02*
X16304965Y-14345293D01*
X16304965Y-14345293D02*
X16324013Y-14335769D01*
X16419251Y-14288150D02*
X16419251Y-14488150D01*
X16419251Y-14297674D02*
X16438298Y-14288150D01*
X16438298Y-14288150D02*
X16476394Y-14288150D01*
X16476394Y-14288150D02*
X16495441Y-14297674D01*
X16495441Y-14297674D02*
X16504965Y-14307198D01*
X16504965Y-14307198D02*
X16514489Y-14326246D01*
X16514489Y-14326246D02*
X16514489Y-14383388D01*
X16514489Y-14383388D02*
X16504965Y-14402436D01*
X16504965Y-14402436D02*
X16495441Y-14411960D01*
X16495441Y-14411960D02*
X16476394Y-14421484D01*
X16476394Y-14421484D02*
X16438298Y-14421484D01*
X16438298Y-14421484D02*
X16419251Y-14411960D01*
X16600203Y-14402436D02*
X16609727Y-14411960D01*
X16609727Y-14411960D02*
X16600203Y-14421484D01*
X16600203Y-14421484D02*
X16590679Y-14411960D01*
X16590679Y-14411960D02*
X16600203Y-14402436D01*
X16600203Y-14402436D02*
X16600203Y-14421484D01*
X16600203Y-14297674D02*
X16609727Y-14307198D01*
X16609727Y-14307198D02*
X16600203Y-14316722D01*
X16600203Y-14316722D02*
X16590679Y-14307198D01*
X16590679Y-14307198D02*
X16600203Y-14297674D01*
X16600203Y-14297674D02*
X16600203Y-14316722D01*
D11*
X14937998Y-14735000D02*
X14967998Y-14765000D01*
X14967998Y-14735000D02*
X14937998Y-14765000D01*
D10*
X15266870Y-14641484D02*
X15285917Y-14641484D01*
X15285917Y-14641484D02*
X15304965Y-14651008D01*
X15304965Y-14651008D02*
X15314489Y-14660531D01*
X15314489Y-14660531D02*
X15324013Y-14679579D01*
X15324013Y-14679579D02*
X15333536Y-14717674D01*
X15333536Y-14717674D02*
X15333536Y-14765293D01*
X15333536Y-14765293D02*
X15324013Y-14803388D01*
X15324013Y-14803388D02*
X15314489Y-14822436D01*
X15314489Y-14822436D02*
X15304965Y-14831960D01*
X15304965Y-14831960D02*
X15285917Y-14841484D01*
X15285917Y-14841484D02*
X15266870Y-14841484D01*
X15266870Y-14841484D02*
X15247822Y-14831960D01*
X15247822Y-14831960D02*
X15238298Y-14822436D01*
X15238298Y-14822436D02*
X15228774Y-14803388D01*
X15228774Y-14803388D02*
X15219251Y-14765293D01*
X15219251Y-14765293D02*
X15219251Y-14717674D01*
X15219251Y-14717674D02*
X15228774Y-14679579D01*
X15228774Y-14679579D02*
X15238298Y-14660531D01*
X15238298Y-14660531D02*
X15247822Y-14651008D01*
X15247822Y-14651008D02*
X15266870Y-14641484D01*
X15419251Y-14822436D02*
X15428774Y-14831960D01*
X15428774Y-14831960D02*
X15419251Y-14841484D01*
X15419251Y-14841484D02*
X15409727Y-14831960D01*
X15409727Y-14831960D02*
X15419251Y-14822436D01*
X15419251Y-14822436D02*
X15419251Y-14841484D01*
X15495441Y-14641484D02*
X15619251Y-14641484D01*
X15619251Y-14641484D02*
X15552584Y-14717674D01*
X15552584Y-14717674D02*
X15581155Y-14717674D01*
X15581155Y-14717674D02*
X15600203Y-14727198D01*
X15600203Y-14727198D02*
X15609727Y-14736722D01*
X15609727Y-14736722D02*
X15619251Y-14755769D01*
X15619251Y-14755769D02*
X15619251Y-14803388D01*
X15619251Y-14803388D02*
X15609727Y-14822436D01*
X15609727Y-14822436D02*
X15600203Y-14831960D01*
X15600203Y-14831960D02*
X15581155Y-14841484D01*
X15581155Y-14841484D02*
X15524013Y-14841484D01*
X15524013Y-14841484D02*
X15504965Y-14831960D01*
X15504965Y-14831960D02*
X15495441Y-14822436D01*
X15743060Y-14641484D02*
X15762108Y-14641484D01*
X15762108Y-14641484D02*
X15781155Y-14651008D01*
X15781155Y-14651008D02*
X15790679Y-14660531D01*
X15790679Y-14660531D02*
X15800203Y-14679579D01*
X15800203Y-14679579D02*
X15809727Y-14717674D01*
X15809727Y-14717674D02*
X15809727Y-14765293D01*
X15809727Y-14765293D02*
X15800203Y-14803388D01*
X15800203Y-14803388D02*
X15790679Y-14822436D01*
X15790679Y-14822436D02*
X15781155Y-14831960D01*
X15781155Y-14831960D02*
X15762108Y-14841484D01*
X15762108Y-14841484D02*
X15743060Y-14841484D01*
X15743060Y-14841484D02*
X15724013Y-14831960D01*
X15724013Y-14831960D02*
X15714489Y-14822436D01*
X15714489Y-14822436D02*
X15704965Y-14803388D01*
X15704965Y-14803388D02*
X15695441Y-14765293D01*
X15695441Y-14765293D02*
X15695441Y-14717674D01*
X15695441Y-14717674D02*
X15704965Y-14679579D01*
X15704965Y-14679579D02*
X15714489Y-14660531D01*
X15714489Y-14660531D02*
X15724013Y-14651008D01*
X15724013Y-14651008D02*
X15743060Y-14641484D01*
X15933536Y-14641484D02*
X15952584Y-14641484D01*
X15952584Y-14641484D02*
X15971632Y-14651008D01*
X15971632Y-14651008D02*
X15981155Y-14660531D01*
X15981155Y-14660531D02*
X15990679Y-14679579D01*
X15990679Y-14679579D02*
X16000203Y-14717674D01*
X16000203Y-14717674D02*
X16000203Y-14765293D01*
X16000203Y-14765293D02*
X15990679Y-14803388D01*
X15990679Y-14803388D02*
X15981155Y-14822436D01*
X15981155Y-14822436D02*
X15971632Y-14831960D01*
X15971632Y-14831960D02*
X15952584Y-14841484D01*
X15952584Y-14841484D02*
X15933536Y-14841484D01*
X15933536Y-14841484D02*
X15914489Y-14831960D01*
X15914489Y-14831960D02*
X15904965Y-14822436D01*
X15904965Y-14822436D02*
X15895441Y-14803388D01*
X15895441Y-14803388D02*
X15885917Y-14765293D01*
X15885917Y-14765293D02*
X15885917Y-14717674D01*
X15885917Y-14717674D02*
X15895441Y-14679579D01*
X15895441Y-14679579D02*
X15904965Y-14660531D01*
X15904965Y-14660531D02*
X15914489Y-14651008D01*
X15914489Y-14651008D02*
X15933536Y-14641484D01*
X16085917Y-14841484D02*
X16085917Y-14708150D01*
X16085917Y-14727198D02*
X16095441Y-14717674D01*
X16095441Y-14717674D02*
X16114489Y-14708150D01*
X16114489Y-14708150D02*
X16143060Y-14708150D01*
X16143060Y-14708150D02*
X16162108Y-14717674D01*
X16162108Y-14717674D02*
X16171632Y-14736722D01*
X16171632Y-14736722D02*
X16171632Y-14841484D01*
X16171632Y-14736722D02*
X16181155Y-14717674D01*
X16181155Y-14717674D02*
X16200203Y-14708150D01*
X16200203Y-14708150D02*
X16228774Y-14708150D01*
X16228774Y-14708150D02*
X16247822Y-14717674D01*
X16247822Y-14717674D02*
X16257346Y-14736722D01*
X16257346Y-14736722D02*
X16257346Y-14841484D01*
X16352584Y-14841484D02*
X16352584Y-14708150D01*
X16352584Y-14727198D02*
X16362108Y-14717674D01*
X16362108Y-14717674D02*
X16381155Y-14708150D01*
X16381155Y-14708150D02*
X16409727Y-14708150D01*
X16409727Y-14708150D02*
X16428775Y-14717674D01*
X16428775Y-14717674D02*
X16438298Y-14736722D01*
X16438298Y-14736722D02*
X16438298Y-14841484D01*
X16438298Y-14736722D02*
X16447822Y-14717674D01*
X16447822Y-14717674D02*
X16466870Y-14708150D01*
X16466870Y-14708150D02*
X16495441Y-14708150D01*
X16495441Y-14708150D02*
X16514489Y-14717674D01*
X16514489Y-14717674D02*
X16524013Y-14736722D01*
X16524013Y-14736722D02*
X16524013Y-14841484D01*
X16914489Y-14631960D02*
X16743060Y-14889103D01*
X17171632Y-14641484D02*
X17190680Y-14641484D01*
X17190680Y-14641484D02*
X17209727Y-14651008D01*
X17209727Y-14651008D02*
X17219251Y-14660531D01*
X17219251Y-14660531D02*
X17228775Y-14679579D01*
X17228775Y-14679579D02*
X17238299Y-14717674D01*
X17238299Y-14717674D02*
X17238299Y-14765293D01*
X17238299Y-14765293D02*
X17228775Y-14803388D01*
X17228775Y-14803388D02*
X17219251Y-14822436D01*
X17219251Y-14822436D02*
X17209727Y-14831960D01*
X17209727Y-14831960D02*
X17190680Y-14841484D01*
X17190680Y-14841484D02*
X17171632Y-14841484D01*
X17171632Y-14841484D02*
X17152584Y-14831960D01*
X17152584Y-14831960D02*
X17143060Y-14822436D01*
X17143060Y-14822436D02*
X17133537Y-14803388D01*
X17133537Y-14803388D02*
X17124013Y-14765293D01*
X17124013Y-14765293D02*
X17124013Y-14717674D01*
X17124013Y-14717674D02*
X17133537Y-14679579D01*
X17133537Y-14679579D02*
X17143060Y-14660531D01*
X17143060Y-14660531D02*
X17152584Y-14651008D01*
X17152584Y-14651008D02*
X17171632Y-14641484D01*
X17324013Y-14822436D02*
X17333537Y-14831960D01*
X17333537Y-14831960D02*
X17324013Y-14841484D01*
X17324013Y-14841484D02*
X17314489Y-14831960D01*
X17314489Y-14831960D02*
X17324013Y-14822436D01*
X17324013Y-14822436D02*
X17324013Y-14841484D01*
X17457346Y-14641484D02*
X17476394Y-14641484D01*
X17476394Y-14641484D02*
X17495441Y-14651008D01*
X17495441Y-14651008D02*
X17504965Y-14660531D01*
X17504965Y-14660531D02*
X17514489Y-14679579D01*
X17514489Y-14679579D02*
X17524013Y-14717674D01*
X17524013Y-14717674D02*
X17524013Y-14765293D01*
X17524013Y-14765293D02*
X17514489Y-14803388D01*
X17514489Y-14803388D02*
X17504965Y-14822436D01*
X17504965Y-14822436D02*
X17495441Y-14831960D01*
X17495441Y-14831960D02*
X17476394Y-14841484D01*
X17476394Y-14841484D02*
X17457346Y-14841484D01*
X17457346Y-14841484D02*
X17438299Y-14831960D01*
X17438299Y-14831960D02*
X17428775Y-14822436D01*
X17428775Y-14822436D02*
X17419251Y-14803388D01*
X17419251Y-14803388D02*
X17409727Y-14765293D01*
X17409727Y-14765293D02*
X17409727Y-14717674D01*
X17409727Y-14717674D02*
X17419251Y-14679579D01*
X17419251Y-14679579D02*
X17428775Y-14660531D01*
X17428775Y-14660531D02*
X17438299Y-14651008D01*
X17438299Y-14651008D02*
X17457346Y-14641484D01*
X17714489Y-14841484D02*
X17600203Y-14841484D01*
X17657346Y-14841484D02*
X17657346Y-14641484D01*
X17657346Y-14641484D02*
X17638299Y-14670055D01*
X17638299Y-14670055D02*
X17619251Y-14689103D01*
X17619251Y-14689103D02*
X17600203Y-14698627D01*
X17904965Y-14841484D02*
X17790680Y-14841484D01*
X17847822Y-14841484D02*
X17847822Y-14641484D01*
X17847822Y-14641484D02*
X17828775Y-14670055D01*
X17828775Y-14670055D02*
X17809727Y-14689103D01*
X17809727Y-14689103D02*
X17790680Y-14698627D01*
X18019251Y-14727198D02*
X18000203Y-14717674D01*
X18000203Y-14717674D02*
X17990680Y-14708150D01*
X17990680Y-14708150D02*
X17981156Y-14689103D01*
X17981156Y-14689103D02*
X17981156Y-14679579D01*
X17981156Y-14679579D02*
X17990680Y-14660531D01*
X17990680Y-14660531D02*
X18000203Y-14651008D01*
X18000203Y-14651008D02*
X18019251Y-14641484D01*
X18019251Y-14641484D02*
X18057346Y-14641484D01*
X18057346Y-14641484D02*
X18076394Y-14651008D01*
X18076394Y-14651008D02*
X18085918Y-14660531D01*
X18085918Y-14660531D02*
X18095441Y-14679579D01*
X18095441Y-14679579D02*
X18095441Y-14689103D01*
X18095441Y-14689103D02*
X18085918Y-14708150D01*
X18085918Y-14708150D02*
X18076394Y-14717674D01*
X18076394Y-14717674D02*
X18057346Y-14727198D01*
X18057346Y-14727198D02*
X18019251Y-14727198D01*
X18019251Y-14727198D02*
X18000203Y-14736722D01*
X18000203Y-14736722D02*
X17990680Y-14746246D01*
X17990680Y-14746246D02*
X17981156Y-14765293D01*
X17981156Y-14765293D02*
X17981156Y-14803388D01*
X17981156Y-14803388D02*
X17990680Y-14822436D01*
X17990680Y-14822436D02*
X18000203Y-14831960D01*
X18000203Y-14831960D02*
X18019251Y-14841484D01*
X18019251Y-14841484D02*
X18057346Y-14841484D01*
X18057346Y-14841484D02*
X18076394Y-14831960D01*
X18076394Y-14831960D02*
X18085918Y-14822436D01*
X18085918Y-14822436D02*
X18095441Y-14803388D01*
X18095441Y-14803388D02*
X18095441Y-14765293D01*
X18095441Y-14765293D02*
X18085918Y-14746246D01*
X18085918Y-14746246D02*
X18076394Y-14736722D01*
X18076394Y-14736722D02*
X18057346Y-14727198D01*
X18171632Y-14641484D02*
X18171632Y-14679579D01*
X18247822Y-14641484D02*
X18247822Y-14679579D01*
X18543061Y-14917674D02*
X18533537Y-14908150D01*
X18533537Y-14908150D02*
X18514489Y-14879579D01*
X18514489Y-14879579D02*
X18504965Y-14860531D01*
X18504965Y-14860531D02*
X18495442Y-14831960D01*
X18495442Y-14831960D02*
X18485918Y-14784341D01*
X18485918Y-14784341D02*
X18485918Y-14746246D01*
X18485918Y-14746246D02*
X18495442Y-14698627D01*
X18495442Y-14698627D02*
X18504965Y-14670055D01*
X18504965Y-14670055D02*
X18514489Y-14651008D01*
X18514489Y-14651008D02*
X18533537Y-14622436D01*
X18533537Y-14622436D02*
X18543061Y-14612912D01*
X18704965Y-14641484D02*
X18666870Y-14641484D01*
X18666870Y-14641484D02*
X18647822Y-14651008D01*
X18647822Y-14651008D02*
X18638299Y-14660531D01*
X18638299Y-14660531D02*
X18619251Y-14689103D01*
X18619251Y-14689103D02*
X18609727Y-14727198D01*
X18609727Y-14727198D02*
X18609727Y-14803388D01*
X18609727Y-14803388D02*
X18619251Y-14822436D01*
X18619251Y-14822436D02*
X18628775Y-14831960D01*
X18628775Y-14831960D02*
X18647822Y-14841484D01*
X18647822Y-14841484D02*
X18685918Y-14841484D01*
X18685918Y-14841484D02*
X18704965Y-14831960D01*
X18704965Y-14831960D02*
X18714489Y-14822436D01*
X18714489Y-14822436D02*
X18724013Y-14803388D01*
X18724013Y-14803388D02*
X18724013Y-14755769D01*
X18724013Y-14755769D02*
X18714489Y-14736722D01*
X18714489Y-14736722D02*
X18704965Y-14727198D01*
X18704965Y-14727198D02*
X18685918Y-14717674D01*
X18685918Y-14717674D02*
X18647822Y-14717674D01*
X18647822Y-14717674D02*
X18628775Y-14727198D01*
X18628775Y-14727198D02*
X18619251Y-14736722D01*
X18619251Y-14736722D02*
X18609727Y-14755769D01*
X18895442Y-14708150D02*
X18895442Y-14841484D01*
X18847822Y-14631960D02*
X18800203Y-14774817D01*
X18800203Y-14774817D02*
X18924013Y-14774817D01*
X19152584Y-14841484D02*
X19152584Y-14641484D01*
X19238299Y-14841484D02*
X19238299Y-14736722D01*
X19238299Y-14736722D02*
X19228775Y-14717674D01*
X19228775Y-14717674D02*
X19209727Y-14708150D01*
X19209727Y-14708150D02*
X19181156Y-14708150D01*
X19181156Y-14708150D02*
X19162108Y-14717674D01*
X19162108Y-14717674D02*
X19152584Y-14727198D01*
X19362108Y-14841484D02*
X19343061Y-14831960D01*
X19343061Y-14831960D02*
X19333537Y-14822436D01*
X19333537Y-14822436D02*
X19324013Y-14803388D01*
X19324013Y-14803388D02*
X19324013Y-14746246D01*
X19324013Y-14746246D02*
X19333537Y-14727198D01*
X19333537Y-14727198D02*
X19343061Y-14717674D01*
X19343061Y-14717674D02*
X19362108Y-14708150D01*
X19362108Y-14708150D02*
X19390680Y-14708150D01*
X19390680Y-14708150D02*
X19409727Y-14717674D01*
X19409727Y-14717674D02*
X19419251Y-14727198D01*
X19419251Y-14727198D02*
X19428775Y-14746246D01*
X19428775Y-14746246D02*
X19428775Y-14803388D01*
X19428775Y-14803388D02*
X19419251Y-14822436D01*
X19419251Y-14822436D02*
X19409727Y-14831960D01*
X19409727Y-14831960D02*
X19390680Y-14841484D01*
X19390680Y-14841484D02*
X19362108Y-14841484D01*
X19543061Y-14841484D02*
X19524013Y-14831960D01*
X19524013Y-14831960D02*
X19514489Y-14812912D01*
X19514489Y-14812912D02*
X19514489Y-14641484D01*
X19695442Y-14831960D02*
X19676394Y-14841484D01*
X19676394Y-14841484D02*
X19638299Y-14841484D01*
X19638299Y-14841484D02*
X19619251Y-14831960D01*
X19619251Y-14831960D02*
X19609727Y-14812912D01*
X19609727Y-14812912D02*
X19609727Y-14736722D01*
X19609727Y-14736722D02*
X19619251Y-14717674D01*
X19619251Y-14717674D02*
X19638299Y-14708150D01*
X19638299Y-14708150D02*
X19676394Y-14708150D01*
X19676394Y-14708150D02*
X19695442Y-14717674D01*
X19695442Y-14717674D02*
X19704965Y-14736722D01*
X19704965Y-14736722D02*
X19704965Y-14755769D01*
X19704965Y-14755769D02*
X19609727Y-14774817D01*
X19781156Y-14831960D02*
X19800204Y-14841484D01*
X19800204Y-14841484D02*
X19838299Y-14841484D01*
X19838299Y-14841484D02*
X19857346Y-14831960D01*
X19857346Y-14831960D02*
X19866870Y-14812912D01*
X19866870Y-14812912D02*
X19866870Y-14803388D01*
X19866870Y-14803388D02*
X19857346Y-14784341D01*
X19857346Y-14784341D02*
X19838299Y-14774817D01*
X19838299Y-14774817D02*
X19809727Y-14774817D01*
X19809727Y-14774817D02*
X19790680Y-14765293D01*
X19790680Y-14765293D02*
X19781156Y-14746246D01*
X19781156Y-14746246D02*
X19781156Y-14736722D01*
X19781156Y-14736722D02*
X19790680Y-14717674D01*
X19790680Y-14717674D02*
X19809727Y-14708150D01*
X19809727Y-14708150D02*
X19838299Y-14708150D01*
X19838299Y-14708150D02*
X19857346Y-14717674D01*
X19933537Y-14917674D02*
X19943061Y-14908150D01*
X19943061Y-14908150D02*
X19962108Y-14879579D01*
X19962108Y-14879579D02*
X19971632Y-14860531D01*
X19971632Y-14860531D02*
X19981156Y-14831960D01*
X19981156Y-14831960D02*
X19990680Y-14784341D01*
X19990680Y-14784341D02*
X19990680Y-14746246D01*
X19990680Y-14746246D02*
X19981156Y-14698627D01*
X19981156Y-14698627D02*
X19971632Y-14670055D01*
X19971632Y-14670055D02*
X19962108Y-14651008D01*
X19962108Y-14651008D02*
X19943061Y-14622436D01*
X19943061Y-14622436D02*
X19933537Y-14612912D01*
D11*
X14967998Y-15014000D02*
G75*
G02*
X14886718Y-15014000I-40640J0D01*
G01*
X14886718Y-15014000D02*
G75*
G02*
X14967998Y-15014000I40640J0D01*
G01*
D10*
X15266870Y-14905484D02*
X15285917Y-14905484D01*
X15285917Y-14905484D02*
X15304965Y-14915008D01*
X15304965Y-14915008D02*
X15314489Y-14924531D01*
X15314489Y-14924531D02*
X15324013Y-14943579D01*
X15324013Y-14943579D02*
X15333536Y-14981674D01*
X15333536Y-14981674D02*
X15333536Y-15029293D01*
X15333536Y-15029293D02*
X15324013Y-15067388D01*
X15324013Y-15067388D02*
X15314489Y-15086436D01*
X15314489Y-15086436D02*
X15304965Y-15095960D01*
X15304965Y-15095960D02*
X15285917Y-15105484D01*
X15285917Y-15105484D02*
X15266870Y-15105484D01*
X15266870Y-15105484D02*
X15247822Y-15095960D01*
X15247822Y-15095960D02*
X15238298Y-15086436D01*
X15238298Y-15086436D02*
X15228774Y-15067388D01*
X15228774Y-15067388D02*
X15219251Y-15029293D01*
X15219251Y-15029293D02*
X15219251Y-14981674D01*
X15219251Y-14981674D02*
X15228774Y-14943579D01*
X15228774Y-14943579D02*
X15238298Y-14924531D01*
X15238298Y-14924531D02*
X15247822Y-14915008D01*
X15247822Y-14915008D02*
X15266870Y-14905484D01*
X15419251Y-15086436D02*
X15428774Y-15095960D01*
X15428774Y-15095960D02*
X15419251Y-15105484D01*
X15419251Y-15105484D02*
X15409727Y-15095960D01*
X15409727Y-15095960D02*
X15419251Y-15086436D01*
X15419251Y-15086436D02*
X15419251Y-15105484D01*
X15543060Y-14991198D02*
X15524013Y-14981674D01*
X15524013Y-14981674D02*
X15514489Y-14972150D01*
X15514489Y-14972150D02*
X15504965Y-14953103D01*
X15504965Y-14953103D02*
X15504965Y-14943579D01*
X15504965Y-14943579D02*
X15514489Y-14924531D01*
X15514489Y-14924531D02*
X15524013Y-14915008D01*
X15524013Y-14915008D02*
X15543060Y-14905484D01*
X15543060Y-14905484D02*
X15581155Y-14905484D01*
X15581155Y-14905484D02*
X15600203Y-14915008D01*
X15600203Y-14915008D02*
X15609727Y-14924531D01*
X15609727Y-14924531D02*
X15619251Y-14943579D01*
X15619251Y-14943579D02*
X15619251Y-14953103D01*
X15619251Y-14953103D02*
X15609727Y-14972150D01*
X15609727Y-14972150D02*
X15600203Y-14981674D01*
X15600203Y-14981674D02*
X15581155Y-14991198D01*
X15581155Y-14991198D02*
X15543060Y-14991198D01*
X15543060Y-14991198D02*
X15524013Y-15000722D01*
X15524013Y-15000722D02*
X15514489Y-15010246D01*
X15514489Y-15010246D02*
X15504965Y-15029293D01*
X15504965Y-15029293D02*
X15504965Y-15067388D01*
X15504965Y-15067388D02*
X15514489Y-15086436D01*
X15514489Y-15086436D02*
X15524013Y-15095960D01*
X15524013Y-15095960D02*
X15543060Y-15105484D01*
X15543060Y-15105484D02*
X15581155Y-15105484D01*
X15581155Y-15105484D02*
X15600203Y-15095960D01*
X15600203Y-15095960D02*
X15609727Y-15086436D01*
X15609727Y-15086436D02*
X15619251Y-15067388D01*
X15619251Y-15067388D02*
X15619251Y-15029293D01*
X15619251Y-15029293D02*
X15609727Y-15010246D01*
X15609727Y-15010246D02*
X15600203Y-15000722D01*
X15600203Y-15000722D02*
X15581155Y-14991198D01*
X15809727Y-15105484D02*
X15695441Y-15105484D01*
X15752584Y-15105484D02*
X15752584Y-14905484D01*
X15752584Y-14905484D02*
X15733536Y-14934055D01*
X15733536Y-14934055D02*
X15714489Y-14953103D01*
X15714489Y-14953103D02*
X15695441Y-14962627D01*
X15876394Y-14905484D02*
X16000203Y-14905484D01*
X16000203Y-14905484D02*
X15933536Y-14981674D01*
X15933536Y-14981674D02*
X15962108Y-14981674D01*
X15962108Y-14981674D02*
X15981155Y-14991198D01*
X15981155Y-14991198D02*
X15990679Y-15000722D01*
X15990679Y-15000722D02*
X16000203Y-15019769D01*
X16000203Y-15019769D02*
X16000203Y-15067388D01*
X16000203Y-15067388D02*
X15990679Y-15086436D01*
X15990679Y-15086436D02*
X15981155Y-15095960D01*
X15981155Y-15095960D02*
X15962108Y-15105484D01*
X15962108Y-15105484D02*
X15904965Y-15105484D01*
X15904965Y-15105484D02*
X15885917Y-15095960D01*
X15885917Y-15095960D02*
X15876394Y-15086436D01*
X16085917Y-15105484D02*
X16085917Y-14972150D01*
X16085917Y-14991198D02*
X16095441Y-14981674D01*
X16095441Y-14981674D02*
X16114489Y-14972150D01*
X16114489Y-14972150D02*
X16143060Y-14972150D01*
X16143060Y-14972150D02*
X16162108Y-14981674D01*
X16162108Y-14981674D02*
X16171632Y-15000722D01*
X16171632Y-15000722D02*
X16171632Y-15105484D01*
X16171632Y-15000722D02*
X16181155Y-14981674D01*
X16181155Y-14981674D02*
X16200203Y-14972150D01*
X16200203Y-14972150D02*
X16228774Y-14972150D01*
X16228774Y-14972150D02*
X16247822Y-14981674D01*
X16247822Y-14981674D02*
X16257346Y-15000722D01*
X16257346Y-15000722D02*
X16257346Y-15105484D01*
X16352584Y-15105484D02*
X16352584Y-14972150D01*
X16352584Y-14991198D02*
X16362108Y-14981674D01*
X16362108Y-14981674D02*
X16381155Y-14972150D01*
X16381155Y-14972150D02*
X16409727Y-14972150D01*
X16409727Y-14972150D02*
X16428775Y-14981674D01*
X16428775Y-14981674D02*
X16438298Y-15000722D01*
X16438298Y-15000722D02*
X16438298Y-15105484D01*
X16438298Y-15000722D02*
X16447822Y-14981674D01*
X16447822Y-14981674D02*
X16466870Y-14972150D01*
X16466870Y-14972150D02*
X16495441Y-14972150D01*
X16495441Y-14972150D02*
X16514489Y-14981674D01*
X16514489Y-14981674D02*
X16524013Y-15000722D01*
X16524013Y-15000722D02*
X16524013Y-15105484D01*
X16914489Y-14895960D02*
X16743060Y-15153103D01*
X17171632Y-14905484D02*
X17190680Y-14905484D01*
X17190680Y-14905484D02*
X17209727Y-14915008D01*
X17209727Y-14915008D02*
X17219251Y-14924531D01*
X17219251Y-14924531D02*
X17228775Y-14943579D01*
X17228775Y-14943579D02*
X17238299Y-14981674D01*
X17238299Y-14981674D02*
X17238299Y-15029293D01*
X17238299Y-15029293D02*
X17228775Y-15067388D01*
X17228775Y-15067388D02*
X17219251Y-15086436D01*
X17219251Y-15086436D02*
X17209727Y-15095960D01*
X17209727Y-15095960D02*
X17190680Y-15105484D01*
X17190680Y-15105484D02*
X17171632Y-15105484D01*
X17171632Y-15105484D02*
X17152584Y-15095960D01*
X17152584Y-15095960D02*
X17143060Y-15086436D01*
X17143060Y-15086436D02*
X17133537Y-15067388D01*
X17133537Y-15067388D02*
X17124013Y-15029293D01*
X17124013Y-15029293D02*
X17124013Y-14981674D01*
X17124013Y-14981674D02*
X17133537Y-14943579D01*
X17133537Y-14943579D02*
X17143060Y-14924531D01*
X17143060Y-14924531D02*
X17152584Y-14915008D01*
X17152584Y-14915008D02*
X17171632Y-14905484D01*
X17324013Y-15086436D02*
X17333537Y-15095960D01*
X17333537Y-15095960D02*
X17324013Y-15105484D01*
X17324013Y-15105484D02*
X17314489Y-15095960D01*
X17314489Y-15095960D02*
X17324013Y-15086436D01*
X17324013Y-15086436D02*
X17324013Y-15105484D01*
X17457346Y-14905484D02*
X17476394Y-14905484D01*
X17476394Y-14905484D02*
X17495441Y-14915008D01*
X17495441Y-14915008D02*
X17504965Y-14924531D01*
X17504965Y-14924531D02*
X17514489Y-14943579D01*
X17514489Y-14943579D02*
X17524013Y-14981674D01*
X17524013Y-14981674D02*
X17524013Y-15029293D01*
X17524013Y-15029293D02*
X17514489Y-15067388D01*
X17514489Y-15067388D02*
X17504965Y-15086436D01*
X17504965Y-15086436D02*
X17495441Y-15095960D01*
X17495441Y-15095960D02*
X17476394Y-15105484D01*
X17476394Y-15105484D02*
X17457346Y-15105484D01*
X17457346Y-15105484D02*
X17438299Y-15095960D01*
X17438299Y-15095960D02*
X17428775Y-15086436D01*
X17428775Y-15086436D02*
X17419251Y-15067388D01*
X17419251Y-15067388D02*
X17409727Y-15029293D01*
X17409727Y-15029293D02*
X17409727Y-14981674D01*
X17409727Y-14981674D02*
X17419251Y-14943579D01*
X17419251Y-14943579D02*
X17428775Y-14924531D01*
X17428775Y-14924531D02*
X17438299Y-14915008D01*
X17438299Y-14915008D02*
X17457346Y-14905484D01*
X17590680Y-14905484D02*
X17714489Y-14905484D01*
X17714489Y-14905484D02*
X17647822Y-14981674D01*
X17647822Y-14981674D02*
X17676394Y-14981674D01*
X17676394Y-14981674D02*
X17695441Y-14991198D01*
X17695441Y-14991198D02*
X17704965Y-15000722D01*
X17704965Y-15000722D02*
X17714489Y-15019769D01*
X17714489Y-15019769D02*
X17714489Y-15067388D01*
X17714489Y-15067388D02*
X17704965Y-15086436D01*
X17704965Y-15086436D02*
X17695441Y-15095960D01*
X17695441Y-15095960D02*
X17676394Y-15105484D01*
X17676394Y-15105484D02*
X17619251Y-15105484D01*
X17619251Y-15105484D02*
X17600203Y-15095960D01*
X17600203Y-15095960D02*
X17590680Y-15086436D01*
X17790680Y-14924531D02*
X17800203Y-14915008D01*
X17800203Y-14915008D02*
X17819251Y-14905484D01*
X17819251Y-14905484D02*
X17866870Y-14905484D01*
X17866870Y-14905484D02*
X17885918Y-14915008D01*
X17885918Y-14915008D02*
X17895441Y-14924531D01*
X17895441Y-14924531D02*
X17904965Y-14943579D01*
X17904965Y-14943579D02*
X17904965Y-14962627D01*
X17904965Y-14962627D02*
X17895441Y-14991198D01*
X17895441Y-14991198D02*
X17781156Y-15105484D01*
X17781156Y-15105484D02*
X17904965Y-15105484D01*
X18028775Y-14905484D02*
X18047822Y-14905484D01*
X18047822Y-14905484D02*
X18066870Y-14915008D01*
X18066870Y-14915008D02*
X18076394Y-14924531D01*
X18076394Y-14924531D02*
X18085918Y-14943579D01*
X18085918Y-14943579D02*
X18095441Y-14981674D01*
X18095441Y-14981674D02*
X18095441Y-15029293D01*
X18095441Y-15029293D02*
X18085918Y-15067388D01*
X18085918Y-15067388D02*
X18076394Y-15086436D01*
X18076394Y-15086436D02*
X18066870Y-15095960D01*
X18066870Y-15095960D02*
X18047822Y-15105484D01*
X18047822Y-15105484D02*
X18028775Y-15105484D01*
X18028775Y-15105484D02*
X18009727Y-15095960D01*
X18009727Y-15095960D02*
X18000203Y-15086436D01*
X18000203Y-15086436D02*
X17990680Y-15067388D01*
X17990680Y-15067388D02*
X17981156Y-15029293D01*
X17981156Y-15029293D02*
X17981156Y-14981674D01*
X17981156Y-14981674D02*
X17990680Y-14943579D01*
X17990680Y-14943579D02*
X18000203Y-14924531D01*
X18000203Y-14924531D02*
X18009727Y-14915008D01*
X18009727Y-14915008D02*
X18028775Y-14905484D01*
X18171632Y-14905484D02*
X18171632Y-14943579D01*
X18247822Y-14905484D02*
X18247822Y-14943579D01*
X18543061Y-15181674D02*
X18533537Y-15172150D01*
X18533537Y-15172150D02*
X18514489Y-15143579D01*
X18514489Y-15143579D02*
X18504965Y-15124531D01*
X18504965Y-15124531D02*
X18495442Y-15095960D01*
X18495442Y-15095960D02*
X18485918Y-15048341D01*
X18485918Y-15048341D02*
X18485918Y-15010246D01*
X18485918Y-15010246D02*
X18495442Y-14962627D01*
X18495442Y-14962627D02*
X18504965Y-14934055D01*
X18504965Y-14934055D02*
X18514489Y-14915008D01*
X18514489Y-14915008D02*
X18533537Y-14886436D01*
X18533537Y-14886436D02*
X18543061Y-14876912D01*
X18647822Y-14991198D02*
X18628775Y-14981674D01*
X18628775Y-14981674D02*
X18619251Y-14972150D01*
X18619251Y-14972150D02*
X18609727Y-14953103D01*
X18609727Y-14953103D02*
X18609727Y-14943579D01*
X18609727Y-14943579D02*
X18619251Y-14924531D01*
X18619251Y-14924531D02*
X18628775Y-14915008D01*
X18628775Y-14915008D02*
X18647822Y-14905484D01*
X18647822Y-14905484D02*
X18685918Y-14905484D01*
X18685918Y-14905484D02*
X18704965Y-14915008D01*
X18704965Y-14915008D02*
X18714489Y-14924531D01*
X18714489Y-14924531D02*
X18724013Y-14943579D01*
X18724013Y-14943579D02*
X18724013Y-14953103D01*
X18724013Y-14953103D02*
X18714489Y-14972150D01*
X18714489Y-14972150D02*
X18704965Y-14981674D01*
X18704965Y-14981674D02*
X18685918Y-14991198D01*
X18685918Y-14991198D02*
X18647822Y-14991198D01*
X18647822Y-14991198D02*
X18628775Y-15000722D01*
X18628775Y-15000722D02*
X18619251Y-15010246D01*
X18619251Y-15010246D02*
X18609727Y-15029293D01*
X18609727Y-15029293D02*
X18609727Y-15067388D01*
X18609727Y-15067388D02*
X18619251Y-15086436D01*
X18619251Y-15086436D02*
X18628775Y-15095960D01*
X18628775Y-15095960D02*
X18647822Y-15105484D01*
X18647822Y-15105484D02*
X18685918Y-15105484D01*
X18685918Y-15105484D02*
X18704965Y-15095960D01*
X18704965Y-15095960D02*
X18714489Y-15086436D01*
X18714489Y-15086436D02*
X18724013Y-15067388D01*
X18724013Y-15067388D02*
X18724013Y-15029293D01*
X18724013Y-15029293D02*
X18714489Y-15010246D01*
X18714489Y-15010246D02*
X18704965Y-15000722D01*
X18704965Y-15000722D02*
X18685918Y-14991198D01*
X18838299Y-14991198D02*
X18819251Y-14981674D01*
X18819251Y-14981674D02*
X18809727Y-14972150D01*
X18809727Y-14972150D02*
X18800203Y-14953103D01*
X18800203Y-14953103D02*
X18800203Y-14943579D01*
X18800203Y-14943579D02*
X18809727Y-14924531D01*
X18809727Y-14924531D02*
X18819251Y-14915008D01*
X18819251Y-14915008D02*
X18838299Y-14905484D01*
X18838299Y-14905484D02*
X18876394Y-14905484D01*
X18876394Y-14905484D02*
X18895442Y-14915008D01*
X18895442Y-14915008D02*
X18904965Y-14924531D01*
X18904965Y-14924531D02*
X18914489Y-14943579D01*
X18914489Y-14943579D02*
X18914489Y-14953103D01*
X18914489Y-14953103D02*
X18904965Y-14972150D01*
X18904965Y-14972150D02*
X18895442Y-14981674D01*
X18895442Y-14981674D02*
X18876394Y-14991198D01*
X18876394Y-14991198D02*
X18838299Y-14991198D01*
X18838299Y-14991198D02*
X18819251Y-15000722D01*
X18819251Y-15000722D02*
X18809727Y-15010246D01*
X18809727Y-15010246D02*
X18800203Y-15029293D01*
X18800203Y-15029293D02*
X18800203Y-15067388D01*
X18800203Y-15067388D02*
X18809727Y-15086436D01*
X18809727Y-15086436D02*
X18819251Y-15095960D01*
X18819251Y-15095960D02*
X18838299Y-15105484D01*
X18838299Y-15105484D02*
X18876394Y-15105484D01*
X18876394Y-15105484D02*
X18895442Y-15095960D01*
X18895442Y-15095960D02*
X18904965Y-15086436D01*
X18904965Y-15086436D02*
X18914489Y-15067388D01*
X18914489Y-15067388D02*
X18914489Y-15029293D01*
X18914489Y-15029293D02*
X18904965Y-15010246D01*
X18904965Y-15010246D02*
X18895442Y-15000722D01*
X18895442Y-15000722D02*
X18876394Y-14991198D01*
X19152584Y-15105484D02*
X19152584Y-14905484D01*
X19238299Y-15105484D02*
X19238299Y-15000722D01*
X19238299Y-15000722D02*
X19228775Y-14981674D01*
X19228775Y-14981674D02*
X19209727Y-14972150D01*
X19209727Y-14972150D02*
X19181156Y-14972150D01*
X19181156Y-14972150D02*
X19162108Y-14981674D01*
X19162108Y-14981674D02*
X19152584Y-14991198D01*
X19362108Y-15105484D02*
X19343061Y-15095960D01*
X19343061Y-15095960D02*
X19333537Y-15086436D01*
X19333537Y-15086436D02*
X19324013Y-15067388D01*
X19324013Y-15067388D02*
X19324013Y-15010246D01*
X19324013Y-15010246D02*
X19333537Y-14991198D01*
X19333537Y-14991198D02*
X19343061Y-14981674D01*
X19343061Y-14981674D02*
X19362108Y-14972150D01*
X19362108Y-14972150D02*
X19390680Y-14972150D01*
X19390680Y-14972150D02*
X19409727Y-14981674D01*
X19409727Y-14981674D02*
X19419251Y-14991198D01*
X19419251Y-14991198D02*
X19428775Y-15010246D01*
X19428775Y-15010246D02*
X19428775Y-15067388D01*
X19428775Y-15067388D02*
X19419251Y-15086436D01*
X19419251Y-15086436D02*
X19409727Y-15095960D01*
X19409727Y-15095960D02*
X19390680Y-15105484D01*
X19390680Y-15105484D02*
X19362108Y-15105484D01*
X19543061Y-15105484D02*
X19524013Y-15095960D01*
X19524013Y-15095960D02*
X19514489Y-15076912D01*
X19514489Y-15076912D02*
X19514489Y-14905484D01*
X19695442Y-15095960D02*
X19676394Y-15105484D01*
X19676394Y-15105484D02*
X19638299Y-15105484D01*
X19638299Y-15105484D02*
X19619251Y-15095960D01*
X19619251Y-15095960D02*
X19609727Y-15076912D01*
X19609727Y-15076912D02*
X19609727Y-15000722D01*
X19609727Y-15000722D02*
X19619251Y-14981674D01*
X19619251Y-14981674D02*
X19638299Y-14972150D01*
X19638299Y-14972150D02*
X19676394Y-14972150D01*
X19676394Y-14972150D02*
X19695442Y-14981674D01*
X19695442Y-14981674D02*
X19704965Y-15000722D01*
X19704965Y-15000722D02*
X19704965Y-15019769D01*
X19704965Y-15019769D02*
X19609727Y-15038817D01*
X19781156Y-15095960D02*
X19800204Y-15105484D01*
X19800204Y-15105484D02*
X19838299Y-15105484D01*
X19838299Y-15105484D02*
X19857346Y-15095960D01*
X19857346Y-15095960D02*
X19866870Y-15076912D01*
X19866870Y-15076912D02*
X19866870Y-15067388D01*
X19866870Y-15067388D02*
X19857346Y-15048341D01*
X19857346Y-15048341D02*
X19838299Y-15038817D01*
X19838299Y-15038817D02*
X19809727Y-15038817D01*
X19809727Y-15038817D02*
X19790680Y-15029293D01*
X19790680Y-15029293D02*
X19781156Y-15010246D01*
X19781156Y-15010246D02*
X19781156Y-15000722D01*
X19781156Y-15000722D02*
X19790680Y-14981674D01*
X19790680Y-14981674D02*
X19809727Y-14972150D01*
X19809727Y-14972150D02*
X19838299Y-14972150D01*
X19838299Y-14972150D02*
X19857346Y-14981674D01*
X19933537Y-15181674D02*
X19943061Y-15172150D01*
X19943061Y-15172150D02*
X19962108Y-15143579D01*
X19962108Y-15143579D02*
X19971632Y-15124531D01*
X19971632Y-15124531D02*
X19981156Y-15095960D01*
X19981156Y-15095960D02*
X19990680Y-15048341D01*
X19990680Y-15048341D02*
X19990680Y-15010246D01*
X19990680Y-15010246D02*
X19981156Y-14962627D01*
X19981156Y-14962627D02*
X19971632Y-14934055D01*
X19971632Y-14934055D02*
X19962108Y-14915008D01*
X19962108Y-14915008D02*
X19943061Y-14886436D01*
X19943061Y-14886436D02*
X19933537Y-14876912D01*
D11*
X14917998Y-15228000D02*
X14917998Y-15328000D01*
X14867998Y-15278000D02*
X14967998Y-15278000D01*
D10*
X15333536Y-15369484D02*
X15219251Y-15369484D01*
X15276393Y-15369484D02*
X15276393Y-15169484D01*
X15276393Y-15169484D02*
X15257346Y-15198055D01*
X15257346Y-15198055D02*
X15238298Y-15217103D01*
X15238298Y-15217103D02*
X15219251Y-15226627D01*
X15419251Y-15350436D02*
X15428774Y-15359960D01*
X15428774Y-15359960D02*
X15419251Y-15369484D01*
X15419251Y-15369484D02*
X15409727Y-15359960D01*
X15409727Y-15359960D02*
X15419251Y-15350436D01*
X15419251Y-15350436D02*
X15419251Y-15369484D01*
X15552584Y-15169484D02*
X15571632Y-15169484D01*
X15571632Y-15169484D02*
X15590679Y-15179008D01*
X15590679Y-15179008D02*
X15600203Y-15188531D01*
X15600203Y-15188531D02*
X15609727Y-15207579D01*
X15609727Y-15207579D02*
X15619251Y-15245674D01*
X15619251Y-15245674D02*
X15619251Y-15293293D01*
X15619251Y-15293293D02*
X15609727Y-15331388D01*
X15609727Y-15331388D02*
X15600203Y-15350436D01*
X15600203Y-15350436D02*
X15590679Y-15359960D01*
X15590679Y-15359960D02*
X15571632Y-15369484D01*
X15571632Y-15369484D02*
X15552584Y-15369484D01*
X15552584Y-15369484D02*
X15533536Y-15359960D01*
X15533536Y-15359960D02*
X15524013Y-15350436D01*
X15524013Y-15350436D02*
X15514489Y-15331388D01*
X15514489Y-15331388D02*
X15504965Y-15293293D01*
X15504965Y-15293293D02*
X15504965Y-15245674D01*
X15504965Y-15245674D02*
X15514489Y-15207579D01*
X15514489Y-15207579D02*
X15524013Y-15188531D01*
X15524013Y-15188531D02*
X15533536Y-15179008D01*
X15533536Y-15179008D02*
X15552584Y-15169484D01*
X15743060Y-15169484D02*
X15762108Y-15169484D01*
X15762108Y-15169484D02*
X15781155Y-15179008D01*
X15781155Y-15179008D02*
X15790679Y-15188531D01*
X15790679Y-15188531D02*
X15800203Y-15207579D01*
X15800203Y-15207579D02*
X15809727Y-15245674D01*
X15809727Y-15245674D02*
X15809727Y-15293293D01*
X15809727Y-15293293D02*
X15800203Y-15331388D01*
X15800203Y-15331388D02*
X15790679Y-15350436D01*
X15790679Y-15350436D02*
X15781155Y-15359960D01*
X15781155Y-15359960D02*
X15762108Y-15369484D01*
X15762108Y-15369484D02*
X15743060Y-15369484D01*
X15743060Y-15369484D02*
X15724013Y-15359960D01*
X15724013Y-15359960D02*
X15714489Y-15350436D01*
X15714489Y-15350436D02*
X15704965Y-15331388D01*
X15704965Y-15331388D02*
X15695441Y-15293293D01*
X15695441Y-15293293D02*
X15695441Y-15245674D01*
X15695441Y-15245674D02*
X15704965Y-15207579D01*
X15704965Y-15207579D02*
X15714489Y-15188531D01*
X15714489Y-15188531D02*
X15724013Y-15179008D01*
X15724013Y-15179008D02*
X15743060Y-15169484D01*
X15933536Y-15169484D02*
X15952584Y-15169484D01*
X15952584Y-15169484D02*
X15971632Y-15179008D01*
X15971632Y-15179008D02*
X15981155Y-15188531D01*
X15981155Y-15188531D02*
X15990679Y-15207579D01*
X15990679Y-15207579D02*
X16000203Y-15245674D01*
X16000203Y-15245674D02*
X16000203Y-15293293D01*
X16000203Y-15293293D02*
X15990679Y-15331388D01*
X15990679Y-15331388D02*
X15981155Y-15350436D01*
X15981155Y-15350436D02*
X15971632Y-15359960D01*
X15971632Y-15359960D02*
X15952584Y-15369484D01*
X15952584Y-15369484D02*
X15933536Y-15369484D01*
X15933536Y-15369484D02*
X15914489Y-15359960D01*
X15914489Y-15359960D02*
X15904965Y-15350436D01*
X15904965Y-15350436D02*
X15895441Y-15331388D01*
X15895441Y-15331388D02*
X15885917Y-15293293D01*
X15885917Y-15293293D02*
X15885917Y-15245674D01*
X15885917Y-15245674D02*
X15895441Y-15207579D01*
X15895441Y-15207579D02*
X15904965Y-15188531D01*
X15904965Y-15188531D02*
X15914489Y-15179008D01*
X15914489Y-15179008D02*
X15933536Y-15169484D01*
X16085917Y-15369484D02*
X16085917Y-15236150D01*
X16085917Y-15255198D02*
X16095441Y-15245674D01*
X16095441Y-15245674D02*
X16114489Y-15236150D01*
X16114489Y-15236150D02*
X16143060Y-15236150D01*
X16143060Y-15236150D02*
X16162108Y-15245674D01*
X16162108Y-15245674D02*
X16171632Y-15264722D01*
X16171632Y-15264722D02*
X16171632Y-15369484D01*
X16171632Y-15264722D02*
X16181155Y-15245674D01*
X16181155Y-15245674D02*
X16200203Y-15236150D01*
X16200203Y-15236150D02*
X16228774Y-15236150D01*
X16228774Y-15236150D02*
X16247822Y-15245674D01*
X16247822Y-15245674D02*
X16257346Y-15264722D01*
X16257346Y-15264722D02*
X16257346Y-15369484D01*
X16352584Y-15369484D02*
X16352584Y-15236150D01*
X16352584Y-15255198D02*
X16362108Y-15245674D01*
X16362108Y-15245674D02*
X16381155Y-15236150D01*
X16381155Y-15236150D02*
X16409727Y-15236150D01*
X16409727Y-15236150D02*
X16428775Y-15245674D01*
X16428775Y-15245674D02*
X16438298Y-15264722D01*
X16438298Y-15264722D02*
X16438298Y-15369484D01*
X16438298Y-15264722D02*
X16447822Y-15245674D01*
X16447822Y-15245674D02*
X16466870Y-15236150D01*
X16466870Y-15236150D02*
X16495441Y-15236150D01*
X16495441Y-15236150D02*
X16514489Y-15245674D01*
X16514489Y-15245674D02*
X16524013Y-15264722D01*
X16524013Y-15264722D02*
X16524013Y-15369484D01*
X16914489Y-15159960D02*
X16743060Y-15417103D01*
X17171632Y-15169484D02*
X17190680Y-15169484D01*
X17190680Y-15169484D02*
X17209727Y-15179008D01*
X17209727Y-15179008D02*
X17219251Y-15188531D01*
X17219251Y-15188531D02*
X17228775Y-15207579D01*
X17228775Y-15207579D02*
X17238299Y-15245674D01*
X17238299Y-15245674D02*
X17238299Y-15293293D01*
X17238299Y-15293293D02*
X17228775Y-15331388D01*
X17228775Y-15331388D02*
X17219251Y-15350436D01*
X17219251Y-15350436D02*
X17209727Y-15359960D01*
X17209727Y-15359960D02*
X17190680Y-15369484D01*
X17190680Y-15369484D02*
X17171632Y-15369484D01*
X17171632Y-15369484D02*
X17152584Y-15359960D01*
X17152584Y-15359960D02*
X17143060Y-15350436D01*
X17143060Y-15350436D02*
X17133537Y-15331388D01*
X17133537Y-15331388D02*
X17124013Y-15293293D01*
X17124013Y-15293293D02*
X17124013Y-15245674D01*
X17124013Y-15245674D02*
X17133537Y-15207579D01*
X17133537Y-15207579D02*
X17143060Y-15188531D01*
X17143060Y-15188531D02*
X17152584Y-15179008D01*
X17152584Y-15179008D02*
X17171632Y-15169484D01*
X17324013Y-15350436D02*
X17333537Y-15359960D01*
X17333537Y-15359960D02*
X17324013Y-15369484D01*
X17324013Y-15369484D02*
X17314489Y-15359960D01*
X17314489Y-15359960D02*
X17324013Y-15350436D01*
X17324013Y-15350436D02*
X17324013Y-15369484D01*
X17457346Y-15169484D02*
X17476394Y-15169484D01*
X17476394Y-15169484D02*
X17495441Y-15179008D01*
X17495441Y-15179008D02*
X17504965Y-15188531D01*
X17504965Y-15188531D02*
X17514489Y-15207579D01*
X17514489Y-15207579D02*
X17524013Y-15245674D01*
X17524013Y-15245674D02*
X17524013Y-15293293D01*
X17524013Y-15293293D02*
X17514489Y-15331388D01*
X17514489Y-15331388D02*
X17504965Y-15350436D01*
X17504965Y-15350436D02*
X17495441Y-15359960D01*
X17495441Y-15359960D02*
X17476394Y-15369484D01*
X17476394Y-15369484D02*
X17457346Y-15369484D01*
X17457346Y-15369484D02*
X17438299Y-15359960D01*
X17438299Y-15359960D02*
X17428775Y-15350436D01*
X17428775Y-15350436D02*
X17419251Y-15331388D01*
X17419251Y-15331388D02*
X17409727Y-15293293D01*
X17409727Y-15293293D02*
X17409727Y-15245674D01*
X17409727Y-15245674D02*
X17419251Y-15207579D01*
X17419251Y-15207579D02*
X17428775Y-15188531D01*
X17428775Y-15188531D02*
X17438299Y-15179008D01*
X17438299Y-15179008D02*
X17457346Y-15169484D01*
X17590680Y-15169484D02*
X17714489Y-15169484D01*
X17714489Y-15169484D02*
X17647822Y-15245674D01*
X17647822Y-15245674D02*
X17676394Y-15245674D01*
X17676394Y-15245674D02*
X17695441Y-15255198D01*
X17695441Y-15255198D02*
X17704965Y-15264722D01*
X17704965Y-15264722D02*
X17714489Y-15283769D01*
X17714489Y-15283769D02*
X17714489Y-15331388D01*
X17714489Y-15331388D02*
X17704965Y-15350436D01*
X17704965Y-15350436D02*
X17695441Y-15359960D01*
X17695441Y-15359960D02*
X17676394Y-15369484D01*
X17676394Y-15369484D02*
X17619251Y-15369484D01*
X17619251Y-15369484D02*
X17600203Y-15359960D01*
X17600203Y-15359960D02*
X17590680Y-15350436D01*
X17809727Y-15369484D02*
X17847822Y-15369484D01*
X17847822Y-15369484D02*
X17866870Y-15359960D01*
X17866870Y-15359960D02*
X17876394Y-15350436D01*
X17876394Y-15350436D02*
X17895441Y-15321865D01*
X17895441Y-15321865D02*
X17904965Y-15283769D01*
X17904965Y-15283769D02*
X17904965Y-15207579D01*
X17904965Y-15207579D02*
X17895441Y-15188531D01*
X17895441Y-15188531D02*
X17885918Y-15179008D01*
X17885918Y-15179008D02*
X17866870Y-15169484D01*
X17866870Y-15169484D02*
X17828775Y-15169484D01*
X17828775Y-15169484D02*
X17809727Y-15179008D01*
X17809727Y-15179008D02*
X17800203Y-15188531D01*
X17800203Y-15188531D02*
X17790680Y-15207579D01*
X17790680Y-15207579D02*
X17790680Y-15255198D01*
X17790680Y-15255198D02*
X17800203Y-15274246D01*
X17800203Y-15274246D02*
X17809727Y-15283769D01*
X17809727Y-15283769D02*
X17828775Y-15293293D01*
X17828775Y-15293293D02*
X17866870Y-15293293D01*
X17866870Y-15293293D02*
X17885918Y-15283769D01*
X17885918Y-15283769D02*
X17895441Y-15274246D01*
X17895441Y-15274246D02*
X17904965Y-15255198D01*
X18076394Y-15236150D02*
X18076394Y-15369484D01*
X18028775Y-15159960D02*
X17981156Y-15302817D01*
X17981156Y-15302817D02*
X18104965Y-15302817D01*
X18171632Y-15169484D02*
X18171632Y-15207579D01*
X18247822Y-15169484D02*
X18247822Y-15207579D01*
X18543061Y-15445674D02*
X18533537Y-15436150D01*
X18533537Y-15436150D02*
X18514489Y-15407579D01*
X18514489Y-15407579D02*
X18504965Y-15388531D01*
X18504965Y-15388531D02*
X18495442Y-15359960D01*
X18495442Y-15359960D02*
X18485918Y-15312341D01*
X18485918Y-15312341D02*
X18485918Y-15274246D01*
X18485918Y-15274246D02*
X18495442Y-15226627D01*
X18495442Y-15226627D02*
X18504965Y-15198055D01*
X18504965Y-15198055D02*
X18514489Y-15179008D01*
X18514489Y-15179008D02*
X18533537Y-15150436D01*
X18533537Y-15150436D02*
X18543061Y-15140912D01*
X18609727Y-15188531D02*
X18619251Y-15179008D01*
X18619251Y-15179008D02*
X18638299Y-15169484D01*
X18638299Y-15169484D02*
X18685918Y-15169484D01*
X18685918Y-15169484D02*
X18704965Y-15179008D01*
X18704965Y-15179008D02*
X18714489Y-15188531D01*
X18714489Y-15188531D02*
X18724013Y-15207579D01*
X18724013Y-15207579D02*
X18724013Y-15226627D01*
X18724013Y-15226627D02*
X18714489Y-15255198D01*
X18714489Y-15255198D02*
X18600203Y-15369484D01*
X18600203Y-15369484D02*
X18724013Y-15369484D01*
X18962108Y-15369484D02*
X18962108Y-15169484D01*
X19047823Y-15369484D02*
X19047823Y-15264722D01*
X19047823Y-15264722D02*
X19038299Y-15245674D01*
X19038299Y-15245674D02*
X19019251Y-15236150D01*
X19019251Y-15236150D02*
X18990680Y-15236150D01*
X18990680Y-15236150D02*
X18971632Y-15245674D01*
X18971632Y-15245674D02*
X18962108Y-15255198D01*
X19171632Y-15369484D02*
X19152584Y-15359960D01*
X19152584Y-15359960D02*
X19143061Y-15350436D01*
X19143061Y-15350436D02*
X19133537Y-15331388D01*
X19133537Y-15331388D02*
X19133537Y-15274246D01*
X19133537Y-15274246D02*
X19143061Y-15255198D01*
X19143061Y-15255198D02*
X19152584Y-15245674D01*
X19152584Y-15245674D02*
X19171632Y-15236150D01*
X19171632Y-15236150D02*
X19200204Y-15236150D01*
X19200204Y-15236150D02*
X19219251Y-15245674D01*
X19219251Y-15245674D02*
X19228775Y-15255198D01*
X19228775Y-15255198D02*
X19238299Y-15274246D01*
X19238299Y-15274246D02*
X19238299Y-15331388D01*
X19238299Y-15331388D02*
X19228775Y-15350436D01*
X19228775Y-15350436D02*
X19219251Y-15359960D01*
X19219251Y-15359960D02*
X19200204Y-15369484D01*
X19200204Y-15369484D02*
X19171632Y-15369484D01*
X19352584Y-15369484D02*
X19333537Y-15359960D01*
X19333537Y-15359960D02*
X19324013Y-15340912D01*
X19324013Y-15340912D02*
X19324013Y-15169484D01*
X19504965Y-15359960D02*
X19485918Y-15369484D01*
X19485918Y-15369484D02*
X19447823Y-15369484D01*
X19447823Y-15369484D02*
X19428775Y-15359960D01*
X19428775Y-15359960D02*
X19419251Y-15340912D01*
X19419251Y-15340912D02*
X19419251Y-15264722D01*
X19419251Y-15264722D02*
X19428775Y-15245674D01*
X19428775Y-15245674D02*
X19447823Y-15236150D01*
X19447823Y-15236150D02*
X19485918Y-15236150D01*
X19485918Y-15236150D02*
X19504965Y-15245674D01*
X19504965Y-15245674D02*
X19514489Y-15264722D01*
X19514489Y-15264722D02*
X19514489Y-15283769D01*
X19514489Y-15283769D02*
X19419251Y-15302817D01*
X19590680Y-15359960D02*
X19609727Y-15369484D01*
X19609727Y-15369484D02*
X19647823Y-15369484D01*
X19647823Y-15369484D02*
X19666870Y-15359960D01*
X19666870Y-15359960D02*
X19676394Y-15340912D01*
X19676394Y-15340912D02*
X19676394Y-15331388D01*
X19676394Y-15331388D02*
X19666870Y-15312341D01*
X19666870Y-15312341D02*
X19647823Y-15302817D01*
X19647823Y-15302817D02*
X19619251Y-15302817D01*
X19619251Y-15302817D02*
X19600204Y-15293293D01*
X19600204Y-15293293D02*
X19590680Y-15274246D01*
X19590680Y-15274246D02*
X19590680Y-15264722D01*
X19590680Y-15264722D02*
X19600204Y-15245674D01*
X19600204Y-15245674D02*
X19619251Y-15236150D01*
X19619251Y-15236150D02*
X19647823Y-15236150D01*
X19647823Y-15236150D02*
X19666870Y-15245674D01*
X19743061Y-15445674D02*
X19752585Y-15436150D01*
X19752585Y-15436150D02*
X19771632Y-15407579D01*
X19771632Y-15407579D02*
X19781156Y-15388531D01*
X19781156Y-15388531D02*
X19790680Y-15359960D01*
X19790680Y-15359960D02*
X19800204Y-15312341D01*
X19800204Y-15312341D02*
X19800204Y-15274246D01*
X19800204Y-15274246D02*
X19790680Y-15226627D01*
X19790680Y-15226627D02*
X19781156Y-15198055D01*
X19781156Y-15198055D02*
X19771632Y-15179008D01*
X19771632Y-15179008D02*
X19752585Y-15150436D01*
X19752585Y-15150436D02*
X19743061Y-15140912D01*
D12*
X14948960Y-15587962D02*
X14948960Y-15496038D01*
X14857035Y-15496038D01*
X14857035Y-15587962D01*
X14948960Y-15587962D01*
D10*
X15333536Y-15633484D02*
X15219251Y-15633484D01*
X15276393Y-15633484D02*
X15276393Y-15433484D01*
X15276393Y-15433484D02*
X15257346Y-15462055D01*
X15257346Y-15462055D02*
X15238298Y-15481103D01*
X15238298Y-15481103D02*
X15219251Y-15490627D01*
X15419251Y-15614436D02*
X15428774Y-15623960D01*
X15428774Y-15623960D02*
X15419251Y-15633484D01*
X15419251Y-15633484D02*
X15409727Y-15623960D01*
X15409727Y-15623960D02*
X15419251Y-15614436D01*
X15419251Y-15614436D02*
X15419251Y-15633484D01*
X15495441Y-15433484D02*
X15619251Y-15433484D01*
X15619251Y-15433484D02*
X15552584Y-15509674D01*
X15552584Y-15509674D02*
X15581155Y-15509674D01*
X15581155Y-15509674D02*
X15600203Y-15519198D01*
X15600203Y-15519198D02*
X15609727Y-15528722D01*
X15609727Y-15528722D02*
X15619251Y-15547769D01*
X15619251Y-15547769D02*
X15619251Y-15595388D01*
X15619251Y-15595388D02*
X15609727Y-15614436D01*
X15609727Y-15614436D02*
X15600203Y-15623960D01*
X15600203Y-15623960D02*
X15581155Y-15633484D01*
X15581155Y-15633484D02*
X15524013Y-15633484D01*
X15524013Y-15633484D02*
X15504965Y-15623960D01*
X15504965Y-15623960D02*
X15495441Y-15614436D01*
X15743060Y-15433484D02*
X15762108Y-15433484D01*
X15762108Y-15433484D02*
X15781155Y-15443008D01*
X15781155Y-15443008D02*
X15790679Y-15452531D01*
X15790679Y-15452531D02*
X15800203Y-15471579D01*
X15800203Y-15471579D02*
X15809727Y-15509674D01*
X15809727Y-15509674D02*
X15809727Y-15557293D01*
X15809727Y-15557293D02*
X15800203Y-15595388D01*
X15800203Y-15595388D02*
X15790679Y-15614436D01*
X15790679Y-15614436D02*
X15781155Y-15623960D01*
X15781155Y-15623960D02*
X15762108Y-15633484D01*
X15762108Y-15633484D02*
X15743060Y-15633484D01*
X15743060Y-15633484D02*
X15724013Y-15623960D01*
X15724013Y-15623960D02*
X15714489Y-15614436D01*
X15714489Y-15614436D02*
X15704965Y-15595388D01*
X15704965Y-15595388D02*
X15695441Y-15557293D01*
X15695441Y-15557293D02*
X15695441Y-15509674D01*
X15695441Y-15509674D02*
X15704965Y-15471579D01*
X15704965Y-15471579D02*
X15714489Y-15452531D01*
X15714489Y-15452531D02*
X15724013Y-15443008D01*
X15724013Y-15443008D02*
X15743060Y-15433484D01*
X15933536Y-15433484D02*
X15952584Y-15433484D01*
X15952584Y-15433484D02*
X15971632Y-15443008D01*
X15971632Y-15443008D02*
X15981155Y-15452531D01*
X15981155Y-15452531D02*
X15990679Y-15471579D01*
X15990679Y-15471579D02*
X16000203Y-15509674D01*
X16000203Y-15509674D02*
X16000203Y-15557293D01*
X16000203Y-15557293D02*
X15990679Y-15595388D01*
X15990679Y-15595388D02*
X15981155Y-15614436D01*
X15981155Y-15614436D02*
X15971632Y-15623960D01*
X15971632Y-15623960D02*
X15952584Y-15633484D01*
X15952584Y-15633484D02*
X15933536Y-15633484D01*
X15933536Y-15633484D02*
X15914489Y-15623960D01*
X15914489Y-15623960D02*
X15904965Y-15614436D01*
X15904965Y-15614436D02*
X15895441Y-15595388D01*
X15895441Y-15595388D02*
X15885917Y-15557293D01*
X15885917Y-15557293D02*
X15885917Y-15509674D01*
X15885917Y-15509674D02*
X15895441Y-15471579D01*
X15895441Y-15471579D02*
X15904965Y-15452531D01*
X15904965Y-15452531D02*
X15914489Y-15443008D01*
X15914489Y-15443008D02*
X15933536Y-15433484D01*
X16085917Y-15633484D02*
X16085917Y-15500150D01*
X16085917Y-15519198D02*
X16095441Y-15509674D01*
X16095441Y-15509674D02*
X16114489Y-15500150D01*
X16114489Y-15500150D02*
X16143060Y-15500150D01*
X16143060Y-15500150D02*
X16162108Y-15509674D01*
X16162108Y-15509674D02*
X16171632Y-15528722D01*
X16171632Y-15528722D02*
X16171632Y-15633484D01*
X16171632Y-15528722D02*
X16181155Y-15509674D01*
X16181155Y-15509674D02*
X16200203Y-15500150D01*
X16200203Y-15500150D02*
X16228774Y-15500150D01*
X16228774Y-15500150D02*
X16247822Y-15509674D01*
X16247822Y-15509674D02*
X16257346Y-15528722D01*
X16257346Y-15528722D02*
X16257346Y-15633484D01*
X16352584Y-15633484D02*
X16352584Y-15500150D01*
X16352584Y-15519198D02*
X16362108Y-15509674D01*
X16362108Y-15509674D02*
X16381155Y-15500150D01*
X16381155Y-15500150D02*
X16409727Y-15500150D01*
X16409727Y-15500150D02*
X16428775Y-15509674D01*
X16428775Y-15509674D02*
X16438298Y-15528722D01*
X16438298Y-15528722D02*
X16438298Y-15633484D01*
X16438298Y-15528722D02*
X16447822Y-15509674D01*
X16447822Y-15509674D02*
X16466870Y-15500150D01*
X16466870Y-15500150D02*
X16495441Y-15500150D01*
X16495441Y-15500150D02*
X16514489Y-15509674D01*
X16514489Y-15509674D02*
X16524013Y-15528722D01*
X16524013Y-15528722D02*
X16524013Y-15633484D01*
X16914489Y-15423960D02*
X16743060Y-15681103D01*
X17171632Y-15433484D02*
X17190680Y-15433484D01*
X17190680Y-15433484D02*
X17209727Y-15443008D01*
X17209727Y-15443008D02*
X17219251Y-15452531D01*
X17219251Y-15452531D02*
X17228775Y-15471579D01*
X17228775Y-15471579D02*
X17238299Y-15509674D01*
X17238299Y-15509674D02*
X17238299Y-15557293D01*
X17238299Y-15557293D02*
X17228775Y-15595388D01*
X17228775Y-15595388D02*
X17219251Y-15614436D01*
X17219251Y-15614436D02*
X17209727Y-15623960D01*
X17209727Y-15623960D02*
X17190680Y-15633484D01*
X17190680Y-15633484D02*
X17171632Y-15633484D01*
X17171632Y-15633484D02*
X17152584Y-15623960D01*
X17152584Y-15623960D02*
X17143060Y-15614436D01*
X17143060Y-15614436D02*
X17133537Y-15595388D01*
X17133537Y-15595388D02*
X17124013Y-15557293D01*
X17124013Y-15557293D02*
X17124013Y-15509674D01*
X17124013Y-15509674D02*
X17133537Y-15471579D01*
X17133537Y-15471579D02*
X17143060Y-15452531D01*
X17143060Y-15452531D02*
X17152584Y-15443008D01*
X17152584Y-15443008D02*
X17171632Y-15433484D01*
X17324013Y-15614436D02*
X17333537Y-15623960D01*
X17333537Y-15623960D02*
X17324013Y-15633484D01*
X17324013Y-15633484D02*
X17314489Y-15623960D01*
X17314489Y-15623960D02*
X17324013Y-15614436D01*
X17324013Y-15614436D02*
X17324013Y-15633484D01*
X17457346Y-15433484D02*
X17476394Y-15433484D01*
X17476394Y-15433484D02*
X17495441Y-15443008D01*
X17495441Y-15443008D02*
X17504965Y-15452531D01*
X17504965Y-15452531D02*
X17514489Y-15471579D01*
X17514489Y-15471579D02*
X17524013Y-15509674D01*
X17524013Y-15509674D02*
X17524013Y-15557293D01*
X17524013Y-15557293D02*
X17514489Y-15595388D01*
X17514489Y-15595388D02*
X17504965Y-15614436D01*
X17504965Y-15614436D02*
X17495441Y-15623960D01*
X17495441Y-15623960D02*
X17476394Y-15633484D01*
X17476394Y-15633484D02*
X17457346Y-15633484D01*
X17457346Y-15633484D02*
X17438299Y-15623960D01*
X17438299Y-15623960D02*
X17428775Y-15614436D01*
X17428775Y-15614436D02*
X17419251Y-15595388D01*
X17419251Y-15595388D02*
X17409727Y-15557293D01*
X17409727Y-15557293D02*
X17409727Y-15509674D01*
X17409727Y-15509674D02*
X17419251Y-15471579D01*
X17419251Y-15471579D02*
X17428775Y-15452531D01*
X17428775Y-15452531D02*
X17438299Y-15443008D01*
X17438299Y-15443008D02*
X17457346Y-15433484D01*
X17704965Y-15433484D02*
X17609727Y-15433484D01*
X17609727Y-15433484D02*
X17600203Y-15528722D01*
X17600203Y-15528722D02*
X17609727Y-15519198D01*
X17609727Y-15519198D02*
X17628775Y-15509674D01*
X17628775Y-15509674D02*
X17676394Y-15509674D01*
X17676394Y-15509674D02*
X17695441Y-15519198D01*
X17695441Y-15519198D02*
X17704965Y-15528722D01*
X17704965Y-15528722D02*
X17714489Y-15547769D01*
X17714489Y-15547769D02*
X17714489Y-15595388D01*
X17714489Y-15595388D02*
X17704965Y-15614436D01*
X17704965Y-15614436D02*
X17695441Y-15623960D01*
X17695441Y-15623960D02*
X17676394Y-15633484D01*
X17676394Y-15633484D02*
X17628775Y-15633484D01*
X17628775Y-15633484D02*
X17609727Y-15623960D01*
X17609727Y-15623960D02*
X17600203Y-15614436D01*
X17904965Y-15633484D02*
X17790680Y-15633484D01*
X17847822Y-15633484D02*
X17847822Y-15433484D01*
X17847822Y-15433484D02*
X17828775Y-15462055D01*
X17828775Y-15462055D02*
X17809727Y-15481103D01*
X17809727Y-15481103D02*
X17790680Y-15490627D01*
X17981156Y-15452531D02*
X17990680Y-15443008D01*
X17990680Y-15443008D02*
X18009727Y-15433484D01*
X18009727Y-15433484D02*
X18057346Y-15433484D01*
X18057346Y-15433484D02*
X18076394Y-15443008D01*
X18076394Y-15443008D02*
X18085918Y-15452531D01*
X18085918Y-15452531D02*
X18095441Y-15471579D01*
X18095441Y-15471579D02*
X18095441Y-15490627D01*
X18095441Y-15490627D02*
X18085918Y-15519198D01*
X18085918Y-15519198D02*
X17971632Y-15633484D01*
X17971632Y-15633484D02*
X18095441Y-15633484D01*
X18171632Y-15433484D02*
X18171632Y-15471579D01*
X18247822Y-15433484D02*
X18247822Y-15471579D01*
X18543061Y-15709674D02*
X18533537Y-15700150D01*
X18533537Y-15700150D02*
X18514489Y-15671579D01*
X18514489Y-15671579D02*
X18504965Y-15652531D01*
X18504965Y-15652531D02*
X18495442Y-15623960D01*
X18495442Y-15623960D02*
X18485918Y-15576341D01*
X18485918Y-15576341D02*
X18485918Y-15538246D01*
X18485918Y-15538246D02*
X18495442Y-15490627D01*
X18495442Y-15490627D02*
X18504965Y-15462055D01*
X18504965Y-15462055D02*
X18514489Y-15443008D01*
X18514489Y-15443008D02*
X18533537Y-15414436D01*
X18533537Y-15414436D02*
X18543061Y-15404912D01*
X18609727Y-15452531D02*
X18619251Y-15443008D01*
X18619251Y-15443008D02*
X18638299Y-15433484D01*
X18638299Y-15433484D02*
X18685918Y-15433484D01*
X18685918Y-15433484D02*
X18704965Y-15443008D01*
X18704965Y-15443008D02*
X18714489Y-15452531D01*
X18714489Y-15452531D02*
X18724013Y-15471579D01*
X18724013Y-15471579D02*
X18724013Y-15490627D01*
X18724013Y-15490627D02*
X18714489Y-15519198D01*
X18714489Y-15519198D02*
X18600203Y-15633484D01*
X18600203Y-15633484D02*
X18724013Y-15633484D01*
X18962108Y-15633484D02*
X18962108Y-15433484D01*
X19047823Y-15633484D02*
X19047823Y-15528722D01*
X19047823Y-15528722D02*
X19038299Y-15509674D01*
X19038299Y-15509674D02*
X19019251Y-15500150D01*
X19019251Y-15500150D02*
X18990680Y-15500150D01*
X18990680Y-15500150D02*
X18971632Y-15509674D01*
X18971632Y-15509674D02*
X18962108Y-15519198D01*
X19171632Y-15633484D02*
X19152584Y-15623960D01*
X19152584Y-15623960D02*
X19143061Y-15614436D01*
X19143061Y-15614436D02*
X19133537Y-15595388D01*
X19133537Y-15595388D02*
X19133537Y-15538246D01*
X19133537Y-15538246D02*
X19143061Y-15519198D01*
X19143061Y-15519198D02*
X19152584Y-15509674D01*
X19152584Y-15509674D02*
X19171632Y-15500150D01*
X19171632Y-15500150D02*
X19200204Y-15500150D01*
X19200204Y-15500150D02*
X19219251Y-15509674D01*
X19219251Y-15509674D02*
X19228775Y-15519198D01*
X19228775Y-15519198D02*
X19238299Y-15538246D01*
X19238299Y-15538246D02*
X19238299Y-15595388D01*
X19238299Y-15595388D02*
X19228775Y-15614436D01*
X19228775Y-15614436D02*
X19219251Y-15623960D01*
X19219251Y-15623960D02*
X19200204Y-15633484D01*
X19200204Y-15633484D02*
X19171632Y-15633484D01*
X19352584Y-15633484D02*
X19333537Y-15623960D01*
X19333537Y-15623960D02*
X19324013Y-15604912D01*
X19324013Y-15604912D02*
X19324013Y-15433484D01*
X19504965Y-15623960D02*
X19485918Y-15633484D01*
X19485918Y-15633484D02*
X19447823Y-15633484D01*
X19447823Y-15633484D02*
X19428775Y-15623960D01*
X19428775Y-15623960D02*
X19419251Y-15604912D01*
X19419251Y-15604912D02*
X19419251Y-15528722D01*
X19419251Y-15528722D02*
X19428775Y-15509674D01*
X19428775Y-15509674D02*
X19447823Y-15500150D01*
X19447823Y-15500150D02*
X19485918Y-15500150D01*
X19485918Y-15500150D02*
X19504965Y-15509674D01*
X19504965Y-15509674D02*
X19514489Y-15528722D01*
X19514489Y-15528722D02*
X19514489Y-15547769D01*
X19514489Y-15547769D02*
X19419251Y-15566817D01*
X19590680Y-15623960D02*
X19609727Y-15633484D01*
X19609727Y-15633484D02*
X19647823Y-15633484D01*
X19647823Y-15633484D02*
X19666870Y-15623960D01*
X19666870Y-15623960D02*
X19676394Y-15604912D01*
X19676394Y-15604912D02*
X19676394Y-15595388D01*
X19676394Y-15595388D02*
X19666870Y-15576341D01*
X19666870Y-15576341D02*
X19647823Y-15566817D01*
X19647823Y-15566817D02*
X19619251Y-15566817D01*
X19619251Y-15566817D02*
X19600204Y-15557293D01*
X19600204Y-15557293D02*
X19590680Y-15538246D01*
X19590680Y-15538246D02*
X19590680Y-15528722D01*
X19590680Y-15528722D02*
X19600204Y-15509674D01*
X19600204Y-15509674D02*
X19619251Y-15500150D01*
X19619251Y-15500150D02*
X19647823Y-15500150D01*
X19647823Y-15500150D02*
X19666870Y-15509674D01*
X19743061Y-15709674D02*
X19752585Y-15700150D01*
X19752585Y-15700150D02*
X19771632Y-15671579D01*
X19771632Y-15671579D02*
X19781156Y-15652531D01*
X19781156Y-15652531D02*
X19790680Y-15623960D01*
X19790680Y-15623960D02*
X19800204Y-15576341D01*
X19800204Y-15576341D02*
X19800204Y-15538246D01*
X19800204Y-15538246D02*
X19790680Y-15490627D01*
X19790680Y-15490627D02*
X19781156Y-15462055D01*
X19781156Y-15462055D02*
X19771632Y-15443008D01*
X19771632Y-15443008D02*
X19752585Y-15414436D01*
X19752585Y-15414436D02*
X19743061Y-15404912D01*
X14867998Y-15906000D02*
X14967998Y-15806000D01*
X14867998Y-15706000D01*
X14767998Y-15806000D01*
X14867998Y-15906000D01*
X15219251Y-15716531D02*
X15228774Y-15707008D01*
X15228774Y-15707008D02*
X15247822Y-15697484D01*
X15247822Y-15697484D02*
X15295441Y-15697484D01*
X15295441Y-15697484D02*
X15314489Y-15707008D01*
X15314489Y-15707008D02*
X15324013Y-15716531D01*
X15324013Y-15716531D02*
X15333536Y-15735579D01*
X15333536Y-15735579D02*
X15333536Y-15754627D01*
X15333536Y-15754627D02*
X15324013Y-15783198D01*
X15324013Y-15783198D02*
X15209727Y-15897484D01*
X15209727Y-15897484D02*
X15333536Y-15897484D01*
X15419251Y-15878436D02*
X15428774Y-15887960D01*
X15428774Y-15887960D02*
X15419251Y-15897484D01*
X15419251Y-15897484D02*
X15409727Y-15887960D01*
X15409727Y-15887960D02*
X15419251Y-15878436D01*
X15419251Y-15878436D02*
X15419251Y-15897484D01*
X15504965Y-15716531D02*
X15514489Y-15707008D01*
X15514489Y-15707008D02*
X15533536Y-15697484D01*
X15533536Y-15697484D02*
X15581155Y-15697484D01*
X15581155Y-15697484D02*
X15600203Y-15707008D01*
X15600203Y-15707008D02*
X15609727Y-15716531D01*
X15609727Y-15716531D02*
X15619251Y-15735579D01*
X15619251Y-15735579D02*
X15619251Y-15754627D01*
X15619251Y-15754627D02*
X15609727Y-15783198D01*
X15609727Y-15783198D02*
X15495441Y-15897484D01*
X15495441Y-15897484D02*
X15619251Y-15897484D01*
X15743060Y-15697484D02*
X15762108Y-15697484D01*
X15762108Y-15697484D02*
X15781155Y-15707008D01*
X15781155Y-15707008D02*
X15790679Y-15716531D01*
X15790679Y-15716531D02*
X15800203Y-15735579D01*
X15800203Y-15735579D02*
X15809727Y-15773674D01*
X15809727Y-15773674D02*
X15809727Y-15821293D01*
X15809727Y-15821293D02*
X15800203Y-15859388D01*
X15800203Y-15859388D02*
X15790679Y-15878436D01*
X15790679Y-15878436D02*
X15781155Y-15887960D01*
X15781155Y-15887960D02*
X15762108Y-15897484D01*
X15762108Y-15897484D02*
X15743060Y-15897484D01*
X15743060Y-15897484D02*
X15724013Y-15887960D01*
X15724013Y-15887960D02*
X15714489Y-15878436D01*
X15714489Y-15878436D02*
X15704965Y-15859388D01*
X15704965Y-15859388D02*
X15695441Y-15821293D01*
X15695441Y-15821293D02*
X15695441Y-15773674D01*
X15695441Y-15773674D02*
X15704965Y-15735579D01*
X15704965Y-15735579D02*
X15714489Y-15716531D01*
X15714489Y-15716531D02*
X15724013Y-15707008D01*
X15724013Y-15707008D02*
X15743060Y-15697484D01*
X15933536Y-15697484D02*
X15952584Y-15697484D01*
X15952584Y-15697484D02*
X15971632Y-15707008D01*
X15971632Y-15707008D02*
X15981155Y-15716531D01*
X15981155Y-15716531D02*
X15990679Y-15735579D01*
X15990679Y-15735579D02*
X16000203Y-15773674D01*
X16000203Y-15773674D02*
X16000203Y-15821293D01*
X16000203Y-15821293D02*
X15990679Y-15859388D01*
X15990679Y-15859388D02*
X15981155Y-15878436D01*
X15981155Y-15878436D02*
X15971632Y-15887960D01*
X15971632Y-15887960D02*
X15952584Y-15897484D01*
X15952584Y-15897484D02*
X15933536Y-15897484D01*
X15933536Y-15897484D02*
X15914489Y-15887960D01*
X15914489Y-15887960D02*
X15904965Y-15878436D01*
X15904965Y-15878436D02*
X15895441Y-15859388D01*
X15895441Y-15859388D02*
X15885917Y-15821293D01*
X15885917Y-15821293D02*
X15885917Y-15773674D01*
X15885917Y-15773674D02*
X15895441Y-15735579D01*
X15895441Y-15735579D02*
X15904965Y-15716531D01*
X15904965Y-15716531D02*
X15914489Y-15707008D01*
X15914489Y-15707008D02*
X15933536Y-15697484D01*
X16085917Y-15897484D02*
X16085917Y-15764150D01*
X16085917Y-15783198D02*
X16095441Y-15773674D01*
X16095441Y-15773674D02*
X16114489Y-15764150D01*
X16114489Y-15764150D02*
X16143060Y-15764150D01*
X16143060Y-15764150D02*
X16162108Y-15773674D01*
X16162108Y-15773674D02*
X16171632Y-15792722D01*
X16171632Y-15792722D02*
X16171632Y-15897484D01*
X16171632Y-15792722D02*
X16181155Y-15773674D01*
X16181155Y-15773674D02*
X16200203Y-15764150D01*
X16200203Y-15764150D02*
X16228774Y-15764150D01*
X16228774Y-15764150D02*
X16247822Y-15773674D01*
X16247822Y-15773674D02*
X16257346Y-15792722D01*
X16257346Y-15792722D02*
X16257346Y-15897484D01*
X16352584Y-15897484D02*
X16352584Y-15764150D01*
X16352584Y-15783198D02*
X16362108Y-15773674D01*
X16362108Y-15773674D02*
X16381155Y-15764150D01*
X16381155Y-15764150D02*
X16409727Y-15764150D01*
X16409727Y-15764150D02*
X16428775Y-15773674D01*
X16428775Y-15773674D02*
X16438298Y-15792722D01*
X16438298Y-15792722D02*
X16438298Y-15897484D01*
X16438298Y-15792722D02*
X16447822Y-15773674D01*
X16447822Y-15773674D02*
X16466870Y-15764150D01*
X16466870Y-15764150D02*
X16495441Y-15764150D01*
X16495441Y-15764150D02*
X16514489Y-15773674D01*
X16514489Y-15773674D02*
X16524013Y-15792722D01*
X16524013Y-15792722D02*
X16524013Y-15897484D01*
X16914489Y-15687960D02*
X16743060Y-15945103D01*
X17171632Y-15697484D02*
X17190680Y-15697484D01*
X17190680Y-15697484D02*
X17209727Y-15707008D01*
X17209727Y-15707008D02*
X17219251Y-15716531D01*
X17219251Y-15716531D02*
X17228775Y-15735579D01*
X17228775Y-15735579D02*
X17238299Y-15773674D01*
X17238299Y-15773674D02*
X17238299Y-15821293D01*
X17238299Y-15821293D02*
X17228775Y-15859388D01*
X17228775Y-15859388D02*
X17219251Y-15878436D01*
X17219251Y-15878436D02*
X17209727Y-15887960D01*
X17209727Y-15887960D02*
X17190680Y-15897484D01*
X17190680Y-15897484D02*
X17171632Y-15897484D01*
X17171632Y-15897484D02*
X17152584Y-15887960D01*
X17152584Y-15887960D02*
X17143060Y-15878436D01*
X17143060Y-15878436D02*
X17133537Y-15859388D01*
X17133537Y-15859388D02*
X17124013Y-15821293D01*
X17124013Y-15821293D02*
X17124013Y-15773674D01*
X17124013Y-15773674D02*
X17133537Y-15735579D01*
X17133537Y-15735579D02*
X17143060Y-15716531D01*
X17143060Y-15716531D02*
X17152584Y-15707008D01*
X17152584Y-15707008D02*
X17171632Y-15697484D01*
X17324013Y-15878436D02*
X17333537Y-15887960D01*
X17333537Y-15887960D02*
X17324013Y-15897484D01*
X17324013Y-15897484D02*
X17314489Y-15887960D01*
X17314489Y-15887960D02*
X17324013Y-15878436D01*
X17324013Y-15878436D02*
X17324013Y-15897484D01*
X17457346Y-15697484D02*
X17476394Y-15697484D01*
X17476394Y-15697484D02*
X17495441Y-15707008D01*
X17495441Y-15707008D02*
X17504965Y-15716531D01*
X17504965Y-15716531D02*
X17514489Y-15735579D01*
X17514489Y-15735579D02*
X17524013Y-15773674D01*
X17524013Y-15773674D02*
X17524013Y-15821293D01*
X17524013Y-15821293D02*
X17514489Y-15859388D01*
X17514489Y-15859388D02*
X17504965Y-15878436D01*
X17504965Y-15878436D02*
X17495441Y-15887960D01*
X17495441Y-15887960D02*
X17476394Y-15897484D01*
X17476394Y-15897484D02*
X17457346Y-15897484D01*
X17457346Y-15897484D02*
X17438299Y-15887960D01*
X17438299Y-15887960D02*
X17428775Y-15878436D01*
X17428775Y-15878436D02*
X17419251Y-15859388D01*
X17419251Y-15859388D02*
X17409727Y-15821293D01*
X17409727Y-15821293D02*
X17409727Y-15773674D01*
X17409727Y-15773674D02*
X17419251Y-15735579D01*
X17419251Y-15735579D02*
X17428775Y-15716531D01*
X17428775Y-15716531D02*
X17438299Y-15707008D01*
X17438299Y-15707008D02*
X17457346Y-15697484D01*
X17638299Y-15783198D02*
X17619251Y-15773674D01*
X17619251Y-15773674D02*
X17609727Y-15764150D01*
X17609727Y-15764150D02*
X17600203Y-15745103D01*
X17600203Y-15745103D02*
X17600203Y-15735579D01*
X17600203Y-15735579D02*
X17609727Y-15716531D01*
X17609727Y-15716531D02*
X17619251Y-15707008D01*
X17619251Y-15707008D02*
X17638299Y-15697484D01*
X17638299Y-15697484D02*
X17676394Y-15697484D01*
X17676394Y-15697484D02*
X17695441Y-15707008D01*
X17695441Y-15707008D02*
X17704965Y-15716531D01*
X17704965Y-15716531D02*
X17714489Y-15735579D01*
X17714489Y-15735579D02*
X17714489Y-15745103D01*
X17714489Y-15745103D02*
X17704965Y-15764150D01*
X17704965Y-15764150D02*
X17695441Y-15773674D01*
X17695441Y-15773674D02*
X17676394Y-15783198D01*
X17676394Y-15783198D02*
X17638299Y-15783198D01*
X17638299Y-15783198D02*
X17619251Y-15792722D01*
X17619251Y-15792722D02*
X17609727Y-15802246D01*
X17609727Y-15802246D02*
X17600203Y-15821293D01*
X17600203Y-15821293D02*
X17600203Y-15859388D01*
X17600203Y-15859388D02*
X17609727Y-15878436D01*
X17609727Y-15878436D02*
X17619251Y-15887960D01*
X17619251Y-15887960D02*
X17638299Y-15897484D01*
X17638299Y-15897484D02*
X17676394Y-15897484D01*
X17676394Y-15897484D02*
X17695441Y-15887960D01*
X17695441Y-15887960D02*
X17704965Y-15878436D01*
X17704965Y-15878436D02*
X17714489Y-15859388D01*
X17714489Y-15859388D02*
X17714489Y-15821293D01*
X17714489Y-15821293D02*
X17704965Y-15802246D01*
X17704965Y-15802246D02*
X17695441Y-15792722D01*
X17695441Y-15792722D02*
X17676394Y-15783198D01*
X17885918Y-15697484D02*
X17847822Y-15697484D01*
X17847822Y-15697484D02*
X17828775Y-15707008D01*
X17828775Y-15707008D02*
X17819251Y-15716531D01*
X17819251Y-15716531D02*
X17800203Y-15745103D01*
X17800203Y-15745103D02*
X17790680Y-15783198D01*
X17790680Y-15783198D02*
X17790680Y-15859388D01*
X17790680Y-15859388D02*
X17800203Y-15878436D01*
X17800203Y-15878436D02*
X17809727Y-15887960D01*
X17809727Y-15887960D02*
X17828775Y-15897484D01*
X17828775Y-15897484D02*
X17866870Y-15897484D01*
X17866870Y-15897484D02*
X17885918Y-15887960D01*
X17885918Y-15887960D02*
X17895441Y-15878436D01*
X17895441Y-15878436D02*
X17904965Y-15859388D01*
X17904965Y-15859388D02*
X17904965Y-15811769D01*
X17904965Y-15811769D02*
X17895441Y-15792722D01*
X17895441Y-15792722D02*
X17885918Y-15783198D01*
X17885918Y-15783198D02*
X17866870Y-15773674D01*
X17866870Y-15773674D02*
X17828775Y-15773674D01*
X17828775Y-15773674D02*
X17809727Y-15783198D01*
X17809727Y-15783198D02*
X17800203Y-15792722D01*
X17800203Y-15792722D02*
X17790680Y-15811769D01*
X18076394Y-15697484D02*
X18038299Y-15697484D01*
X18038299Y-15697484D02*
X18019251Y-15707008D01*
X18019251Y-15707008D02*
X18009727Y-15716531D01*
X18009727Y-15716531D02*
X17990680Y-15745103D01*
X17990680Y-15745103D02*
X17981156Y-15783198D01*
X17981156Y-15783198D02*
X17981156Y-15859388D01*
X17981156Y-15859388D02*
X17990680Y-15878436D01*
X17990680Y-15878436D02*
X18000203Y-15887960D01*
X18000203Y-15887960D02*
X18019251Y-15897484D01*
X18019251Y-15897484D02*
X18057346Y-15897484D01*
X18057346Y-15897484D02*
X18076394Y-15887960D01*
X18076394Y-15887960D02*
X18085918Y-15878436D01*
X18085918Y-15878436D02*
X18095441Y-15859388D01*
X18095441Y-15859388D02*
X18095441Y-15811769D01*
X18095441Y-15811769D02*
X18085918Y-15792722D01*
X18085918Y-15792722D02*
X18076394Y-15783198D01*
X18076394Y-15783198D02*
X18057346Y-15773674D01*
X18057346Y-15773674D02*
X18019251Y-15773674D01*
X18019251Y-15773674D02*
X18000203Y-15783198D01*
X18000203Y-15783198D02*
X17990680Y-15792722D01*
X17990680Y-15792722D02*
X17981156Y-15811769D01*
X18171632Y-15697484D02*
X18171632Y-15735579D01*
X18247822Y-15697484D02*
X18247822Y-15735579D01*
X18543061Y-15973674D02*
X18533537Y-15964150D01*
X18533537Y-15964150D02*
X18514489Y-15935579D01*
X18514489Y-15935579D02*
X18504965Y-15916531D01*
X18504965Y-15916531D02*
X18495442Y-15887960D01*
X18495442Y-15887960D02*
X18485918Y-15840341D01*
X18485918Y-15840341D02*
X18485918Y-15802246D01*
X18485918Y-15802246D02*
X18495442Y-15754627D01*
X18495442Y-15754627D02*
X18504965Y-15726055D01*
X18504965Y-15726055D02*
X18514489Y-15707008D01*
X18514489Y-15707008D02*
X18533537Y-15678436D01*
X18533537Y-15678436D02*
X18543061Y-15668912D01*
X18714489Y-15697484D02*
X18619251Y-15697484D01*
X18619251Y-15697484D02*
X18609727Y-15792722D01*
X18609727Y-15792722D02*
X18619251Y-15783198D01*
X18619251Y-15783198D02*
X18638299Y-15773674D01*
X18638299Y-15773674D02*
X18685918Y-15773674D01*
X18685918Y-15773674D02*
X18704965Y-15783198D01*
X18704965Y-15783198D02*
X18714489Y-15792722D01*
X18714489Y-15792722D02*
X18724013Y-15811769D01*
X18724013Y-15811769D02*
X18724013Y-15859388D01*
X18724013Y-15859388D02*
X18714489Y-15878436D01*
X18714489Y-15878436D02*
X18704965Y-15887960D01*
X18704965Y-15887960D02*
X18685918Y-15897484D01*
X18685918Y-15897484D02*
X18638299Y-15897484D01*
X18638299Y-15897484D02*
X18619251Y-15887960D01*
X18619251Y-15887960D02*
X18609727Y-15878436D01*
X18962108Y-15897484D02*
X18962108Y-15697484D01*
X19047823Y-15897484D02*
X19047823Y-15792722D01*
X19047823Y-15792722D02*
X19038299Y-15773674D01*
X19038299Y-15773674D02*
X19019251Y-15764150D01*
X19019251Y-15764150D02*
X18990680Y-15764150D01*
X18990680Y-15764150D02*
X18971632Y-15773674D01*
X18971632Y-15773674D02*
X18962108Y-15783198D01*
X19171632Y-15897484D02*
X19152584Y-15887960D01*
X19152584Y-15887960D02*
X19143061Y-15878436D01*
X19143061Y-15878436D02*
X19133537Y-15859388D01*
X19133537Y-15859388D02*
X19133537Y-15802246D01*
X19133537Y-15802246D02*
X19143061Y-15783198D01*
X19143061Y-15783198D02*
X19152584Y-15773674D01*
X19152584Y-15773674D02*
X19171632Y-15764150D01*
X19171632Y-15764150D02*
X19200204Y-15764150D01*
X19200204Y-15764150D02*
X19219251Y-15773674D01*
X19219251Y-15773674D02*
X19228775Y-15783198D01*
X19228775Y-15783198D02*
X19238299Y-15802246D01*
X19238299Y-15802246D02*
X19238299Y-15859388D01*
X19238299Y-15859388D02*
X19228775Y-15878436D01*
X19228775Y-15878436D02*
X19219251Y-15887960D01*
X19219251Y-15887960D02*
X19200204Y-15897484D01*
X19200204Y-15897484D02*
X19171632Y-15897484D01*
X19352584Y-15897484D02*
X19333537Y-15887960D01*
X19333537Y-15887960D02*
X19324013Y-15868912D01*
X19324013Y-15868912D02*
X19324013Y-15697484D01*
X19504965Y-15887960D02*
X19485918Y-15897484D01*
X19485918Y-15897484D02*
X19447823Y-15897484D01*
X19447823Y-15897484D02*
X19428775Y-15887960D01*
X19428775Y-15887960D02*
X19419251Y-15868912D01*
X19419251Y-15868912D02*
X19419251Y-15792722D01*
X19419251Y-15792722D02*
X19428775Y-15773674D01*
X19428775Y-15773674D02*
X19447823Y-15764150D01*
X19447823Y-15764150D02*
X19485918Y-15764150D01*
X19485918Y-15764150D02*
X19504965Y-15773674D01*
X19504965Y-15773674D02*
X19514489Y-15792722D01*
X19514489Y-15792722D02*
X19514489Y-15811769D01*
X19514489Y-15811769D02*
X19419251Y-15830817D01*
X19590680Y-15887960D02*
X19609727Y-15897484D01*
X19609727Y-15897484D02*
X19647823Y-15897484D01*
X19647823Y-15897484D02*
X19666870Y-15887960D01*
X19666870Y-15887960D02*
X19676394Y-15868912D01*
X19676394Y-15868912D02*
X19676394Y-15859388D01*
X19676394Y-15859388D02*
X19666870Y-15840341D01*
X19666870Y-15840341D02*
X19647823Y-15830817D01*
X19647823Y-15830817D02*
X19619251Y-15830817D01*
X19619251Y-15830817D02*
X19600204Y-15821293D01*
X19600204Y-15821293D02*
X19590680Y-15802246D01*
X19590680Y-15802246D02*
X19590680Y-15792722D01*
X19590680Y-15792722D02*
X19600204Y-15773674D01*
X19600204Y-15773674D02*
X19619251Y-15764150D01*
X19619251Y-15764150D02*
X19647823Y-15764150D01*
X19647823Y-15764150D02*
X19666870Y-15773674D01*
X19743061Y-15973674D02*
X19752585Y-15964150D01*
X19752585Y-15964150D02*
X19771632Y-15935579D01*
X19771632Y-15935579D02*
X19781156Y-15916531D01*
X19781156Y-15916531D02*
X19790680Y-15887960D01*
X19790680Y-15887960D02*
X19800204Y-15840341D01*
X19800204Y-15840341D02*
X19800204Y-15802246D01*
X19800204Y-15802246D02*
X19790680Y-15754627D01*
X19790680Y-15754627D02*
X19781156Y-15726055D01*
X19781156Y-15726055D02*
X19771632Y-15707008D01*
X19771632Y-15707008D02*
X19752585Y-15678436D01*
X19752585Y-15678436D02*
X19743061Y-15668912D01*
M02*
