%TF.GenerationSoftware,KiCad,Pcbnew,9.0.0*%
%TF.CreationDate,2025-05-15T16:18:32+09:00*%
%TF.ProjectId,xylo,78796c6f-2e6b-4696-9361-645f70636258,rev?*%
%TF.SameCoordinates,Original*%
%TF.FileFunction,Soldermask,Top*%
%TF.FilePolarity,Negative*%
%FSLAX46Y46*%
G04 Gerber Fmt 4.6, Leading zero omitted, Abs format (unit mm)*
G04 Created by KiCad (PCBNEW 9.0.0) date 2025-05-15 16:18:32*
%MOMM*%
%LPD*%
G01*
G04 APERTURE LIST*
G04 Aperture macros list*
%AMRotRect*
0 Rectangle, with rotation*
0 The origin of the aperture is its center*
0 $1 length*
0 $2 width*
0 $3 Rotation angle, in degrees counterclockwise*
0 Add horizontal line*
21,1,$1,$2,0,0,$3*%
%AMOutline5P*
0 Free polygon, 5 corners , with rotation*
0 The origin of the aperture is its center*
0 number of corners: always 5*
0 $1 to $10 corner X, Y*
0 $11 Rotation angle, in degrees counterclockwise*
0 create outline with 5 corners*
4,1,5,$1,$2,$3,$4,$5,$6,$7,$8,$9,$10,$1,$2,$11*%
%AMOutline6P*
0 Free polygon, 6 corners , with rotation*
0 The origin of the aperture is its center*
0 number of corners: always 6*
0 $1 to $12 corner X, Y*
0 $13 Rotation angle, in degrees counterclockwise*
0 create outline with 6 corners*
4,1,6,$1,$2,$3,$4,$5,$6,$7,$8,$9,$10,$11,$12,$1,$2,$13*%
%AMOutline7P*
0 Free polygon, 7 corners , with rotation*
0 The origin of the aperture is its center*
0 number of corners: always 7*
0 $1 to $14 corner X, Y*
0 $15 Rotation angle, in degrees counterclockwise*
0 create outline with 7 corners*
4,1,7,$1,$2,$3,$4,$5,$6,$7,$8,$9,$10,$11,$12,$13,$14,$1,$2,$15*%
%AMOutline8P*
0 Free polygon, 8 corners , with rotation*
0 The origin of the aperture is its center*
0 number of corners: always 8*
0 $1 to $16 corner X, Y*
0 $17 Rotation angle, in degrees counterclockwise*
0 create outline with 8 corners*
4,1,8,$1,$2,$3,$4,$5,$6,$7,$8,$9,$10,$11,$12,$13,$14,$15,$16,$1,$2,$17*%
G04 Aperture macros list end*
%ADD10C,0.000000*%
%ADD11C,3.500000*%
%ADD12R,1.778000X1.300000*%
%ADD13R,1.400000X1.300000*%
%ADD14O,1.778000X1.300000*%
%ADD15C,1.701800*%
%ADD16C,0.990600*%
%ADD17C,3.000000*%
%ADD18C,3.629000*%
%ADD19Outline5P,-1.300000X0.130000X-0.130000X1.300000X1.300000X1.300000X1.300000X-1.300000X-1.300000X-1.300000X4.000000*%
%ADD20RotRect,2.600000X2.600000X4.000000*%
%ADD21Outline5P,-1.300000X0.130000X-0.130000X1.300000X1.300000X1.300000X1.300000X-1.300000X-1.300000X-1.300000X0.000000*%
%ADD22R,2.600000X2.600000*%
%ADD23Outline5P,-1.300000X0.130000X-0.130000X1.300000X1.300000X1.300000X1.300000X-1.300000X-1.300000X-1.300000X100.000000*%
%ADD24RotRect,2.600000X2.600000X100.000000*%
%ADD25Outline5P,-1.300000X0.130000X-0.130000X1.300000X1.300000X1.300000X1.300000X-1.300000X-1.300000X-1.300000X10.000000*%
%ADD26RotRect,2.600000X2.600000X10.000000*%
%ADD27C,0.900000*%
%ADD28R,1.000000X0.700000*%
%ADD29R,2.800000X1.000000*%
%ADD30Outline5P,-1.300000X0.130000X-0.130000X1.300000X1.300000X1.300000X1.300000X-1.300000X-1.300000X-1.300000X262.000000*%
%ADD31RotRect,2.600000X2.600000X262.000000*%
%ADD32R,1.300000X1.778000*%
%ADD33R,1.300000X1.400000*%
%ADD34O,1.300000X1.778000*%
%ADD35C,1.397000*%
%ADD36Outline5P,-1.300000X0.130000X-0.130000X1.300000X1.300000X1.300000X1.300000X-1.300000X-1.300000X-1.300000X357.000000*%
%ADD37RotRect,2.600000X2.600000X357.000000*%
%ADD38C,1.524000*%
%ADD39R,1.700000X1.700000*%
%ADD40O,1.700000X1.700000*%
%ADD41C,2.000000*%
G04 APERTURE END LIST*
D10*
%TO.C,G\u002A\u002A\u002A*%
G36*
X198831635Y-129967691D02*
G01*
X199006066Y-130045857D01*
X199155085Y-130174093D01*
X199254362Y-130334573D01*
X199276180Y-130411718D01*
X199268417Y-130595039D01*
X199195354Y-130778023D01*
X199073050Y-130924732D01*
X199034256Y-130953085D01*
X198884193Y-131033136D01*
X198752270Y-131055347D01*
X198595668Y-131026474D01*
X198586271Y-131023767D01*
X198407401Y-130931807D01*
X198282088Y-130788414D01*
X198213487Y-130613439D01*
X198204750Y-130426734D01*
X198259033Y-130248150D01*
X198379488Y-130097538D01*
X198432877Y-130058266D01*
X198549979Y-129995029D01*
X198652309Y-129958141D01*
X198656116Y-129957419D01*
X198831635Y-129967691D01*
G37*
G36*
X199384808Y-131252859D02*
G01*
X199495732Y-131311647D01*
X199566868Y-131386208D01*
X199630132Y-131527557D01*
X199634694Y-131685034D01*
X199587999Y-131832678D01*
X199497500Y-131944526D01*
X199393141Y-131991811D01*
X199254146Y-132036104D01*
X199182422Y-132103193D01*
X199176769Y-132147514D01*
X199202980Y-132175609D01*
X199277495Y-132182113D01*
X199414695Y-132166979D01*
X199539528Y-132146362D01*
X199795685Y-132113729D01*
X199985607Y-132121498D01*
X200123595Y-132172620D01*
X200223951Y-132270057D01*
X200237870Y-132290767D01*
X200302377Y-132465409D01*
X200279779Y-132640694D01*
X200220248Y-132746534D01*
X200185069Y-132786254D01*
X200137780Y-132818764D01*
X200064774Y-132847962D01*
X199952445Y-132877746D01*
X199787187Y-132912016D01*
X199555392Y-132954672D01*
X199394519Y-132983135D01*
X199121068Y-133030633D01*
X198919237Y-133063155D01*
X198773261Y-133081573D01*
X198667374Y-133086765D01*
X198585809Y-133079605D01*
X198512803Y-133060967D01*
X198443498Y-133035913D01*
X198265970Y-132938376D01*
X198106083Y-132800842D01*
X198089329Y-132781904D01*
X198004897Y-132672300D01*
X197953659Y-132568492D01*
X197922086Y-132435592D01*
X197904194Y-132304489D01*
X197889385Y-132117257D01*
X197900900Y-131980882D01*
X197942787Y-131860246D01*
X197959296Y-131826847D01*
X198069218Y-131648124D01*
X198198733Y-131515741D01*
X198367022Y-131417134D01*
X198593272Y-131339738D01*
X198767267Y-131297723D01*
X199035572Y-131247556D01*
X199236420Y-131232048D01*
X199384808Y-131252859D01*
G37*
G36*
X186503365Y-128429249D02*
G01*
X186610529Y-128452122D01*
X186704415Y-128490469D01*
X186795565Y-128544010D01*
X186853205Y-128583225D01*
X187058965Y-128775152D01*
X187188736Y-129000742D01*
X187241480Y-129246013D01*
X187216163Y-129496991D01*
X187111748Y-129739699D01*
X186953474Y-129935469D01*
X186768916Y-130114556D01*
X185406964Y-130352940D01*
X184994804Y-130424123D01*
X184661682Y-130479339D01*
X184399483Y-130519683D01*
X184200090Y-130546252D01*
X184055383Y-130560142D01*
X183957247Y-130562448D01*
X183903493Y-130555898D01*
X183683155Y-130458074D01*
X183490081Y-130292305D01*
X183342463Y-130078994D01*
X183259964Y-129842739D01*
X183258498Y-129838542D01*
X183257162Y-129831169D01*
X183257293Y-129610084D01*
X184579416Y-129610084D01*
X184585358Y-129638959D01*
X184612598Y-129655424D01*
X184673691Y-129658723D01*
X184781197Y-129648099D01*
X184947675Y-129622796D01*
X185185680Y-129582056D01*
X185259271Y-129569116D01*
X185521740Y-129521637D01*
X185708093Y-129484404D01*
X185829999Y-129454198D01*
X185899126Y-129427796D01*
X185927143Y-129401977D01*
X185928889Y-129384267D01*
X185907072Y-129343518D01*
X185851901Y-129321620D01*
X185752334Y-129319056D01*
X185597324Y-129336303D01*
X185375835Y-129373839D01*
X185146340Y-129418203D01*
X184912813Y-129466020D01*
X184753131Y-129502918D01*
X184653691Y-129533502D01*
X184600895Y-129562375D01*
X184581142Y-129594139D01*
X184579416Y-129610084D01*
X183257293Y-129610084D01*
X183257312Y-129578753D01*
X183344090Y-129320083D01*
X183410884Y-129203379D01*
X183468890Y-129116346D01*
X183525430Y-129045185D01*
X183590811Y-128986174D01*
X183675342Y-128935589D01*
X183789326Y-128889708D01*
X183943079Y-128844807D01*
X184146900Y-128797164D01*
X184411100Y-128743056D01*
X184745984Y-128678759D01*
X184991090Y-128632624D01*
X185399340Y-128556780D01*
X185731051Y-128498088D01*
X185996766Y-128456269D01*
X186207026Y-128431043D01*
X186372379Y-128422129D01*
X186503365Y-128429249D01*
G37*
G36*
X184270400Y-133914363D02*
G01*
X184505635Y-134050522D01*
X184678186Y-134236313D01*
X184786161Y-134456615D01*
X184827652Y-134696309D01*
X184800760Y-134940271D01*
X184703583Y-135173381D01*
X184534225Y-135380516D01*
X184462224Y-135440555D01*
X184414712Y-135473235D01*
X184358416Y-135502385D01*
X184283191Y-135530362D01*
X184178891Y-135559522D01*
X184035372Y-135592226D01*
X183842487Y-135630828D01*
X183590093Y-135677689D01*
X183268045Y-135735164D01*
X182967836Y-135787856D01*
X182585965Y-135854281D01*
X182281146Y-135906151D01*
X182043028Y-135944678D01*
X181861264Y-135971076D01*
X181725503Y-135986558D01*
X181625396Y-135992337D01*
X181550594Y-135989627D01*
X181490750Y-135979642D01*
X181444328Y-135966474D01*
X181211784Y-135846330D01*
X181022481Y-135654692D01*
X180907695Y-135451498D01*
X180857848Y-135271356D01*
X180837901Y-135199268D01*
X180846905Y-135042533D01*
X182155571Y-135042533D01*
X182161473Y-135071354D01*
X182188627Y-135087812D01*
X182249558Y-135091144D01*
X182356796Y-135080588D01*
X182522870Y-135055383D01*
X182760309Y-135014768D01*
X182838571Y-135001010D01*
X183097253Y-134954663D01*
X183280344Y-134919209D01*
X183399875Y-134891080D01*
X183467882Y-134866706D01*
X183496397Y-134842518D01*
X183497454Y-134814948D01*
X183494582Y-134806429D01*
X183475979Y-134779143D01*
X183436730Y-134764522D01*
X183363467Y-134763380D01*
X183242825Y-134776528D01*
X183061439Y-134804782D01*
X182811583Y-134847951D01*
X182557935Y-134893600D01*
X182379130Y-134928929D01*
X182262329Y-134957747D01*
X182194692Y-134983862D01*
X182163383Y-135011082D01*
X182155571Y-135042533D01*
X180846905Y-135042533D01*
X180851700Y-134959076D01*
X180950604Y-134718782D01*
X181010837Y-134624890D01*
X181081015Y-134531584D01*
X181155342Y-134453407D01*
X181243711Y-134387053D01*
X181356016Y-134329224D01*
X181502149Y-134276616D01*
X181692004Y-134225926D01*
X181935474Y-134173851D01*
X182242450Y-134117091D01*
X182622831Y-134052341D01*
X182826851Y-134018690D01*
X184035570Y-133820498D01*
X184270400Y-133914363D01*
G37*
G36*
X182802177Y-126134990D02*
G01*
X182866000Y-126151505D01*
X182894741Y-126160708D01*
X183040700Y-126237134D01*
X183127684Y-126362227D01*
X183161872Y-126485953D01*
X183168457Y-126532672D01*
X183167030Y-126580238D01*
X183152919Y-126636476D01*
X183121452Y-126709209D01*
X183067958Y-126806261D01*
X182987761Y-126935455D01*
X182876192Y-127104616D01*
X182728577Y-127321568D01*
X182540242Y-127594134D01*
X182306518Y-127930140D01*
X182256762Y-128001557D01*
X181996176Y-128376299D01*
X181783049Y-128686254D01*
X181613786Y-128939303D01*
X181484790Y-129143326D01*
X181392462Y-129306205D01*
X181333206Y-129435820D01*
X181303427Y-129540054D01*
X181299524Y-129626786D01*
X181317904Y-129703899D01*
X181354969Y-129779272D01*
X181407121Y-129860786D01*
X181407771Y-129861754D01*
X181499220Y-129978405D01*
X181599438Y-130054755D01*
X181724888Y-130094171D01*
X181892035Y-130100036D01*
X182117343Y-130075722D01*
X182302927Y-130045309D01*
X182576270Y-130003428D01*
X182779394Y-129989501D01*
X182926961Y-130005348D01*
X183033631Y-130052794D01*
X183114063Y-130133658D01*
X183123765Y-130147311D01*
X183197930Y-130292665D01*
X183198963Y-130427509D01*
X183135672Y-130571373D01*
X183046182Y-130725884D01*
X182558210Y-130812591D01*
X182300701Y-130862726D01*
X182115751Y-130913003D01*
X181987573Y-130972644D01*
X181900379Y-131050874D01*
X181838383Y-131156917D01*
X181800649Y-131255188D01*
X181692824Y-131464041D01*
X181540208Y-131614838D01*
X181357920Y-131699042D01*
X181161075Y-131708117D01*
X181051989Y-131677953D01*
X180872936Y-131563274D01*
X180757584Y-131398142D01*
X180712654Y-131200231D01*
X180744869Y-130987213D01*
X180767440Y-130929903D01*
X180822405Y-130792478D01*
X180845417Y-130676442D01*
X180832726Y-130560111D01*
X180780580Y-130421799D01*
X180685229Y-130239820D01*
X180631866Y-130145968D01*
X180503318Y-129912147D01*
X180420808Y-129731756D01*
X180378763Y-129585946D01*
X180371609Y-129455868D01*
X180391372Y-129332563D01*
X180424286Y-129264157D01*
X180503191Y-129132024D01*
X180622446Y-128944691D01*
X180776408Y-128710692D01*
X180959434Y-128438556D01*
X181165885Y-128136814D01*
X181390116Y-127813996D01*
X181487454Y-127675296D01*
X181757262Y-127292414D01*
X181981576Y-126976265D01*
X182165927Y-126720896D01*
X182315850Y-126520354D01*
X182436875Y-126368682D01*
X182534535Y-126259927D01*
X182614362Y-126188134D01*
X182681890Y-126147351D01*
X182742651Y-126131622D01*
X182802177Y-126134990D01*
G37*
G36*
X185442706Y-133002489D02*
G01*
X185580867Y-133056032D01*
X185681725Y-133126549D01*
X185740691Y-133190779D01*
X185745667Y-133203877D01*
X185784218Y-133268225D01*
X185866764Y-133354187D01*
X185890364Y-133374698D01*
X186024773Y-133487165D01*
X187260744Y-133283068D01*
X187658476Y-133218193D01*
X187979520Y-133169100D01*
X188234670Y-133136270D01*
X188434724Y-133120186D01*
X188590477Y-133121328D01*
X188712724Y-133140177D01*
X188812260Y-133177218D01*
X188899882Y-133232930D01*
X188986383Y-133307796D01*
X189042722Y-133362590D01*
X189132667Y-133460275D01*
X189190084Y-133554056D01*
X189229359Y-133675314D01*
X189262505Y-133841873D01*
X189289314Y-134018476D01*
X189292563Y-134140828D01*
X189269890Y-134240926D01*
X189225963Y-134337285D01*
X189138108Y-134494084D01*
X189049676Y-134610403D01*
X188943501Y-134696574D01*
X188802413Y-134762928D01*
X188609250Y-134819796D01*
X188346838Y-134877509D01*
X188318849Y-134883177D01*
X188084754Y-134929324D01*
X187920527Y-134957674D01*
X187809232Y-134969210D01*
X187733940Y-134964929D01*
X187677715Y-134945818D01*
X187638773Y-134922936D01*
X187510163Y-134795985D01*
X187454401Y-134644776D01*
X187466334Y-134487503D01*
X187540806Y-134342364D01*
X187672658Y-134227553D01*
X187854513Y-134161654D01*
X187948090Y-134133809D01*
X187969631Y-134087851D01*
X187962851Y-134063643D01*
X187946508Y-134039263D01*
X187911992Y-134025160D01*
X187847642Y-134022345D01*
X187741790Y-134031829D01*
X187582779Y-134054624D01*
X187358944Y-134091735D01*
X187083063Y-134139865D01*
X186788851Y-134192353D01*
X186570940Y-134233306D01*
X186418026Y-134265762D01*
X186318806Y-134292761D01*
X186261974Y-134317343D01*
X186236223Y-134342547D01*
X186230263Y-134369145D01*
X186252356Y-134425241D01*
X186333375Y-134429769D01*
X186343724Y-134428047D01*
X186530722Y-134430872D01*
X186687236Y-134498237D01*
X186801791Y-134613519D01*
X186862905Y-134760100D01*
X186859099Y-134921355D01*
X186787128Y-135070066D01*
X186744276Y-135116804D01*
X186685421Y-135153352D01*
X186593653Y-135185233D01*
X186452063Y-135217970D01*
X186243742Y-135257087D01*
X186180097Y-135268362D01*
X185942122Y-135307911D01*
X185772116Y-135329277D01*
X185651331Y-135333434D01*
X185561017Y-135321361D01*
X185505238Y-135303521D01*
X185304788Y-135180891D01*
X185164441Y-135001005D01*
X185091651Y-134778130D01*
X185093863Y-134526529D01*
X185095194Y-134518529D01*
X185115110Y-134292022D01*
X185083161Y-134122882D01*
X184995625Y-133993846D01*
X184978749Y-133978022D01*
X184824461Y-133793315D01*
X184754250Y-133595978D01*
X184769139Y-133395286D01*
X184870147Y-133200507D01*
X184890367Y-133175253D01*
X185046421Y-133052932D01*
X185240341Y-132993650D01*
X185442706Y-133002489D01*
G37*
G36*
X196057164Y-130440418D02*
G01*
X196135407Y-130470392D01*
X196240179Y-130528048D01*
X196383508Y-130619835D01*
X196577422Y-130752198D01*
X196770865Y-130887290D01*
X197049218Y-131084358D01*
X197261793Y-131243820D01*
X197416008Y-131378369D01*
X197519283Y-131500692D01*
X197579038Y-131623479D01*
X197602692Y-131759419D01*
X197597665Y-131921200D01*
X197571376Y-132121514D01*
X197554583Y-132227630D01*
X197523683Y-132435321D01*
X197501260Y-132617080D01*
X197489710Y-132751200D01*
X197490137Y-132811013D01*
X197529706Y-132893981D01*
X197611622Y-133001663D01*
X197654307Y-133047390D01*
X197789600Y-133232574D01*
X197849946Y-133428760D01*
X197838605Y-133619729D01*
X197758835Y-133789254D01*
X197613895Y-133921115D01*
X197465920Y-133985098D01*
X197263056Y-134012210D01*
X197116869Y-133983333D01*
X196960488Y-133891843D01*
X196827719Y-133749947D01*
X196727404Y-133636299D01*
X196621562Y-133554980D01*
X196581041Y-133536865D01*
X196502209Y-133530074D01*
X196360851Y-133539304D01*
X196151032Y-133565301D01*
X195866812Y-133608808D01*
X195502252Y-133670572D01*
X195470010Y-133676223D01*
X195120202Y-133736590D01*
X194845231Y-133780376D01*
X194632735Y-133807841D01*
X194470350Y-133819244D01*
X194345714Y-133814844D01*
X194246463Y-133794901D01*
X194160235Y-133759672D01*
X194074667Y-133709419D01*
X194068757Y-133705589D01*
X193862940Y-133524307D01*
X193726279Y-133303439D01*
X193671768Y-133102098D01*
X193660141Y-133059154D01*
X193664447Y-132870692D01*
X194984133Y-132870692D01*
X194989285Y-132896045D01*
X195012886Y-132911596D01*
X195065785Y-132916362D01*
X195158830Y-132909362D01*
X195302870Y-132889612D01*
X195508751Y-132856129D01*
X195787322Y-132807930D01*
X195904481Y-132787319D01*
X196215442Y-132731694D01*
X196448940Y-132687640D01*
X196615195Y-132652605D01*
X196724423Y-132624039D01*
X196786845Y-132599388D01*
X196812679Y-132576102D01*
X196814619Y-132560061D01*
X196798217Y-132524313D01*
X196757187Y-132502544D01*
X196681319Y-132495519D01*
X196560403Y-132504001D01*
X196384230Y-132528753D01*
X196142590Y-132570539D01*
X195825272Y-132630124D01*
X195791609Y-132636587D01*
X195506314Y-132692135D01*
X195296893Y-132735263D01*
X195151820Y-132769314D01*
X195059568Y-132797628D01*
X195008610Y-132823549D01*
X194987419Y-132850418D01*
X194984133Y-132870692D01*
X193664447Y-132870692D01*
X193665888Y-132807622D01*
X193744884Y-132565014D01*
X193898492Y-132347498D01*
X193950017Y-132297767D01*
X194138567Y-132129249D01*
X195319026Y-131898557D01*
X195675420Y-131828313D01*
X195953523Y-131771833D01*
X196162387Y-131726819D01*
X196311067Y-131690977D01*
X196408618Y-131662011D01*
X196464095Y-131637627D01*
X196486551Y-131615528D01*
X196487917Y-131602269D01*
X196440736Y-131550759D01*
X196383317Y-131539701D01*
X196306839Y-131516361D01*
X196181482Y-131451394D01*
X196029201Y-131356749D01*
X195960501Y-131309612D01*
X195800878Y-131193463D01*
X195699969Y-131107612D01*
X195641981Y-131034042D01*
X195611116Y-130954721D01*
X195599104Y-130897202D01*
X195605923Y-130713214D01*
X195688593Y-130564080D01*
X195836480Y-130464477D01*
X195932155Y-130437727D01*
X195993425Y-130431680D01*
X196057164Y-130440418D01*
G37*
G36*
X174573214Y-130354785D02*
G01*
X174698350Y-130488260D01*
X174742321Y-130648376D01*
X174703016Y-130821301D01*
X174656604Y-130901033D01*
X174607630Y-130966993D01*
X174557832Y-131013476D01*
X174488722Y-131047851D01*
X174381810Y-131077489D01*
X174218611Y-131109760D01*
X174063704Y-131137381D01*
X173851368Y-131176056D01*
X173712875Y-131205772D01*
X173634334Y-131231361D01*
X173601853Y-131257660D01*
X173601544Y-131289502D01*
X173604250Y-131297304D01*
X173626945Y-131328382D01*
X173675730Y-131343765D01*
X173766121Y-131343464D01*
X173913635Y-131327492D01*
X174121456Y-131297720D01*
X174337292Y-131266563D01*
X174485218Y-131250605D01*
X174584933Y-131250487D01*
X174656137Y-131266851D01*
X174718530Y-131300338D01*
X174744489Y-131318011D01*
X174868514Y-131450948D01*
X174911859Y-131611022D01*
X174872374Y-131783884D01*
X174826245Y-131863114D01*
X174720956Y-132013483D01*
X173963190Y-132146847D01*
X173702185Y-132190233D01*
X173460373Y-132225734D01*
X173256016Y-132251023D01*
X173107376Y-132263774D01*
X173044721Y-132263847D01*
X172911736Y-132232435D01*
X172750783Y-132170466D01*
X172664996Y-132128146D01*
X172531621Y-132064121D01*
X172421512Y-132026370D01*
X172375672Y-132021642D01*
X172308610Y-132060373D01*
X172211170Y-132146268D01*
X172140870Y-132220297D01*
X172017555Y-132341304D01*
X171886713Y-132442505D01*
X171825603Y-132478104D01*
X171719736Y-132514999D01*
X171551571Y-132558011D01*
X171339169Y-132604049D01*
X171100597Y-132650020D01*
X170853915Y-132692830D01*
X170617190Y-132729385D01*
X170408483Y-132756591D01*
X170245860Y-132771354D01*
X170147381Y-132770582D01*
X170135028Y-132767646D01*
X170026548Y-132712762D01*
X169973322Y-132673530D01*
X169906009Y-132562574D01*
X169875318Y-132409374D01*
X169886103Y-132254623D01*
X169914256Y-132178397D01*
X169948633Y-132126492D01*
X169996410Y-132086433D01*
X170074173Y-132051600D01*
X170198509Y-132015368D01*
X170386004Y-131971120D01*
X170493036Y-131947349D01*
X170714214Y-131897047D01*
X170862216Y-131858241D01*
X170951083Y-131825687D01*
X170994859Y-131794141D01*
X171007587Y-131758357D01*
X171007684Y-131755148D01*
X171000476Y-131721788D01*
X170967821Y-131704776D01*
X170894917Y-131704289D01*
X170766960Y-131720503D01*
X170569146Y-131753592D01*
X170527899Y-131760839D01*
X170314175Y-131797202D01*
X170167115Y-131816648D01*
X170066175Y-131819026D01*
X169990805Y-131804183D01*
X169920458Y-131771969D01*
X169892497Y-131756143D01*
X169760095Y-131634236D01*
X169697623Y-131476172D01*
X169710464Y-131305746D01*
X169765381Y-131194337D01*
X169798788Y-131149638D01*
X169836576Y-131114497D01*
X169891761Y-131085024D01*
X169977357Y-131057321D01*
X170106380Y-131027496D01*
X170291843Y-130991656D01*
X170546762Y-130945905D01*
X170666208Y-130924820D01*
X170990716Y-130869443D01*
X171243227Y-130832498D01*
X171438714Y-130814423D01*
X171592152Y-130815658D01*
X171718511Y-130836642D01*
X171832767Y-130877816D01*
X171949891Y-130939614D01*
X171990127Y-130963638D01*
X172125158Y-131027730D01*
X172236547Y-131028734D01*
X172346537Y-130960949D01*
X172456217Y-130844189D01*
X172540701Y-130750628D01*
X172627095Y-130676404D01*
X172729345Y-130616274D01*
X172861400Y-130564993D01*
X173037205Y-130517317D01*
X173270710Y-130468002D01*
X173575859Y-130411805D01*
X173633130Y-130401672D01*
X174437595Y-130259823D01*
X174573214Y-130354785D01*
G37*
G36*
X189770363Y-131390979D02*
G01*
X189927411Y-131551564D01*
X189928585Y-131553197D01*
X190032897Y-131675384D01*
X190145265Y-131746163D01*
X190287414Y-131771588D01*
X190481070Y-131757719D01*
X190596169Y-131739330D01*
X190772874Y-131710641D01*
X190889378Y-131702270D01*
X190972459Y-131716645D01*
X191048912Y-131756190D01*
X191090017Y-131784055D01*
X191222746Y-131920777D01*
X191274692Y-132080316D01*
X191242940Y-132248343D01*
X191199889Y-132323881D01*
X191142878Y-132393597D01*
X191073632Y-132442539D01*
X190968967Y-132481538D01*
X190805702Y-132521427D01*
X190752519Y-132532913D01*
X190573637Y-132573997D01*
X190465899Y-132608287D01*
X190412751Y-132642989D01*
X190397634Y-132685310D01*
X190397583Y-132687431D01*
X190402363Y-132710609D01*
X190424018Y-132725410D01*
X190472375Y-132730795D01*
X190557254Y-132725725D01*
X190688479Y-132709168D01*
X190875874Y-132680086D01*
X191129262Y-132637442D01*
X191458465Y-132580200D01*
X191525904Y-132568377D01*
X191875349Y-132507609D01*
X192149272Y-132461687D01*
X192359474Y-132429310D01*
X192517764Y-132409171D01*
X192635947Y-132399967D01*
X192725828Y-132400394D01*
X192799214Y-132409149D01*
X192855109Y-132421561D01*
X193065002Y-132516708D01*
X193217421Y-132675154D01*
X193308578Y-132889448D01*
X193334683Y-133152141D01*
X193317433Y-133330579D01*
X193302054Y-133444052D01*
X193307746Y-133525873D01*
X193344551Y-133606241D01*
X193422509Y-133715350D01*
X193462815Y-133767782D01*
X193560650Y-133910056D01*
X193634622Y-134046230D01*
X193664910Y-134132017D01*
X193662255Y-134338389D01*
X193587745Y-134515103D01*
X193456508Y-134650432D01*
X193283672Y-134732650D01*
X193084365Y-134750031D01*
X192918739Y-134710439D01*
X192787273Y-134632620D01*
X192681285Y-134526850D01*
X192674017Y-134516117D01*
X192617756Y-134431119D01*
X192563851Y-134366222D01*
X192501210Y-134320635D01*
X192418741Y-134293562D01*
X192305355Y-134284216D01*
X192149957Y-134291797D01*
X191941459Y-134315515D01*
X191668768Y-134354577D01*
X191320792Y-134408188D01*
X191271716Y-134415831D01*
X190932379Y-134468314D01*
X190669859Y-134507542D01*
X190473287Y-134534388D01*
X190331802Y-134549726D01*
X190234538Y-134554431D01*
X190170628Y-134549376D01*
X190129210Y-134535435D01*
X190099416Y-134513482D01*
X190096146Y-134510390D01*
X189978995Y-134349896D01*
X189941226Y-134180313D01*
X189983405Y-134017920D01*
X190075055Y-133904155D01*
X190122155Y-133867063D01*
X190178947Y-133835229D01*
X190257461Y-133805575D01*
X190369728Y-133775026D01*
X190527779Y-133740504D01*
X190743643Y-133698936D01*
X191029350Y-133647239D01*
X191193124Y-133618227D01*
X191560491Y-133551452D01*
X191842699Y-133495742D01*
X192042620Y-133450446D01*
X192163131Y-133414917D01*
X192206869Y-133389175D01*
X192191964Y-133328771D01*
X192161348Y-133307711D01*
X192100971Y-133307716D01*
X191965614Y-133321981D01*
X191767649Y-133348733D01*
X191519449Y-133386204D01*
X191233386Y-133432623D01*
X190956447Y-133480118D01*
X190611774Y-133540508D01*
X190343128Y-133586551D01*
X190139069Y-133619298D01*
X189988160Y-133639803D01*
X189878960Y-133649120D01*
X189800032Y-133648303D01*
X189739937Y-133638403D01*
X189687234Y-133620475D01*
X189642776Y-133601091D01*
X189470794Y-133487819D01*
X189333374Y-133330207D01*
X189255202Y-133157526D01*
X189250852Y-133136484D01*
X189246193Y-133024752D01*
X189257783Y-132877429D01*
X189264595Y-132830844D01*
X189283475Y-132618057D01*
X189253069Y-132454894D01*
X189166015Y-132312684D01*
X189117843Y-132259504D01*
X188975551Y-132079652D01*
X188912857Y-131907209D01*
X188923991Y-131725099D01*
X188929721Y-131702850D01*
X189018003Y-131511494D01*
X189163606Y-131384790D01*
X189369275Y-131316880D01*
X189587009Y-131313888D01*
X189770363Y-131390979D01*
G37*
G36*
X179863819Y-128940539D02*
G01*
X179880157Y-128950700D01*
X180039481Y-129084354D01*
X180121163Y-129237919D01*
X180128862Y-129424516D01*
X180072472Y-129640201D01*
X180024743Y-129793713D01*
X179996902Y-129925023D01*
X179994057Y-129992863D01*
X180023719Y-130071924D01*
X180088324Y-130201568D01*
X180175418Y-130357272D01*
X180200910Y-130400163D01*
X180330380Y-130622323D01*
X180419965Y-130805249D01*
X180467817Y-130964771D01*
X180472088Y-131116717D01*
X180430931Y-131276913D01*
X180342493Y-131461190D01*
X180204933Y-131685375D01*
X180018509Y-131962215D01*
X179878599Y-132169956D01*
X179759183Y-132354237D01*
X179668392Y-132501937D01*
X179614359Y-132599930D01*
X179602855Y-132632956D01*
X179627165Y-132640652D01*
X179698909Y-132638191D01*
X179822931Y-132624821D01*
X180004073Y-132599789D01*
X180247180Y-132562344D01*
X180557097Y-132511731D01*
X180938667Y-132447201D01*
X181396733Y-132367998D01*
X181936140Y-132273373D01*
X182071582Y-132249460D01*
X182599687Y-132155987D01*
X183047493Y-132076265D01*
X183422195Y-132008791D01*
X183730986Y-131952068D01*
X183981059Y-131904586D01*
X184179609Y-131864843D01*
X184333826Y-131831340D01*
X184450906Y-131802570D01*
X184538042Y-131777032D01*
X184602425Y-131753222D01*
X184651252Y-131729639D01*
X184691714Y-131704778D01*
X184697583Y-131700794D01*
X184822027Y-131587834D01*
X184911344Y-131456690D01*
X184921051Y-131433813D01*
X185040141Y-131234971D01*
X185220312Y-131094862D01*
X185412825Y-131030328D01*
X185636213Y-131028967D01*
X185827283Y-131097808D01*
X185978895Y-131221891D01*
X186083910Y-131386253D01*
X186135188Y-131575928D01*
X186125588Y-131775955D01*
X186047973Y-131971372D01*
X185930687Y-132115678D01*
X185907395Y-132135424D01*
X185877023Y-132154376D01*
X185833668Y-132173718D01*
X185771425Y-132194634D01*
X185684393Y-132218310D01*
X185566668Y-132245928D01*
X185412344Y-132278673D01*
X185215521Y-132317729D01*
X184970294Y-132364280D01*
X184670760Y-132419509D01*
X184311015Y-132484602D01*
X183885156Y-132560742D01*
X183387279Y-132649112D01*
X182811482Y-132750899D01*
X182413530Y-132821128D01*
X179006854Y-133422114D01*
X178670949Y-133885312D01*
X178534839Y-134065319D01*
X178406869Y-134220809D01*
X178300729Y-134336033D01*
X178230103Y-134395241D01*
X178226100Y-134397221D01*
X178088954Y-134423227D01*
X177936848Y-134402922D01*
X177811263Y-134344199D01*
X177777924Y-134311947D01*
X177720085Y-134192289D01*
X177690923Y-134040333D01*
X177695263Y-133897141D01*
X177720640Y-133824390D01*
X177754012Y-133737142D01*
X177716686Y-133688924D01*
X177604805Y-133678078D01*
X177431600Y-133699874D01*
X177160148Y-133747738D01*
X176747121Y-134341969D01*
X176597488Y-134550731D01*
X176454115Y-134739012D01*
X176329006Y-134891892D01*
X176234161Y-134994449D01*
X176197694Y-135025030D01*
X176112663Y-135088853D01*
X176097030Y-135133832D01*
X176127298Y-135169854D01*
X176153587Y-135182078D01*
X176201626Y-135187481D01*
X176279171Y-135184972D01*
X176393985Y-135173461D01*
X176553824Y-135151858D01*
X176766447Y-135119072D01*
X177039613Y-135074014D01*
X177381081Y-135015592D01*
X177798611Y-134942718D01*
X178015892Y-134904475D01*
X179838486Y-134583103D01*
X180032970Y-134665497D01*
X180254383Y-134785604D01*
X180407086Y-134937731D01*
X180505816Y-135140891D01*
X180552992Y-135336373D01*
X180579579Y-135517482D01*
X180580907Y-135648127D01*
X180554706Y-135763622D01*
X180519844Y-135851900D01*
X180428233Y-136006949D01*
X180305400Y-136150127D01*
X180263285Y-136186934D01*
X180218630Y-136220697D01*
X180172226Y-136250070D01*
X180115168Y-136277172D01*
X180038564Y-136304123D01*
X179933516Y-136333038D01*
X179791128Y-136366039D01*
X179602505Y-136405244D01*
X179358750Y-136452769D01*
X179050968Y-136510735D01*
X178670261Y-136581260D01*
X178392476Y-136632447D01*
X177962066Y-136711828D01*
X177610539Y-136777240D01*
X177329415Y-136830698D01*
X177110216Y-136874216D01*
X176944461Y-136909808D01*
X176823674Y-136939488D01*
X176739375Y-136965270D01*
X176683083Y-136989170D01*
X176646321Y-137013201D01*
X176620610Y-137039377D01*
X176607267Y-137056541D01*
X176551682Y-137153944D01*
X176535555Y-137229491D01*
X176518156Y-137300523D01*
X176461505Y-137409428D01*
X176424080Y-137466740D01*
X176337414Y-137575833D01*
X176249395Y-137636706D01*
X176121679Y-137672920D01*
X176074211Y-137681739D01*
X175926042Y-137699960D01*
X175818938Y-137683930D01*
X175708807Y-137624622D01*
X175671907Y-137599368D01*
X175556825Y-137505885D01*
X175495128Y-137408808D01*
X175461125Y-137273418D01*
X175454084Y-137062690D01*
X175506203Y-136889768D01*
X175554786Y-136747508D01*
X175561525Y-136610443D01*
X175522259Y-136458358D01*
X175432829Y-136271044D01*
X175428819Y-136264111D01*
X175358866Y-136143146D01*
X176114843Y-136143146D01*
X176150720Y-136169010D01*
X176175671Y-136180209D01*
X176235921Y-136179810D01*
X176370863Y-136164669D01*
X176568005Y-136136986D01*
X176814858Y-136098965D01*
X177098934Y-136052810D01*
X177407741Y-136000721D01*
X177728794Y-135944900D01*
X178049599Y-135887549D01*
X178357668Y-135830872D01*
X178640513Y-135777070D01*
X178885644Y-135728347D01*
X179080570Y-135686902D01*
X179212804Y-135654940D01*
X179269855Y-135634662D01*
X179269910Y-135634612D01*
X179307767Y-135593047D01*
X179313144Y-135563404D01*
X179279544Y-135546252D01*
X179200465Y-135542159D01*
X179069412Y-135551693D01*
X178879884Y-135575423D01*
X178625384Y-135613916D01*
X178299413Y-135667741D01*
X177895474Y-135737466D01*
X177698914Y-135771998D01*
X177260185Y-135850119D01*
X176902834Y-135915798D01*
X176620562Y-135970723D01*
X176407067Y-136016583D01*
X176256049Y-136055068D01*
X176161206Y-136087863D01*
X176116237Y-136116661D01*
X176114843Y-136143146D01*
X175358866Y-136143146D01*
X175349001Y-136126088D01*
X175207437Y-135853320D01*
X175124763Y-135607237D01*
X175104419Y-135400083D01*
X175119951Y-135310689D01*
X175155542Y-135239041D01*
X175232757Y-135110268D01*
X175341887Y-134939720D01*
X175473230Y-134742750D01*
X175547469Y-134634424D01*
X175688025Y-134425222D01*
X175799136Y-134247736D01*
X175874110Y-134113492D01*
X175906253Y-134034011D01*
X175904844Y-134019049D01*
X175853803Y-134010417D01*
X175728933Y-134018769D01*
X175527176Y-134044507D01*
X175245475Y-134088036D01*
X174880774Y-134149759D01*
X174776541Y-134168032D01*
X174395379Y-134236500D01*
X174091695Y-134295238D01*
X173855211Y-134348183D01*
X173675654Y-134399272D01*
X173542745Y-134452439D01*
X173446211Y-134511626D01*
X173375772Y-134580762D01*
X173321156Y-134663786D01*
X173283246Y-134740027D01*
X173147315Y-134953303D01*
X172968413Y-135090681D01*
X172780306Y-135150994D01*
X172558927Y-135149890D01*
X172363565Y-135075917D01*
X172206134Y-134943891D01*
X172098542Y-134768625D01*
X172052702Y-134564937D01*
X172080526Y-134347639D01*
X172097039Y-134301171D01*
X172125743Y-134231265D01*
X172156526Y-134171385D01*
X172196798Y-134119315D01*
X172253968Y-134072842D01*
X172335449Y-134029752D01*
X172448648Y-133987831D01*
X172600975Y-133944865D01*
X172799841Y-133898640D01*
X173052656Y-133846942D01*
X173366830Y-133787557D01*
X173749771Y-133718270D01*
X174208890Y-133636868D01*
X174480924Y-133588889D01*
X176530491Y-133227495D01*
X176886642Y-132716818D01*
X177023267Y-132527561D01*
X177150417Y-132363469D01*
X177255941Y-132239391D01*
X177327693Y-132170173D01*
X177340063Y-132162652D01*
X177477469Y-132139690D01*
X177632932Y-132166988D01*
X177768049Y-132233801D01*
X177830994Y-132300031D01*
X177894846Y-132438043D01*
X177901419Y-132565908D01*
X177851537Y-132720908D01*
X177840831Y-132745256D01*
X177798299Y-132862137D01*
X177785916Y-132945433D01*
X177791726Y-132963114D01*
X177849379Y-132975127D01*
X177966518Y-132969689D01*
X178091187Y-132952302D01*
X178358298Y-132905202D01*
X178830920Y-132239985D01*
X178986298Y-132025897D01*
X179129609Y-131836987D01*
X179251097Y-131685452D01*
X179341008Y-131583488D01*
X179387750Y-131543833D01*
X179457812Y-131484878D01*
X179473158Y-131436571D01*
X179468217Y-131418819D01*
X179447637Y-131406991D01*
X179403750Y-131402066D01*
X179328887Y-131405026D01*
X179215377Y-131416853D01*
X179055554Y-131438526D01*
X178841743Y-131471028D01*
X178566280Y-131515338D01*
X178221492Y-131572438D01*
X177799712Y-131643309D01*
X177621626Y-131673382D01*
X175768894Y-131986521D01*
X175564929Y-131913076D01*
X175321460Y-131783360D01*
X175138909Y-131600489D01*
X175021134Y-131379370D01*
X174971996Y-131134908D01*
X174995354Y-130882006D01*
X175095067Y-130635569D01*
X175197049Y-130492419D01*
X175395916Y-130326345D01*
X175673023Y-130202119D01*
X176028251Y-130119790D01*
X176148506Y-130103448D01*
X176332849Y-130085522D01*
X176456347Y-130086172D01*
X176545585Y-130108392D01*
X176627151Y-130155169D01*
X176630758Y-130157683D01*
X176754401Y-130288421D01*
X176802644Y-130440780D01*
X176779562Y-130596745D01*
X176689235Y-130738306D01*
X176535738Y-130847452D01*
X176468491Y-130874445D01*
X176348450Y-130931240D01*
X176295792Y-130990597D01*
X176314948Y-131039062D01*
X176406401Y-131062940D01*
X176473566Y-131056646D01*
X176616940Y-131035734D01*
X176825469Y-131002065D01*
X177088095Y-130957503D01*
X177393760Y-130903914D01*
X177731406Y-130843159D01*
X177971271Y-130799142D01*
X178368325Y-130725426D01*
X178686611Y-130665394D01*
X178934763Y-130616983D01*
X179121416Y-130578132D01*
X179255206Y-130546778D01*
X179344768Y-130520858D01*
X179398737Y-130498311D01*
X179425747Y-130477073D01*
X179434434Y-130455082D01*
X179434751Y-130449591D01*
X179425726Y-130410963D01*
X179385465Y-130394283D01*
X179296522Y-130398476D01*
X179141456Y-130422460D01*
X179103389Y-130429111D01*
X178816918Y-130462619D01*
X178599712Y-130447423D01*
X178445161Y-130380973D01*
X178346654Y-130260717D01*
X178303073Y-130120237D01*
X178316700Y-129960531D01*
X178404928Y-129816475D01*
X178553639Y-129707850D01*
X178615398Y-129682529D01*
X178796647Y-129614873D01*
X178912558Y-129550064D01*
X178984023Y-129469670D01*
X179031924Y-129355268D01*
X179047700Y-129301206D01*
X179142553Y-129094454D01*
X179287276Y-128948407D01*
X179466184Y-128869670D01*
X179663593Y-128864846D01*
X179863819Y-128940539D01*
G37*
G36*
X215205819Y-131398374D02*
G01*
X215352606Y-131437782D01*
X215417978Y-131463779D01*
X215543669Y-131532509D01*
X215660750Y-131622094D01*
X215765373Y-131728646D01*
X215853692Y-131848274D01*
X215918835Y-131970138D01*
X215959113Y-132086784D01*
X215984868Y-132216573D01*
X215995461Y-132351626D01*
X215990255Y-132484059D01*
X215969850Y-132601233D01*
X215919207Y-132750256D01*
X215847323Y-132887633D01*
X215755993Y-133011295D01*
X215647011Y-133119171D01*
X215522173Y-133209191D01*
X215383272Y-133279285D01*
X215381183Y-133280137D01*
X215258271Y-133318869D01*
X215123467Y-133341784D01*
X214985037Y-133348182D01*
X214851249Y-133337365D01*
X214804712Y-133328888D01*
X214659108Y-133285235D01*
X214522450Y-133219371D01*
X214397305Y-133133461D01*
X214286242Y-133029671D01*
X214191828Y-132910168D01*
X214116631Y-132777117D01*
X214097011Y-132731945D01*
X214056154Y-132600442D01*
X214034201Y-132459115D01*
X214031079Y-132313901D01*
X214046715Y-132170740D01*
X214081037Y-132035568D01*
X214106363Y-131970138D01*
X214175688Y-131841709D01*
X214264962Y-131722672D01*
X214370338Y-131616918D01*
X214487968Y-131528334D01*
X214607219Y-131463779D01*
X214750006Y-131413972D01*
X214900229Y-131386469D01*
X215053596Y-131381269D01*
X215205819Y-131398374D01*
G37*
G36*
X211084023Y-128660822D02*
G01*
X211192200Y-128671984D01*
X211261483Y-128686321D01*
X211404951Y-128736949D01*
X211539520Y-128808979D01*
X211662340Y-128899880D01*
X211770564Y-129007115D01*
X211861343Y-129128150D01*
X211931829Y-129260451D01*
X211946178Y-129295594D01*
X211980517Y-129379908D01*
X212013494Y-129447094D01*
X212049762Y-129504497D01*
X212093975Y-129559457D01*
X212150784Y-129619319D01*
X212152208Y-129620744D01*
X212249428Y-129707722D01*
X212347379Y-129773409D01*
X212451811Y-129821206D01*
X212533069Y-129846155D01*
X212545036Y-129849005D01*
X212558386Y-129851619D01*
X212574220Y-129854011D01*
X212593639Y-129856193D01*
X212617744Y-129858177D01*
X212647638Y-129859976D01*
X212684421Y-129861602D01*
X212729195Y-129863068D01*
X212783062Y-129864386D01*
X212847122Y-129865570D01*
X212922478Y-129866631D01*
X213010231Y-129867582D01*
X213111482Y-129868435D01*
X213227332Y-129869204D01*
X213358884Y-129869900D01*
X213507239Y-129870537D01*
X213673497Y-129871126D01*
X213858761Y-129871680D01*
X214064132Y-129872212D01*
X214290712Y-129872735D01*
X214539601Y-129873260D01*
X214811902Y-129873801D01*
X214993700Y-129874150D01*
X215285713Y-129874733D01*
X215553631Y-129875294D01*
X215798558Y-129875801D01*
X216021598Y-129876217D01*
X216223853Y-129876508D01*
X216406427Y-129876639D01*
X216570425Y-129876574D01*
X216716949Y-129876280D01*
X216847104Y-129875721D01*
X216961992Y-129874862D01*
X217062718Y-129873667D01*
X217150384Y-129872104D01*
X217226095Y-129870135D01*
X217290954Y-129867727D01*
X217346064Y-129864845D01*
X217392530Y-129861453D01*
X217431454Y-129857516D01*
X217463941Y-129853001D01*
X217491093Y-129847871D01*
X217514015Y-129842092D01*
X217533810Y-129835628D01*
X217551582Y-129828446D01*
X217568433Y-129820510D01*
X217585469Y-129811785D01*
X217603792Y-129802236D01*
X217624505Y-129791828D01*
X217626586Y-129790819D01*
X217728303Y-129733557D01*
X217817831Y-129664850D01*
X217898221Y-129581433D01*
X217972525Y-129480041D01*
X218043796Y-129357410D01*
X218058665Y-129328650D01*
X218130213Y-129198311D01*
X218202531Y-129089404D01*
X218278793Y-128998275D01*
X218362172Y-128921274D01*
X218455842Y-128854748D01*
X218486589Y-128836190D01*
X218616949Y-128771073D01*
X218748673Y-128728060D01*
X218887889Y-128705520D01*
X218993948Y-128701049D01*
X219151701Y-128710882D01*
X219296009Y-128741043D01*
X219429728Y-128792645D01*
X219555717Y-128866803D01*
X219676834Y-128964632D01*
X219681859Y-128969277D01*
X219788006Y-129084467D01*
X219873586Y-129212277D01*
X219938030Y-129350076D01*
X219980767Y-129495231D01*
X220001229Y-129645111D01*
X219998846Y-129797084D01*
X219973048Y-129948517D01*
X219924924Y-130092857D01*
X219907190Y-130132739D01*
X219887458Y-130171486D01*
X219864024Y-130211335D01*
X219835186Y-130254525D01*
X219799240Y-130303295D01*
X219754483Y-130359884D01*
X219699211Y-130426529D01*
X219631722Y-130505470D01*
X219550311Y-130598945D01*
X219472718Y-130687165D01*
X219368453Y-130805246D01*
X219279121Y-130905937D01*
X219203046Y-130990799D01*
X219138554Y-131061395D01*
X219083971Y-131119286D01*
X219037622Y-131166034D01*
X218997832Y-131203201D01*
X218962926Y-131232348D01*
X218931231Y-131255038D01*
X218901071Y-131272831D01*
X218870772Y-131287290D01*
X218838659Y-131299977D01*
X218803058Y-131312453D01*
X218801786Y-131312885D01*
X218788592Y-131317229D01*
X218775066Y-131321085D01*
X218759675Y-131324491D01*
X218740884Y-131327484D01*
X218717159Y-131330102D01*
X218686965Y-131332383D01*
X218648768Y-131334364D01*
X218601034Y-131336083D01*
X218542227Y-131337577D01*
X218470815Y-131338885D01*
X218385261Y-131340043D01*
X218284032Y-131341091D01*
X218165594Y-131342064D01*
X218028411Y-131343002D01*
X217870950Y-131343941D01*
X217691676Y-131344919D01*
X217489055Y-131345974D01*
X217444245Y-131346205D01*
X216165426Y-131352777D01*
X216075261Y-131268889D01*
X215918798Y-131139204D01*
X215753452Y-131032763D01*
X215579942Y-130949839D01*
X215398983Y-130890700D01*
X215211292Y-130855618D01*
X215017585Y-130844864D01*
X214956678Y-130846500D01*
X214761016Y-130866964D01*
X214575488Y-130910118D01*
X214399240Y-130976335D01*
X214231414Y-131065986D01*
X214071156Y-131179442D01*
X213954265Y-131281466D01*
X213872370Y-131359039D01*
X213183002Y-131359058D01*
X212493634Y-131359077D01*
X212449868Y-131397504D01*
X212405373Y-131450285D01*
X212385015Y-131507605D01*
X212388993Y-131566748D01*
X212417506Y-131624998D01*
X212431930Y-131643105D01*
X212449474Y-131661677D01*
X212467498Y-131675461D01*
X212490122Y-131685371D01*
X212521465Y-131692320D01*
X212565645Y-131697222D01*
X212626781Y-131700990D01*
X212708866Y-131704534D01*
X212800244Y-131709425D01*
X212873324Y-131716892D01*
X212934981Y-131728392D01*
X212992092Y-131745381D01*
X213051533Y-131769315D01*
X213083204Y-131783836D01*
X213182513Y-131843609D01*
X213273653Y-131923487D01*
X213352877Y-132018768D01*
X213416438Y-132124751D01*
X213460587Y-132236733D01*
X213468724Y-132267519D01*
X213485114Y-132384477D01*
X213482526Y-132507947D01*
X213461921Y-132630259D01*
X213424263Y-132743742D01*
X213403618Y-132786876D01*
X213365123Y-132845368D01*
X213310691Y-132909734D01*
X213246598Y-132973944D01*
X213179118Y-133031970D01*
X213114525Y-133077782D01*
X213082235Y-133095719D01*
X213049614Y-133111210D01*
X213019090Y-133124479D01*
X212988495Y-133135693D01*
X212955659Y-133145020D01*
X212918415Y-133152629D01*
X212874594Y-133158686D01*
X212822027Y-133163361D01*
X212758546Y-133166821D01*
X212681981Y-133169234D01*
X212590165Y-133170767D01*
X212480929Y-133171589D01*
X212352104Y-133171868D01*
X212201521Y-133171771D01*
X212102182Y-133171607D01*
X211966852Y-133171175D01*
X211837108Y-133170404D01*
X211715494Y-133169333D01*
X211604554Y-133168001D01*
X211506833Y-133166447D01*
X211424876Y-133164709D01*
X211361227Y-133162826D01*
X211318431Y-133160838D01*
X211302132Y-133159388D01*
X211140021Y-133123524D01*
X210984150Y-133064556D01*
X210836860Y-132984275D01*
X210700489Y-132884473D01*
X210577380Y-132766941D01*
X210469870Y-132633470D01*
X210380302Y-132485851D01*
X210355182Y-132434558D01*
X210308633Y-132321272D01*
X210276035Y-132210306D01*
X210255792Y-132094012D01*
X210246309Y-131964741D01*
X210245167Y-131907142D01*
X210246166Y-131805126D01*
X210251732Y-131718288D01*
X210263282Y-131638526D01*
X210282231Y-131557738D01*
X210309994Y-131467821D01*
X210333881Y-131399410D01*
X210355447Y-131339453D01*
X210376610Y-131280551D01*
X210394126Y-131231733D01*
X210400600Y-131213658D01*
X210435353Y-131081268D01*
X210449261Y-130940475D01*
X210442316Y-130797047D01*
X210414509Y-130656752D01*
X210401455Y-130614212D01*
X210376064Y-130543582D01*
X210349439Y-130482506D01*
X210317763Y-130423964D01*
X210277218Y-130360931D01*
X210223984Y-130286385D01*
X210221004Y-130282343D01*
X210155449Y-130186885D01*
X210105300Y-130097250D01*
X210065750Y-130004210D01*
X210046546Y-129947522D01*
X210035011Y-129907881D01*
X210026903Y-129870701D01*
X210021649Y-129830194D01*
X210018673Y-129780573D01*
X210017403Y-129716049D01*
X210017227Y-129651884D01*
X210017541Y-129575070D01*
X210018787Y-129517631D01*
X210021702Y-129473745D01*
X210027023Y-129437589D01*
X210035488Y-129403342D01*
X210047833Y-129365181D01*
X210056722Y-129339913D01*
X210122064Y-129192082D01*
X210206965Y-129058716D01*
X210309718Y-128941399D01*
X210428617Y-128841718D01*
X210561953Y-128761258D01*
X210708019Y-128701606D01*
X210760366Y-128686323D01*
X210858362Y-128667991D01*
X210969496Y-128659490D01*
X211084023Y-128660822D01*
G37*
%TD*%
D11*
%TO.C,MH4*%
X209500000Y-98500000D03*
%TD*%
%TO.C,MH4*%
X160500000Y-81000000D03*
%TD*%
%TO.C,MH4*%
X223500000Y-121500000D03*
%TD*%
%TO.C,MH4*%
X154000000Y-137000000D03*
%TD*%
%TO.C,MH4*%
X189000000Y-73000000D03*
%TD*%
D12*
%TO.C,D1*%
X152500000Y-68500000D03*
D13*
X153725000Y-68500000D03*
X157275000Y-68500000D03*
D14*
X158500000Y-68500000D03*
%TD*%
D15*
%TO.C,SW2*%
X174270398Y-76558661D03*
D16*
X174256738Y-72349360D03*
D17*
X175030767Y-80264648D03*
D18*
X179757000Y-76175000D03*
D17*
X180172051Y-82110506D03*
X185006407Y-79567083D03*
D16*
X184671307Y-71621102D03*
D15*
X185243602Y-75791339D03*
D19*
X176905029Y-82338959D03*
D20*
X188273429Y-79338630D03*
%TD*%
D12*
%TO.C,D17*%
X223750000Y-139400000D03*
D13*
X224975000Y-139400000D03*
X228525000Y-139400000D03*
D14*
X229750000Y-139400000D03*
%TD*%
D15*
%TO.C,SW9*%
X212500000Y-90000000D03*
D16*
X212780000Y-85800000D03*
D17*
X213000000Y-93750000D03*
D18*
X218000000Y-90000000D03*
D17*
X218000000Y-95950000D03*
X223000000Y-93750000D03*
D16*
X223220000Y-85800000D03*
D15*
X223500000Y-90000000D03*
D21*
X214725000Y-95950000D03*
D22*
X226275000Y-93750000D03*
%TD*%
D17*
%TO.C,SW16*%
X152079270Y-128000858D03*
X153377606Y-122694793D03*
D23*
X153946304Y-125920039D03*
D24*
X149774090Y-114927535D03*
%TD*%
D12*
%TO.C,D4*%
X152500000Y-76000000D03*
D13*
X153725000Y-76000000D03*
X157275000Y-76000000D03*
D14*
X158500000Y-76000000D03*
%TD*%
D15*
%TO.C,SW5*%
X230500000Y-76000000D03*
D16*
X230780000Y-71800000D03*
D17*
X231000000Y-79750000D03*
D18*
X236000000Y-76000000D03*
D17*
X236000000Y-81950000D03*
X241000000Y-79750000D03*
D16*
X241220000Y-71800000D03*
D15*
X241500000Y-76000000D03*
D21*
X232725000Y-81950000D03*
D22*
X244275000Y-79750000D03*
%TD*%
D15*
%TO.C,SW12*%
X176642398Y-110476661D03*
D16*
X176628738Y-106267360D03*
D17*
X177402767Y-114182648D03*
D18*
X182129000Y-110093000D03*
D17*
X182544051Y-116028506D03*
X187378407Y-113485083D03*
D16*
X187043307Y-105539102D03*
D15*
X187615602Y-109709339D03*
D19*
X179277029Y-116256959D03*
D20*
X190645429Y-113256630D03*
%TD*%
D15*
%TO.C,SW7*%
X175456398Y-93517661D03*
D16*
X175442738Y-89308360D03*
D17*
X176216767Y-97223648D03*
D18*
X180943000Y-93134000D03*
D17*
X181358051Y-99069506D03*
X186192407Y-96526083D03*
D16*
X185857307Y-88580102D03*
D15*
X186429602Y-92750339D03*
D19*
X178091029Y-99297959D03*
D20*
X189459429Y-96297630D03*
%TD*%
D15*
%TO.C,SW11*%
X159943557Y-125091065D03*
D16*
X159489981Y-120906251D03*
D17*
X161087142Y-128697270D03*
D18*
X165360000Y-124136000D03*
D17*
X166393207Y-129995606D03*
X170935219Y-126960788D03*
D16*
X169771374Y-119093364D03*
D15*
X170776443Y-123180935D03*
D25*
X163167961Y-130564304D03*
D26*
X174160465Y-126392090D03*
%TD*%
D12*
%TO.C,D9*%
X162975000Y-76000000D03*
D13*
X164200000Y-76000000D03*
X167750000Y-76000000D03*
D14*
X168975000Y-76000000D03*
%TD*%
D27*
%TO.C,PSW1*%
X247950000Y-103100000D03*
X247900000Y-106100000D03*
D28*
X246100000Y-106850000D03*
X246100000Y-103850000D03*
X246100000Y-102350000D03*
D29*
X248000000Y-108450000D03*
X248000000Y-100500000D03*
%TD*%
D17*
%TO.C,SW18*%
X245872905Y-128566920D03*
X247355629Y-133824441D03*
D30*
X246328697Y-125323792D03*
D31*
X246899837Y-137067569D03*
%TD*%
D12*
%TO.C,D16*%
X223750000Y-136700000D03*
D13*
X224975000Y-136700000D03*
X228525000Y-136700000D03*
D14*
X229750000Y-136700000D03*
%TD*%
D15*
%TO.C,SW6*%
X156991557Y-108349065D03*
D16*
X156537981Y-104164251D03*
D17*
X158135142Y-111955270D03*
D18*
X162408000Y-107394000D03*
D17*
X163441207Y-113253606D03*
X167983219Y-110218788D03*
D16*
X166819374Y-102351364D03*
D15*
X167824443Y-106438935D03*
D25*
X160215961Y-113822304D03*
D26*
X171208465Y-109650090D03*
%TD*%
D15*
%TO.C,SW15*%
X230500000Y-110000000D03*
D16*
X230780000Y-105800000D03*
D17*
X231000000Y-113750000D03*
D18*
X236000000Y-110000000D03*
D17*
X236000000Y-115950000D03*
X241000000Y-113750000D03*
D16*
X241220000Y-105800000D03*
D15*
X241500000Y-110000000D03*
D21*
X232725000Y-115950000D03*
D22*
X244275000Y-113750000D03*
%TD*%
D12*
%TO.C,D3*%
X152500000Y-73500000D03*
D13*
X153725000Y-73500000D03*
X157275000Y-73500000D03*
D14*
X158500000Y-73500000D03*
%TD*%
D15*
%TO.C,SW8*%
X194500000Y-83000000D03*
D16*
X194780000Y-78800000D03*
D17*
X195000000Y-86750000D03*
D18*
X200000000Y-83000000D03*
D17*
X200000000Y-88950000D03*
X205000000Y-86750000D03*
D16*
X205220000Y-78800000D03*
D15*
X205500000Y-83000000D03*
D21*
X196725000Y-88950000D03*
D22*
X208275000Y-86750000D03*
%TD*%
D12*
%TO.C,D5*%
X152500000Y-78500000D03*
D13*
X153725000Y-78500000D03*
X157275000Y-78500000D03*
D14*
X158500000Y-78500000D03*
%TD*%
D12*
%TO.C,D6*%
X162975000Y-68500000D03*
D13*
X164200000Y-68500000D03*
X167750000Y-68500000D03*
D14*
X168975000Y-68500000D03*
%TD*%
D12*
%TO.C,D10*%
X162975000Y-78500000D03*
D13*
X164200000Y-78500000D03*
X167750000Y-78500000D03*
D14*
X168975000Y-78500000D03*
%TD*%
D15*
%TO.C,SW4*%
X212500000Y-73000000D03*
D16*
X212780000Y-68800000D03*
D17*
X213000000Y-76750000D03*
D18*
X218000000Y-73000000D03*
D17*
X218000000Y-78950000D03*
X223000000Y-76750000D03*
D16*
X223220000Y-68800000D03*
D15*
X223500000Y-73000000D03*
D21*
X214725000Y-78950000D03*
D22*
X226275000Y-76750000D03*
%TD*%
D15*
%TO.C,SW10*%
X230500000Y-93000000D03*
D16*
X230780000Y-88800000D03*
D17*
X231000000Y-96750000D03*
D18*
X236000000Y-93000000D03*
D17*
X236000000Y-98950000D03*
X241000000Y-96750000D03*
D16*
X241220000Y-88800000D03*
D15*
X241500000Y-93000000D03*
D21*
X232725000Y-98950000D03*
D22*
X244275000Y-96750000D03*
%TD*%
D32*
%TO.C,D15*%
X204500000Y-117000000D03*
D33*
X204500000Y-115775000D03*
X204500000Y-112225000D03*
D34*
X204500000Y-111000000D03*
%TD*%
D12*
%TO.C,D2*%
X152500000Y-71000000D03*
D13*
X153725000Y-71000000D03*
X157275000Y-71000000D03*
D14*
X158500000Y-71000000D03*
%TD*%
D32*
%TO.C,D11*%
X195500000Y-117000000D03*
D33*
X195500000Y-115775000D03*
X195500000Y-112225000D03*
D34*
X195500000Y-111000000D03*
%TD*%
D35*
%TO.C,J1*%
X247500000Y-86500000D03*
X247500000Y-88500000D03*
X247500000Y-90500000D03*
X247500000Y-92500000D03*
%TD*%
D12*
%TO.C,D18*%
X233500000Y-139300000D03*
D13*
X234725000Y-139300000D03*
X238275000Y-139300000D03*
D14*
X239500000Y-139300000D03*
%TD*%
D17*
%TO.C,SW3*%
X195000000Y-69750000D03*
X200000000Y-71950000D03*
X205000000Y-69750000D03*
D21*
X196725000Y-71950000D03*
D22*
X208275000Y-69750000D03*
%TD*%
D32*
%TO.C,D14*%
X202250000Y-117000000D03*
D33*
X202250000Y-115775000D03*
X202250000Y-112225000D03*
D34*
X202250000Y-111000000D03*
%TD*%
D32*
%TO.C,D13*%
X200000000Y-117000000D03*
D33*
X200000000Y-115775000D03*
X200000000Y-112225000D03*
D34*
X200000000Y-111000000D03*
%TD*%
D15*
%TO.C,SW17*%
X228050538Y-127271152D03*
D16*
X228549965Y-123091562D03*
D17*
X228353592Y-131042181D03*
D18*
X233543000Y-127559000D03*
D17*
X233231601Y-133500846D03*
X238339888Y-131565541D03*
D16*
X238975657Y-123637950D03*
D15*
X239035462Y-127846848D03*
D36*
X229961089Y-133329445D03*
D37*
X241610400Y-131736941D03*
%TD*%
D15*
%TO.C,SW14*%
X212500000Y-107000000D03*
D16*
X212780000Y-102800000D03*
D17*
X213000000Y-110750000D03*
D18*
X218000000Y-107000000D03*
D17*
X218000000Y-112950000D03*
X223000000Y-110750000D03*
D16*
X223220000Y-102800000D03*
D15*
X223500000Y-107000000D03*
D21*
X214725000Y-112950000D03*
D22*
X226275000Y-110750000D03*
%TD*%
D38*
%TO.C,U1*%
X191920000Y-138240000D03*
X190650000Y-121693600D03*
X194460000Y-138240000D03*
X193190000Y-121693600D03*
X197000000Y-138240000D03*
X195730000Y-121693600D03*
X199540000Y-138240000D03*
X198270000Y-121693600D03*
X202080000Y-138240000D03*
X200810000Y-121693600D03*
X204620000Y-138240000D03*
X203350000Y-121693600D03*
X207160000Y-138240000D03*
X205890000Y-121693600D03*
X209700000Y-138240000D03*
X208430000Y-121693600D03*
X212240000Y-138240000D03*
X210970000Y-121693600D03*
X214780000Y-138240000D03*
X213510000Y-121693600D03*
X217320000Y-138240000D03*
X216050000Y-121693600D03*
X219860000Y-138240000D03*
X218590000Y-121693600D03*
X218590000Y-136913600D03*
X219860000Y-123000000D03*
X216050000Y-136913600D03*
X217320000Y-123000000D03*
X213510000Y-136913600D03*
X214780000Y-123000000D03*
X210970000Y-136913600D03*
X212240000Y-123000000D03*
X208430000Y-136913600D03*
X209700000Y-123000000D03*
X205890000Y-136913600D03*
X207160000Y-123000000D03*
X203350000Y-136913600D03*
X204620000Y-123000000D03*
X200810000Y-136913600D03*
X202080000Y-123000000D03*
X198270000Y-136913600D03*
X199540000Y-123000000D03*
X195730000Y-136913600D03*
X197000000Y-123000000D03*
X193190000Y-136913600D03*
X194460000Y-123000000D03*
X190650000Y-136913600D03*
X191920000Y-123000000D03*
%TD*%
D39*
%TO.C,BT2*%
X178150000Y-121850000D03*
D40*
X178150000Y-124390000D03*
%TD*%
D32*
%TO.C,D12*%
X197750000Y-117000000D03*
D33*
X197750000Y-115775000D03*
X197750000Y-112225000D03*
D34*
X197750000Y-111000000D03*
%TD*%
D41*
%TO.C,RSW1*%
X247500000Y-67750000D03*
X247500000Y-74250000D03*
%TD*%
D15*
%TO.C,SW1*%
X154039557Y-91607065D03*
D16*
X153585981Y-87422251D03*
D17*
X155183142Y-95213270D03*
D18*
X159456000Y-90652000D03*
D17*
X160489207Y-96511606D03*
X165031219Y-93476788D03*
D16*
X163867374Y-85609364D03*
D15*
X164872443Y-89696935D03*
D25*
X157263961Y-97080304D03*
D26*
X168256465Y-92908090D03*
%TD*%
D12*
%TO.C,D7*%
X162975000Y-71000000D03*
D13*
X164200000Y-71000000D03*
X167750000Y-71000000D03*
D14*
X168975000Y-71000000D03*
%TD*%
D12*
%TO.C,D8*%
X162975000Y-73500000D03*
D13*
X164200000Y-73500000D03*
X167750000Y-73500000D03*
D14*
X168975000Y-73500000D03*
%TD*%
D15*
%TO.C,SW13*%
X194500000Y-100000000D03*
D16*
X194780000Y-95800000D03*
D17*
X195000000Y-103750000D03*
D18*
X200000000Y-100000000D03*
D17*
X200000000Y-105950000D03*
X205000000Y-103750000D03*
D16*
X205220000Y-95800000D03*
D15*
X205500000Y-100000000D03*
D21*
X196725000Y-105950000D03*
D22*
X208275000Y-103750000D03*
%TD*%
M02*
