M48
; DRILL file {KiCad 9.0.0} date 2025-05-15T16:18:30+0900
; FORMAT={-:-/ absolute / inch / decimal}
; #@! TF.CreationDate,2025-05-15T16:18:30+09:00
; #@! TF.GenerationSoftware,Kicad,Pcbnew,9.0.0
; #@! TF.FileFunction,Plated,1,2,PTH
FMAT,2
INCH
; #@! TA.AperFunction,Plated,PTH,ViaDrill
T1C0.0118
; #@! TA.AperFunction,Plated,PTH,ComponentDrill
T2C0.0320
; #@! TA.AperFunction,Plated,PTH,ComponentDrill
T3C0.0394
; #@! TA.AperFunction,Plated,PTH,ComponentDrill
T4C0.0512
; #@! TA.AperFunction,Plated,PTH,ComponentDrill
T5C0.0866
%
G90
G05
T1
X6.0236Y-3.8661
X6.1575Y-5.189
X6.1811Y-4.685
X6.2362Y-4.5251
X6.397Y-5.3353
X6.6004Y-3.5689
X6.6378Y-3.3819
X6.6378Y-3.4173
X6.6378Y-3.4528
X6.6378Y-3.4895
X6.7402Y-4.2047
X6.817Y-4.0019
X6.8307Y-3.2795
X6.8307Y-5.0709
X6.8891Y-3.9849
X6.9646Y-4.5787
X6.9921Y-4.0157
X7.0329Y-4.0172
X7.0748Y-4.0197
X7.3458Y-3.2237
X7.374Y-3.378
X7.3868Y-3.8672
X7.5059Y-4.9291
X7.5866Y-3.9094
X7.6176Y-3.5039
X7.6181Y-2.8327
X7.6283Y-4.3038
X7.6885Y-4.2633
X7.7059Y-4.8925
X7.8559Y-4.9134
X7.9724Y-3.5669
X8.1059Y-4.8976
X8.1339Y-2.8327
X8.1417Y-4.7165
X8.1449Y-4.1811
X8.1559Y-5.3386
X8.1614Y-2.9843
X8.2059Y-4.8819
X8.252Y-3.1102
X8.252Y-3.7795
X8.2559Y-5.3386
X8.2795Y-4.7047
X8.3445Y-4.4705
X8.3559Y-5.3386
X8.3626Y-4.685
X8.4567Y-5.3386
X8.4882Y-4.7165
X8.5559Y-5.3386
X8.626Y-5.4881
X8.6559Y-5.3386
X8.8106Y-4.4465
X8.8524Y-3.1083
X8.8642Y-3.7776
X8.9656Y-5.3238
X8.9961Y-3.252
X8.9961Y-3.9213
X9.0663Y-4.5801
X9.5138Y-4.5748
X9.5689Y-3.8957
X9.5709Y-3.2264
X9.6102Y-4.1476
X9.6417Y-4.1476
X9.6575Y-5.5079
X9.685Y-4.7953
T2
X6.0039Y-2.6969
X6.0039Y-2.7953
X6.0039Y-2.8937
X6.0039Y-2.9921
X6.0039Y-3.0906
X6.2402Y-2.6969
X6.2402Y-2.7953
X6.2402Y-2.8937
X6.2402Y-2.9921
X6.2402Y-3.0906
X6.4163Y-2.6969
X6.4163Y-2.7953
X6.4163Y-2.8937
X6.4163Y-2.9921
X6.4163Y-3.0906
X6.6526Y-2.6969
X6.6526Y-2.7953
X6.6526Y-2.8937
X6.6526Y-2.9921
X6.6526Y-3.0906
X7.5059Y-4.7911
X7.5059Y-5.3903
X7.5559Y-4.8425
X7.5559Y-5.4425
X7.6059Y-4.7911
X7.6059Y-5.3903
X7.6559Y-4.8425
X7.6559Y-5.4425
X7.6969Y-4.3701
X7.6969Y-4.6063
X7.7059Y-4.7911
X7.7059Y-5.3903
X7.7559Y-4.8425
X7.7559Y-5.4425
X7.7854Y-4.3701
X7.7854Y-4.6063
X7.8059Y-4.7911
X7.8059Y-5.3903
X7.8559Y-4.8425
X7.8559Y-5.4425
X7.874Y-4.3701
X7.874Y-4.6063
X7.9059Y-4.7911
X7.9059Y-5.3903
X7.9559Y-4.8425
X7.9559Y-5.4425
X7.9626Y-4.3701
X7.9626Y-4.6063
X8.0059Y-4.7911
X8.0059Y-5.3903
X8.0512Y-4.3701
X8.0512Y-4.6063
X8.0559Y-4.8425
X8.0559Y-5.4425
X8.1059Y-4.7911
X8.1059Y-5.3903
X8.1559Y-4.8425
X8.1559Y-5.4425
X8.2059Y-4.7911
X8.2059Y-5.3903
X8.2559Y-4.8425
X8.2559Y-5.4425
X8.3059Y-4.7911
X8.3059Y-5.3903
X8.3559Y-4.8425
X8.3559Y-5.4425
X8.4059Y-4.7911
X8.4059Y-5.3903
X8.4559Y-4.8425
X8.4559Y-5.4425
X8.5059Y-4.7911
X8.5059Y-5.3903
X8.5559Y-4.8425
X8.5559Y-5.4425
X8.6059Y-4.7911
X8.6059Y-5.3903
X8.6559Y-4.8425
X8.6559Y-5.4425
X8.8091Y-5.3819
X8.8091Y-5.4882
X9.0453Y-5.3819
X9.0453Y-5.4882
X9.1929Y-5.4843
X9.4291Y-5.4843
X9.7441Y-3.4055
X9.7441Y-3.4843
X9.7441Y-3.563
X9.7441Y-3.6417
T3
X7.0138Y-4.7972
X7.0138Y-4.8972
T4
X9.7441Y-2.6673
X9.7441Y-2.9232
T5
X6.063Y-5.3937
X6.3189Y-3.189
X7.4409Y-2.874
X8.248Y-3.878
X8.7992Y-4.7835
M30
