%TF.GenerationSoftware,KiCad,Pcbnew,9.0.0*%
%TF.CreationDate,2025-05-15T16:18:32+09:00*%
%TF.ProjectId,xylo,78796c6f-2e6b-4696-9361-645f70636258,rev?*%
%TF.SameCoordinates,Original*%
%TF.FileFunction,Legend,Bot*%
%TF.FilePolarity,Positive*%
%FSLAX46Y46*%
G04 Gerber Fmt 4.6, Leading zero omitted, Abs format (unit mm)*
G04 Created by KiCad (PCBNEW 9.0.0) date 2025-05-15 16:18:32*
%MOMM*%
%LPD*%
G01*
G04 APERTURE LIST*
%ADD10C,0.200000*%
%ADD11C,0.150000*%
%ADD12C,0.100000*%
G04 APERTURE END LIST*
D10*
X186225564Y-137867219D02*
X185558898Y-138867219D01*
X185558898Y-137867219D02*
X186225564Y-138867219D01*
X185273183Y-138200552D02*
X185035088Y-138867219D01*
X184796993Y-138200552D02*
X185035088Y-138867219D01*
X185035088Y-138867219D02*
X185130326Y-139105314D01*
X185130326Y-139105314D02*
X185177945Y-139152933D01*
X185177945Y-139152933D02*
X185273183Y-139200552D01*
X184273183Y-138867219D02*
X184368421Y-138819600D01*
X184368421Y-138819600D02*
X184416040Y-138724361D01*
X184416040Y-138724361D02*
X184416040Y-137867219D01*
X183749373Y-138867219D02*
X183844611Y-138819600D01*
X183844611Y-138819600D02*
X183892230Y-138771980D01*
X183892230Y-138771980D02*
X183939849Y-138676742D01*
X183939849Y-138676742D02*
X183939849Y-138391028D01*
X183939849Y-138391028D02*
X183892230Y-138295790D01*
X183892230Y-138295790D02*
X183844611Y-138248171D01*
X183844611Y-138248171D02*
X183749373Y-138200552D01*
X183749373Y-138200552D02*
X183606516Y-138200552D01*
X183606516Y-138200552D02*
X183511278Y-138248171D01*
X183511278Y-138248171D02*
X183463659Y-138295790D01*
X183463659Y-138295790D02*
X183416040Y-138391028D01*
X183416040Y-138391028D02*
X183416040Y-138676742D01*
X183416040Y-138676742D02*
X183463659Y-138771980D01*
X183463659Y-138771980D02*
X183511278Y-138819600D01*
X183511278Y-138819600D02*
X183606516Y-138867219D01*
X183606516Y-138867219D02*
X183749373Y-138867219D01*
X183225564Y-138962457D02*
X182463659Y-138962457D01*
X181892230Y-138343409D02*
X181749373Y-138391028D01*
X181749373Y-138391028D02*
X181701754Y-138438647D01*
X181701754Y-138438647D02*
X181654135Y-138533885D01*
X181654135Y-138533885D02*
X181654135Y-138676742D01*
X181654135Y-138676742D02*
X181701754Y-138771980D01*
X181701754Y-138771980D02*
X181749373Y-138819600D01*
X181749373Y-138819600D02*
X181844611Y-138867219D01*
X181844611Y-138867219D02*
X182225563Y-138867219D01*
X182225563Y-138867219D02*
X182225563Y-137867219D01*
X182225563Y-137867219D02*
X181892230Y-137867219D01*
X181892230Y-137867219D02*
X181796992Y-137914838D01*
X181796992Y-137914838D02*
X181749373Y-137962457D01*
X181749373Y-137962457D02*
X181701754Y-138057695D01*
X181701754Y-138057695D02*
X181701754Y-138152933D01*
X181701754Y-138152933D02*
X181749373Y-138248171D01*
X181749373Y-138248171D02*
X181796992Y-138295790D01*
X181796992Y-138295790D02*
X181892230Y-138343409D01*
X181892230Y-138343409D02*
X182225563Y-138343409D01*
X181082706Y-138867219D02*
X181177944Y-138819600D01*
X181177944Y-138819600D02*
X181225563Y-138771980D01*
X181225563Y-138771980D02*
X181273182Y-138676742D01*
X181273182Y-138676742D02*
X181273182Y-138391028D01*
X181273182Y-138391028D02*
X181225563Y-138295790D01*
X181225563Y-138295790D02*
X181177944Y-138248171D01*
X181177944Y-138248171D02*
X181082706Y-138200552D01*
X181082706Y-138200552D02*
X180939849Y-138200552D01*
X180939849Y-138200552D02*
X180844611Y-138248171D01*
X180844611Y-138248171D02*
X180796992Y-138295790D01*
X180796992Y-138295790D02*
X180749373Y-138391028D01*
X180749373Y-138391028D02*
X180749373Y-138676742D01*
X180749373Y-138676742D02*
X180796992Y-138771980D01*
X180796992Y-138771980D02*
X180844611Y-138819600D01*
X180844611Y-138819600D02*
X180939849Y-138867219D01*
X180939849Y-138867219D02*
X181082706Y-138867219D01*
X180320801Y-138200552D02*
X180320801Y-138867219D01*
X180320801Y-138295790D02*
X180273182Y-138248171D01*
X180273182Y-138248171D02*
X180177944Y-138200552D01*
X180177944Y-138200552D02*
X180035087Y-138200552D01*
X180035087Y-138200552D02*
X179939849Y-138248171D01*
X179939849Y-138248171D02*
X179892230Y-138343409D01*
X179892230Y-138343409D02*
X179892230Y-138867219D01*
X179463658Y-138819600D02*
X179368420Y-138867219D01*
X179368420Y-138867219D02*
X179177944Y-138867219D01*
X179177944Y-138867219D02*
X179082706Y-138819600D01*
X179082706Y-138819600D02*
X179035087Y-138724361D01*
X179035087Y-138724361D02*
X179035087Y-138676742D01*
X179035087Y-138676742D02*
X179082706Y-138581504D01*
X179082706Y-138581504D02*
X179177944Y-138533885D01*
X179177944Y-138533885D02*
X179320801Y-138533885D01*
X179320801Y-138533885D02*
X179416039Y-138486266D01*
X179416039Y-138486266D02*
X179463658Y-138391028D01*
X179463658Y-138391028D02*
X179463658Y-138343409D01*
X179463658Y-138343409D02*
X179416039Y-138248171D01*
X179416039Y-138248171D02*
X179320801Y-138200552D01*
X179320801Y-138200552D02*
X179177944Y-138200552D01*
X179177944Y-138200552D02*
X179082706Y-138248171D01*
X178177944Y-138867219D02*
X178177944Y-138343409D01*
X178177944Y-138343409D02*
X178225563Y-138248171D01*
X178225563Y-138248171D02*
X178320801Y-138200552D01*
X178320801Y-138200552D02*
X178511277Y-138200552D01*
X178511277Y-138200552D02*
X178606515Y-138248171D01*
X178177944Y-138819600D02*
X178273182Y-138867219D01*
X178273182Y-138867219D02*
X178511277Y-138867219D01*
X178511277Y-138867219D02*
X178606515Y-138819600D01*
X178606515Y-138819600D02*
X178654134Y-138724361D01*
X178654134Y-138724361D02*
X178654134Y-138629123D01*
X178654134Y-138629123D02*
X178606515Y-138533885D01*
X178606515Y-138533885D02*
X178511277Y-138486266D01*
X178511277Y-138486266D02*
X178273182Y-138486266D01*
X178273182Y-138486266D02*
X178177944Y-138438647D01*
X177701753Y-138867219D02*
X177701753Y-138200552D01*
X177701753Y-137867219D02*
X177749372Y-137914838D01*
X177749372Y-137914838D02*
X177701753Y-137962457D01*
X177701753Y-137962457D02*
X177654134Y-137914838D01*
X177654134Y-137914838D02*
X177701753Y-137867219D01*
X177701753Y-137867219D02*
X177701753Y-137962457D01*
X176558896Y-138200552D02*
X176320801Y-138867219D01*
X176320801Y-138867219D02*
X176082706Y-138200552D01*
X175749372Y-137962457D02*
X175701753Y-137914838D01*
X175701753Y-137914838D02*
X175606515Y-137867219D01*
X175606515Y-137867219D02*
X175368420Y-137867219D01*
X175368420Y-137867219D02*
X175273182Y-137914838D01*
X175273182Y-137914838D02*
X175225563Y-137962457D01*
X175225563Y-137962457D02*
X175177944Y-138057695D01*
X175177944Y-138057695D02*
X175177944Y-138152933D01*
X175177944Y-138152933D02*
X175225563Y-138295790D01*
X175225563Y-138295790D02*
X175796991Y-138867219D01*
X175796991Y-138867219D02*
X175177944Y-138867219D01*
X174749372Y-138771980D02*
X174701753Y-138819600D01*
X174701753Y-138819600D02*
X174749372Y-138867219D01*
X174749372Y-138867219D02*
X174796991Y-138819600D01*
X174796991Y-138819600D02*
X174749372Y-138771980D01*
X174749372Y-138771980D02*
X174749372Y-138867219D01*
X174082706Y-137867219D02*
X173987468Y-137867219D01*
X173987468Y-137867219D02*
X173892230Y-137914838D01*
X173892230Y-137914838D02*
X173844611Y-137962457D01*
X173844611Y-137962457D02*
X173796992Y-138057695D01*
X173796992Y-138057695D02*
X173749373Y-138248171D01*
X173749373Y-138248171D02*
X173749373Y-138486266D01*
X173749373Y-138486266D02*
X173796992Y-138676742D01*
X173796992Y-138676742D02*
X173844611Y-138771980D01*
X173844611Y-138771980D02*
X173892230Y-138819600D01*
X173892230Y-138819600D02*
X173987468Y-138867219D01*
X173987468Y-138867219D02*
X174082706Y-138867219D01*
X174082706Y-138867219D02*
X174177944Y-138819600D01*
X174177944Y-138819600D02*
X174225563Y-138771980D01*
X174225563Y-138771980D02*
X174273182Y-138676742D01*
X174273182Y-138676742D02*
X174320801Y-138486266D01*
X174320801Y-138486266D02*
X174320801Y-138248171D01*
X174320801Y-138248171D02*
X174273182Y-138057695D01*
X174273182Y-138057695D02*
X174225563Y-137962457D01*
X174225563Y-137962457D02*
X174177944Y-137914838D01*
X174177944Y-137914838D02*
X174082706Y-137867219D01*
X172130325Y-138819600D02*
X172225563Y-138867219D01*
X172225563Y-138867219D02*
X172416039Y-138867219D01*
X172416039Y-138867219D02*
X172511277Y-138819600D01*
X172511277Y-138819600D02*
X172558896Y-138771980D01*
X172558896Y-138771980D02*
X172606515Y-138676742D01*
X172606515Y-138676742D02*
X172606515Y-138391028D01*
X172606515Y-138391028D02*
X172558896Y-138295790D01*
X172558896Y-138295790D02*
X172511277Y-138248171D01*
X172511277Y-138248171D02*
X172416039Y-138200552D01*
X172416039Y-138200552D02*
X172225563Y-138200552D01*
X172225563Y-138200552D02*
X172130325Y-138248171D01*
X171701753Y-138867219D02*
X171701753Y-137867219D01*
X171273182Y-138867219D02*
X171273182Y-138343409D01*
X171273182Y-138343409D02*
X171320801Y-138248171D01*
X171320801Y-138248171D02*
X171416039Y-138200552D01*
X171416039Y-138200552D02*
X171558896Y-138200552D01*
X171558896Y-138200552D02*
X171654134Y-138248171D01*
X171654134Y-138248171D02*
X171701753Y-138295790D01*
X170654134Y-138867219D02*
X170749372Y-138819600D01*
X170749372Y-138819600D02*
X170796991Y-138771980D01*
X170796991Y-138771980D02*
X170844610Y-138676742D01*
X170844610Y-138676742D02*
X170844610Y-138391028D01*
X170844610Y-138391028D02*
X170796991Y-138295790D01*
X170796991Y-138295790D02*
X170749372Y-138248171D01*
X170749372Y-138248171D02*
X170654134Y-138200552D01*
X170654134Y-138200552D02*
X170511277Y-138200552D01*
X170511277Y-138200552D02*
X170416039Y-138248171D01*
X170416039Y-138248171D02*
X170368420Y-138295790D01*
X170368420Y-138295790D02*
X170320801Y-138391028D01*
X170320801Y-138391028D02*
X170320801Y-138676742D01*
X170320801Y-138676742D02*
X170368420Y-138771980D01*
X170368420Y-138771980D02*
X170416039Y-138819600D01*
X170416039Y-138819600D02*
X170511277Y-138867219D01*
X170511277Y-138867219D02*
X170654134Y-138867219D01*
X169463658Y-138819600D02*
X169558896Y-138867219D01*
X169558896Y-138867219D02*
X169749372Y-138867219D01*
X169749372Y-138867219D02*
X169844610Y-138819600D01*
X169844610Y-138819600D02*
X169892229Y-138771980D01*
X169892229Y-138771980D02*
X169939848Y-138676742D01*
X169939848Y-138676742D02*
X169939848Y-138391028D01*
X169939848Y-138391028D02*
X169892229Y-138295790D01*
X169892229Y-138295790D02*
X169844610Y-138248171D01*
X169844610Y-138248171D02*
X169749372Y-138200552D01*
X169749372Y-138200552D02*
X169558896Y-138200552D01*
X169558896Y-138200552D02*
X169463658Y-138248171D01*
X168368419Y-138200552D02*
X168130324Y-138867219D01*
X168130324Y-138867219D02*
X167892229Y-138200552D01*
X166987467Y-138867219D02*
X167558895Y-138867219D01*
X167273181Y-138867219D02*
X167273181Y-137867219D01*
X167273181Y-137867219D02*
X167368419Y-138010076D01*
X167368419Y-138010076D02*
X167463657Y-138105314D01*
X167463657Y-138105314D02*
X167558895Y-138152933D01*
D11*
X247954819Y-69420618D02*
X247478628Y-69087285D01*
X247954819Y-68849190D02*
X246954819Y-68849190D01*
X246954819Y-68849190D02*
X246954819Y-69230142D01*
X246954819Y-69230142D02*
X247002438Y-69325380D01*
X247002438Y-69325380D02*
X247050057Y-69372999D01*
X247050057Y-69372999D02*
X247145295Y-69420618D01*
X247145295Y-69420618D02*
X247288152Y-69420618D01*
X247288152Y-69420618D02*
X247383390Y-69372999D01*
X247383390Y-69372999D02*
X247431009Y-69325380D01*
X247431009Y-69325380D02*
X247478628Y-69230142D01*
X247478628Y-69230142D02*
X247478628Y-68849190D01*
X247431009Y-69849190D02*
X247431009Y-70182523D01*
X247954819Y-70325380D02*
X247954819Y-69849190D01*
X247954819Y-69849190D02*
X246954819Y-69849190D01*
X246954819Y-69849190D02*
X246954819Y-70325380D01*
X247907200Y-70706333D02*
X247954819Y-70849190D01*
X247954819Y-70849190D02*
X247954819Y-71087285D01*
X247954819Y-71087285D02*
X247907200Y-71182523D01*
X247907200Y-71182523D02*
X247859580Y-71230142D01*
X247859580Y-71230142D02*
X247764342Y-71277761D01*
X247764342Y-71277761D02*
X247669104Y-71277761D01*
X247669104Y-71277761D02*
X247573866Y-71230142D01*
X247573866Y-71230142D02*
X247526247Y-71182523D01*
X247526247Y-71182523D02*
X247478628Y-71087285D01*
X247478628Y-71087285D02*
X247431009Y-70896809D01*
X247431009Y-70896809D02*
X247383390Y-70801571D01*
X247383390Y-70801571D02*
X247335771Y-70753952D01*
X247335771Y-70753952D02*
X247240533Y-70706333D01*
X247240533Y-70706333D02*
X247145295Y-70706333D01*
X247145295Y-70706333D02*
X247050057Y-70753952D01*
X247050057Y-70753952D02*
X247002438Y-70801571D01*
X247002438Y-70801571D02*
X246954819Y-70896809D01*
X246954819Y-70896809D02*
X246954819Y-71134904D01*
X246954819Y-71134904D02*
X247002438Y-71277761D01*
X247431009Y-71706333D02*
X247431009Y-72039666D01*
X247954819Y-72182523D02*
X247954819Y-71706333D01*
X247954819Y-71706333D02*
X246954819Y-71706333D01*
X246954819Y-71706333D02*
X246954819Y-72182523D01*
X246954819Y-72468238D02*
X246954819Y-73039666D01*
X247954819Y-72753952D02*
X246954819Y-72753952D01*
%TO.C,D1*%
X155000000Y-69000000D02*
X155000000Y-68000000D01*
X155100000Y-68500000D02*
X156000000Y-69000000D01*
X156000000Y-68000000D02*
X155100000Y-68500000D01*
X156000000Y-69000000D02*
X156000000Y-68000000D01*
%TO.C,SW2*%
X172285756Y-69680347D02*
X173283320Y-69610587D01*
X172355513Y-70677911D02*
X172285756Y-69680347D01*
X172878686Y-78159641D02*
X172913565Y-78658423D01*
X173164688Y-82249654D02*
X173206542Y-82848192D01*
X173206542Y-82848192D02*
X177695580Y-82534288D01*
X173262347Y-83646244D02*
X173192587Y-82648680D01*
X174259911Y-83576487D02*
X173262347Y-83646244D01*
X177367725Y-77845737D02*
X172878686Y-78159641D01*
X177416554Y-78544032D02*
X177367725Y-77845737D01*
X178229240Y-82998192D02*
X178298997Y-83995756D01*
X178832657Y-84459660D02*
X178298997Y-83995756D01*
X181511445Y-79761352D02*
X179017535Y-79935743D01*
X181825349Y-84250391D02*
X178832657Y-84459660D01*
X182045105Y-80225256D02*
X181511445Y-79761352D01*
X182289253Y-83716730D02*
X181825349Y-84250391D01*
X185254089Y-68773513D02*
X186251653Y-68703756D01*
X186251653Y-68703756D02*
X186321413Y-69701320D01*
X187158487Y-81672089D02*
X187228244Y-82669653D01*
X187228244Y-82669653D02*
X186230680Y-82739413D01*
X177695580Y-82534288D02*
G75*
G02*
X178229240Y-82998192I34877J-498783D01*
G01*
X179017535Y-79935743D02*
G75*
G02*
X177416554Y-78544032I-104634J1496347D01*
G01*
%TO.C,D17*%
X226250000Y-139900000D02*
X226250000Y-138900000D01*
X226350000Y-139400000D02*
X227250000Y-139900000D01*
X227250000Y-138900000D02*
X226350000Y-139400000D01*
X227250000Y-139900000D02*
X227250000Y-138900000D01*
%TO.C,SW9*%
X211000000Y-83000000D02*
X212000000Y-83000000D01*
X211000000Y-84000000D02*
X211000000Y-83000000D01*
X211000000Y-91500000D02*
X211000000Y-92000000D01*
X211000000Y-95600000D02*
X211000000Y-96200000D01*
X211000000Y-96200000D02*
X215500000Y-96200000D01*
X211000000Y-97000000D02*
X211000000Y-96000000D01*
X212000000Y-97000000D02*
X211000000Y-97000000D01*
X215500000Y-91500000D02*
X211000000Y-91500000D01*
X215500000Y-92200000D02*
X215500000Y-91500000D01*
X216000000Y-96700000D02*
X216000000Y-97700000D01*
X216500000Y-98200000D02*
X216000000Y-97700000D01*
X219500000Y-93700000D02*
X217000000Y-93700000D01*
X219500000Y-98200000D02*
X216500000Y-98200000D01*
X220000000Y-94200000D02*
X219500000Y-93700000D01*
X220000000Y-97700000D02*
X219500000Y-98200000D01*
X224000000Y-83000000D02*
X225000000Y-83000000D01*
X225000000Y-83000000D02*
X225000000Y-84000000D01*
X225000000Y-96000000D02*
X225000000Y-97000000D01*
X225000000Y-97000000D02*
X224000000Y-97000000D01*
X215500000Y-96200000D02*
G75*
G02*
X216000000Y-96700000I-1J-500001D01*
G01*
X217000000Y-93700000D02*
G75*
G02*
X215500000Y-92200000I1J1500001D01*
G01*
%TO.C,SW16*%
X139408808Y-118049883D02*
X140393616Y-117876235D01*
X139582457Y-119034691D02*
X139408808Y-118049883D01*
X141839883Y-131837192D02*
X141666235Y-130852384D01*
X142824691Y-131663543D02*
X141839883Y-131837192D01*
X149429332Y-125929547D02*
X150210749Y-130361182D01*
X150118698Y-125807993D02*
X149429332Y-125929547D01*
X150210749Y-130361182D02*
X150703153Y-130274358D01*
X150901316Y-121608290D02*
X151335437Y-124070309D01*
X151306896Y-121029062D02*
X150901316Y-121608290D01*
X152211309Y-115792457D02*
X153196117Y-115618808D01*
X153196117Y-115618808D02*
X153369765Y-116603616D01*
X154248461Y-129649224D02*
X154839345Y-129545036D01*
X154463508Y-124534173D02*
X155448316Y-124360525D01*
X154753723Y-120421294D02*
X155332951Y-120826873D01*
X154839345Y-129545036D02*
X154057929Y-125113401D01*
X155332951Y-120826873D02*
X155853896Y-123781297D01*
X155453543Y-128421309D02*
X155627192Y-129406117D01*
X155627192Y-129406117D02*
X154642384Y-129579765D01*
X155853896Y-123781297D02*
X155448316Y-124360525D01*
X151335437Y-124070309D02*
G75*
G02*
X150118698Y-125807994I-1477213J-260472D01*
G01*
X154057929Y-125113401D02*
G75*
G02*
X154463508Y-124534172I492405J86824D01*
G01*
%TO.C,D4*%
X155000000Y-76500000D02*
X155000000Y-75500000D01*
X155100000Y-76000000D02*
X156000000Y-76500000D01*
X156000000Y-75500000D02*
X155100000Y-76000000D01*
X156000000Y-76500000D02*
X156000000Y-75500000D01*
%TO.C,SW5*%
X229000000Y-69000000D02*
X230000000Y-69000000D01*
X229000000Y-70000000D02*
X229000000Y-69000000D01*
X229000000Y-77500000D02*
X229000000Y-78000000D01*
X229000000Y-81600000D02*
X229000000Y-82200000D01*
X229000000Y-82200000D02*
X233500000Y-82200000D01*
X229000000Y-83000000D02*
X229000000Y-82000000D01*
X230000000Y-83000000D02*
X229000000Y-83000000D01*
X233500000Y-77500000D02*
X229000000Y-77500000D01*
X233500000Y-78200000D02*
X233500000Y-77500000D01*
X234000000Y-82700000D02*
X234000000Y-83700000D01*
X234500000Y-84200000D02*
X234000000Y-83700000D01*
X237500000Y-79700000D02*
X235000000Y-79700000D01*
X237500000Y-84200000D02*
X234500000Y-84200000D01*
X238000000Y-80200000D02*
X237500000Y-79700000D01*
X238000000Y-83700000D02*
X237500000Y-84200000D01*
X242000000Y-69000000D02*
X243000000Y-69000000D01*
X243000000Y-69000000D02*
X243000000Y-70000000D01*
X243000000Y-82000000D02*
X243000000Y-83000000D01*
X243000000Y-83000000D02*
X242000000Y-83000000D01*
X233500000Y-82200000D02*
G75*
G02*
X234000000Y-82700000I-1J-500001D01*
G01*
X235000000Y-79700000D02*
G75*
G02*
X233500000Y-78200000I1J1500001D01*
G01*
%TO.C,SW12*%
X174657756Y-103598347D02*
X175655320Y-103528587D01*
X174727513Y-104595911D02*
X174657756Y-103598347D01*
X175250686Y-112077641D02*
X175285565Y-112576423D01*
X175536688Y-116167654D02*
X175578542Y-116766192D01*
X175578542Y-116766192D02*
X180067580Y-116452288D01*
X175634347Y-117564244D02*
X175564587Y-116566680D01*
X176631911Y-117494487D02*
X175634347Y-117564244D01*
X179739725Y-111763737D02*
X175250686Y-112077641D01*
X179788554Y-112462032D02*
X179739725Y-111763737D01*
X180601240Y-116916192D02*
X180670997Y-117913756D01*
X181204657Y-118377660D02*
X180670997Y-117913756D01*
X183883445Y-113679352D02*
X181389535Y-113853743D01*
X184197349Y-118168391D02*
X181204657Y-118377660D01*
X184417105Y-114143256D02*
X183883445Y-113679352D01*
X184661253Y-117634730D02*
X184197349Y-118168391D01*
X187626089Y-102691513D02*
X188623653Y-102621756D01*
X188623653Y-102621756D02*
X188693413Y-103619320D01*
X189530487Y-115590089D02*
X189600244Y-116587653D01*
X189600244Y-116587653D02*
X188602680Y-116657413D01*
X180067580Y-116452288D02*
G75*
G02*
X180601240Y-116916192I34877J-498783D01*
G01*
X181389535Y-113853743D02*
G75*
G02*
X179788554Y-112462032I-104634J1496347D01*
G01*
%TO.C,SW7*%
X173471756Y-86639347D02*
X174469320Y-86569587D01*
X173541513Y-87636911D02*
X173471756Y-86639347D01*
X174064686Y-95118641D02*
X174099565Y-95617423D01*
X174350688Y-99208654D02*
X174392542Y-99807192D01*
X174392542Y-99807192D02*
X178881580Y-99493288D01*
X174448347Y-100605244D02*
X174378587Y-99607680D01*
X175445911Y-100535487D02*
X174448347Y-100605244D01*
X178553725Y-94804737D02*
X174064686Y-95118641D01*
X178602554Y-95503032D02*
X178553725Y-94804737D01*
X179415240Y-99957192D02*
X179484997Y-100954756D01*
X180018657Y-101418660D02*
X179484997Y-100954756D01*
X182697445Y-96720352D02*
X180203535Y-96894743D01*
X183011349Y-101209391D02*
X180018657Y-101418660D01*
X183231105Y-97184256D02*
X182697445Y-96720352D01*
X183475253Y-100675730D02*
X183011349Y-101209391D01*
X186440089Y-85732513D02*
X187437653Y-85662756D01*
X187437653Y-85662756D02*
X187507413Y-86660320D01*
X188344487Y-98631089D02*
X188414244Y-99628653D01*
X188414244Y-99628653D02*
X187416680Y-99698413D01*
X178881580Y-99493288D02*
G75*
G02*
X179415240Y-99957192I34877J-498783D01*
G01*
X180203535Y-96894743D02*
G75*
G02*
X178602554Y-95503032I-104634J1496347D01*
G01*
%TO.C,SW11*%
X157250808Y-118457883D02*
X158235616Y-118284235D01*
X157424457Y-119442691D02*
X157250808Y-118457883D01*
X158726818Y-126828749D02*
X158813642Y-127321153D01*
X159438776Y-130866461D02*
X159542964Y-131457345D01*
X159542964Y-131457345D02*
X163974599Y-130675929D01*
X159681883Y-132245192D02*
X159508235Y-131260384D01*
X160666691Y-132071543D02*
X159681883Y-132245192D01*
X163158453Y-126047332D02*
X158726818Y-126828749D01*
X163280007Y-126736698D02*
X163158453Y-126047332D01*
X164553827Y-131081508D02*
X164727475Y-132066316D01*
X165306703Y-132471896D02*
X164727475Y-132066316D01*
X167479710Y-127519316D02*
X165017691Y-127953437D01*
X168058938Y-127924896D02*
X167479710Y-127519316D01*
X168261127Y-131950951D02*
X165306703Y-132471896D01*
X168666706Y-131371723D02*
X168261127Y-131950951D01*
X170053309Y-116200457D02*
X171038117Y-116026808D01*
X171038117Y-116026808D02*
X171211765Y-117011616D01*
X173295543Y-128829309D02*
X173469192Y-129814117D01*
X173469192Y-129814117D02*
X172484384Y-129987765D01*
X163974599Y-130675929D02*
G75*
G02*
X164553828Y-131081508I86824J-492405D01*
G01*
X165017691Y-127953437D02*
G75*
G02*
X163280006Y-126736698I-260472J1477213D01*
G01*
%TO.C,D9*%
X165475000Y-76500000D02*
X165475000Y-75500000D01*
X165575000Y-76000000D02*
X166475000Y-76500000D01*
X166475000Y-75500000D02*
X165575000Y-76000000D01*
X166475000Y-76500000D02*
X166475000Y-75500000D01*
%TO.C,PSW1*%
X246580000Y-107850000D02*
X249480000Y-107850000D01*
X246630000Y-101100000D02*
X246580000Y-107850000D01*
X249480000Y-101100000D02*
X246630000Y-101100000D01*
X249480000Y-107850000D02*
X249480000Y-101100000D01*
%TO.C,SW18*%
X243436042Y-129739183D02*
X243853560Y-126768378D01*
X243853560Y-126768378D02*
X244418282Y-126342831D01*
X243858912Y-135352665D02*
X243998085Y-134362397D01*
X243861590Y-130303903D02*
X243436042Y-129739183D01*
X244849180Y-135491838D02*
X243858912Y-135352665D01*
X245408550Y-126482004D02*
X244418282Y-126342831D01*
X245668162Y-122479180D02*
X245807335Y-121488912D01*
X245807335Y-121488912D02*
X246797603Y-121628085D01*
X246599550Y-121600250D02*
X245973271Y-126056457D01*
X247193711Y-121683754D02*
X246599550Y-121600250D01*
X247327528Y-130791009D02*
X247892248Y-130365462D01*
X247892248Y-130365462D02*
X248240181Y-127889791D01*
X249934343Y-126613149D02*
X250627531Y-126710570D01*
X250627531Y-126710570D02*
X251253810Y-122254364D01*
X251253810Y-122254364D02*
X250758676Y-122184777D01*
X257722665Y-137301088D02*
X256732397Y-137161915D01*
X257861838Y-136310820D02*
X257722665Y-137301088D01*
X258680820Y-123298162D02*
X259671088Y-123437335D01*
X259671088Y-123437335D02*
X259531915Y-124427603D01*
X245973271Y-126056457D02*
G75*
G02*
X245408550Y-126482004I-495135J69588D01*
G01*
X248240181Y-127889791D02*
G75*
G02*
X249934343Y-126613149I1485403J-208761D01*
G01*
%TO.C,D16*%
X226250000Y-137200000D02*
X226250000Y-136200000D01*
X226350000Y-136700000D02*
X227250000Y-137200000D01*
X227250000Y-136200000D02*
X226350000Y-136700000D01*
X227250000Y-137200000D02*
X227250000Y-136200000D01*
%TO.C,SW6*%
X154298808Y-101715883D02*
X155283616Y-101542235D01*
X154472457Y-102700691D02*
X154298808Y-101715883D01*
X155774818Y-110086749D02*
X155861642Y-110579153D01*
X156486776Y-114124461D02*
X156590964Y-114715345D01*
X156590964Y-114715345D02*
X161022599Y-113933929D01*
X156729883Y-115503192D02*
X156556235Y-114518384D01*
X157714691Y-115329543D02*
X156729883Y-115503192D01*
X160206453Y-109305332D02*
X155774818Y-110086749D01*
X160328007Y-109994698D02*
X160206453Y-109305332D01*
X161601827Y-114339508D02*
X161775475Y-115324316D01*
X162354703Y-115729896D02*
X161775475Y-115324316D01*
X164527710Y-110777316D02*
X162065691Y-111211437D01*
X165106938Y-111182896D02*
X164527710Y-110777316D01*
X165309127Y-115208951D02*
X162354703Y-115729896D01*
X165714706Y-114629723D02*
X165309127Y-115208951D01*
X167101309Y-99458457D02*
X168086117Y-99284808D01*
X168086117Y-99284808D02*
X168259765Y-100269616D01*
X170343543Y-112087309D02*
X170517192Y-113072117D01*
X170517192Y-113072117D02*
X169532384Y-113245765D01*
X161022599Y-113933929D02*
G75*
G02*
X161601828Y-114339508I86824J-492405D01*
G01*
X162065691Y-111211437D02*
G75*
G02*
X160328006Y-109994698I-260472J1477213D01*
G01*
%TO.C,SW15*%
X229000000Y-103000000D02*
X230000000Y-103000000D01*
X229000000Y-104000000D02*
X229000000Y-103000000D01*
X229000000Y-111500000D02*
X229000000Y-112000000D01*
X229000000Y-115600000D02*
X229000000Y-116200000D01*
X229000000Y-116200000D02*
X233500000Y-116200000D01*
X229000000Y-117000000D02*
X229000000Y-116000000D01*
X230000000Y-117000000D02*
X229000000Y-117000000D01*
X233500000Y-111500000D02*
X229000000Y-111500000D01*
X233500000Y-112200000D02*
X233500000Y-111500000D01*
X234000000Y-116700000D02*
X234000000Y-117700000D01*
X234500000Y-118200000D02*
X234000000Y-117700000D01*
X237500000Y-113700000D02*
X235000000Y-113700000D01*
X237500000Y-118200000D02*
X234500000Y-118200000D01*
X238000000Y-114200000D02*
X237500000Y-113700000D01*
X238000000Y-117700000D02*
X237500000Y-118200000D01*
X242000000Y-103000000D02*
X243000000Y-103000000D01*
X243000000Y-103000000D02*
X243000000Y-104000000D01*
X243000000Y-116000000D02*
X243000000Y-117000000D01*
X243000000Y-117000000D02*
X242000000Y-117000000D01*
X233500000Y-116200000D02*
G75*
G02*
X234000000Y-116700000I-1J-500001D01*
G01*
X235000000Y-113700000D02*
G75*
G02*
X233500000Y-112200000I1J1500001D01*
G01*
%TO.C,D3*%
X155000000Y-74000000D02*
X155000000Y-73000000D01*
X155100000Y-73500000D02*
X156000000Y-74000000D01*
X156000000Y-73000000D02*
X155100000Y-73500000D01*
X156000000Y-74000000D02*
X156000000Y-73000000D01*
%TO.C,SW8*%
X193000000Y-76000000D02*
X194000000Y-76000000D01*
X193000000Y-77000000D02*
X193000000Y-76000000D01*
X193000000Y-84500000D02*
X193000000Y-85000000D01*
X193000000Y-88600000D02*
X193000000Y-89200000D01*
X193000000Y-89200000D02*
X197500000Y-89200000D01*
X193000000Y-90000000D02*
X193000000Y-89000000D01*
X194000000Y-90000000D02*
X193000000Y-90000000D01*
X197500000Y-84500000D02*
X193000000Y-84500000D01*
X197500000Y-85200000D02*
X197500000Y-84500000D01*
X198000000Y-89700000D02*
X198000000Y-90700000D01*
X198500000Y-91200000D02*
X198000000Y-90700000D01*
X201500000Y-86700000D02*
X199000000Y-86700000D01*
X201500000Y-91200000D02*
X198500000Y-91200000D01*
X202000000Y-87200000D02*
X201500000Y-86700000D01*
X202000000Y-90700000D02*
X201500000Y-91200000D01*
X206000000Y-76000000D02*
X207000000Y-76000000D01*
X207000000Y-76000000D02*
X207000000Y-77000000D01*
X207000000Y-89000000D02*
X207000000Y-90000000D01*
X207000000Y-90000000D02*
X206000000Y-90000000D01*
X197500000Y-89200000D02*
G75*
G02*
X198000000Y-89700000I-1J-500001D01*
G01*
X199000000Y-86700000D02*
G75*
G02*
X197500000Y-85200000I1J1500001D01*
G01*
%TO.C,D5*%
X155000000Y-79000000D02*
X155000000Y-78000000D01*
X155100000Y-78500000D02*
X156000000Y-79000000D01*
X156000000Y-78000000D02*
X155100000Y-78500000D01*
X156000000Y-79000000D02*
X156000000Y-78000000D01*
%TO.C,D6*%
X165475000Y-69000000D02*
X165475000Y-68000000D01*
X165575000Y-68500000D02*
X166475000Y-69000000D01*
X166475000Y-68000000D02*
X165575000Y-68500000D01*
X166475000Y-69000000D02*
X166475000Y-68000000D01*
%TO.C,D10*%
X165475000Y-79000000D02*
X165475000Y-78000000D01*
X165575000Y-78500000D02*
X166475000Y-79000000D01*
X166475000Y-78000000D02*
X165575000Y-78500000D01*
X166475000Y-79000000D02*
X166475000Y-78000000D01*
%TO.C,SW4*%
X211000000Y-66000000D02*
X212000000Y-66000000D01*
X211000000Y-67000000D02*
X211000000Y-66000000D01*
X211000000Y-74500000D02*
X211000000Y-75000000D01*
X211000000Y-78600000D02*
X211000000Y-79200000D01*
X211000000Y-79200000D02*
X215500000Y-79200000D01*
X211000000Y-80000000D02*
X211000000Y-79000000D01*
X212000000Y-80000000D02*
X211000000Y-80000000D01*
X215500000Y-74500000D02*
X211000000Y-74500000D01*
X215500000Y-75200000D02*
X215500000Y-74500000D01*
X216000000Y-79700000D02*
X216000000Y-80700000D01*
X216500000Y-81200000D02*
X216000000Y-80700000D01*
X219500000Y-76700000D02*
X217000000Y-76700000D01*
X219500000Y-81200000D02*
X216500000Y-81200000D01*
X220000000Y-77200000D02*
X219500000Y-76700000D01*
X220000000Y-80700000D02*
X219500000Y-81200000D01*
X224000000Y-66000000D02*
X225000000Y-66000000D01*
X225000000Y-66000000D02*
X225000000Y-67000000D01*
X225000000Y-79000000D02*
X225000000Y-80000000D01*
X225000000Y-80000000D02*
X224000000Y-80000000D01*
X215500000Y-79200000D02*
G75*
G02*
X216000000Y-79700000I-1J-500001D01*
G01*
X217000000Y-76700000D02*
G75*
G02*
X215500000Y-75200000I1J1500001D01*
G01*
%TO.C,SW10*%
X229000000Y-86000000D02*
X230000000Y-86000000D01*
X229000000Y-87000000D02*
X229000000Y-86000000D01*
X229000000Y-94500000D02*
X229000000Y-95000000D01*
X229000000Y-98600000D02*
X229000000Y-99200000D01*
X229000000Y-99200000D02*
X233500000Y-99200000D01*
X229000000Y-100000000D02*
X229000000Y-99000000D01*
X230000000Y-100000000D02*
X229000000Y-100000000D01*
X233500000Y-94500000D02*
X229000000Y-94500000D01*
X233500000Y-95200000D02*
X233500000Y-94500000D01*
X234000000Y-99700000D02*
X234000000Y-100700000D01*
X234500000Y-101200000D02*
X234000000Y-100700000D01*
X237500000Y-96700000D02*
X235000000Y-96700000D01*
X237500000Y-101200000D02*
X234500000Y-101200000D01*
X238000000Y-97200000D02*
X237500000Y-96700000D01*
X238000000Y-100700000D02*
X237500000Y-101200000D01*
X242000000Y-86000000D02*
X243000000Y-86000000D01*
X243000000Y-86000000D02*
X243000000Y-87000000D01*
X243000000Y-99000000D02*
X243000000Y-100000000D01*
X243000000Y-100000000D02*
X242000000Y-100000000D01*
X233500000Y-99200000D02*
G75*
G02*
X234000000Y-99700000I-1J-500001D01*
G01*
X235000000Y-96700000D02*
G75*
G02*
X233500000Y-95200000I1J1500001D01*
G01*
%TO.C,D15*%
X204000000Y-113500000D02*
X204500000Y-114400000D01*
X204500000Y-114400000D02*
X205000000Y-113500000D01*
X205000000Y-113500000D02*
X204000000Y-113500000D01*
X205000000Y-114500000D02*
X204000000Y-114500000D01*
%TO.C,D2*%
X155000000Y-71500000D02*
X155000000Y-70500000D01*
X155100000Y-71000000D02*
X156000000Y-71500000D01*
X156000000Y-70500000D02*
X155100000Y-71000000D01*
X156000000Y-71500000D02*
X156000000Y-70500000D01*
%TO.C,D11*%
X195000000Y-113500000D02*
X195500000Y-114400000D01*
X195500000Y-114400000D02*
X196000000Y-113500000D01*
X196000000Y-113500000D02*
X195000000Y-113500000D01*
X196000000Y-114500000D02*
X195000000Y-114500000D01*
D12*
%TO.C,J1*%
X248500000Y-86500000D02*
G75*
G02*
X246500000Y-86500000I-1000000J0D01*
G01*
X246500000Y-86500000D02*
G75*
G02*
X248500000Y-86500000I1000000J0D01*
G01*
X248500000Y-88500000D02*
G75*
G02*
X246500000Y-88500000I-1000000J0D01*
G01*
X246500000Y-88500000D02*
G75*
G02*
X248500000Y-88500000I1000000J0D01*
G01*
X248500000Y-90500000D02*
G75*
G02*
X246500000Y-90500000I-1000000J0D01*
G01*
X246500000Y-90500000D02*
G75*
G02*
X248500000Y-90500000I1000000J0D01*
G01*
X248500000Y-92500000D02*
G75*
G02*
X246500000Y-92500000I-1000000J0D01*
G01*
X246500000Y-92500000D02*
G75*
G02*
X248500000Y-92500000I1000000J0D01*
G01*
X248750000Y-86750000D02*
G75*
G02*
X246750000Y-86750000I-1000000J0D01*
G01*
X246750000Y-86750000D02*
G75*
G02*
X248750000Y-86750000I1000000J0D01*
G01*
X248750000Y-88750000D02*
G75*
G02*
X246750000Y-88750000I-1000000J0D01*
G01*
X246750000Y-88750000D02*
G75*
G02*
X248750000Y-88750000I1000000J0D01*
G01*
X248750000Y-90750000D02*
G75*
G02*
X246750000Y-90750000I-1000000J0D01*
G01*
X246750000Y-90750000D02*
G75*
G02*
X248750000Y-90750000I1000000J0D01*
G01*
X248750000Y-92750000D02*
G75*
G02*
X246750000Y-92750000I-1000000J0D01*
G01*
X246750000Y-92750000D02*
G75*
G02*
X248750000Y-92750000I1000000J0D01*
G01*
D11*
%TO.C,D18*%
X236000000Y-139800000D02*
X236000000Y-138800000D01*
X236100000Y-139300000D02*
X237000000Y-139800000D01*
X237000000Y-138800000D02*
X236100000Y-139300000D01*
X237000000Y-139800000D02*
X237000000Y-138800000D01*
%TO.C,SW3*%
X193000000Y-59000000D02*
X194000000Y-59000000D01*
X193000000Y-60000000D02*
X193000000Y-59000000D01*
X193000000Y-67500000D02*
X193000000Y-68000000D01*
X193000000Y-71600000D02*
X193000000Y-72200000D01*
X193000000Y-72200000D02*
X197500000Y-72200000D01*
X193000000Y-73000000D02*
X193000000Y-72000000D01*
X194000000Y-73000000D02*
X193000000Y-73000000D01*
X197500000Y-67500000D02*
X193000000Y-67500000D01*
X197500000Y-68200000D02*
X197500000Y-67500000D01*
X198000000Y-72700000D02*
X198000000Y-73700000D01*
X198500000Y-74200000D02*
X198000000Y-73700000D01*
X201500000Y-69700000D02*
X199000000Y-69700000D01*
X201500000Y-74200000D02*
X198500000Y-74200000D01*
X202000000Y-70200000D02*
X201500000Y-69700000D01*
X202000000Y-73700000D02*
X201500000Y-74200000D01*
X206000000Y-59000000D02*
X207000000Y-59000000D01*
X207000000Y-59000000D02*
X207000000Y-60000000D01*
X207000000Y-72000000D02*
X207000000Y-73000000D01*
X207000000Y-73000000D02*
X206000000Y-73000000D01*
X197500000Y-72200000D02*
G75*
G02*
X198000000Y-72700000I-1J-500001D01*
G01*
X199000000Y-69700000D02*
G75*
G02*
X197500000Y-68200000I1J1500001D01*
G01*
%TO.C,D14*%
X201750000Y-113500000D02*
X202250000Y-114400000D01*
X202250000Y-114400000D02*
X202750000Y-113500000D01*
X202750000Y-113500000D02*
X201750000Y-113500000D01*
X202750000Y-114500000D02*
X201750000Y-114500000D01*
%TO.C,D13*%
X199500000Y-113500000D02*
X200000000Y-114400000D01*
X200000000Y-114400000D02*
X200500000Y-113500000D01*
X200500000Y-113500000D02*
X199500000Y-113500000D01*
X200500000Y-114500000D02*
X199500000Y-114500000D01*
%TO.C,SW17*%
X226186242Y-134183055D02*
X226238582Y-133184426D01*
X226228110Y-133384151D02*
X230721943Y-133619663D01*
X226259512Y-132784974D02*
X226228110Y-133384151D01*
X226474089Y-128690593D02*
X226447921Y-129189907D01*
X226866609Y-121200871D02*
X226918945Y-120202242D01*
X226918945Y-120202242D02*
X227917574Y-120254582D01*
X227184871Y-134235391D02*
X226186242Y-134183055D01*
X230931287Y-129625145D02*
X230967922Y-128926104D01*
X230967922Y-128926104D02*
X226474089Y-128690593D01*
X231195090Y-134145146D02*
X231142754Y-135143776D01*
X231615901Y-135669258D02*
X231142754Y-135143776D01*
X234611789Y-135826266D02*
X231615901Y-135669258D01*
X234847301Y-131332433D02*
X232350727Y-131201593D01*
X235137272Y-135353119D02*
X234611789Y-135826266D01*
X235320448Y-131857916D02*
X234847301Y-131332433D01*
X239901129Y-120882609D02*
X240899758Y-120934945D01*
X240167055Y-134915758D02*
X239168426Y-134863418D01*
X240219391Y-133917129D02*
X240167055Y-134915758D01*
X240899758Y-120934945D02*
X240847418Y-121933574D01*
X230721943Y-133619663D02*
G75*
G02*
X231195090Y-134145146I-26169J-499316D01*
G01*
X232350727Y-131201593D02*
G75*
G02*
X230931287Y-129625145I78505J1497945D01*
G01*
%TO.C,SW14*%
X211000000Y-100000000D02*
X212000000Y-100000000D01*
X211000000Y-101000000D02*
X211000000Y-100000000D01*
X211000000Y-108500000D02*
X211000000Y-109000000D01*
X211000000Y-112600000D02*
X211000000Y-113200000D01*
X211000000Y-113200000D02*
X215500000Y-113200000D01*
X211000000Y-114000000D02*
X211000000Y-113000000D01*
X212000000Y-114000000D02*
X211000000Y-114000000D01*
X215500000Y-108500000D02*
X211000000Y-108500000D01*
X215500000Y-109200000D02*
X215500000Y-108500000D01*
X216000000Y-113700000D02*
X216000000Y-114700000D01*
X216500000Y-115200000D02*
X216000000Y-114700000D01*
X219500000Y-110700000D02*
X217000000Y-110700000D01*
X219500000Y-115200000D02*
X216500000Y-115200000D01*
X220000000Y-111200000D02*
X219500000Y-110700000D01*
X220000000Y-114700000D02*
X219500000Y-115200000D01*
X224000000Y-100000000D02*
X225000000Y-100000000D01*
X225000000Y-100000000D02*
X225000000Y-101000000D01*
X225000000Y-113000000D02*
X225000000Y-114000000D01*
X225000000Y-114000000D02*
X224000000Y-114000000D01*
X215500000Y-113200000D02*
G75*
G02*
X216000000Y-113700000I-1J-500001D01*
G01*
X217000000Y-110700000D02*
G75*
G02*
X215500000Y-109200000I1J1500001D01*
G01*
%TO.C,U1*%
X190650000Y-121730000D02*
X221130000Y-121730000D01*
X190650000Y-124270000D02*
X190650000Y-121730000D01*
X190650000Y-136970000D02*
X221130000Y-136970000D01*
X190650000Y-139510000D02*
X190650000Y-136970000D01*
X221130000Y-121730000D02*
X221130000Y-124270000D01*
X221130000Y-124270000D02*
X190650000Y-124270000D01*
X221130000Y-136970000D02*
X221130000Y-139510000D01*
X221130000Y-139510000D02*
X190650000Y-139510000D01*
D10*
%TO.C,BT2*%
X176450000Y-122350000D02*
X176450000Y-121350000D01*
X176450000Y-123950000D02*
X176450000Y-124950000D01*
X176950000Y-124450000D02*
X175950000Y-124450000D01*
D11*
%TO.C,D12*%
X197250000Y-113500000D02*
X197750000Y-114400000D01*
X197750000Y-114400000D02*
X198250000Y-113500000D01*
X198250000Y-113500000D02*
X197250000Y-113500000D01*
X198250000Y-114500000D02*
X197250000Y-114500000D01*
%TO.C,RSW1*%
X245750000Y-68000000D02*
X246000000Y-68000000D01*
X245750000Y-74000000D02*
X245750000Y-68000000D01*
X246000000Y-74000000D02*
X245750000Y-74000000D01*
X249000000Y-68000000D02*
X249250000Y-68000000D01*
X249250000Y-68000000D02*
X249250000Y-74000000D01*
X249250000Y-74000000D02*
X249000000Y-74000000D01*
%TO.C,SW1*%
X151346808Y-84973883D02*
X152331616Y-84800235D01*
X151520457Y-85958691D02*
X151346808Y-84973883D01*
X152822818Y-93344749D02*
X152909642Y-93837153D01*
X153534776Y-97382461D02*
X153638964Y-97973345D01*
X153638964Y-97973345D02*
X158070599Y-97191929D01*
X153777883Y-98761192D02*
X153604235Y-97776384D01*
X154762691Y-98587543D02*
X153777883Y-98761192D01*
X157254453Y-92563332D02*
X152822818Y-93344749D01*
X157376007Y-93252698D02*
X157254453Y-92563332D01*
X158649827Y-97597508D02*
X158823475Y-98582316D01*
X159402703Y-98987896D02*
X158823475Y-98582316D01*
X161575710Y-94035316D02*
X159113691Y-94469437D01*
X162154938Y-94440896D02*
X161575710Y-94035316D01*
X162357127Y-98466951D02*
X159402703Y-98987896D01*
X162762706Y-97887723D02*
X162357127Y-98466951D01*
X164149309Y-82716457D02*
X165134117Y-82542808D01*
X165134117Y-82542808D02*
X165307765Y-83527616D01*
X167391543Y-95345309D02*
X167565192Y-96330117D01*
X167565192Y-96330117D02*
X166580384Y-96503765D01*
X158070599Y-97191929D02*
G75*
G02*
X158649828Y-97597508I86824J-492405D01*
G01*
X159113691Y-94469437D02*
G75*
G02*
X157376006Y-93252698I-260472J1477213D01*
G01*
%TO.C,D7*%
X165475000Y-71500000D02*
X165475000Y-70500000D01*
X165575000Y-71000000D02*
X166475000Y-71500000D01*
X166475000Y-70500000D02*
X165575000Y-71000000D01*
X166475000Y-71500000D02*
X166475000Y-70500000D01*
%TO.C,D8*%
X165475000Y-74000000D02*
X165475000Y-73000000D01*
X165575000Y-73500000D02*
X166475000Y-74000000D01*
X166475000Y-73000000D02*
X165575000Y-73500000D01*
X166475000Y-74000000D02*
X166475000Y-73000000D01*
%TO.C,SW13*%
X193000000Y-93000000D02*
X194000000Y-93000000D01*
X193000000Y-94000000D02*
X193000000Y-93000000D01*
X193000000Y-101500000D02*
X193000000Y-102000000D01*
X193000000Y-105600000D02*
X193000000Y-106200000D01*
X193000000Y-106200000D02*
X197500000Y-106200000D01*
X193000000Y-107000000D02*
X193000000Y-106000000D01*
X194000000Y-107000000D02*
X193000000Y-107000000D01*
X197500000Y-101500000D02*
X193000000Y-101500000D01*
X197500000Y-102200000D02*
X197500000Y-101500000D01*
X198000000Y-106700000D02*
X198000000Y-107700000D01*
X198500000Y-108200000D02*
X198000000Y-107700000D01*
X201500000Y-103700000D02*
X199000000Y-103700000D01*
X201500000Y-108200000D02*
X198500000Y-108200000D01*
X202000000Y-104200000D02*
X201500000Y-103700000D01*
X202000000Y-107700000D02*
X201500000Y-108200000D01*
X206000000Y-93000000D02*
X207000000Y-93000000D01*
X207000000Y-93000000D02*
X207000000Y-94000000D01*
X207000000Y-106000000D02*
X207000000Y-107000000D01*
X207000000Y-107000000D02*
X206000000Y-107000000D01*
X197500000Y-106200000D02*
G75*
G02*
X198000000Y-106700000I-1J-500001D01*
G01*
X199000000Y-103700000D02*
G75*
G02*
X197500000Y-102200000I1J1500001D01*
G01*
%TD*%
M02*
